%TF.GenerationSoftware,KiCad,Pcbnew,9.0.7*%
%TF.CreationDate,2026-03-10T17:34:24+01:00*%
%TF.ProjectId,talcitka_deska,74616c63-6974-46b6-915f-6465736b612e,rev?*%
%TF.SameCoordinates,Original*%
%TF.FileFunction,Copper,L1,Top*%
%TF.FilePolarity,Positive*%
%FSLAX46Y46*%
G04 Gerber Fmt 4.6, Leading zero omitted, Abs format (unit mm)*
G04 Created by KiCad (PCBNEW 9.0.7) date 2026-03-10 17:34:24*
%MOMM*%
%LPD*%
G01*
G04 APERTURE LIST*
G04 Aperture macros list*
%AMRoundRect*
0 Rectangle with rounded corners*
0 $1 Rounding radius*
0 $2 $3 $4 $5 $6 $7 $8 $9 X,Y pos of 4 corners*
0 Add a 4 corners polygon primitive as box body*
4,1,4,$2,$3,$4,$5,$6,$7,$8,$9,$2,$3,0*
0 Add four circle primitives for the rounded corners*
1,1,$1+$1,$2,$3*
1,1,$1+$1,$4,$5*
1,1,$1+$1,$6,$7*
1,1,$1+$1,$8,$9*
0 Add four rect primitives between the rounded corners*
20,1,$1+$1,$2,$3,$4,$5,0*
20,1,$1+$1,$4,$5,$6,$7,0*
20,1,$1+$1,$6,$7,$8,$9,0*
20,1,$1+$1,$8,$9,$2,$3,0*%
G04 Aperture macros list end*
%TA.AperFunction,SMDPad,CuDef*%
%ADD10RoundRect,0.105000X-0.395000X0.245000X-0.395000X-0.245000X0.395000X-0.245000X0.395000X0.245000X0*%
%TD*%
%TA.AperFunction,ComponentPad*%
%ADD11C,1.200000*%
%TD*%
%TA.AperFunction,SMDPad,CuDef*%
%ADD12RoundRect,0.187500X-0.562500X0.187500X-0.562500X-0.187500X0.562500X-0.187500X0.562500X0.187500X0*%
%TD*%
%TA.AperFunction,Conductor*%
%ADD13C,0.700000*%
%TD*%
G04 APERTURE END LIST*
D10*
%TO.P,EOS550D_SHUTT_BUTT,1*%
%TO.N,N/C*%
X168900000Y-90000000D03*
%TO.P,EOS550D_SHUTT_BUTT,2*%
X164900000Y-90000000D03*
%TO.P,EOS550D_SHUTT_BUTT,3*%
%TO.N,GND*%
X164900000Y-96000000D03*
%TO.P,EOS550D_SHUTT_BUTT,4*%
X168900000Y-96000000D03*
%TO.P,EOS550D_SHUTT_BUTT,SH*%
X170400000Y-96000000D03*
%TD*%
D11*
%TO.P,REF\u002A\u002A,1*%
%TO.N,GND*%
X170400000Y-88600000D03*
%TD*%
D12*
%TO.P,GND,1*%
%TO.N,GND*%
X158750000Y-95500000D03*
%TD*%
%TO.P,FULL_PRESS,2*%
%TO.N,N/C*%
X158750000Y-92750000D03*
%TD*%
%TO.P,HALF_PRESS,3*%
%TO.N,N/C*%
X158750000Y-90000000D03*
%TD*%
D11*
%TO.P,,1*%
%TO.N,GND*%
X162400000Y-96000000D03*
%TD*%
D13*
%TO.N,*%
X168900000Y-90000000D02*
X166150000Y-92750000D01*
X158750000Y-90000000D02*
X164900000Y-90000000D01*
X166150000Y-92750000D02*
X158750000Y-92750000D01*
%TD*%
%TA.AperFunction,Conductor*%
%TO.N,GND*%
G36*
X170996132Y-88303868D02*
G01*
X170999500Y-88312000D01*
X170999500Y-96288000D01*
X170996132Y-96296132D01*
X170988000Y-96299500D01*
X157462000Y-96299500D01*
X157453868Y-96296132D01*
X157450500Y-96288000D01*
X157450500Y-92523960D01*
X157599500Y-92523960D01*
X157599500Y-92976040D01*
X157614635Y-93090999D01*
X157673883Y-93234037D01*
X157768133Y-93356867D01*
X157890963Y-93451117D01*
X158034001Y-93510365D01*
X158148960Y-93525500D01*
X158148964Y-93525500D01*
X159351036Y-93525500D01*
X159351040Y-93525500D01*
X159465999Y-93510365D01*
X159487703Y-93501375D01*
X159492104Y-93500500D01*
X166223916Y-93500500D01*
X166223917Y-93500500D01*
X166223918Y-93500500D01*
X166368913Y-93471658D01*
X166505495Y-93415084D01*
X166554729Y-93382186D01*
X166628416Y-93332952D01*
X169207499Y-90753866D01*
X169215631Y-90750499D01*
X169343349Y-90750499D01*
X169363417Y-90748341D01*
X169403557Y-90744027D01*
X169539751Y-90693229D01*
X169656118Y-90606118D01*
X169743229Y-90489751D01*
X169794027Y-90353557D01*
X169800500Y-90293349D01*
X169800499Y-89706652D01*
X169794027Y-89646443D01*
X169743229Y-89510249D01*
X169656118Y-89393882D01*
X169539751Y-89306771D01*
X169458734Y-89276553D01*
X169403555Y-89255972D01*
X169343350Y-89249500D01*
X169343349Y-89249500D01*
X168973919Y-89249500D01*
X168973917Y-89249500D01*
X168826082Y-89249500D01*
X168826079Y-89249500D01*
X168456651Y-89249500D01*
X168396444Y-89255972D01*
X168396443Y-89255973D01*
X168260249Y-89306771D01*
X168260246Y-89306773D01*
X168143884Y-89393880D01*
X168143880Y-89393884D01*
X168056773Y-89510246D01*
X168056771Y-89510249D01*
X168005972Y-89646444D01*
X167999500Y-89706650D01*
X167999500Y-89834368D01*
X167996132Y-89842500D01*
X165842500Y-91996132D01*
X165834368Y-91999500D01*
X159492104Y-91999500D01*
X159487703Y-91998625D01*
X159465999Y-91989635D01*
X159466001Y-91989635D01*
X159351041Y-91974500D01*
X159351040Y-91974500D01*
X158148960Y-91974500D01*
X158148958Y-91974500D01*
X158034001Y-91989635D01*
X157890963Y-92048883D01*
X157768133Y-92143133D01*
X157673883Y-92265963D01*
X157614635Y-92409001D01*
X157599500Y-92523960D01*
X157450500Y-92523960D01*
X157450500Y-89773960D01*
X157599500Y-89773960D01*
X157599500Y-90226040D01*
X157614635Y-90340999D01*
X157673883Y-90484037D01*
X157768133Y-90606867D01*
X157890963Y-90701117D01*
X158034001Y-90760365D01*
X158148960Y-90775500D01*
X158148964Y-90775500D01*
X159351036Y-90775500D01*
X159351040Y-90775500D01*
X159465999Y-90760365D01*
X159487703Y-90751375D01*
X159492104Y-90750500D01*
X164975253Y-90750500D01*
X164975261Y-90750499D01*
X165343349Y-90750499D01*
X165363417Y-90748341D01*
X165403557Y-90744027D01*
X165539751Y-90693229D01*
X165656118Y-90606118D01*
X165743229Y-90489751D01*
X165794027Y-90353557D01*
X165800500Y-90293349D01*
X165800499Y-89706652D01*
X165794027Y-89646443D01*
X165743229Y-89510249D01*
X165656118Y-89393882D01*
X165539751Y-89306771D01*
X165458734Y-89276553D01*
X165403555Y-89255972D01*
X165343350Y-89249500D01*
X165343349Y-89249500D01*
X164973920Y-89249500D01*
X164973918Y-89249500D01*
X159492104Y-89249500D01*
X159487703Y-89248625D01*
X159465999Y-89239635D01*
X159466001Y-89239635D01*
X159351041Y-89224500D01*
X159351040Y-89224500D01*
X158148960Y-89224500D01*
X158148958Y-89224500D01*
X158034001Y-89239635D01*
X157890963Y-89298883D01*
X157768133Y-89393133D01*
X157673883Y-89515963D01*
X157614635Y-89659001D01*
X157608362Y-89706651D01*
X157599500Y-89773960D01*
X157450500Y-89773960D01*
X157450500Y-88312000D01*
X157453868Y-88303868D01*
X157462000Y-88300500D01*
X170988000Y-88300500D01*
X170996132Y-88303868D01*
G37*
%TD.AperFunction*%
%TD*%
M02*
