%TF.GenerationSoftware,KiCad,Pcbnew,9.0.6*%
%TF.CreationDate,2026-02-13T20:59:32+01:00*%
%TF.ProjectId,fotaopar_t,666f7461-6f70-4617-92e1-742e6b696361,rev?*%
%TF.SameCoordinates,Original*%
%TF.FileFunction,Legend,Bot*%
%TF.FilePolarity,Positive*%
%FSLAX46Y46*%
G04 Gerber Fmt 4.6, Leading zero omitted, Abs format (unit mm)*
G04 Created by KiCad (PCBNEW 9.0.6) date 2026-02-13 20:59:32*
%MOMM*%
%LPD*%
G01*
G04 APERTURE LIST*
%ADD10C,0.150000*%
%ADD11C,0.300000*%
%ADD12C,0.120000*%
%ADD13C,0.000000*%
G04 APERTURE END LIST*
D10*
X144310156Y-127787798D02*
X144310156Y-128502083D01*
X144310156Y-128502083D02*
X144357775Y-128644940D01*
X144357775Y-128644940D02*
X144453013Y-128740179D01*
X144453013Y-128740179D02*
X144595870Y-128787798D01*
X144595870Y-128787798D02*
X144691108Y-128787798D01*
X143310156Y-128787798D02*
X143881584Y-128787798D01*
X143595870Y-128787798D02*
X143595870Y-127787798D01*
X143595870Y-127787798D02*
X143691108Y-127930655D01*
X143691108Y-127930655D02*
X143786346Y-128025893D01*
X143786346Y-128025893D02*
X143881584Y-128073512D01*
X113907080Y-115930833D02*
X113954700Y-115883214D01*
X113954700Y-115883214D02*
X114002319Y-115740357D01*
X114002319Y-115740357D02*
X114002319Y-115645119D01*
X114002319Y-115645119D02*
X113954700Y-115502262D01*
X113954700Y-115502262D02*
X113859461Y-115407024D01*
X113859461Y-115407024D02*
X113764223Y-115359405D01*
X113764223Y-115359405D02*
X113573747Y-115311786D01*
X113573747Y-115311786D02*
X113430890Y-115311786D01*
X113430890Y-115311786D02*
X113240414Y-115359405D01*
X113240414Y-115359405D02*
X113145176Y-115407024D01*
X113145176Y-115407024D02*
X113049938Y-115502262D01*
X113049938Y-115502262D02*
X113002319Y-115645119D01*
X113002319Y-115645119D02*
X113002319Y-115740357D01*
X113002319Y-115740357D02*
X113049938Y-115883214D01*
X113049938Y-115883214D02*
X113097557Y-115930833D01*
X113097557Y-116311786D02*
X113049938Y-116359405D01*
X113049938Y-116359405D02*
X113002319Y-116454643D01*
X113002319Y-116454643D02*
X113002319Y-116692738D01*
X113002319Y-116692738D02*
X113049938Y-116787976D01*
X113049938Y-116787976D02*
X113097557Y-116835595D01*
X113097557Y-116835595D02*
X113192795Y-116883214D01*
X113192795Y-116883214D02*
X113288033Y-116883214D01*
X113288033Y-116883214D02*
X113430890Y-116835595D01*
X113430890Y-116835595D02*
X114002319Y-116264167D01*
X114002319Y-116264167D02*
X114002319Y-116883214D01*
X142119680Y-101567559D02*
X142167299Y-101615179D01*
X142167299Y-101615179D02*
X142310156Y-101662798D01*
X142310156Y-101662798D02*
X142405394Y-101662798D01*
X142405394Y-101662798D02*
X142548251Y-101615179D01*
X142548251Y-101615179D02*
X142643489Y-101519940D01*
X142643489Y-101519940D02*
X142691108Y-101424702D01*
X142691108Y-101424702D02*
X142738727Y-101234226D01*
X142738727Y-101234226D02*
X142738727Y-101091369D01*
X142738727Y-101091369D02*
X142691108Y-100900893D01*
X142691108Y-100900893D02*
X142643489Y-100805655D01*
X142643489Y-100805655D02*
X142548251Y-100710417D01*
X142548251Y-100710417D02*
X142405394Y-100662798D01*
X142405394Y-100662798D02*
X142310156Y-100662798D01*
X142310156Y-100662798D02*
X142167299Y-100710417D01*
X142167299Y-100710417D02*
X142119680Y-100758036D01*
X141786346Y-100662798D02*
X141167299Y-100662798D01*
X141167299Y-100662798D02*
X141500632Y-101043750D01*
X141500632Y-101043750D02*
X141357775Y-101043750D01*
X141357775Y-101043750D02*
X141262537Y-101091369D01*
X141262537Y-101091369D02*
X141214918Y-101138988D01*
X141214918Y-101138988D02*
X141167299Y-101234226D01*
X141167299Y-101234226D02*
X141167299Y-101472321D01*
X141167299Y-101472321D02*
X141214918Y-101567559D01*
X141214918Y-101567559D02*
X141262537Y-101615179D01*
X141262537Y-101615179D02*
X141357775Y-101662798D01*
X141357775Y-101662798D02*
X141643489Y-101662798D01*
X141643489Y-101662798D02*
X141738727Y-101615179D01*
X141738727Y-101615179D02*
X141786346Y-101567559D01*
X140214918Y-101662798D02*
X140786346Y-101662798D01*
X140500632Y-101662798D02*
X140500632Y-100662798D01*
X140500632Y-100662798D02*
X140595870Y-100805655D01*
X140595870Y-100805655D02*
X140691108Y-100900893D01*
X140691108Y-100900893D02*
X140786346Y-100948512D01*
X99181642Y-123112740D02*
X99181642Y-122636550D01*
X99181642Y-122636550D02*
X98181642Y-122636550D01*
X98657832Y-123446074D02*
X98657832Y-123779407D01*
X99181642Y-123922264D02*
X99181642Y-123446074D01*
X99181642Y-123446074D02*
X98181642Y-123446074D01*
X98181642Y-123446074D02*
X98181642Y-123922264D01*
X99181642Y-124350836D02*
X98181642Y-124350836D01*
X98181642Y-124350836D02*
X99181642Y-124922264D01*
X99181642Y-124922264D02*
X98181642Y-124922264D01*
X99134023Y-125350836D02*
X99181642Y-125493693D01*
X99181642Y-125493693D02*
X99181642Y-125731788D01*
X99181642Y-125731788D02*
X99134023Y-125827026D01*
X99134023Y-125827026D02*
X99086403Y-125874645D01*
X99086403Y-125874645D02*
X98991165Y-125922264D01*
X98991165Y-125922264D02*
X98895927Y-125922264D01*
X98895927Y-125922264D02*
X98800689Y-125874645D01*
X98800689Y-125874645D02*
X98753070Y-125827026D01*
X98753070Y-125827026D02*
X98705451Y-125731788D01*
X98705451Y-125731788D02*
X98657832Y-125541312D01*
X98657832Y-125541312D02*
X98610213Y-125446074D01*
X98610213Y-125446074D02*
X98562594Y-125398455D01*
X98562594Y-125398455D02*
X98467356Y-125350836D01*
X98467356Y-125350836D02*
X98372118Y-125350836D01*
X98372118Y-125350836D02*
X98276880Y-125398455D01*
X98276880Y-125398455D02*
X98229261Y-125446074D01*
X98229261Y-125446074D02*
X98181642Y-125541312D01*
X98181642Y-125541312D02*
X98181642Y-125779407D01*
X98181642Y-125779407D02*
X98229261Y-125922264D01*
X99276880Y-126112741D02*
X99276880Y-126874645D01*
X99181642Y-127112741D02*
X98181642Y-127112741D01*
X98181642Y-127112741D02*
X98181642Y-127493693D01*
X98181642Y-127493693D02*
X98229261Y-127588931D01*
X98229261Y-127588931D02*
X98276880Y-127636550D01*
X98276880Y-127636550D02*
X98372118Y-127684169D01*
X98372118Y-127684169D02*
X98514975Y-127684169D01*
X98514975Y-127684169D02*
X98610213Y-127636550D01*
X98610213Y-127636550D02*
X98657832Y-127588931D01*
X98657832Y-127588931D02*
X98705451Y-127493693D01*
X98705451Y-127493693D02*
X98705451Y-127112741D01*
X98181642Y-128303217D02*
X98181642Y-128493693D01*
X98181642Y-128493693D02*
X98229261Y-128588931D01*
X98229261Y-128588931D02*
X98324499Y-128684169D01*
X98324499Y-128684169D02*
X98514975Y-128731788D01*
X98514975Y-128731788D02*
X98848308Y-128731788D01*
X98848308Y-128731788D02*
X99038784Y-128684169D01*
X99038784Y-128684169D02*
X99134023Y-128588931D01*
X99134023Y-128588931D02*
X99181642Y-128493693D01*
X99181642Y-128493693D02*
X99181642Y-128303217D01*
X99181642Y-128303217D02*
X99134023Y-128207979D01*
X99134023Y-128207979D02*
X99038784Y-128112741D01*
X99038784Y-128112741D02*
X98848308Y-128065122D01*
X98848308Y-128065122D02*
X98514975Y-128065122D01*
X98514975Y-128065122D02*
X98324499Y-128112741D01*
X98324499Y-128112741D02*
X98229261Y-128207979D01*
X98229261Y-128207979D02*
X98181642Y-128303217D01*
X98181642Y-129065122D02*
X99181642Y-129303217D01*
X99181642Y-129303217D02*
X98467356Y-129493693D01*
X98467356Y-129493693D02*
X99181642Y-129684169D01*
X99181642Y-129684169D02*
X98181642Y-129922265D01*
X99181642Y-130827026D02*
X99181642Y-130255598D01*
X99181642Y-130541312D02*
X98181642Y-130541312D01*
X98181642Y-130541312D02*
X98324499Y-130446074D01*
X98324499Y-130446074D02*
X98419737Y-130350836D01*
X98419737Y-130350836D02*
X98467356Y-130255598D01*
X125836403Y-132541312D02*
X125884023Y-132493693D01*
X125884023Y-132493693D02*
X125931642Y-132350836D01*
X125931642Y-132350836D02*
X125931642Y-132255598D01*
X125931642Y-132255598D02*
X125884023Y-132112741D01*
X125884023Y-132112741D02*
X125788784Y-132017503D01*
X125788784Y-132017503D02*
X125693546Y-131969884D01*
X125693546Y-131969884D02*
X125503070Y-131922265D01*
X125503070Y-131922265D02*
X125360213Y-131922265D01*
X125360213Y-131922265D02*
X125169737Y-131969884D01*
X125169737Y-131969884D02*
X125074499Y-132017503D01*
X125074499Y-132017503D02*
X124979261Y-132112741D01*
X124979261Y-132112741D02*
X124931642Y-132255598D01*
X124931642Y-132255598D02*
X124931642Y-132350836D01*
X124931642Y-132350836D02*
X124979261Y-132493693D01*
X124979261Y-132493693D02*
X125026880Y-132541312D01*
X125931642Y-133017503D02*
X125931642Y-133207979D01*
X125931642Y-133207979D02*
X125884023Y-133303217D01*
X125884023Y-133303217D02*
X125836403Y-133350836D01*
X125836403Y-133350836D02*
X125693546Y-133446074D01*
X125693546Y-133446074D02*
X125503070Y-133493693D01*
X125503070Y-133493693D02*
X125122118Y-133493693D01*
X125122118Y-133493693D02*
X125026880Y-133446074D01*
X125026880Y-133446074D02*
X124979261Y-133398455D01*
X124979261Y-133398455D02*
X124931642Y-133303217D01*
X124931642Y-133303217D02*
X124931642Y-133112741D01*
X124931642Y-133112741D02*
X124979261Y-133017503D01*
X124979261Y-133017503D02*
X125026880Y-132969884D01*
X125026880Y-132969884D02*
X125122118Y-132922265D01*
X125122118Y-132922265D02*
X125360213Y-132922265D01*
X125360213Y-132922265D02*
X125455451Y-132969884D01*
X125455451Y-132969884D02*
X125503070Y-133017503D01*
X125503070Y-133017503D02*
X125550689Y-133112741D01*
X125550689Y-133112741D02*
X125550689Y-133303217D01*
X125550689Y-133303217D02*
X125503070Y-133398455D01*
X125503070Y-133398455D02*
X125455451Y-133446074D01*
X125455451Y-133446074D02*
X125360213Y-133493693D01*
X142619680Y-100067559D02*
X142667299Y-100115179D01*
X142667299Y-100115179D02*
X142810156Y-100162798D01*
X142810156Y-100162798D02*
X142905394Y-100162798D01*
X142905394Y-100162798D02*
X143048251Y-100115179D01*
X143048251Y-100115179D02*
X143143489Y-100019940D01*
X143143489Y-100019940D02*
X143191108Y-99924702D01*
X143191108Y-99924702D02*
X143238727Y-99734226D01*
X143238727Y-99734226D02*
X143238727Y-99591369D01*
X143238727Y-99591369D02*
X143191108Y-99400893D01*
X143191108Y-99400893D02*
X143143489Y-99305655D01*
X143143489Y-99305655D02*
X143048251Y-99210417D01*
X143048251Y-99210417D02*
X142905394Y-99162798D01*
X142905394Y-99162798D02*
X142810156Y-99162798D01*
X142810156Y-99162798D02*
X142667299Y-99210417D01*
X142667299Y-99210417D02*
X142619680Y-99258036D01*
X141667299Y-100162798D02*
X142238727Y-100162798D01*
X141953013Y-100162798D02*
X141953013Y-99162798D01*
X141953013Y-99162798D02*
X142048251Y-99305655D01*
X142048251Y-99305655D02*
X142143489Y-99400893D01*
X142143489Y-99400893D02*
X142238727Y-99448512D01*
X141333965Y-99162798D02*
X140667299Y-99162798D01*
X140667299Y-99162798D02*
X141095870Y-100162798D01*
X169643489Y-106567559D02*
X169691108Y-106615179D01*
X169691108Y-106615179D02*
X169833965Y-106662798D01*
X169833965Y-106662798D02*
X169929203Y-106662798D01*
X169929203Y-106662798D02*
X170072060Y-106615179D01*
X170072060Y-106615179D02*
X170167298Y-106519940D01*
X170167298Y-106519940D02*
X170214917Y-106424702D01*
X170214917Y-106424702D02*
X170262536Y-106234226D01*
X170262536Y-106234226D02*
X170262536Y-106091369D01*
X170262536Y-106091369D02*
X170214917Y-105900893D01*
X170214917Y-105900893D02*
X170167298Y-105805655D01*
X170167298Y-105805655D02*
X170072060Y-105710417D01*
X170072060Y-105710417D02*
X169929203Y-105662798D01*
X169929203Y-105662798D02*
X169833965Y-105662798D01*
X169833965Y-105662798D02*
X169691108Y-105710417D01*
X169691108Y-105710417D02*
X169643489Y-105758036D01*
X169310155Y-105662798D02*
X168691108Y-105662798D01*
X168691108Y-105662798D02*
X169024441Y-106043750D01*
X169024441Y-106043750D02*
X168881584Y-106043750D01*
X168881584Y-106043750D02*
X168786346Y-106091369D01*
X168786346Y-106091369D02*
X168738727Y-106138988D01*
X168738727Y-106138988D02*
X168691108Y-106234226D01*
X168691108Y-106234226D02*
X168691108Y-106472321D01*
X168691108Y-106472321D02*
X168738727Y-106567559D01*
X168738727Y-106567559D02*
X168786346Y-106615179D01*
X168786346Y-106615179D02*
X168881584Y-106662798D01*
X168881584Y-106662798D02*
X169167298Y-106662798D01*
X169167298Y-106662798D02*
X169262536Y-106615179D01*
X169262536Y-106615179D02*
X169310155Y-106567559D01*
X160143489Y-128592798D02*
X160476822Y-128116607D01*
X160714917Y-128592798D02*
X160714917Y-127592798D01*
X160714917Y-127592798D02*
X160333965Y-127592798D01*
X160333965Y-127592798D02*
X160238727Y-127640417D01*
X160238727Y-127640417D02*
X160191108Y-127688036D01*
X160191108Y-127688036D02*
X160143489Y-127783274D01*
X160143489Y-127783274D02*
X160143489Y-127926131D01*
X160143489Y-127926131D02*
X160191108Y-128021369D01*
X160191108Y-128021369D02*
X160238727Y-128068988D01*
X160238727Y-128068988D02*
X160333965Y-128116607D01*
X160333965Y-128116607D02*
X160714917Y-128116607D01*
X159810155Y-127592798D02*
X159191108Y-127592798D01*
X159191108Y-127592798D02*
X159524441Y-127973750D01*
X159524441Y-127973750D02*
X159381584Y-127973750D01*
X159381584Y-127973750D02*
X159286346Y-128021369D01*
X159286346Y-128021369D02*
X159238727Y-128068988D01*
X159238727Y-128068988D02*
X159191108Y-128164226D01*
X159191108Y-128164226D02*
X159191108Y-128402321D01*
X159191108Y-128402321D02*
X159238727Y-128497559D01*
X159238727Y-128497559D02*
X159286346Y-128545179D01*
X159286346Y-128545179D02*
X159381584Y-128592798D01*
X159381584Y-128592798D02*
X159667298Y-128592798D01*
X159667298Y-128592798D02*
X159762536Y-128545179D01*
X159762536Y-128545179D02*
X159810155Y-128497559D01*
X157286403Y-103565121D02*
X157334023Y-103517502D01*
X157334023Y-103517502D02*
X157381642Y-103374645D01*
X157381642Y-103374645D02*
X157381642Y-103279407D01*
X157381642Y-103279407D02*
X157334023Y-103136550D01*
X157334023Y-103136550D02*
X157238784Y-103041312D01*
X157238784Y-103041312D02*
X157143546Y-102993693D01*
X157143546Y-102993693D02*
X156953070Y-102946074D01*
X156953070Y-102946074D02*
X156810213Y-102946074D01*
X156810213Y-102946074D02*
X156619737Y-102993693D01*
X156619737Y-102993693D02*
X156524499Y-103041312D01*
X156524499Y-103041312D02*
X156429261Y-103136550D01*
X156429261Y-103136550D02*
X156381642Y-103279407D01*
X156381642Y-103279407D02*
X156381642Y-103374645D01*
X156381642Y-103374645D02*
X156429261Y-103517502D01*
X156429261Y-103517502D02*
X156476880Y-103565121D01*
X157381642Y-104517502D02*
X157381642Y-103946074D01*
X157381642Y-104231788D02*
X156381642Y-104231788D01*
X156381642Y-104231788D02*
X156524499Y-104136550D01*
X156524499Y-104136550D02*
X156619737Y-104041312D01*
X156619737Y-104041312D02*
X156667356Y-103946074D01*
X156381642Y-105136550D02*
X156381642Y-105231788D01*
X156381642Y-105231788D02*
X156429261Y-105327026D01*
X156429261Y-105327026D02*
X156476880Y-105374645D01*
X156476880Y-105374645D02*
X156572118Y-105422264D01*
X156572118Y-105422264D02*
X156762594Y-105469883D01*
X156762594Y-105469883D02*
X157000689Y-105469883D01*
X157000689Y-105469883D02*
X157191165Y-105422264D01*
X157191165Y-105422264D02*
X157286403Y-105374645D01*
X157286403Y-105374645D02*
X157334023Y-105327026D01*
X157334023Y-105327026D02*
X157381642Y-105231788D01*
X157381642Y-105231788D02*
X157381642Y-105136550D01*
X157381642Y-105136550D02*
X157334023Y-105041312D01*
X157334023Y-105041312D02*
X157286403Y-104993693D01*
X157286403Y-104993693D02*
X157191165Y-104946074D01*
X157191165Y-104946074D02*
X157000689Y-104898455D01*
X157000689Y-104898455D02*
X156762594Y-104898455D01*
X156762594Y-104898455D02*
X156572118Y-104946074D01*
X156572118Y-104946074D02*
X156476880Y-104993693D01*
X156476880Y-104993693D02*
X156429261Y-105041312D01*
X156429261Y-105041312D02*
X156381642Y-105136550D01*
X128619680Y-98117559D02*
X128667299Y-98165179D01*
X128667299Y-98165179D02*
X128810156Y-98212798D01*
X128810156Y-98212798D02*
X128905394Y-98212798D01*
X128905394Y-98212798D02*
X129048251Y-98165179D01*
X129048251Y-98165179D02*
X129143489Y-98069940D01*
X129143489Y-98069940D02*
X129191108Y-97974702D01*
X129191108Y-97974702D02*
X129238727Y-97784226D01*
X129238727Y-97784226D02*
X129238727Y-97641369D01*
X129238727Y-97641369D02*
X129191108Y-97450893D01*
X129191108Y-97450893D02*
X129143489Y-97355655D01*
X129143489Y-97355655D02*
X129048251Y-97260417D01*
X129048251Y-97260417D02*
X128905394Y-97212798D01*
X128905394Y-97212798D02*
X128810156Y-97212798D01*
X128810156Y-97212798D02*
X128667299Y-97260417D01*
X128667299Y-97260417D02*
X128619680Y-97308036D01*
X128238727Y-97308036D02*
X128191108Y-97260417D01*
X128191108Y-97260417D02*
X128095870Y-97212798D01*
X128095870Y-97212798D02*
X127857775Y-97212798D01*
X127857775Y-97212798D02*
X127762537Y-97260417D01*
X127762537Y-97260417D02*
X127714918Y-97308036D01*
X127714918Y-97308036D02*
X127667299Y-97403274D01*
X127667299Y-97403274D02*
X127667299Y-97498512D01*
X127667299Y-97498512D02*
X127714918Y-97641369D01*
X127714918Y-97641369D02*
X128286346Y-98212798D01*
X128286346Y-98212798D02*
X127667299Y-98212798D01*
X127333965Y-97212798D02*
X126667299Y-97212798D01*
X126667299Y-97212798D02*
X127095870Y-98212798D01*
X137731642Y-111088931D02*
X137731642Y-110612741D01*
X137731642Y-110612741D02*
X136731642Y-110612741D01*
X136731642Y-111612741D02*
X136731642Y-111803217D01*
X136731642Y-111803217D02*
X136779261Y-111898455D01*
X136779261Y-111898455D02*
X136874499Y-111993693D01*
X136874499Y-111993693D02*
X137064975Y-112041312D01*
X137064975Y-112041312D02*
X137398308Y-112041312D01*
X137398308Y-112041312D02*
X137588784Y-111993693D01*
X137588784Y-111993693D02*
X137684023Y-111898455D01*
X137684023Y-111898455D02*
X137731642Y-111803217D01*
X137731642Y-111803217D02*
X137731642Y-111612741D01*
X137731642Y-111612741D02*
X137684023Y-111517503D01*
X137684023Y-111517503D02*
X137588784Y-111422265D01*
X137588784Y-111422265D02*
X137398308Y-111374646D01*
X137398308Y-111374646D02*
X137064975Y-111374646D01*
X137064975Y-111374646D02*
X136874499Y-111422265D01*
X136874499Y-111422265D02*
X136779261Y-111517503D01*
X136779261Y-111517503D02*
X136731642Y-111612741D01*
X136779261Y-112993693D02*
X136731642Y-112898455D01*
X136731642Y-112898455D02*
X136731642Y-112755598D01*
X136731642Y-112755598D02*
X136779261Y-112612741D01*
X136779261Y-112612741D02*
X136874499Y-112517503D01*
X136874499Y-112517503D02*
X136969737Y-112469884D01*
X136969737Y-112469884D02*
X137160213Y-112422265D01*
X137160213Y-112422265D02*
X137303070Y-112422265D01*
X137303070Y-112422265D02*
X137493546Y-112469884D01*
X137493546Y-112469884D02*
X137588784Y-112517503D01*
X137588784Y-112517503D02*
X137684023Y-112612741D01*
X137684023Y-112612741D02*
X137731642Y-112755598D01*
X137731642Y-112755598D02*
X137731642Y-112850836D01*
X137731642Y-112850836D02*
X137684023Y-112993693D01*
X137684023Y-112993693D02*
X137636403Y-113041312D01*
X137636403Y-113041312D02*
X137303070Y-113041312D01*
X137303070Y-113041312D02*
X137303070Y-112850836D01*
X137731642Y-113469884D02*
X136731642Y-113469884D01*
X137636403Y-114517502D02*
X137684023Y-114469883D01*
X137684023Y-114469883D02*
X137731642Y-114327026D01*
X137731642Y-114327026D02*
X137731642Y-114231788D01*
X137731642Y-114231788D02*
X137684023Y-114088931D01*
X137684023Y-114088931D02*
X137588784Y-113993693D01*
X137588784Y-113993693D02*
X137493546Y-113946074D01*
X137493546Y-113946074D02*
X137303070Y-113898455D01*
X137303070Y-113898455D02*
X137160213Y-113898455D01*
X137160213Y-113898455D02*
X136969737Y-113946074D01*
X136969737Y-113946074D02*
X136874499Y-113993693D01*
X136874499Y-113993693D02*
X136779261Y-114088931D01*
X136779261Y-114088931D02*
X136731642Y-114231788D01*
X136731642Y-114231788D02*
X136731642Y-114327026D01*
X136731642Y-114327026D02*
X136779261Y-114469883D01*
X136779261Y-114469883D02*
X136826880Y-114517502D01*
X137826880Y-114707979D02*
X137826880Y-115469883D01*
X137636403Y-116279407D02*
X137684023Y-116231788D01*
X137684023Y-116231788D02*
X137731642Y-116088931D01*
X137731642Y-116088931D02*
X137731642Y-115993693D01*
X137731642Y-115993693D02*
X137684023Y-115850836D01*
X137684023Y-115850836D02*
X137588784Y-115755598D01*
X137588784Y-115755598D02*
X137493546Y-115707979D01*
X137493546Y-115707979D02*
X137303070Y-115660360D01*
X137303070Y-115660360D02*
X137160213Y-115660360D01*
X137160213Y-115660360D02*
X136969737Y-115707979D01*
X136969737Y-115707979D02*
X136874499Y-115755598D01*
X136874499Y-115755598D02*
X136779261Y-115850836D01*
X136779261Y-115850836D02*
X136731642Y-115993693D01*
X136731642Y-115993693D02*
X136731642Y-116088931D01*
X136731642Y-116088931D02*
X136779261Y-116231788D01*
X136779261Y-116231788D02*
X136826880Y-116279407D01*
X136731642Y-116898455D02*
X136731642Y-117088931D01*
X136731642Y-117088931D02*
X136779261Y-117184169D01*
X136779261Y-117184169D02*
X136874499Y-117279407D01*
X136874499Y-117279407D02*
X137064975Y-117327026D01*
X137064975Y-117327026D02*
X137398308Y-117327026D01*
X137398308Y-117327026D02*
X137588784Y-117279407D01*
X137588784Y-117279407D02*
X137684023Y-117184169D01*
X137684023Y-117184169D02*
X137731642Y-117088931D01*
X137731642Y-117088931D02*
X137731642Y-116898455D01*
X137731642Y-116898455D02*
X137684023Y-116803217D01*
X137684023Y-116803217D02*
X137588784Y-116707979D01*
X137588784Y-116707979D02*
X137398308Y-116660360D01*
X137398308Y-116660360D02*
X137064975Y-116660360D01*
X137064975Y-116660360D02*
X136874499Y-116707979D01*
X136874499Y-116707979D02*
X136779261Y-116803217D01*
X136779261Y-116803217D02*
X136731642Y-116898455D01*
X137731642Y-117755598D02*
X136731642Y-117755598D01*
X136731642Y-117755598D02*
X137731642Y-118327026D01*
X137731642Y-118327026D02*
X136731642Y-118327026D01*
X136731642Y-118660360D02*
X137731642Y-118993693D01*
X137731642Y-118993693D02*
X136731642Y-119327026D01*
X137207832Y-119660360D02*
X137207832Y-119993693D01*
X137731642Y-120136550D02*
X137731642Y-119660360D01*
X137731642Y-119660360D02*
X136731642Y-119660360D01*
X136731642Y-119660360D02*
X136731642Y-120136550D01*
X137731642Y-121136550D02*
X137255451Y-120803217D01*
X137731642Y-120565122D02*
X136731642Y-120565122D01*
X136731642Y-120565122D02*
X136731642Y-120946074D01*
X136731642Y-120946074D02*
X136779261Y-121041312D01*
X136779261Y-121041312D02*
X136826880Y-121088931D01*
X136826880Y-121088931D02*
X136922118Y-121136550D01*
X136922118Y-121136550D02*
X137064975Y-121136550D01*
X137064975Y-121136550D02*
X137160213Y-121088931D01*
X137160213Y-121088931D02*
X137207832Y-121041312D01*
X137207832Y-121041312D02*
X137255451Y-120946074D01*
X137255451Y-120946074D02*
X137255451Y-120565122D01*
X136731642Y-121422265D02*
X136731642Y-121993693D01*
X137731642Y-121707979D02*
X136731642Y-121707979D01*
X137731642Y-122850836D02*
X137731642Y-122279408D01*
X137731642Y-122565122D02*
X136731642Y-122565122D01*
X136731642Y-122565122D02*
X136874499Y-122469884D01*
X136874499Y-122469884D02*
X136969737Y-122374646D01*
X136969737Y-122374646D02*
X137017356Y-122279408D01*
X156857775Y-127162798D02*
X157333965Y-127162798D01*
X157333965Y-127162798D02*
X157333965Y-126162798D01*
X156524441Y-126638988D02*
X156191108Y-126638988D01*
X156048251Y-127162798D02*
X156524441Y-127162798D01*
X156524441Y-127162798D02*
X156524441Y-126162798D01*
X156524441Y-126162798D02*
X156048251Y-126162798D01*
X155619679Y-127162798D02*
X155619679Y-126162798D01*
X155619679Y-126162798D02*
X155048251Y-127162798D01*
X155048251Y-127162798D02*
X155048251Y-126162798D01*
X154619679Y-127115179D02*
X154476822Y-127162798D01*
X154476822Y-127162798D02*
X154238727Y-127162798D01*
X154238727Y-127162798D02*
X154143489Y-127115179D01*
X154143489Y-127115179D02*
X154095870Y-127067559D01*
X154095870Y-127067559D02*
X154048251Y-126972321D01*
X154048251Y-126972321D02*
X154048251Y-126877083D01*
X154048251Y-126877083D02*
X154095870Y-126781845D01*
X154095870Y-126781845D02*
X154143489Y-126734226D01*
X154143489Y-126734226D02*
X154238727Y-126686607D01*
X154238727Y-126686607D02*
X154429203Y-126638988D01*
X154429203Y-126638988D02*
X154524441Y-126591369D01*
X154524441Y-126591369D02*
X154572060Y-126543750D01*
X154572060Y-126543750D02*
X154619679Y-126448512D01*
X154619679Y-126448512D02*
X154619679Y-126353274D01*
X154619679Y-126353274D02*
X154572060Y-126258036D01*
X154572060Y-126258036D02*
X154524441Y-126210417D01*
X154524441Y-126210417D02*
X154429203Y-126162798D01*
X154429203Y-126162798D02*
X154191108Y-126162798D01*
X154191108Y-126162798D02*
X154048251Y-126210417D01*
X153619679Y-126781845D02*
X152857775Y-126781845D01*
X151905394Y-127162798D02*
X152381584Y-127162798D01*
X152381584Y-127162798D02*
X152381584Y-126162798D01*
X151381584Y-126162798D02*
X151191108Y-126162798D01*
X151191108Y-126162798D02*
X151095870Y-126210417D01*
X151095870Y-126210417D02*
X151000632Y-126305655D01*
X151000632Y-126305655D02*
X150953013Y-126496131D01*
X150953013Y-126496131D02*
X150953013Y-126829464D01*
X150953013Y-126829464D02*
X151000632Y-127019940D01*
X151000632Y-127019940D02*
X151095870Y-127115179D01*
X151095870Y-127115179D02*
X151191108Y-127162798D01*
X151191108Y-127162798D02*
X151381584Y-127162798D01*
X151381584Y-127162798D02*
X151476822Y-127115179D01*
X151476822Y-127115179D02*
X151572060Y-127019940D01*
X151572060Y-127019940D02*
X151619679Y-126829464D01*
X151619679Y-126829464D02*
X151619679Y-126496131D01*
X151619679Y-126496131D02*
X151572060Y-126305655D01*
X151572060Y-126305655D02*
X151476822Y-126210417D01*
X151476822Y-126210417D02*
X151381584Y-126162798D01*
X150000632Y-126210417D02*
X150095870Y-126162798D01*
X150095870Y-126162798D02*
X150238727Y-126162798D01*
X150238727Y-126162798D02*
X150381584Y-126210417D01*
X150381584Y-126210417D02*
X150476822Y-126305655D01*
X150476822Y-126305655D02*
X150524441Y-126400893D01*
X150524441Y-126400893D02*
X150572060Y-126591369D01*
X150572060Y-126591369D02*
X150572060Y-126734226D01*
X150572060Y-126734226D02*
X150524441Y-126924702D01*
X150524441Y-126924702D02*
X150476822Y-127019940D01*
X150476822Y-127019940D02*
X150381584Y-127115179D01*
X150381584Y-127115179D02*
X150238727Y-127162798D01*
X150238727Y-127162798D02*
X150143489Y-127162798D01*
X150143489Y-127162798D02*
X150000632Y-127115179D01*
X150000632Y-127115179D02*
X149953013Y-127067559D01*
X149953013Y-127067559D02*
X149953013Y-126734226D01*
X149953013Y-126734226D02*
X150143489Y-126734226D01*
X149524441Y-127162798D02*
X149524441Y-126162798D01*
X148476823Y-127067559D02*
X148524442Y-127115179D01*
X148524442Y-127115179D02*
X148667299Y-127162798D01*
X148667299Y-127162798D02*
X148762537Y-127162798D01*
X148762537Y-127162798D02*
X148905394Y-127115179D01*
X148905394Y-127115179D02*
X149000632Y-127019940D01*
X149000632Y-127019940D02*
X149048251Y-126924702D01*
X149048251Y-126924702D02*
X149095870Y-126734226D01*
X149095870Y-126734226D02*
X149095870Y-126591369D01*
X149095870Y-126591369D02*
X149048251Y-126400893D01*
X149048251Y-126400893D02*
X149000632Y-126305655D01*
X149000632Y-126305655D02*
X148905394Y-126210417D01*
X148905394Y-126210417D02*
X148762537Y-126162798D01*
X148762537Y-126162798D02*
X148667299Y-126162798D01*
X148667299Y-126162798D02*
X148524442Y-126210417D01*
X148524442Y-126210417D02*
X148476823Y-126258036D01*
X148286347Y-127258036D02*
X147524442Y-127258036D01*
X147286346Y-127162798D02*
X147286346Y-126162798D01*
X147286346Y-126162798D02*
X146905394Y-126162798D01*
X146905394Y-126162798D02*
X146810156Y-126210417D01*
X146810156Y-126210417D02*
X146762537Y-126258036D01*
X146762537Y-126258036D02*
X146714918Y-126353274D01*
X146714918Y-126353274D02*
X146714918Y-126496131D01*
X146714918Y-126496131D02*
X146762537Y-126591369D01*
X146762537Y-126591369D02*
X146810156Y-126638988D01*
X146810156Y-126638988D02*
X146905394Y-126686607D01*
X146905394Y-126686607D02*
X147286346Y-126686607D01*
X146095870Y-126162798D02*
X145905394Y-126162798D01*
X145905394Y-126162798D02*
X145810156Y-126210417D01*
X145810156Y-126210417D02*
X145714918Y-126305655D01*
X145714918Y-126305655D02*
X145667299Y-126496131D01*
X145667299Y-126496131D02*
X145667299Y-126829464D01*
X145667299Y-126829464D02*
X145714918Y-127019940D01*
X145714918Y-127019940D02*
X145810156Y-127115179D01*
X145810156Y-127115179D02*
X145905394Y-127162798D01*
X145905394Y-127162798D02*
X146095870Y-127162798D01*
X146095870Y-127162798D02*
X146191108Y-127115179D01*
X146191108Y-127115179D02*
X146286346Y-127019940D01*
X146286346Y-127019940D02*
X146333965Y-126829464D01*
X146333965Y-126829464D02*
X146333965Y-126496131D01*
X146333965Y-126496131D02*
X146286346Y-126305655D01*
X146286346Y-126305655D02*
X146191108Y-126210417D01*
X146191108Y-126210417D02*
X146095870Y-126162798D01*
X145333965Y-126162798D02*
X145095870Y-127162798D01*
X145095870Y-127162798D02*
X144905394Y-126448512D01*
X144905394Y-126448512D02*
X144714918Y-127162798D01*
X144714918Y-127162798D02*
X144476823Y-126162798D01*
X143572061Y-127162798D02*
X144143489Y-127162798D01*
X143857775Y-127162798D02*
X143857775Y-126162798D01*
X143857775Y-126162798D02*
X143953013Y-126305655D01*
X143953013Y-126305655D02*
X144048251Y-126400893D01*
X144048251Y-126400893D02*
X144143489Y-126448512D01*
X141619680Y-104067559D02*
X141667299Y-104115179D01*
X141667299Y-104115179D02*
X141810156Y-104162798D01*
X141810156Y-104162798D02*
X141905394Y-104162798D01*
X141905394Y-104162798D02*
X142048251Y-104115179D01*
X142048251Y-104115179D02*
X142143489Y-104019940D01*
X142143489Y-104019940D02*
X142191108Y-103924702D01*
X142191108Y-103924702D02*
X142238727Y-103734226D01*
X142238727Y-103734226D02*
X142238727Y-103591369D01*
X142238727Y-103591369D02*
X142191108Y-103400893D01*
X142191108Y-103400893D02*
X142143489Y-103305655D01*
X142143489Y-103305655D02*
X142048251Y-103210417D01*
X142048251Y-103210417D02*
X141905394Y-103162798D01*
X141905394Y-103162798D02*
X141810156Y-103162798D01*
X141810156Y-103162798D02*
X141667299Y-103210417D01*
X141667299Y-103210417D02*
X141619680Y-103258036D01*
X141286346Y-103162798D02*
X140667299Y-103162798D01*
X140667299Y-103162798D02*
X141000632Y-103543750D01*
X141000632Y-103543750D02*
X140857775Y-103543750D01*
X140857775Y-103543750D02*
X140762537Y-103591369D01*
X140762537Y-103591369D02*
X140714918Y-103638988D01*
X140714918Y-103638988D02*
X140667299Y-103734226D01*
X140667299Y-103734226D02*
X140667299Y-103972321D01*
X140667299Y-103972321D02*
X140714918Y-104067559D01*
X140714918Y-104067559D02*
X140762537Y-104115179D01*
X140762537Y-104115179D02*
X140857775Y-104162798D01*
X140857775Y-104162798D02*
X141143489Y-104162798D01*
X141143489Y-104162798D02*
X141238727Y-104115179D01*
X141238727Y-104115179D02*
X141286346Y-104067559D01*
X140333965Y-103162798D02*
X139714918Y-103162798D01*
X139714918Y-103162798D02*
X140048251Y-103543750D01*
X140048251Y-103543750D02*
X139905394Y-103543750D01*
X139905394Y-103543750D02*
X139810156Y-103591369D01*
X139810156Y-103591369D02*
X139762537Y-103638988D01*
X139762537Y-103638988D02*
X139714918Y-103734226D01*
X139714918Y-103734226D02*
X139714918Y-103972321D01*
X139714918Y-103972321D02*
X139762537Y-104067559D01*
X139762537Y-104067559D02*
X139810156Y-104115179D01*
X139810156Y-104115179D02*
X139905394Y-104162798D01*
X139905394Y-104162798D02*
X140191108Y-104162798D01*
X140191108Y-104162798D02*
X140286346Y-104115179D01*
X140286346Y-104115179D02*
X140333965Y-104067559D01*
X166907832Y-114136550D02*
X166955451Y-114279407D01*
X166955451Y-114279407D02*
X167003070Y-114327026D01*
X167003070Y-114327026D02*
X167098308Y-114374645D01*
X167098308Y-114374645D02*
X167241165Y-114374645D01*
X167241165Y-114374645D02*
X167336403Y-114327026D01*
X167336403Y-114327026D02*
X167384023Y-114279407D01*
X167384023Y-114279407D02*
X167431642Y-114184169D01*
X167431642Y-114184169D02*
X167431642Y-113803217D01*
X167431642Y-113803217D02*
X166431642Y-113803217D01*
X166431642Y-113803217D02*
X166431642Y-114136550D01*
X166431642Y-114136550D02*
X166479261Y-114231788D01*
X166479261Y-114231788D02*
X166526880Y-114279407D01*
X166526880Y-114279407D02*
X166622118Y-114327026D01*
X166622118Y-114327026D02*
X166717356Y-114327026D01*
X166717356Y-114327026D02*
X166812594Y-114279407D01*
X166812594Y-114279407D02*
X166860213Y-114231788D01*
X166860213Y-114231788D02*
X166907832Y-114136550D01*
X166907832Y-114136550D02*
X166907832Y-113803217D01*
X167145927Y-114755598D02*
X167145927Y-115231788D01*
X167431642Y-114660360D02*
X166431642Y-114993693D01*
X166431642Y-114993693D02*
X167431642Y-115327026D01*
X166431642Y-115517503D02*
X166431642Y-116088931D01*
X167431642Y-115803217D02*
X166431642Y-115803217D01*
X166431642Y-116279408D02*
X166431642Y-116850836D01*
X167431642Y-116565122D02*
X166431642Y-116565122D01*
X167526880Y-116946075D02*
X167526880Y-117707979D01*
X167431642Y-117946075D02*
X166431642Y-117946075D01*
X166431642Y-117946075D02*
X166431642Y-118327027D01*
X166431642Y-118327027D02*
X166479261Y-118422265D01*
X166479261Y-118422265D02*
X166526880Y-118469884D01*
X166526880Y-118469884D02*
X166622118Y-118517503D01*
X166622118Y-118517503D02*
X166764975Y-118517503D01*
X166764975Y-118517503D02*
X166860213Y-118469884D01*
X166860213Y-118469884D02*
X166907832Y-118422265D01*
X166907832Y-118422265D02*
X166955451Y-118327027D01*
X166955451Y-118327027D02*
X166955451Y-117946075D01*
X166431642Y-119136551D02*
X166431642Y-119327027D01*
X166431642Y-119327027D02*
X166479261Y-119422265D01*
X166479261Y-119422265D02*
X166574499Y-119517503D01*
X166574499Y-119517503D02*
X166764975Y-119565122D01*
X166764975Y-119565122D02*
X167098308Y-119565122D01*
X167098308Y-119565122D02*
X167288784Y-119517503D01*
X167288784Y-119517503D02*
X167384023Y-119422265D01*
X167384023Y-119422265D02*
X167431642Y-119327027D01*
X167431642Y-119327027D02*
X167431642Y-119136551D01*
X167431642Y-119136551D02*
X167384023Y-119041313D01*
X167384023Y-119041313D02*
X167288784Y-118946075D01*
X167288784Y-118946075D02*
X167098308Y-118898456D01*
X167098308Y-118898456D02*
X166764975Y-118898456D01*
X166764975Y-118898456D02*
X166574499Y-118946075D01*
X166574499Y-118946075D02*
X166479261Y-119041313D01*
X166479261Y-119041313D02*
X166431642Y-119136551D01*
X166431642Y-119898456D02*
X167431642Y-120136551D01*
X167431642Y-120136551D02*
X166717356Y-120327027D01*
X166717356Y-120327027D02*
X167431642Y-120517503D01*
X167431642Y-120517503D02*
X166431642Y-120755599D01*
X167431642Y-121660360D02*
X167431642Y-121088932D01*
X167431642Y-121374646D02*
X166431642Y-121374646D01*
X166431642Y-121374646D02*
X166574499Y-121279408D01*
X166574499Y-121279408D02*
X166669737Y-121184170D01*
X166669737Y-121184170D02*
X166717356Y-121088932D01*
X137619680Y-96567559D02*
X137667299Y-96615179D01*
X137667299Y-96615179D02*
X137810156Y-96662798D01*
X137810156Y-96662798D02*
X137905394Y-96662798D01*
X137905394Y-96662798D02*
X138048251Y-96615179D01*
X138048251Y-96615179D02*
X138143489Y-96519940D01*
X138143489Y-96519940D02*
X138191108Y-96424702D01*
X138191108Y-96424702D02*
X138238727Y-96234226D01*
X138238727Y-96234226D02*
X138238727Y-96091369D01*
X138238727Y-96091369D02*
X138191108Y-95900893D01*
X138191108Y-95900893D02*
X138143489Y-95805655D01*
X138143489Y-95805655D02*
X138048251Y-95710417D01*
X138048251Y-95710417D02*
X137905394Y-95662798D01*
X137905394Y-95662798D02*
X137810156Y-95662798D01*
X137810156Y-95662798D02*
X137667299Y-95710417D01*
X137667299Y-95710417D02*
X137619680Y-95758036D01*
X137238727Y-95758036D02*
X137191108Y-95710417D01*
X137191108Y-95710417D02*
X137095870Y-95662798D01*
X137095870Y-95662798D02*
X136857775Y-95662798D01*
X136857775Y-95662798D02*
X136762537Y-95710417D01*
X136762537Y-95710417D02*
X136714918Y-95758036D01*
X136714918Y-95758036D02*
X136667299Y-95853274D01*
X136667299Y-95853274D02*
X136667299Y-95948512D01*
X136667299Y-95948512D02*
X136714918Y-96091369D01*
X136714918Y-96091369D02*
X137286346Y-96662798D01*
X137286346Y-96662798D02*
X136667299Y-96662798D01*
X136095870Y-96091369D02*
X136191108Y-96043750D01*
X136191108Y-96043750D02*
X136238727Y-95996131D01*
X136238727Y-95996131D02*
X136286346Y-95900893D01*
X136286346Y-95900893D02*
X136286346Y-95853274D01*
X136286346Y-95853274D02*
X136238727Y-95758036D01*
X136238727Y-95758036D02*
X136191108Y-95710417D01*
X136191108Y-95710417D02*
X136095870Y-95662798D01*
X136095870Y-95662798D02*
X135905394Y-95662798D01*
X135905394Y-95662798D02*
X135810156Y-95710417D01*
X135810156Y-95710417D02*
X135762537Y-95758036D01*
X135762537Y-95758036D02*
X135714918Y-95853274D01*
X135714918Y-95853274D02*
X135714918Y-95900893D01*
X135714918Y-95900893D02*
X135762537Y-95996131D01*
X135762537Y-95996131D02*
X135810156Y-96043750D01*
X135810156Y-96043750D02*
X135905394Y-96091369D01*
X135905394Y-96091369D02*
X136095870Y-96091369D01*
X136095870Y-96091369D02*
X136191108Y-96138988D01*
X136191108Y-96138988D02*
X136238727Y-96186607D01*
X136238727Y-96186607D02*
X136286346Y-96281845D01*
X136286346Y-96281845D02*
X136286346Y-96472321D01*
X136286346Y-96472321D02*
X136238727Y-96567559D01*
X136238727Y-96567559D02*
X136191108Y-96615179D01*
X136191108Y-96615179D02*
X136095870Y-96662798D01*
X136095870Y-96662798D02*
X135905394Y-96662798D01*
X135905394Y-96662798D02*
X135810156Y-96615179D01*
X135810156Y-96615179D02*
X135762537Y-96567559D01*
X135762537Y-96567559D02*
X135714918Y-96472321D01*
X135714918Y-96472321D02*
X135714918Y-96281845D01*
X135714918Y-96281845D02*
X135762537Y-96186607D01*
X135762537Y-96186607D02*
X135810156Y-96138988D01*
X135810156Y-96138988D02*
X135905394Y-96091369D01*
X164286403Y-126361312D02*
X164334023Y-126313693D01*
X164334023Y-126313693D02*
X164381642Y-126170836D01*
X164381642Y-126170836D02*
X164381642Y-126075598D01*
X164381642Y-126075598D02*
X164334023Y-125932741D01*
X164334023Y-125932741D02*
X164238784Y-125837503D01*
X164238784Y-125837503D02*
X164143546Y-125789884D01*
X164143546Y-125789884D02*
X163953070Y-125742265D01*
X163953070Y-125742265D02*
X163810213Y-125742265D01*
X163810213Y-125742265D02*
X163619737Y-125789884D01*
X163619737Y-125789884D02*
X163524499Y-125837503D01*
X163524499Y-125837503D02*
X163429261Y-125932741D01*
X163429261Y-125932741D02*
X163381642Y-126075598D01*
X163381642Y-126075598D02*
X163381642Y-126170836D01*
X163381642Y-126170836D02*
X163429261Y-126313693D01*
X163429261Y-126313693D02*
X163476880Y-126361312D01*
X163381642Y-127266074D02*
X163381642Y-126789884D01*
X163381642Y-126789884D02*
X163857832Y-126742265D01*
X163857832Y-126742265D02*
X163810213Y-126789884D01*
X163810213Y-126789884D02*
X163762594Y-126885122D01*
X163762594Y-126885122D02*
X163762594Y-127123217D01*
X163762594Y-127123217D02*
X163810213Y-127218455D01*
X163810213Y-127218455D02*
X163857832Y-127266074D01*
X163857832Y-127266074D02*
X163953070Y-127313693D01*
X163953070Y-127313693D02*
X164191165Y-127313693D01*
X164191165Y-127313693D02*
X164286403Y-127266074D01*
X164286403Y-127266074D02*
X164334023Y-127218455D01*
X164334023Y-127218455D02*
X164381642Y-127123217D01*
X164381642Y-127123217D02*
X164381642Y-126885122D01*
X164381642Y-126885122D02*
X164334023Y-126789884D01*
X164334023Y-126789884D02*
X164286403Y-126742265D01*
X122836403Y-124341312D02*
X122884023Y-124293693D01*
X122884023Y-124293693D02*
X122931642Y-124150836D01*
X122931642Y-124150836D02*
X122931642Y-124055598D01*
X122931642Y-124055598D02*
X122884023Y-123912741D01*
X122884023Y-123912741D02*
X122788784Y-123817503D01*
X122788784Y-123817503D02*
X122693546Y-123769884D01*
X122693546Y-123769884D02*
X122503070Y-123722265D01*
X122503070Y-123722265D02*
X122360213Y-123722265D01*
X122360213Y-123722265D02*
X122169737Y-123769884D01*
X122169737Y-123769884D02*
X122074499Y-123817503D01*
X122074499Y-123817503D02*
X121979261Y-123912741D01*
X121979261Y-123912741D02*
X121931642Y-124055598D01*
X121931642Y-124055598D02*
X121931642Y-124150836D01*
X121931642Y-124150836D02*
X121979261Y-124293693D01*
X121979261Y-124293693D02*
X122026880Y-124341312D01*
X122360213Y-124912741D02*
X122312594Y-124817503D01*
X122312594Y-124817503D02*
X122264975Y-124769884D01*
X122264975Y-124769884D02*
X122169737Y-124722265D01*
X122169737Y-124722265D02*
X122122118Y-124722265D01*
X122122118Y-124722265D02*
X122026880Y-124769884D01*
X122026880Y-124769884D02*
X121979261Y-124817503D01*
X121979261Y-124817503D02*
X121931642Y-124912741D01*
X121931642Y-124912741D02*
X121931642Y-125103217D01*
X121931642Y-125103217D02*
X121979261Y-125198455D01*
X121979261Y-125198455D02*
X122026880Y-125246074D01*
X122026880Y-125246074D02*
X122122118Y-125293693D01*
X122122118Y-125293693D02*
X122169737Y-125293693D01*
X122169737Y-125293693D02*
X122264975Y-125246074D01*
X122264975Y-125246074D02*
X122312594Y-125198455D01*
X122312594Y-125198455D02*
X122360213Y-125103217D01*
X122360213Y-125103217D02*
X122360213Y-124912741D01*
X122360213Y-124912741D02*
X122407832Y-124817503D01*
X122407832Y-124817503D02*
X122455451Y-124769884D01*
X122455451Y-124769884D02*
X122550689Y-124722265D01*
X122550689Y-124722265D02*
X122741165Y-124722265D01*
X122741165Y-124722265D02*
X122836403Y-124769884D01*
X122836403Y-124769884D02*
X122884023Y-124817503D01*
X122884023Y-124817503D02*
X122931642Y-124912741D01*
X122931642Y-124912741D02*
X122931642Y-125103217D01*
X122931642Y-125103217D02*
X122884023Y-125198455D01*
X122884023Y-125198455D02*
X122836403Y-125246074D01*
X122836403Y-125246074D02*
X122741165Y-125293693D01*
X122741165Y-125293693D02*
X122550689Y-125293693D01*
X122550689Y-125293693D02*
X122455451Y-125246074D01*
X122455451Y-125246074D02*
X122407832Y-125198455D01*
X122407832Y-125198455D02*
X122360213Y-125103217D01*
X127619680Y-100567559D02*
X127667299Y-100615179D01*
X127667299Y-100615179D02*
X127810156Y-100662798D01*
X127810156Y-100662798D02*
X127905394Y-100662798D01*
X127905394Y-100662798D02*
X128048251Y-100615179D01*
X128048251Y-100615179D02*
X128143489Y-100519940D01*
X128143489Y-100519940D02*
X128191108Y-100424702D01*
X128191108Y-100424702D02*
X128238727Y-100234226D01*
X128238727Y-100234226D02*
X128238727Y-100091369D01*
X128238727Y-100091369D02*
X128191108Y-99900893D01*
X128191108Y-99900893D02*
X128143489Y-99805655D01*
X128143489Y-99805655D02*
X128048251Y-99710417D01*
X128048251Y-99710417D02*
X127905394Y-99662798D01*
X127905394Y-99662798D02*
X127810156Y-99662798D01*
X127810156Y-99662798D02*
X127667299Y-99710417D01*
X127667299Y-99710417D02*
X127619680Y-99758036D01*
X126667299Y-100662798D02*
X127238727Y-100662798D01*
X126953013Y-100662798D02*
X126953013Y-99662798D01*
X126953013Y-99662798D02*
X127048251Y-99805655D01*
X127048251Y-99805655D02*
X127143489Y-99900893D01*
X127143489Y-99900893D02*
X127238727Y-99948512D01*
X125810156Y-99662798D02*
X126000632Y-99662798D01*
X126000632Y-99662798D02*
X126095870Y-99710417D01*
X126095870Y-99710417D02*
X126143489Y-99758036D01*
X126143489Y-99758036D02*
X126238727Y-99900893D01*
X126238727Y-99900893D02*
X126286346Y-100091369D01*
X126286346Y-100091369D02*
X126286346Y-100472321D01*
X126286346Y-100472321D02*
X126238727Y-100567559D01*
X126238727Y-100567559D02*
X126191108Y-100615179D01*
X126191108Y-100615179D02*
X126095870Y-100662798D01*
X126095870Y-100662798D02*
X125905394Y-100662798D01*
X125905394Y-100662798D02*
X125810156Y-100615179D01*
X125810156Y-100615179D02*
X125762537Y-100567559D01*
X125762537Y-100567559D02*
X125714918Y-100472321D01*
X125714918Y-100472321D02*
X125714918Y-100234226D01*
X125714918Y-100234226D02*
X125762537Y-100138988D01*
X125762537Y-100138988D02*
X125810156Y-100091369D01*
X125810156Y-100091369D02*
X125905394Y-100043750D01*
X125905394Y-100043750D02*
X126095870Y-100043750D01*
X126095870Y-100043750D02*
X126191108Y-100091369D01*
X126191108Y-100091369D02*
X126238727Y-100138988D01*
X126238727Y-100138988D02*
X126286346Y-100234226D01*
X160143489Y-131102798D02*
X160476822Y-130626607D01*
X160714917Y-131102798D02*
X160714917Y-130102798D01*
X160714917Y-130102798D02*
X160333965Y-130102798D01*
X160333965Y-130102798D02*
X160238727Y-130150417D01*
X160238727Y-130150417D02*
X160191108Y-130198036D01*
X160191108Y-130198036D02*
X160143489Y-130293274D01*
X160143489Y-130293274D02*
X160143489Y-130436131D01*
X160143489Y-130436131D02*
X160191108Y-130531369D01*
X160191108Y-130531369D02*
X160238727Y-130578988D01*
X160238727Y-130578988D02*
X160333965Y-130626607D01*
X160333965Y-130626607D02*
X160714917Y-130626607D01*
X159762536Y-130198036D02*
X159714917Y-130150417D01*
X159714917Y-130150417D02*
X159619679Y-130102798D01*
X159619679Y-130102798D02*
X159381584Y-130102798D01*
X159381584Y-130102798D02*
X159286346Y-130150417D01*
X159286346Y-130150417D02*
X159238727Y-130198036D01*
X159238727Y-130198036D02*
X159191108Y-130293274D01*
X159191108Y-130293274D02*
X159191108Y-130388512D01*
X159191108Y-130388512D02*
X159238727Y-130531369D01*
X159238727Y-130531369D02*
X159810155Y-131102798D01*
X159810155Y-131102798D02*
X159191108Y-131102798D01*
X132803111Y-105067559D02*
X132850730Y-105115179D01*
X132850730Y-105115179D02*
X132993587Y-105162798D01*
X132993587Y-105162798D02*
X133088825Y-105162798D01*
X133088825Y-105162798D02*
X133231682Y-105115179D01*
X133231682Y-105115179D02*
X133326920Y-105019940D01*
X133326920Y-105019940D02*
X133374539Y-104924702D01*
X133374539Y-104924702D02*
X133422158Y-104734226D01*
X133422158Y-104734226D02*
X133422158Y-104591369D01*
X133422158Y-104591369D02*
X133374539Y-104400893D01*
X133374539Y-104400893D02*
X133326920Y-104305655D01*
X133326920Y-104305655D02*
X133231682Y-104210417D01*
X133231682Y-104210417D02*
X133088825Y-104162798D01*
X133088825Y-104162798D02*
X132993587Y-104162798D01*
X132993587Y-104162798D02*
X132850730Y-104210417D01*
X132850730Y-104210417D02*
X132803111Y-104258036D01*
X132469777Y-104162798D02*
X131850730Y-104162798D01*
X131850730Y-104162798D02*
X132184063Y-104543750D01*
X132184063Y-104543750D02*
X132041206Y-104543750D01*
X132041206Y-104543750D02*
X131945968Y-104591369D01*
X131945968Y-104591369D02*
X131898349Y-104638988D01*
X131898349Y-104638988D02*
X131850730Y-104734226D01*
X131850730Y-104734226D02*
X131850730Y-104972321D01*
X131850730Y-104972321D02*
X131898349Y-105067559D01*
X131898349Y-105067559D02*
X131945968Y-105115179D01*
X131945968Y-105115179D02*
X132041206Y-105162798D01*
X132041206Y-105162798D02*
X132326920Y-105162798D01*
X132326920Y-105162798D02*
X132422158Y-105115179D01*
X132422158Y-105115179D02*
X132469777Y-105067559D01*
X130993587Y-104496131D02*
X130993587Y-105162798D01*
X131231682Y-104115179D02*
X131469777Y-104829464D01*
X131469777Y-104829464D02*
X130850730Y-104829464D01*
D11*
G36*
X125910141Y-86744017D02*
G01*
X125922907Y-86705740D01*
X125959220Y-86676706D01*
X126021699Y-86654625D01*
X126716325Y-86487929D01*
X126839592Y-86448442D01*
X126923604Y-86400371D01*
X126974366Y-86342413D01*
X126992197Y-86271499D01*
X126979560Y-86214844D01*
X126943276Y-86166671D01*
X126883449Y-86125092D01*
X126797109Y-86089050D01*
X126680561Y-86058942D01*
X126543031Y-86040052D01*
X126379820Y-86033362D01*
X126182193Y-86041940D01*
X126002649Y-86066995D01*
X125837600Y-86108375D01*
X125781161Y-86135995D01*
X125763229Y-86170108D01*
X125773607Y-86196892D01*
X125804994Y-86219842D01*
X125850728Y-86235460D01*
X125904279Y-86240633D01*
X125970957Y-86231932D01*
X126103597Y-86199520D01*
X126239202Y-86180419D01*
X126379820Y-86174046D01*
X126544650Y-86182364D01*
X126641003Y-86202736D01*
X126692469Y-86231734D01*
X126709914Y-86271316D01*
X126697539Y-86308993D01*
X126662508Y-86337345D01*
X126602569Y-86358694D01*
X125901714Y-86527405D01*
X125779486Y-86566832D01*
X125696064Y-86614871D01*
X125645597Y-86672849D01*
X125627857Y-86743834D01*
X125640936Y-86803737D01*
X125678087Y-86853477D01*
X125738662Y-86895280D01*
X125825327Y-86930405D01*
X125941509Y-86958514D01*
X126083372Y-86976506D01*
X126256721Y-86982979D01*
X126513786Y-86973895D01*
X126730413Y-86948350D01*
X126913429Y-86908057D01*
X126973093Y-86880748D01*
X126992197Y-86845226D01*
X126981853Y-86818450D01*
X126950615Y-86795583D01*
X126904716Y-86779890D01*
X126851147Y-86774700D01*
X126797475Y-86780104D01*
X126605500Y-86817840D01*
X126422645Y-86836315D01*
X126248661Y-86842295D01*
X126079218Y-86833842D01*
X125980442Y-86813180D01*
X125927893Y-86783875D01*
X125910141Y-86744017D01*
G37*
G36*
X124416657Y-86687048D02*
G01*
X124012374Y-86075769D01*
X123982635Y-86048647D01*
X123939211Y-86033054D01*
X123877735Y-86027500D01*
X123796045Y-86035771D01*
X123751099Y-86057812D01*
X123734486Y-86097201D01*
X123743096Y-86120740D01*
X124275973Y-86924452D01*
X124310603Y-86958289D01*
X124356476Y-86976723D01*
X124416657Y-86982979D01*
X124477010Y-86976796D01*
X124522918Y-86958634D01*
X124557524Y-86925459D01*
X125090217Y-86120740D01*
X125098827Y-86097201D01*
X125088444Y-86070426D01*
X125057245Y-86047925D01*
X125011416Y-86032590D01*
X124957777Y-86027500D01*
X124896301Y-86033054D01*
X124852877Y-86048647D01*
X124823138Y-86075769D01*
X124416657Y-86687048D01*
G37*
G36*
X122523286Y-86687048D02*
G01*
X122119003Y-86075769D01*
X122089264Y-86048647D01*
X122045840Y-86033054D01*
X121984364Y-86027500D01*
X121902675Y-86035771D01*
X121857729Y-86057812D01*
X121841116Y-86097201D01*
X121849725Y-86120740D01*
X122382602Y-86924452D01*
X122417233Y-86958289D01*
X122463106Y-86976723D01*
X122523286Y-86982979D01*
X122583640Y-86976796D01*
X122629547Y-86958634D01*
X122664153Y-86925459D01*
X123196847Y-86120740D01*
X123205456Y-86097201D01*
X123195074Y-86070426D01*
X123163874Y-86047925D01*
X123118045Y-86032590D01*
X123064406Y-86027500D01*
X123002930Y-86033054D01*
X122959506Y-86048647D01*
X122929767Y-86075769D01*
X122523286Y-86687048D01*
G37*
G36*
X121312086Y-86100865D02*
G01*
X121295540Y-86060828D01*
X121251109Y-86038613D01*
X121171036Y-86030340D01*
X121090841Y-86038617D01*
X121046361Y-86060837D01*
X121029802Y-86100865D01*
X121029802Y-86912453D01*
X121046361Y-86952482D01*
X121090841Y-86974701D01*
X121171036Y-86982979D01*
X121251109Y-86974705D01*
X121295540Y-86952490D01*
X121312086Y-86912453D01*
X121312086Y-86100865D01*
G37*
G36*
X121312086Y-85761245D02*
G01*
X121312086Y-85693651D01*
X121295531Y-85653554D01*
X121251092Y-85631314D01*
X121171036Y-85623034D01*
X121090858Y-85631318D01*
X121046370Y-85653562D01*
X121029802Y-85693651D01*
X121029802Y-85761245D01*
X121046370Y-85801334D01*
X121090858Y-85823578D01*
X121171036Y-85831862D01*
X121251092Y-85823583D01*
X121295531Y-85801343D01*
X121312086Y-85761245D01*
G37*
G36*
X120500223Y-86100865D02*
G01*
X120483676Y-86060828D01*
X120439246Y-86038613D01*
X120359172Y-86030340D01*
X120278977Y-86038617D01*
X120234498Y-86060837D01*
X120217939Y-86100865D01*
X120217939Y-86912453D01*
X120234498Y-86952482D01*
X120278977Y-86974701D01*
X120359172Y-86982979D01*
X120439246Y-86974705D01*
X120483676Y-86952490D01*
X120500223Y-86912453D01*
X120500223Y-86100865D01*
G37*
G36*
X120500223Y-85761245D02*
G01*
X120500223Y-85693651D01*
X120483667Y-85653554D01*
X120439229Y-85631314D01*
X120359172Y-85623034D01*
X120278995Y-85631318D01*
X120234507Y-85653562D01*
X120217939Y-85693651D01*
X120217939Y-85761245D01*
X120234507Y-85801334D01*
X120278995Y-85823578D01*
X120359172Y-85831862D01*
X120439229Y-85823583D01*
X120483667Y-85801343D01*
X120500223Y-85761245D01*
G37*
G36*
X119417799Y-86174046D02*
G01*
X119547309Y-86174046D01*
X119627418Y-86165786D01*
X119671831Y-86143620D01*
X119688359Y-86103704D01*
X119671831Y-86063789D01*
X119627418Y-86041623D01*
X119547309Y-86033362D01*
X119417799Y-86033362D01*
X119417799Y-85694384D01*
X119401172Y-85653801D01*
X119356668Y-85631363D01*
X119276749Y-85623034D01*
X119196830Y-85631363D01*
X119152326Y-85653801D01*
X119135699Y-85694384D01*
X119135699Y-86033362D01*
X118735812Y-86033362D01*
X118655583Y-86041627D01*
X118611120Y-86063797D01*
X118594579Y-86103704D01*
X118611120Y-86143611D01*
X118655583Y-86165781D01*
X118735812Y-86174046D01*
X119135699Y-86174046D01*
X119135699Y-86912637D01*
X119152227Y-86952552D01*
X119196641Y-86974718D01*
X119276749Y-86982979D01*
X119356858Y-86974718D01*
X119401271Y-86952552D01*
X119417799Y-86912637D01*
X119417799Y-86174046D01*
G37*
G36*
X115483047Y-87317103D02*
G01*
X115499575Y-87357018D01*
X115543989Y-87379184D01*
X115624097Y-87387445D01*
X118599891Y-87387445D01*
X118680000Y-87379184D01*
X118724413Y-87357018D01*
X118740941Y-87317103D01*
X118724413Y-87277187D01*
X118680000Y-87255021D01*
X118599891Y-87246761D01*
X115624097Y-87246761D01*
X115543989Y-87255021D01*
X115499575Y-87277187D01*
X115483047Y-87317103D01*
G37*
G36*
X114485855Y-85631363D02*
G01*
X114530359Y-85653801D01*
X114546986Y-85694384D01*
X114546986Y-86033362D01*
X115082061Y-86033362D01*
X115234523Y-86042205D01*
X115360960Y-86067393D01*
X115467276Y-86108776D01*
X115556503Y-86168642D01*
X115610802Y-86234227D01*
X115629043Y-86305937D01*
X115629043Y-86710403D01*
X115611091Y-86783513D01*
X115558741Y-86847279D01*
X115470591Y-86904027D01*
X115356779Y-86947928D01*
X115228820Y-86974025D01*
X115082061Y-86982979D01*
X114405753Y-86982979D01*
X114325697Y-86974699D01*
X114281258Y-86952459D01*
X114264703Y-86912362D01*
X114264703Y-86842295D01*
X114546986Y-86842295D01*
X115082061Y-86842295D01*
X115182581Y-86832611D01*
X115268541Y-86803368D01*
X115327325Y-86760476D01*
X115346760Y-86710403D01*
X115346760Y-86305937D01*
X115327435Y-86255051D01*
X115269640Y-86212514D01*
X115184354Y-86183698D01*
X115082061Y-86174046D01*
X114546986Y-86174046D01*
X114546986Y-86842295D01*
X114264703Y-86842295D01*
X114264703Y-85693651D01*
X114281270Y-85653562D01*
X114325758Y-85631318D01*
X114405936Y-85623034D01*
X114485855Y-85631363D01*
G37*
G36*
X113191194Y-86033884D02*
G01*
X113315836Y-86052541D01*
X113430184Y-86083462D01*
X113536187Y-86127610D01*
X113624109Y-86180719D01*
X113685736Y-86238035D01*
X113722939Y-86300535D01*
X113735673Y-86369593D01*
X113735673Y-86708755D01*
X113717705Y-86782303D01*
X113665335Y-86846433D01*
X113577220Y-86903477D01*
X113463443Y-86947704D01*
X113335553Y-86973970D01*
X113188874Y-86982979D01*
X112512566Y-86982979D01*
X112432336Y-86974713D01*
X112387873Y-86952544D01*
X112371332Y-86912637D01*
X112387873Y-86872730D01*
X112432336Y-86850560D01*
X112512566Y-86842295D01*
X113188874Y-86842295D01*
X113289393Y-86832611D01*
X113375353Y-86803368D01*
X113433994Y-86760483D01*
X113453389Y-86710403D01*
X113453389Y-86578512D01*
X112371332Y-86578512D01*
X112371332Y-86373165D01*
X112653616Y-86373165D01*
X112653616Y-86437828D01*
X113453389Y-86437828D01*
X113453389Y-86373165D01*
X113440227Y-86320314D01*
X113401651Y-86273718D01*
X113336336Y-86231749D01*
X113252385Y-86199036D01*
X113159193Y-86179720D01*
X113053502Y-86173130D01*
X112947933Y-86179718D01*
X112854800Y-86199031D01*
X112770852Y-86231749D01*
X112705428Y-86273724D01*
X112666796Y-86320320D01*
X112653616Y-86373165D01*
X112371332Y-86373165D01*
X112371332Y-86371150D01*
X112384065Y-86300573D01*
X112421108Y-86237244D01*
X112482156Y-86179720D01*
X112568803Y-86126968D01*
X112673706Y-86083262D01*
X112787949Y-86052524D01*
X112913584Y-86033898D01*
X113053502Y-86027500D01*
X113191194Y-86033884D01*
G37*
G36*
X110760245Y-86744017D02*
G01*
X110773012Y-86705740D01*
X110809325Y-86676706D01*
X110871803Y-86654625D01*
X111566430Y-86487929D01*
X111689697Y-86448442D01*
X111773708Y-86400371D01*
X111824471Y-86342413D01*
X111842302Y-86271499D01*
X111829664Y-86214844D01*
X111793381Y-86166671D01*
X111733554Y-86125092D01*
X111647213Y-86089050D01*
X111530666Y-86058942D01*
X111393136Y-86040052D01*
X111229924Y-86033362D01*
X111032298Y-86041940D01*
X110852754Y-86066995D01*
X110687705Y-86108375D01*
X110631266Y-86135995D01*
X110613333Y-86170108D01*
X110623712Y-86196892D01*
X110655099Y-86219842D01*
X110700832Y-86235460D01*
X110754383Y-86240633D01*
X110821062Y-86231932D01*
X110953702Y-86199520D01*
X111089307Y-86180419D01*
X111229924Y-86174046D01*
X111394755Y-86182364D01*
X111491107Y-86202736D01*
X111542573Y-86231734D01*
X111560018Y-86271316D01*
X111547644Y-86308993D01*
X111512613Y-86337345D01*
X111452674Y-86358694D01*
X110751819Y-86527405D01*
X110629591Y-86566832D01*
X110546169Y-86614871D01*
X110495702Y-86672849D01*
X110477962Y-86743834D01*
X110491041Y-86803737D01*
X110528191Y-86853477D01*
X110588767Y-86895280D01*
X110675432Y-86930405D01*
X110791613Y-86958514D01*
X110933477Y-86976506D01*
X111106826Y-86982979D01*
X111363890Y-86973895D01*
X111580518Y-86948350D01*
X111763534Y-86908057D01*
X111823197Y-86880748D01*
X111842302Y-86845226D01*
X111831957Y-86818450D01*
X111800720Y-86795583D01*
X111754820Y-86779890D01*
X111701252Y-86774700D01*
X111647580Y-86780104D01*
X111455605Y-86817840D01*
X111272750Y-86836315D01*
X111098766Y-86842295D01*
X110929323Y-86833842D01*
X110830547Y-86813180D01*
X110777998Y-86783875D01*
X110760245Y-86744017D01*
G37*
G36*
X109948932Y-86100865D02*
G01*
X109932385Y-86060828D01*
X109887955Y-86038613D01*
X109807881Y-86030340D01*
X109727686Y-86038617D01*
X109683207Y-86060837D01*
X109666648Y-86100865D01*
X109666648Y-86912453D01*
X109683207Y-86952482D01*
X109727686Y-86974701D01*
X109807881Y-86982979D01*
X109887955Y-86974705D01*
X109932385Y-86952490D01*
X109948932Y-86912453D01*
X109948932Y-86100865D01*
G37*
G36*
X109948932Y-85761245D02*
G01*
X109948932Y-85693651D01*
X109932376Y-85653554D01*
X109887938Y-85631314D01*
X109807881Y-85623034D01*
X109727704Y-85631318D01*
X109683216Y-85653562D01*
X109666648Y-85693651D01*
X109666648Y-85761245D01*
X109683216Y-85801334D01*
X109727704Y-85823578D01*
X109807881Y-85831862D01*
X109887938Y-85823583D01*
X109932376Y-85801343D01*
X109948932Y-85761245D01*
G37*
G36*
X108736833Y-86042325D02*
G01*
X108864791Y-86068449D01*
X108978616Y-86112405D01*
X109066760Y-86169097D01*
X109119112Y-86232831D01*
X109137068Y-86305937D01*
X109137068Y-86710403D01*
X109118827Y-86782114D01*
X109064528Y-86847698D01*
X108975302Y-86907564D01*
X108868985Y-86948948D01*
X108742548Y-86974136D01*
X108590087Y-86982979D01*
X108055012Y-86982979D01*
X108055012Y-87114870D01*
X108074336Y-87165756D01*
X108132131Y-87208293D01*
X108217418Y-87237109D01*
X108319710Y-87246761D01*
X108860647Y-87246761D01*
X108940876Y-87255026D01*
X108985339Y-87277196D01*
X109001880Y-87317103D01*
X108985339Y-87357010D01*
X108940876Y-87379180D01*
X108860647Y-87387445D01*
X108319527Y-87387445D01*
X108172908Y-87378482D01*
X108045071Y-87352359D01*
X107931364Y-87308402D01*
X107843110Y-87251703D01*
X107790702Y-87187970D01*
X107772728Y-87114870D01*
X107772728Y-86842295D01*
X108055012Y-86842295D01*
X108590087Y-86842295D01*
X108690606Y-86832611D01*
X108776566Y-86803368D01*
X108835350Y-86760476D01*
X108854785Y-86710403D01*
X108854785Y-86305937D01*
X108835460Y-86255051D01*
X108777665Y-86212514D01*
X108692379Y-86183698D01*
X108590087Y-86174046D01*
X108055012Y-86174046D01*
X108055012Y-86842295D01*
X107772728Y-86842295D01*
X107772728Y-86103704D01*
X107789256Y-86063789D01*
X107833670Y-86041623D01*
X107913778Y-86033362D01*
X108590087Y-86033362D01*
X108736833Y-86042325D01*
G37*
G36*
X107243698Y-86912637D02*
G01*
X107243698Y-86103704D01*
X107227170Y-86063789D01*
X107182756Y-86041623D01*
X107102648Y-86033362D01*
X106426339Y-86033362D01*
X106279599Y-86042327D01*
X106151705Y-86068452D01*
X106037993Y-86112405D01*
X105949739Y-86169104D01*
X105897331Y-86232837D01*
X105879357Y-86305937D01*
X105879357Y-86912637D01*
X105895898Y-86952544D01*
X105940361Y-86974713D01*
X106020591Y-86982979D01*
X106100699Y-86974718D01*
X106145113Y-86952552D01*
X106161641Y-86912637D01*
X106161641Y-86305937D01*
X106180890Y-86254242D01*
X106237845Y-86212056D01*
X106322430Y-86183660D01*
X106426339Y-86174046D01*
X106961414Y-86174046D01*
X106961414Y-86912637D01*
X106977955Y-86952544D01*
X107022418Y-86974713D01*
X107102648Y-86982979D01*
X107182756Y-86974718D01*
X107227170Y-86952552D01*
X107243698Y-86912637D01*
G37*
D10*
X143861642Y-94240121D02*
X143385451Y-93906788D01*
X143861642Y-93668693D02*
X142861642Y-93668693D01*
X142861642Y-93668693D02*
X142861642Y-94049645D01*
X142861642Y-94049645D02*
X142909261Y-94144883D01*
X142909261Y-94144883D02*
X142956880Y-94192502D01*
X142956880Y-94192502D02*
X143052118Y-94240121D01*
X143052118Y-94240121D02*
X143194975Y-94240121D01*
X143194975Y-94240121D02*
X143290213Y-94192502D01*
X143290213Y-94192502D02*
X143337832Y-94144883D01*
X143337832Y-94144883D02*
X143385451Y-94049645D01*
X143385451Y-94049645D02*
X143385451Y-93668693D01*
X143861642Y-95192502D02*
X143861642Y-94621074D01*
X143861642Y-94906788D02*
X142861642Y-94906788D01*
X142861642Y-94906788D02*
X143004499Y-94811550D01*
X143004499Y-94811550D02*
X143099737Y-94716312D01*
X143099737Y-94716312D02*
X143147356Y-94621074D01*
X142861642Y-95811550D02*
X142861642Y-95906788D01*
X142861642Y-95906788D02*
X142909261Y-96002026D01*
X142909261Y-96002026D02*
X142956880Y-96049645D01*
X142956880Y-96049645D02*
X143052118Y-96097264D01*
X143052118Y-96097264D02*
X143242594Y-96144883D01*
X143242594Y-96144883D02*
X143480689Y-96144883D01*
X143480689Y-96144883D02*
X143671165Y-96097264D01*
X143671165Y-96097264D02*
X143766403Y-96049645D01*
X143766403Y-96049645D02*
X143814023Y-96002026D01*
X143814023Y-96002026D02*
X143861642Y-95906788D01*
X143861642Y-95906788D02*
X143861642Y-95811550D01*
X143861642Y-95811550D02*
X143814023Y-95716312D01*
X143814023Y-95716312D02*
X143766403Y-95668693D01*
X143766403Y-95668693D02*
X143671165Y-95621074D01*
X143671165Y-95621074D02*
X143480689Y-95573455D01*
X143480689Y-95573455D02*
X143242594Y-95573455D01*
X143242594Y-95573455D02*
X143052118Y-95621074D01*
X143052118Y-95621074D02*
X142956880Y-95668693D01*
X142956880Y-95668693D02*
X142909261Y-95716312D01*
X142909261Y-95716312D02*
X142861642Y-95811550D01*
X137619680Y-95067559D02*
X137667299Y-95115179D01*
X137667299Y-95115179D02*
X137810156Y-95162798D01*
X137810156Y-95162798D02*
X137905394Y-95162798D01*
X137905394Y-95162798D02*
X138048251Y-95115179D01*
X138048251Y-95115179D02*
X138143489Y-95019940D01*
X138143489Y-95019940D02*
X138191108Y-94924702D01*
X138191108Y-94924702D02*
X138238727Y-94734226D01*
X138238727Y-94734226D02*
X138238727Y-94591369D01*
X138238727Y-94591369D02*
X138191108Y-94400893D01*
X138191108Y-94400893D02*
X138143489Y-94305655D01*
X138143489Y-94305655D02*
X138048251Y-94210417D01*
X138048251Y-94210417D02*
X137905394Y-94162798D01*
X137905394Y-94162798D02*
X137810156Y-94162798D01*
X137810156Y-94162798D02*
X137667299Y-94210417D01*
X137667299Y-94210417D02*
X137619680Y-94258036D01*
X137238727Y-94258036D02*
X137191108Y-94210417D01*
X137191108Y-94210417D02*
X137095870Y-94162798D01*
X137095870Y-94162798D02*
X136857775Y-94162798D01*
X136857775Y-94162798D02*
X136762537Y-94210417D01*
X136762537Y-94210417D02*
X136714918Y-94258036D01*
X136714918Y-94258036D02*
X136667299Y-94353274D01*
X136667299Y-94353274D02*
X136667299Y-94448512D01*
X136667299Y-94448512D02*
X136714918Y-94591369D01*
X136714918Y-94591369D02*
X137286346Y-95162798D01*
X137286346Y-95162798D02*
X136667299Y-95162798D01*
X135714918Y-95162798D02*
X136286346Y-95162798D01*
X136000632Y-95162798D02*
X136000632Y-94162798D01*
X136000632Y-94162798D02*
X136095870Y-94305655D01*
X136095870Y-94305655D02*
X136191108Y-94400893D01*
X136191108Y-94400893D02*
X136286346Y-94448512D01*
X112907080Y-115454642D02*
X112954700Y-115407023D01*
X112954700Y-115407023D02*
X113002319Y-115264166D01*
X113002319Y-115264166D02*
X113002319Y-115168928D01*
X113002319Y-115168928D02*
X112954700Y-115026071D01*
X112954700Y-115026071D02*
X112859461Y-114930833D01*
X112859461Y-114930833D02*
X112764223Y-114883214D01*
X112764223Y-114883214D02*
X112573747Y-114835595D01*
X112573747Y-114835595D02*
X112430890Y-114835595D01*
X112430890Y-114835595D02*
X112240414Y-114883214D01*
X112240414Y-114883214D02*
X112145176Y-114930833D01*
X112145176Y-114930833D02*
X112049938Y-115026071D01*
X112049938Y-115026071D02*
X112002319Y-115168928D01*
X112002319Y-115168928D02*
X112002319Y-115264166D01*
X112002319Y-115264166D02*
X112049938Y-115407023D01*
X112049938Y-115407023D02*
X112097557Y-115454642D01*
X113002319Y-116407023D02*
X113002319Y-115835595D01*
X113002319Y-116121309D02*
X112002319Y-116121309D01*
X112002319Y-116121309D02*
X112145176Y-116026071D01*
X112145176Y-116026071D02*
X112240414Y-115930833D01*
X112240414Y-115930833D02*
X112288033Y-115835595D01*
X112097557Y-116787976D02*
X112049938Y-116835595D01*
X112049938Y-116835595D02*
X112002319Y-116930833D01*
X112002319Y-116930833D02*
X112002319Y-117168928D01*
X112002319Y-117168928D02*
X112049938Y-117264166D01*
X112049938Y-117264166D02*
X112097557Y-117311785D01*
X112097557Y-117311785D02*
X112192795Y-117359404D01*
X112192795Y-117359404D02*
X112288033Y-117359404D01*
X112288033Y-117359404D02*
X112430890Y-117311785D01*
X112430890Y-117311785D02*
X113002319Y-116740357D01*
X113002319Y-116740357D02*
X113002319Y-117359404D01*
X169619680Y-103067559D02*
X169667299Y-103115179D01*
X169667299Y-103115179D02*
X169810156Y-103162798D01*
X169810156Y-103162798D02*
X169905394Y-103162798D01*
X169905394Y-103162798D02*
X170048251Y-103115179D01*
X170048251Y-103115179D02*
X170143489Y-103019940D01*
X170143489Y-103019940D02*
X170191108Y-102924702D01*
X170191108Y-102924702D02*
X170238727Y-102734226D01*
X170238727Y-102734226D02*
X170238727Y-102591369D01*
X170238727Y-102591369D02*
X170191108Y-102400893D01*
X170191108Y-102400893D02*
X170143489Y-102305655D01*
X170143489Y-102305655D02*
X170048251Y-102210417D01*
X170048251Y-102210417D02*
X169905394Y-102162798D01*
X169905394Y-102162798D02*
X169810156Y-102162798D01*
X169810156Y-102162798D02*
X169667299Y-102210417D01*
X169667299Y-102210417D02*
X169619680Y-102258036D01*
X168667299Y-103162798D02*
X169238727Y-103162798D01*
X168953013Y-103162798D02*
X168953013Y-102162798D01*
X168953013Y-102162798D02*
X169048251Y-102305655D01*
X169048251Y-102305655D02*
X169143489Y-102400893D01*
X169143489Y-102400893D02*
X169238727Y-102448512D01*
X167762537Y-102162798D02*
X168238727Y-102162798D01*
X168238727Y-102162798D02*
X168286346Y-102638988D01*
X168286346Y-102638988D02*
X168238727Y-102591369D01*
X168238727Y-102591369D02*
X168143489Y-102543750D01*
X168143489Y-102543750D02*
X167905394Y-102543750D01*
X167905394Y-102543750D02*
X167810156Y-102591369D01*
X167810156Y-102591369D02*
X167762537Y-102638988D01*
X167762537Y-102638988D02*
X167714918Y-102734226D01*
X167714918Y-102734226D02*
X167714918Y-102972321D01*
X167714918Y-102972321D02*
X167762537Y-103067559D01*
X167762537Y-103067559D02*
X167810156Y-103115179D01*
X167810156Y-103115179D02*
X167905394Y-103162798D01*
X167905394Y-103162798D02*
X168143489Y-103162798D01*
X168143489Y-103162798D02*
X168238727Y-103115179D01*
X168238727Y-103115179D02*
X168286346Y-103067559D01*
X128336403Y-93565121D02*
X128384023Y-93517502D01*
X128384023Y-93517502D02*
X128431642Y-93374645D01*
X128431642Y-93374645D02*
X128431642Y-93279407D01*
X128431642Y-93279407D02*
X128384023Y-93136550D01*
X128384023Y-93136550D02*
X128288784Y-93041312D01*
X128288784Y-93041312D02*
X128193546Y-92993693D01*
X128193546Y-92993693D02*
X128003070Y-92946074D01*
X128003070Y-92946074D02*
X127860213Y-92946074D01*
X127860213Y-92946074D02*
X127669737Y-92993693D01*
X127669737Y-92993693D02*
X127574499Y-93041312D01*
X127574499Y-93041312D02*
X127479261Y-93136550D01*
X127479261Y-93136550D02*
X127431642Y-93279407D01*
X127431642Y-93279407D02*
X127431642Y-93374645D01*
X127431642Y-93374645D02*
X127479261Y-93517502D01*
X127479261Y-93517502D02*
X127526880Y-93565121D01*
X127431642Y-93898455D02*
X127431642Y-94517502D01*
X127431642Y-94517502D02*
X127812594Y-94184169D01*
X127812594Y-94184169D02*
X127812594Y-94327026D01*
X127812594Y-94327026D02*
X127860213Y-94422264D01*
X127860213Y-94422264D02*
X127907832Y-94469883D01*
X127907832Y-94469883D02*
X128003070Y-94517502D01*
X128003070Y-94517502D02*
X128241165Y-94517502D01*
X128241165Y-94517502D02*
X128336403Y-94469883D01*
X128336403Y-94469883D02*
X128384023Y-94422264D01*
X128384023Y-94422264D02*
X128431642Y-94327026D01*
X128431642Y-94327026D02*
X128431642Y-94041312D01*
X128431642Y-94041312D02*
X128384023Y-93946074D01*
X128384023Y-93946074D02*
X128336403Y-93898455D01*
X127431642Y-95374645D02*
X127431642Y-95184169D01*
X127431642Y-95184169D02*
X127479261Y-95088931D01*
X127479261Y-95088931D02*
X127526880Y-95041312D01*
X127526880Y-95041312D02*
X127669737Y-94946074D01*
X127669737Y-94946074D02*
X127860213Y-94898455D01*
X127860213Y-94898455D02*
X128241165Y-94898455D01*
X128241165Y-94898455D02*
X128336403Y-94946074D01*
X128336403Y-94946074D02*
X128384023Y-94993693D01*
X128384023Y-94993693D02*
X128431642Y-95088931D01*
X128431642Y-95088931D02*
X128431642Y-95279407D01*
X128431642Y-95279407D02*
X128384023Y-95374645D01*
X128384023Y-95374645D02*
X128336403Y-95422264D01*
X128336403Y-95422264D02*
X128241165Y-95469883D01*
X128241165Y-95469883D02*
X128003070Y-95469883D01*
X128003070Y-95469883D02*
X127907832Y-95422264D01*
X127907832Y-95422264D02*
X127860213Y-95374645D01*
X127860213Y-95374645D02*
X127812594Y-95279407D01*
X127812594Y-95279407D02*
X127812594Y-95088931D01*
X127812594Y-95088931D02*
X127860213Y-94993693D01*
X127860213Y-94993693D02*
X127907832Y-94946074D01*
X127907832Y-94946074D02*
X128003070Y-94898455D01*
X152386403Y-116361312D02*
X152434023Y-116313693D01*
X152434023Y-116313693D02*
X152481642Y-116170836D01*
X152481642Y-116170836D02*
X152481642Y-116075598D01*
X152481642Y-116075598D02*
X152434023Y-115932741D01*
X152434023Y-115932741D02*
X152338784Y-115837503D01*
X152338784Y-115837503D02*
X152243546Y-115789884D01*
X152243546Y-115789884D02*
X152053070Y-115742265D01*
X152053070Y-115742265D02*
X151910213Y-115742265D01*
X151910213Y-115742265D02*
X151719737Y-115789884D01*
X151719737Y-115789884D02*
X151624499Y-115837503D01*
X151624499Y-115837503D02*
X151529261Y-115932741D01*
X151529261Y-115932741D02*
X151481642Y-116075598D01*
X151481642Y-116075598D02*
X151481642Y-116170836D01*
X151481642Y-116170836D02*
X151529261Y-116313693D01*
X151529261Y-116313693D02*
X151576880Y-116361312D01*
X151481642Y-116694646D02*
X151481642Y-117361312D01*
X151481642Y-117361312D02*
X152481642Y-116932741D01*
X128643489Y-103567559D02*
X128691108Y-103615179D01*
X128691108Y-103615179D02*
X128833965Y-103662798D01*
X128833965Y-103662798D02*
X128929203Y-103662798D01*
X128929203Y-103662798D02*
X129072060Y-103615179D01*
X129072060Y-103615179D02*
X129167298Y-103519940D01*
X129167298Y-103519940D02*
X129214917Y-103424702D01*
X129214917Y-103424702D02*
X129262536Y-103234226D01*
X129262536Y-103234226D02*
X129262536Y-103091369D01*
X129262536Y-103091369D02*
X129214917Y-102900893D01*
X129214917Y-102900893D02*
X129167298Y-102805655D01*
X129167298Y-102805655D02*
X129072060Y-102710417D01*
X129072060Y-102710417D02*
X128929203Y-102662798D01*
X128929203Y-102662798D02*
X128833965Y-102662798D01*
X128833965Y-102662798D02*
X128691108Y-102710417D01*
X128691108Y-102710417D02*
X128643489Y-102758036D01*
X127691108Y-103662798D02*
X128262536Y-103662798D01*
X127976822Y-103662798D02*
X127976822Y-102662798D01*
X127976822Y-102662798D02*
X128072060Y-102805655D01*
X128072060Y-102805655D02*
X128167298Y-102900893D01*
X128167298Y-102900893D02*
X128262536Y-102948512D01*
X167143489Y-123617559D02*
X167191108Y-123665179D01*
X167191108Y-123665179D02*
X167333965Y-123712798D01*
X167333965Y-123712798D02*
X167429203Y-123712798D01*
X167429203Y-123712798D02*
X167572060Y-123665179D01*
X167572060Y-123665179D02*
X167667298Y-123569940D01*
X167667298Y-123569940D02*
X167714917Y-123474702D01*
X167714917Y-123474702D02*
X167762536Y-123284226D01*
X167762536Y-123284226D02*
X167762536Y-123141369D01*
X167762536Y-123141369D02*
X167714917Y-122950893D01*
X167714917Y-122950893D02*
X167667298Y-122855655D01*
X167667298Y-122855655D02*
X167572060Y-122760417D01*
X167572060Y-122760417D02*
X167429203Y-122712798D01*
X167429203Y-122712798D02*
X167333965Y-122712798D01*
X167333965Y-122712798D02*
X167191108Y-122760417D01*
X167191108Y-122760417D02*
X167143489Y-122808036D01*
X166286346Y-122712798D02*
X166476822Y-122712798D01*
X166476822Y-122712798D02*
X166572060Y-122760417D01*
X166572060Y-122760417D02*
X166619679Y-122808036D01*
X166619679Y-122808036D02*
X166714917Y-122950893D01*
X166714917Y-122950893D02*
X166762536Y-123141369D01*
X166762536Y-123141369D02*
X166762536Y-123522321D01*
X166762536Y-123522321D02*
X166714917Y-123617559D01*
X166714917Y-123617559D02*
X166667298Y-123665179D01*
X166667298Y-123665179D02*
X166572060Y-123712798D01*
X166572060Y-123712798D02*
X166381584Y-123712798D01*
X166381584Y-123712798D02*
X166286346Y-123665179D01*
X166286346Y-123665179D02*
X166238727Y-123617559D01*
X166238727Y-123617559D02*
X166191108Y-123522321D01*
X166191108Y-123522321D02*
X166191108Y-123284226D01*
X166191108Y-123284226D02*
X166238727Y-123188988D01*
X166238727Y-123188988D02*
X166286346Y-123141369D01*
X166286346Y-123141369D02*
X166381584Y-123093750D01*
X166381584Y-123093750D02*
X166572060Y-123093750D01*
X166572060Y-123093750D02*
X166667298Y-123141369D01*
X166667298Y-123141369D02*
X166714917Y-123188988D01*
X166714917Y-123188988D02*
X166762536Y-123284226D01*
X133336403Y-90065121D02*
X133384023Y-90017502D01*
X133384023Y-90017502D02*
X133431642Y-89874645D01*
X133431642Y-89874645D02*
X133431642Y-89779407D01*
X133431642Y-89779407D02*
X133384023Y-89636550D01*
X133384023Y-89636550D02*
X133288784Y-89541312D01*
X133288784Y-89541312D02*
X133193546Y-89493693D01*
X133193546Y-89493693D02*
X133003070Y-89446074D01*
X133003070Y-89446074D02*
X132860213Y-89446074D01*
X132860213Y-89446074D02*
X132669737Y-89493693D01*
X132669737Y-89493693D02*
X132574499Y-89541312D01*
X132574499Y-89541312D02*
X132479261Y-89636550D01*
X132479261Y-89636550D02*
X132431642Y-89779407D01*
X132431642Y-89779407D02*
X132431642Y-89874645D01*
X132431642Y-89874645D02*
X132479261Y-90017502D01*
X132479261Y-90017502D02*
X132526880Y-90065121D01*
X132526880Y-90446074D02*
X132479261Y-90493693D01*
X132479261Y-90493693D02*
X132431642Y-90588931D01*
X132431642Y-90588931D02*
X132431642Y-90827026D01*
X132431642Y-90827026D02*
X132479261Y-90922264D01*
X132479261Y-90922264D02*
X132526880Y-90969883D01*
X132526880Y-90969883D02*
X132622118Y-91017502D01*
X132622118Y-91017502D02*
X132717356Y-91017502D01*
X132717356Y-91017502D02*
X132860213Y-90969883D01*
X132860213Y-90969883D02*
X133431642Y-90398455D01*
X133431642Y-90398455D02*
X133431642Y-91017502D01*
X132526880Y-91398455D02*
X132479261Y-91446074D01*
X132479261Y-91446074D02*
X132431642Y-91541312D01*
X132431642Y-91541312D02*
X132431642Y-91779407D01*
X132431642Y-91779407D02*
X132479261Y-91874645D01*
X132479261Y-91874645D02*
X132526880Y-91922264D01*
X132526880Y-91922264D02*
X132622118Y-91969883D01*
X132622118Y-91969883D02*
X132717356Y-91969883D01*
X132717356Y-91969883D02*
X132860213Y-91922264D01*
X132860213Y-91922264D02*
X133431642Y-91350836D01*
X133431642Y-91350836D02*
X133431642Y-91969883D01*
X162336403Y-127565121D02*
X162384023Y-127517502D01*
X162384023Y-127517502D02*
X162431642Y-127374645D01*
X162431642Y-127374645D02*
X162431642Y-127279407D01*
X162431642Y-127279407D02*
X162384023Y-127136550D01*
X162384023Y-127136550D02*
X162288784Y-127041312D01*
X162288784Y-127041312D02*
X162193546Y-126993693D01*
X162193546Y-126993693D02*
X162003070Y-126946074D01*
X162003070Y-126946074D02*
X161860213Y-126946074D01*
X161860213Y-126946074D02*
X161669737Y-126993693D01*
X161669737Y-126993693D02*
X161574499Y-127041312D01*
X161574499Y-127041312D02*
X161479261Y-127136550D01*
X161479261Y-127136550D02*
X161431642Y-127279407D01*
X161431642Y-127279407D02*
X161431642Y-127374645D01*
X161431642Y-127374645D02*
X161479261Y-127517502D01*
X161479261Y-127517502D02*
X161526880Y-127565121D01*
X162431642Y-128517502D02*
X162431642Y-127946074D01*
X162431642Y-128231788D02*
X161431642Y-128231788D01*
X161431642Y-128231788D02*
X161574499Y-128136550D01*
X161574499Y-128136550D02*
X161669737Y-128041312D01*
X161669737Y-128041312D02*
X161717356Y-127946074D01*
X161764975Y-129374645D02*
X162431642Y-129374645D01*
X161384023Y-129136550D02*
X162098308Y-128898455D01*
X162098308Y-128898455D02*
X162098308Y-129517502D01*
X166431642Y-105493693D02*
X167241165Y-105493693D01*
X167241165Y-105493693D02*
X167336403Y-105541312D01*
X167336403Y-105541312D02*
X167384023Y-105588931D01*
X167384023Y-105588931D02*
X167431642Y-105684169D01*
X167431642Y-105684169D02*
X167431642Y-105874645D01*
X167431642Y-105874645D02*
X167384023Y-105969883D01*
X167384023Y-105969883D02*
X167336403Y-106017502D01*
X167336403Y-106017502D02*
X167241165Y-106065121D01*
X167241165Y-106065121D02*
X166431642Y-106065121D01*
X167384023Y-106493693D02*
X167431642Y-106636550D01*
X167431642Y-106636550D02*
X167431642Y-106874645D01*
X167431642Y-106874645D02*
X167384023Y-106969883D01*
X167384023Y-106969883D02*
X167336403Y-107017502D01*
X167336403Y-107017502D02*
X167241165Y-107065121D01*
X167241165Y-107065121D02*
X167145927Y-107065121D01*
X167145927Y-107065121D02*
X167050689Y-107017502D01*
X167050689Y-107017502D02*
X167003070Y-106969883D01*
X167003070Y-106969883D02*
X166955451Y-106874645D01*
X166955451Y-106874645D02*
X166907832Y-106684169D01*
X166907832Y-106684169D02*
X166860213Y-106588931D01*
X166860213Y-106588931D02*
X166812594Y-106541312D01*
X166812594Y-106541312D02*
X166717356Y-106493693D01*
X166717356Y-106493693D02*
X166622118Y-106493693D01*
X166622118Y-106493693D02*
X166526880Y-106541312D01*
X166526880Y-106541312D02*
X166479261Y-106588931D01*
X166479261Y-106588931D02*
X166431642Y-106684169D01*
X166431642Y-106684169D02*
X166431642Y-106922264D01*
X166431642Y-106922264D02*
X166479261Y-107065121D01*
X166907832Y-107827026D02*
X166955451Y-107969883D01*
X166955451Y-107969883D02*
X167003070Y-108017502D01*
X167003070Y-108017502D02*
X167098308Y-108065121D01*
X167098308Y-108065121D02*
X167241165Y-108065121D01*
X167241165Y-108065121D02*
X167336403Y-108017502D01*
X167336403Y-108017502D02*
X167384023Y-107969883D01*
X167384023Y-107969883D02*
X167431642Y-107874645D01*
X167431642Y-107874645D02*
X167431642Y-107493693D01*
X167431642Y-107493693D02*
X166431642Y-107493693D01*
X166431642Y-107493693D02*
X166431642Y-107827026D01*
X166431642Y-107827026D02*
X166479261Y-107922264D01*
X166479261Y-107922264D02*
X166526880Y-107969883D01*
X166526880Y-107969883D02*
X166622118Y-108017502D01*
X166622118Y-108017502D02*
X166717356Y-108017502D01*
X166717356Y-108017502D02*
X166812594Y-107969883D01*
X166812594Y-107969883D02*
X166860213Y-107922264D01*
X166860213Y-107922264D02*
X166907832Y-107827026D01*
X166907832Y-107827026D02*
X166907832Y-107493693D01*
X167526880Y-108255598D02*
X167526880Y-109017502D01*
X167431642Y-109255598D02*
X166431642Y-109255598D01*
X166431642Y-109255598D02*
X166431642Y-109636550D01*
X166431642Y-109636550D02*
X166479261Y-109731788D01*
X166479261Y-109731788D02*
X166526880Y-109779407D01*
X166526880Y-109779407D02*
X166622118Y-109827026D01*
X166622118Y-109827026D02*
X166764975Y-109827026D01*
X166764975Y-109827026D02*
X166860213Y-109779407D01*
X166860213Y-109779407D02*
X166907832Y-109731788D01*
X166907832Y-109731788D02*
X166955451Y-109636550D01*
X166955451Y-109636550D02*
X166955451Y-109255598D01*
X166431642Y-110446074D02*
X166431642Y-110636550D01*
X166431642Y-110636550D02*
X166479261Y-110731788D01*
X166479261Y-110731788D02*
X166574499Y-110827026D01*
X166574499Y-110827026D02*
X166764975Y-110874645D01*
X166764975Y-110874645D02*
X167098308Y-110874645D01*
X167098308Y-110874645D02*
X167288784Y-110827026D01*
X167288784Y-110827026D02*
X167384023Y-110731788D01*
X167384023Y-110731788D02*
X167431642Y-110636550D01*
X167431642Y-110636550D02*
X167431642Y-110446074D01*
X167431642Y-110446074D02*
X167384023Y-110350836D01*
X167384023Y-110350836D02*
X167288784Y-110255598D01*
X167288784Y-110255598D02*
X167098308Y-110207979D01*
X167098308Y-110207979D02*
X166764975Y-110207979D01*
X166764975Y-110207979D02*
X166574499Y-110255598D01*
X166574499Y-110255598D02*
X166479261Y-110350836D01*
X166479261Y-110350836D02*
X166431642Y-110446074D01*
X166431642Y-111207979D02*
X167431642Y-111446074D01*
X167431642Y-111446074D02*
X166717356Y-111636550D01*
X166717356Y-111636550D02*
X167431642Y-111827026D01*
X167431642Y-111827026D02*
X166431642Y-112065122D01*
X167431642Y-112969883D02*
X167431642Y-112398455D01*
X167431642Y-112684169D02*
X166431642Y-112684169D01*
X166431642Y-112684169D02*
X166574499Y-112588931D01*
X166574499Y-112588931D02*
X166669737Y-112493693D01*
X166669737Y-112493693D02*
X166717356Y-112398455D01*
X131836403Y-90065121D02*
X131884023Y-90017502D01*
X131884023Y-90017502D02*
X131931642Y-89874645D01*
X131931642Y-89874645D02*
X131931642Y-89779407D01*
X131931642Y-89779407D02*
X131884023Y-89636550D01*
X131884023Y-89636550D02*
X131788784Y-89541312D01*
X131788784Y-89541312D02*
X131693546Y-89493693D01*
X131693546Y-89493693D02*
X131503070Y-89446074D01*
X131503070Y-89446074D02*
X131360213Y-89446074D01*
X131360213Y-89446074D02*
X131169737Y-89493693D01*
X131169737Y-89493693D02*
X131074499Y-89541312D01*
X131074499Y-89541312D02*
X130979261Y-89636550D01*
X130979261Y-89636550D02*
X130931642Y-89779407D01*
X130931642Y-89779407D02*
X130931642Y-89874645D01*
X130931642Y-89874645D02*
X130979261Y-90017502D01*
X130979261Y-90017502D02*
X131026880Y-90065121D01*
X131931642Y-91017502D02*
X131931642Y-90446074D01*
X131931642Y-90731788D02*
X130931642Y-90731788D01*
X130931642Y-90731788D02*
X131074499Y-90636550D01*
X131074499Y-90636550D02*
X131169737Y-90541312D01*
X131169737Y-90541312D02*
X131217356Y-90446074D01*
X131931642Y-91493693D02*
X131931642Y-91684169D01*
X131931642Y-91684169D02*
X131884023Y-91779407D01*
X131884023Y-91779407D02*
X131836403Y-91827026D01*
X131836403Y-91827026D02*
X131693546Y-91922264D01*
X131693546Y-91922264D02*
X131503070Y-91969883D01*
X131503070Y-91969883D02*
X131122118Y-91969883D01*
X131122118Y-91969883D02*
X131026880Y-91922264D01*
X131026880Y-91922264D02*
X130979261Y-91874645D01*
X130979261Y-91874645D02*
X130931642Y-91779407D01*
X130931642Y-91779407D02*
X130931642Y-91588931D01*
X130931642Y-91588931D02*
X130979261Y-91493693D01*
X130979261Y-91493693D02*
X131026880Y-91446074D01*
X131026880Y-91446074D02*
X131122118Y-91398455D01*
X131122118Y-91398455D02*
X131360213Y-91398455D01*
X131360213Y-91398455D02*
X131455451Y-91446074D01*
X131455451Y-91446074D02*
X131503070Y-91493693D01*
X131503070Y-91493693D02*
X131550689Y-91588931D01*
X131550689Y-91588931D02*
X131550689Y-91779407D01*
X131550689Y-91779407D02*
X131503070Y-91874645D01*
X131503070Y-91874645D02*
X131455451Y-91922264D01*
X131455451Y-91922264D02*
X131360213Y-91969883D01*
X141386403Y-96745121D02*
X141434023Y-96697502D01*
X141434023Y-96697502D02*
X141481642Y-96554645D01*
X141481642Y-96554645D02*
X141481642Y-96459407D01*
X141481642Y-96459407D02*
X141434023Y-96316550D01*
X141434023Y-96316550D02*
X141338784Y-96221312D01*
X141338784Y-96221312D02*
X141243546Y-96173693D01*
X141243546Y-96173693D02*
X141053070Y-96126074D01*
X141053070Y-96126074D02*
X140910213Y-96126074D01*
X140910213Y-96126074D02*
X140719737Y-96173693D01*
X140719737Y-96173693D02*
X140624499Y-96221312D01*
X140624499Y-96221312D02*
X140529261Y-96316550D01*
X140529261Y-96316550D02*
X140481642Y-96459407D01*
X140481642Y-96459407D02*
X140481642Y-96554645D01*
X140481642Y-96554645D02*
X140529261Y-96697502D01*
X140529261Y-96697502D02*
X140576880Y-96745121D01*
X140481642Y-97078455D02*
X140481642Y-97697502D01*
X140481642Y-97697502D02*
X140862594Y-97364169D01*
X140862594Y-97364169D02*
X140862594Y-97507026D01*
X140862594Y-97507026D02*
X140910213Y-97602264D01*
X140910213Y-97602264D02*
X140957832Y-97649883D01*
X140957832Y-97649883D02*
X141053070Y-97697502D01*
X141053070Y-97697502D02*
X141291165Y-97697502D01*
X141291165Y-97697502D02*
X141386403Y-97649883D01*
X141386403Y-97649883D02*
X141434023Y-97602264D01*
X141434023Y-97602264D02*
X141481642Y-97507026D01*
X141481642Y-97507026D02*
X141481642Y-97221312D01*
X141481642Y-97221312D02*
X141434023Y-97126074D01*
X141434023Y-97126074D02*
X141386403Y-97078455D01*
X140576880Y-98078455D02*
X140529261Y-98126074D01*
X140529261Y-98126074D02*
X140481642Y-98221312D01*
X140481642Y-98221312D02*
X140481642Y-98459407D01*
X140481642Y-98459407D02*
X140529261Y-98554645D01*
X140529261Y-98554645D02*
X140576880Y-98602264D01*
X140576880Y-98602264D02*
X140672118Y-98649883D01*
X140672118Y-98649883D02*
X140767356Y-98649883D01*
X140767356Y-98649883D02*
X140910213Y-98602264D01*
X140910213Y-98602264D02*
X141481642Y-98030836D01*
X141481642Y-98030836D02*
X141481642Y-98649883D01*
X132799680Y-102207089D02*
X132847299Y-102254709D01*
X132847299Y-102254709D02*
X132990156Y-102302328D01*
X132990156Y-102302328D02*
X133085394Y-102302328D01*
X133085394Y-102302328D02*
X133228251Y-102254709D01*
X133228251Y-102254709D02*
X133323489Y-102159470D01*
X133323489Y-102159470D02*
X133371108Y-102064232D01*
X133371108Y-102064232D02*
X133418727Y-101873756D01*
X133418727Y-101873756D02*
X133418727Y-101730899D01*
X133418727Y-101730899D02*
X133371108Y-101540423D01*
X133371108Y-101540423D02*
X133323489Y-101445185D01*
X133323489Y-101445185D02*
X133228251Y-101349947D01*
X133228251Y-101349947D02*
X133085394Y-101302328D01*
X133085394Y-101302328D02*
X132990156Y-101302328D01*
X132990156Y-101302328D02*
X132847299Y-101349947D01*
X132847299Y-101349947D02*
X132799680Y-101397566D01*
X132466346Y-101302328D02*
X131847299Y-101302328D01*
X131847299Y-101302328D02*
X132180632Y-101683280D01*
X132180632Y-101683280D02*
X132037775Y-101683280D01*
X132037775Y-101683280D02*
X131942537Y-101730899D01*
X131942537Y-101730899D02*
X131894918Y-101778518D01*
X131894918Y-101778518D02*
X131847299Y-101873756D01*
X131847299Y-101873756D02*
X131847299Y-102111851D01*
X131847299Y-102111851D02*
X131894918Y-102207089D01*
X131894918Y-102207089D02*
X131942537Y-102254709D01*
X131942537Y-102254709D02*
X132037775Y-102302328D01*
X132037775Y-102302328D02*
X132323489Y-102302328D01*
X132323489Y-102302328D02*
X132418727Y-102254709D01*
X132418727Y-102254709D02*
X132466346Y-102207089D01*
X131371108Y-102302328D02*
X131180632Y-102302328D01*
X131180632Y-102302328D02*
X131085394Y-102254709D01*
X131085394Y-102254709D02*
X131037775Y-102207089D01*
X131037775Y-102207089D02*
X130942537Y-102064232D01*
X130942537Y-102064232D02*
X130894918Y-101873756D01*
X130894918Y-101873756D02*
X130894918Y-101492804D01*
X130894918Y-101492804D02*
X130942537Y-101397566D01*
X130942537Y-101397566D02*
X130990156Y-101349947D01*
X130990156Y-101349947D02*
X131085394Y-101302328D01*
X131085394Y-101302328D02*
X131275870Y-101302328D01*
X131275870Y-101302328D02*
X131371108Y-101349947D01*
X131371108Y-101349947D02*
X131418727Y-101397566D01*
X131418727Y-101397566D02*
X131466346Y-101492804D01*
X131466346Y-101492804D02*
X131466346Y-101730899D01*
X131466346Y-101730899D02*
X131418727Y-101826137D01*
X131418727Y-101826137D02*
X131371108Y-101873756D01*
X131371108Y-101873756D02*
X131275870Y-101921375D01*
X131275870Y-101921375D02*
X131085394Y-101921375D01*
X131085394Y-101921375D02*
X130990156Y-101873756D01*
X130990156Y-101873756D02*
X130942537Y-101826137D01*
X130942537Y-101826137D02*
X130894918Y-101730899D01*
X169643489Y-105067559D02*
X169691108Y-105115179D01*
X169691108Y-105115179D02*
X169833965Y-105162798D01*
X169833965Y-105162798D02*
X169929203Y-105162798D01*
X169929203Y-105162798D02*
X170072060Y-105115179D01*
X170072060Y-105115179D02*
X170167298Y-105019940D01*
X170167298Y-105019940D02*
X170214917Y-104924702D01*
X170214917Y-104924702D02*
X170262536Y-104734226D01*
X170262536Y-104734226D02*
X170262536Y-104591369D01*
X170262536Y-104591369D02*
X170214917Y-104400893D01*
X170214917Y-104400893D02*
X170167298Y-104305655D01*
X170167298Y-104305655D02*
X170072060Y-104210417D01*
X170072060Y-104210417D02*
X169929203Y-104162798D01*
X169929203Y-104162798D02*
X169833965Y-104162798D01*
X169833965Y-104162798D02*
X169691108Y-104210417D01*
X169691108Y-104210417D02*
X169643489Y-104258036D01*
X168786346Y-104496131D02*
X168786346Y-105162798D01*
X169024441Y-104115179D02*
X169262536Y-104829464D01*
X169262536Y-104829464D02*
X168643489Y-104829464D01*
X138836403Y-90565121D02*
X138884023Y-90517502D01*
X138884023Y-90517502D02*
X138931642Y-90374645D01*
X138931642Y-90374645D02*
X138931642Y-90279407D01*
X138931642Y-90279407D02*
X138884023Y-90136550D01*
X138884023Y-90136550D02*
X138788784Y-90041312D01*
X138788784Y-90041312D02*
X138693546Y-89993693D01*
X138693546Y-89993693D02*
X138503070Y-89946074D01*
X138503070Y-89946074D02*
X138360213Y-89946074D01*
X138360213Y-89946074D02*
X138169737Y-89993693D01*
X138169737Y-89993693D02*
X138074499Y-90041312D01*
X138074499Y-90041312D02*
X137979261Y-90136550D01*
X137979261Y-90136550D02*
X137931642Y-90279407D01*
X137931642Y-90279407D02*
X137931642Y-90374645D01*
X137931642Y-90374645D02*
X137979261Y-90517502D01*
X137979261Y-90517502D02*
X138026880Y-90565121D01*
X138026880Y-90946074D02*
X137979261Y-90993693D01*
X137979261Y-90993693D02*
X137931642Y-91088931D01*
X137931642Y-91088931D02*
X137931642Y-91327026D01*
X137931642Y-91327026D02*
X137979261Y-91422264D01*
X137979261Y-91422264D02*
X138026880Y-91469883D01*
X138026880Y-91469883D02*
X138122118Y-91517502D01*
X138122118Y-91517502D02*
X138217356Y-91517502D01*
X138217356Y-91517502D02*
X138360213Y-91469883D01*
X138360213Y-91469883D02*
X138931642Y-90898455D01*
X138931642Y-90898455D02*
X138931642Y-91517502D01*
X138264975Y-92374645D02*
X138931642Y-92374645D01*
X137884023Y-92136550D02*
X138598308Y-91898455D01*
X138598308Y-91898455D02*
X138598308Y-92517502D01*
X131836403Y-96565121D02*
X131884023Y-96517502D01*
X131884023Y-96517502D02*
X131931642Y-96374645D01*
X131931642Y-96374645D02*
X131931642Y-96279407D01*
X131931642Y-96279407D02*
X131884023Y-96136550D01*
X131884023Y-96136550D02*
X131788784Y-96041312D01*
X131788784Y-96041312D02*
X131693546Y-95993693D01*
X131693546Y-95993693D02*
X131503070Y-95946074D01*
X131503070Y-95946074D02*
X131360213Y-95946074D01*
X131360213Y-95946074D02*
X131169737Y-95993693D01*
X131169737Y-95993693D02*
X131074499Y-96041312D01*
X131074499Y-96041312D02*
X130979261Y-96136550D01*
X130979261Y-96136550D02*
X130931642Y-96279407D01*
X130931642Y-96279407D02*
X130931642Y-96374645D01*
X130931642Y-96374645D02*
X130979261Y-96517502D01*
X130979261Y-96517502D02*
X131026880Y-96565121D01*
X130931642Y-96898455D02*
X130931642Y-97517502D01*
X130931642Y-97517502D02*
X131312594Y-97184169D01*
X131312594Y-97184169D02*
X131312594Y-97327026D01*
X131312594Y-97327026D02*
X131360213Y-97422264D01*
X131360213Y-97422264D02*
X131407832Y-97469883D01*
X131407832Y-97469883D02*
X131503070Y-97517502D01*
X131503070Y-97517502D02*
X131741165Y-97517502D01*
X131741165Y-97517502D02*
X131836403Y-97469883D01*
X131836403Y-97469883D02*
X131884023Y-97422264D01*
X131884023Y-97422264D02*
X131931642Y-97327026D01*
X131931642Y-97327026D02*
X131931642Y-97041312D01*
X131931642Y-97041312D02*
X131884023Y-96946074D01*
X131884023Y-96946074D02*
X131836403Y-96898455D01*
X130931642Y-98422264D02*
X130931642Y-97946074D01*
X130931642Y-97946074D02*
X131407832Y-97898455D01*
X131407832Y-97898455D02*
X131360213Y-97946074D01*
X131360213Y-97946074D02*
X131312594Y-98041312D01*
X131312594Y-98041312D02*
X131312594Y-98279407D01*
X131312594Y-98279407D02*
X131360213Y-98374645D01*
X131360213Y-98374645D02*
X131407832Y-98422264D01*
X131407832Y-98422264D02*
X131503070Y-98469883D01*
X131503070Y-98469883D02*
X131741165Y-98469883D01*
X131741165Y-98469883D02*
X131836403Y-98422264D01*
X131836403Y-98422264D02*
X131884023Y-98374645D01*
X131884023Y-98374645D02*
X131931642Y-98279407D01*
X131931642Y-98279407D02*
X131931642Y-98041312D01*
X131931642Y-98041312D02*
X131884023Y-97946074D01*
X131884023Y-97946074D02*
X131836403Y-97898455D01*
X135336403Y-90565121D02*
X135384023Y-90517502D01*
X135384023Y-90517502D02*
X135431642Y-90374645D01*
X135431642Y-90374645D02*
X135431642Y-90279407D01*
X135431642Y-90279407D02*
X135384023Y-90136550D01*
X135384023Y-90136550D02*
X135288784Y-90041312D01*
X135288784Y-90041312D02*
X135193546Y-89993693D01*
X135193546Y-89993693D02*
X135003070Y-89946074D01*
X135003070Y-89946074D02*
X134860213Y-89946074D01*
X134860213Y-89946074D02*
X134669737Y-89993693D01*
X134669737Y-89993693D02*
X134574499Y-90041312D01*
X134574499Y-90041312D02*
X134479261Y-90136550D01*
X134479261Y-90136550D02*
X134431642Y-90279407D01*
X134431642Y-90279407D02*
X134431642Y-90374645D01*
X134431642Y-90374645D02*
X134479261Y-90517502D01*
X134479261Y-90517502D02*
X134526880Y-90565121D01*
X135431642Y-91517502D02*
X135431642Y-90946074D01*
X135431642Y-91231788D02*
X134431642Y-91231788D01*
X134431642Y-91231788D02*
X134574499Y-91136550D01*
X134574499Y-91136550D02*
X134669737Y-91041312D01*
X134669737Y-91041312D02*
X134717356Y-90946074D01*
X134860213Y-92088931D02*
X134812594Y-91993693D01*
X134812594Y-91993693D02*
X134764975Y-91946074D01*
X134764975Y-91946074D02*
X134669737Y-91898455D01*
X134669737Y-91898455D02*
X134622118Y-91898455D01*
X134622118Y-91898455D02*
X134526880Y-91946074D01*
X134526880Y-91946074D02*
X134479261Y-91993693D01*
X134479261Y-91993693D02*
X134431642Y-92088931D01*
X134431642Y-92088931D02*
X134431642Y-92279407D01*
X134431642Y-92279407D02*
X134479261Y-92374645D01*
X134479261Y-92374645D02*
X134526880Y-92422264D01*
X134526880Y-92422264D02*
X134622118Y-92469883D01*
X134622118Y-92469883D02*
X134669737Y-92469883D01*
X134669737Y-92469883D02*
X134764975Y-92422264D01*
X134764975Y-92422264D02*
X134812594Y-92374645D01*
X134812594Y-92374645D02*
X134860213Y-92279407D01*
X134860213Y-92279407D02*
X134860213Y-92088931D01*
X134860213Y-92088931D02*
X134907832Y-91993693D01*
X134907832Y-91993693D02*
X134955451Y-91946074D01*
X134955451Y-91946074D02*
X135050689Y-91898455D01*
X135050689Y-91898455D02*
X135241165Y-91898455D01*
X135241165Y-91898455D02*
X135336403Y-91946074D01*
X135336403Y-91946074D02*
X135384023Y-91993693D01*
X135384023Y-91993693D02*
X135431642Y-92088931D01*
X135431642Y-92088931D02*
X135431642Y-92279407D01*
X135431642Y-92279407D02*
X135384023Y-92374645D01*
X135384023Y-92374645D02*
X135336403Y-92422264D01*
X135336403Y-92422264D02*
X135241165Y-92469883D01*
X135241165Y-92469883D02*
X135050689Y-92469883D01*
X135050689Y-92469883D02*
X134955451Y-92422264D01*
X134955451Y-92422264D02*
X134907832Y-92374645D01*
X134907832Y-92374645D02*
X134860213Y-92279407D01*
X139599680Y-106117559D02*
X139647299Y-106165179D01*
X139647299Y-106165179D02*
X139790156Y-106212798D01*
X139790156Y-106212798D02*
X139885394Y-106212798D01*
X139885394Y-106212798D02*
X140028251Y-106165179D01*
X140028251Y-106165179D02*
X140123489Y-106069940D01*
X140123489Y-106069940D02*
X140171108Y-105974702D01*
X140171108Y-105974702D02*
X140218727Y-105784226D01*
X140218727Y-105784226D02*
X140218727Y-105641369D01*
X140218727Y-105641369D02*
X140171108Y-105450893D01*
X140171108Y-105450893D02*
X140123489Y-105355655D01*
X140123489Y-105355655D02*
X140028251Y-105260417D01*
X140028251Y-105260417D02*
X139885394Y-105212798D01*
X139885394Y-105212798D02*
X139790156Y-105212798D01*
X139790156Y-105212798D02*
X139647299Y-105260417D01*
X139647299Y-105260417D02*
X139599680Y-105308036D01*
X139266346Y-105212798D02*
X138647299Y-105212798D01*
X138647299Y-105212798D02*
X138980632Y-105593750D01*
X138980632Y-105593750D02*
X138837775Y-105593750D01*
X138837775Y-105593750D02*
X138742537Y-105641369D01*
X138742537Y-105641369D02*
X138694918Y-105688988D01*
X138694918Y-105688988D02*
X138647299Y-105784226D01*
X138647299Y-105784226D02*
X138647299Y-106022321D01*
X138647299Y-106022321D02*
X138694918Y-106117559D01*
X138694918Y-106117559D02*
X138742537Y-106165179D01*
X138742537Y-106165179D02*
X138837775Y-106212798D01*
X138837775Y-106212798D02*
X139123489Y-106212798D01*
X139123489Y-106212798D02*
X139218727Y-106165179D01*
X139218727Y-106165179D02*
X139266346Y-106117559D01*
X138075870Y-105641369D02*
X138171108Y-105593750D01*
X138171108Y-105593750D02*
X138218727Y-105546131D01*
X138218727Y-105546131D02*
X138266346Y-105450893D01*
X138266346Y-105450893D02*
X138266346Y-105403274D01*
X138266346Y-105403274D02*
X138218727Y-105308036D01*
X138218727Y-105308036D02*
X138171108Y-105260417D01*
X138171108Y-105260417D02*
X138075870Y-105212798D01*
X138075870Y-105212798D02*
X137885394Y-105212798D01*
X137885394Y-105212798D02*
X137790156Y-105260417D01*
X137790156Y-105260417D02*
X137742537Y-105308036D01*
X137742537Y-105308036D02*
X137694918Y-105403274D01*
X137694918Y-105403274D02*
X137694918Y-105450893D01*
X137694918Y-105450893D02*
X137742537Y-105546131D01*
X137742537Y-105546131D02*
X137790156Y-105593750D01*
X137790156Y-105593750D02*
X137885394Y-105641369D01*
X137885394Y-105641369D02*
X138075870Y-105641369D01*
X138075870Y-105641369D02*
X138171108Y-105688988D01*
X138171108Y-105688988D02*
X138218727Y-105736607D01*
X138218727Y-105736607D02*
X138266346Y-105831845D01*
X138266346Y-105831845D02*
X138266346Y-106022321D01*
X138266346Y-106022321D02*
X138218727Y-106117559D01*
X138218727Y-106117559D02*
X138171108Y-106165179D01*
X138171108Y-106165179D02*
X138075870Y-106212798D01*
X138075870Y-106212798D02*
X137885394Y-106212798D01*
X137885394Y-106212798D02*
X137790156Y-106165179D01*
X137790156Y-106165179D02*
X137742537Y-106117559D01*
X137742537Y-106117559D02*
X137694918Y-106022321D01*
X137694918Y-106022321D02*
X137694918Y-105831845D01*
X137694918Y-105831845D02*
X137742537Y-105736607D01*
X137742537Y-105736607D02*
X137790156Y-105688988D01*
X137790156Y-105688988D02*
X137885394Y-105641369D01*
X126286403Y-103565121D02*
X126334023Y-103517502D01*
X126334023Y-103517502D02*
X126381642Y-103374645D01*
X126381642Y-103374645D02*
X126381642Y-103279407D01*
X126381642Y-103279407D02*
X126334023Y-103136550D01*
X126334023Y-103136550D02*
X126238784Y-103041312D01*
X126238784Y-103041312D02*
X126143546Y-102993693D01*
X126143546Y-102993693D02*
X125953070Y-102946074D01*
X125953070Y-102946074D02*
X125810213Y-102946074D01*
X125810213Y-102946074D02*
X125619737Y-102993693D01*
X125619737Y-102993693D02*
X125524499Y-103041312D01*
X125524499Y-103041312D02*
X125429261Y-103136550D01*
X125429261Y-103136550D02*
X125381642Y-103279407D01*
X125381642Y-103279407D02*
X125381642Y-103374645D01*
X125381642Y-103374645D02*
X125429261Y-103517502D01*
X125429261Y-103517502D02*
X125476880Y-103565121D01*
X125476880Y-103946074D02*
X125429261Y-103993693D01*
X125429261Y-103993693D02*
X125381642Y-104088931D01*
X125381642Y-104088931D02*
X125381642Y-104327026D01*
X125381642Y-104327026D02*
X125429261Y-104422264D01*
X125429261Y-104422264D02*
X125476880Y-104469883D01*
X125476880Y-104469883D02*
X125572118Y-104517502D01*
X125572118Y-104517502D02*
X125667356Y-104517502D01*
X125667356Y-104517502D02*
X125810213Y-104469883D01*
X125810213Y-104469883D02*
X126381642Y-103898455D01*
X126381642Y-103898455D02*
X126381642Y-104517502D01*
X125381642Y-105136550D02*
X125381642Y-105231788D01*
X125381642Y-105231788D02*
X125429261Y-105327026D01*
X125429261Y-105327026D02*
X125476880Y-105374645D01*
X125476880Y-105374645D02*
X125572118Y-105422264D01*
X125572118Y-105422264D02*
X125762594Y-105469883D01*
X125762594Y-105469883D02*
X126000689Y-105469883D01*
X126000689Y-105469883D02*
X126191165Y-105422264D01*
X126191165Y-105422264D02*
X126286403Y-105374645D01*
X126286403Y-105374645D02*
X126334023Y-105327026D01*
X126334023Y-105327026D02*
X126381642Y-105231788D01*
X126381642Y-105231788D02*
X126381642Y-105136550D01*
X126381642Y-105136550D02*
X126334023Y-105041312D01*
X126334023Y-105041312D02*
X126286403Y-104993693D01*
X126286403Y-104993693D02*
X126191165Y-104946074D01*
X126191165Y-104946074D02*
X126000689Y-104898455D01*
X126000689Y-104898455D02*
X125762594Y-104898455D01*
X125762594Y-104898455D02*
X125572118Y-104946074D01*
X125572118Y-104946074D02*
X125476880Y-104993693D01*
X125476880Y-104993693D02*
X125429261Y-105041312D01*
X125429261Y-105041312D02*
X125381642Y-105136550D01*
D12*
%TO.C,J1*%
X149736823Y-133622979D02*
X149286823Y-133622979D01*
X149736823Y-135342979D02*
X149736823Y-133622979D01*
X149286823Y-129972979D02*
X147136823Y-129972979D01*
X149286823Y-133622979D02*
X149286823Y-129972979D01*
X141816823Y-129972979D02*
X138666823Y-129972979D01*
X138666823Y-129972979D02*
X138666823Y-133622979D01*
X138666823Y-133622979D02*
X138216823Y-133622979D01*
X138216823Y-133622979D02*
X138216823Y-135342979D01*
X138216823Y-135342979D02*
X149736823Y-135342979D01*
X146526823Y-130322979D02*
X146196823Y-130082979D01*
X146526823Y-129842979D01*
X146526823Y-130322979D01*
G36*
X146526823Y-130322979D02*
G01*
X146196823Y-130082979D01*
X146526823Y-129842979D01*
X146526823Y-130322979D01*
G37*
%TO.C,LENS_POW1*%
X99566823Y-121597979D02*
X99566823Y-131817979D01*
X115436823Y-121597979D02*
X99566823Y-121597979D01*
X115436823Y-121597979D02*
X115436823Y-131817979D01*
X115436823Y-123682979D02*
X117876823Y-123682979D01*
X115436823Y-124652979D02*
X117876823Y-124652979D01*
X115436823Y-126222979D02*
X117876823Y-126222979D01*
X115436823Y-127192979D02*
X117876823Y-127192979D01*
X115436823Y-128762979D02*
X117876823Y-128762979D01*
X115436823Y-129732979D02*
X117876823Y-129732979D01*
X115436823Y-131817979D02*
X99566823Y-131817979D01*
%TO.C,C9*%
X122066823Y-123297979D02*
X124416823Y-123297979D01*
X122066823Y-129053542D02*
X122066823Y-123297979D01*
X123131260Y-130117979D02*
X122066823Y-129053542D01*
X123131260Y-130117979D02*
X124416823Y-130117979D01*
X127324323Y-131145479D02*
X127324323Y-130357979D01*
X127718073Y-130751729D02*
X126930573Y-130751729D01*
X127822386Y-130117979D02*
X126536823Y-130117979D01*
X127822386Y-130117979D02*
X128886823Y-129053542D01*
X128886823Y-123297979D02*
X126536823Y-123297979D01*
X128886823Y-129053542D02*
X128886823Y-123297979D01*
%TO.C,R3*%
X159739565Y-126185479D02*
X160214081Y-126185479D01*
X159739565Y-127230479D02*
X160214081Y-127230479D01*
%TO.C,LOGIC_CONVERT1*%
X138091823Y-114397979D02*
X138091823Y-119017979D01*
X144861823Y-119017979D02*
X144861823Y-114397979D01*
X138546823Y-112847979D02*
X138306823Y-112517979D01*
X138786823Y-112517979D01*
X138546823Y-112847979D01*
G36*
X138546823Y-112847979D02*
G01*
X138306823Y-112517979D01*
X138786823Y-112517979D01*
X138546823Y-112847979D01*
G37*
%TO.C,LENS-LOGIC_POW1*%
X147066823Y-119797979D02*
X148326823Y-119797979D01*
X147066823Y-123557979D02*
X147066823Y-119797979D01*
X153886823Y-119797979D02*
X152626823Y-119797979D01*
X153886823Y-123557979D02*
X153886823Y-119797979D01*
X154116823Y-125077979D02*
X153786823Y-124837979D01*
X154116823Y-124597979D01*
X154116823Y-125077979D01*
G36*
X154116823Y-125077979D02*
G01*
X153786823Y-124837979D01*
X154116823Y-124597979D01*
X154116823Y-125077979D01*
G37*
%TO.C,BATT_POW1*%
X159026823Y-115597979D02*
X159026823Y-122017979D01*
X159026823Y-122017979D02*
X159296823Y-122017979D01*
X165926823Y-115597979D02*
X165926823Y-122017979D01*
X165926823Y-122017979D02*
X165656823Y-122017979D01*
X166086823Y-124087979D02*
X165616823Y-123747979D01*
X166086823Y-123407979D01*
X166086823Y-124087979D01*
G36*
X166086823Y-124087979D02*
G01*
X165616823Y-123747979D01*
X166086823Y-123407979D01*
X166086823Y-124087979D01*
G37*
%TO.C,R2*%
X159739565Y-128695479D02*
X160214081Y-128695479D01*
X159739565Y-129740479D02*
X160214081Y-129740479D01*
D13*
%TO.C,svviit_design*%
G36*
X104578478Y-89955024D02*
G01*
X104578478Y-90105142D01*
X104428360Y-90105142D01*
X104278242Y-90105142D01*
X104278242Y-89955024D01*
X104278242Y-89804905D01*
X104428360Y-89804905D01*
X104578478Y-89804905D01*
X104578478Y-89955024D01*
G37*
G36*
X102476823Y-86352187D02*
G01*
X102476823Y-86502305D01*
X102626942Y-86502305D01*
X102777060Y-86502305D01*
X102777060Y-86802541D01*
X102777060Y-87102778D01*
X102326705Y-87102778D01*
X101876351Y-87102778D01*
X101876351Y-86802541D01*
X101876351Y-86502305D01*
X102026469Y-86502305D01*
X102176587Y-86502305D01*
X102176587Y-86352187D01*
X102176587Y-86202069D01*
X102326705Y-86202069D01*
X102476823Y-86202069D01*
X102476823Y-86352187D01*
G37*
G36*
X99474459Y-89054314D02*
G01*
X99474459Y-89204433D01*
X100074932Y-89204433D01*
X100675405Y-89204433D01*
X100675405Y-89504669D01*
X100675405Y-89804905D01*
X98723868Y-89804905D01*
X96772332Y-89804905D01*
X96772332Y-89654787D01*
X96772332Y-89504669D01*
X96622213Y-89504669D01*
X96472095Y-89504669D01*
X96472095Y-89354551D01*
X96472095Y-89204433D01*
X97372804Y-89204433D01*
X98273514Y-89204433D01*
X98273514Y-89054314D01*
X98273514Y-88904196D01*
X98873986Y-88904196D01*
X99474459Y-88904196D01*
X99474459Y-89054314D01*
G37*
G36*
X101275878Y-97310816D02*
G01*
X101275878Y-97611052D01*
X101275878Y-98211525D01*
X101125760Y-98211525D01*
X100975641Y-98211525D01*
X100975641Y-98361643D01*
X100975641Y-98511761D01*
X100375168Y-98511761D01*
X99774696Y-98511761D01*
X99774696Y-97911288D01*
X99774696Y-97611052D01*
X100074932Y-97611052D01*
X100074932Y-97911288D01*
X100074932Y-98211525D01*
X100225050Y-98211525D01*
X100375168Y-98211525D01*
X100375168Y-98061407D01*
X100375168Y-97911288D01*
X100525287Y-97911288D01*
X100675405Y-97911288D01*
X100675405Y-97611052D01*
X100675405Y-97310816D01*
X100525287Y-97310816D01*
X100375168Y-97310816D01*
X100375168Y-97460934D01*
X100375168Y-97611052D01*
X100225050Y-97611052D01*
X100074932Y-97611052D01*
X99774696Y-97611052D01*
X99774696Y-97310816D01*
X99924814Y-97310816D01*
X100074932Y-97310816D01*
X100074932Y-97160697D01*
X100074932Y-97010579D01*
X100225050Y-97010579D01*
X100375168Y-97010579D01*
X100375168Y-96710343D01*
X100675405Y-96710343D01*
X100675405Y-97010579D01*
X100675405Y-97310816D01*
X100825523Y-97310816D01*
X100975641Y-97310816D01*
X100975641Y-97010579D01*
X100975641Y-96710343D01*
X100825523Y-96710343D01*
X100675405Y-96710343D01*
X100375168Y-96710343D01*
X100375168Y-96560225D01*
X100375168Y-96109870D01*
X100525287Y-96109870D01*
X100675405Y-96109870D01*
X100675405Y-95959752D01*
X100675405Y-95809634D01*
X100975641Y-95809634D01*
X101275878Y-95809634D01*
X101275878Y-95959752D01*
X101275878Y-96109870D01*
X101425996Y-96109870D01*
X101576114Y-96109870D01*
X101576114Y-96259988D01*
X101576114Y-96410106D01*
X101425996Y-96410106D01*
X101275878Y-96410106D01*
X101275878Y-97010579D01*
X101275878Y-97310816D01*
G37*
G36*
X104278242Y-98962116D02*
G01*
X104278242Y-99412470D01*
X104128124Y-99412470D01*
X103978005Y-99412470D01*
X103978005Y-99562589D01*
X103978005Y-99712707D01*
X104428360Y-99712707D01*
X104878715Y-99712707D01*
X104878715Y-99862825D01*
X104878715Y-100012943D01*
X104728596Y-100012943D01*
X104578478Y-100012943D01*
X104578478Y-100463298D01*
X104578478Y-100913652D01*
X104428360Y-100913652D01*
X104278242Y-100913652D01*
X104278242Y-101063771D01*
X104278242Y-101213889D01*
X103077296Y-101213889D01*
X101876351Y-101213889D01*
X101876351Y-101063771D01*
X101876351Y-100913652D01*
X101726232Y-100913652D01*
X101576114Y-100913652D01*
X101576114Y-101063771D01*
X101576114Y-101213889D01*
X100225050Y-101213889D01*
X98873986Y-101213889D01*
X98873986Y-100913652D01*
X98873986Y-100613416D01*
X99174223Y-100613416D01*
X99474459Y-100613416D01*
X99474459Y-100463298D01*
X99474459Y-100313180D01*
X99774696Y-100313180D01*
X100074932Y-100313180D01*
X100074932Y-100163061D01*
X100074932Y-100012943D01*
X100225050Y-100012943D01*
X100375168Y-100012943D01*
X100375168Y-99862825D01*
X100375168Y-99712707D01*
X100525287Y-99712707D01*
X100675405Y-99712707D01*
X100675405Y-99412470D01*
X100675405Y-99112234D01*
X101275878Y-99112234D01*
X101876351Y-99112234D01*
X101876351Y-99412470D01*
X101876351Y-99712707D01*
X102026469Y-99712707D01*
X102176587Y-99712707D01*
X102176587Y-100012943D01*
X102176587Y-100313180D01*
X102476823Y-100313180D01*
X102777060Y-100313180D01*
X102777060Y-100163061D01*
X102777060Y-100012943D01*
X102927178Y-100012943D01*
X103077296Y-100012943D01*
X103077296Y-99862825D01*
X103077296Y-99712707D01*
X102927178Y-99712707D01*
X102777060Y-99712707D01*
X102777060Y-99412470D01*
X102777060Y-99112234D01*
X102927178Y-99112234D01*
X103077296Y-99112234D01*
X103077296Y-98962116D01*
X103077296Y-98811998D01*
X103227414Y-98811998D01*
X103377533Y-98811998D01*
X103377533Y-98661879D01*
X103377533Y-98511761D01*
X103827887Y-98511761D01*
X104278242Y-98511761D01*
X104278242Y-98962116D01*
G37*
G36*
X105479187Y-88603960D02*
G01*
X105479187Y-88904196D01*
X105629306Y-88904196D01*
X105779424Y-88904196D01*
X105779424Y-89654787D01*
X105779424Y-90405378D01*
X105629306Y-90405378D01*
X105479187Y-90405378D01*
X105479187Y-90555496D01*
X105479187Y-90705615D01*
X105178951Y-90705615D01*
X104878715Y-90705615D01*
X104878715Y-90255260D01*
X104878715Y-89804905D01*
X104728596Y-89804905D01*
X104578478Y-89804905D01*
X104578478Y-89504669D01*
X104578478Y-89204433D01*
X104728596Y-89204433D01*
X104878715Y-89204433D01*
X104878715Y-88904196D01*
X104878715Y-88603960D01*
X104728596Y-88603960D01*
X104578478Y-88603960D01*
X104578478Y-88754078D01*
X104578478Y-88904196D01*
X104428360Y-88904196D01*
X104278242Y-88904196D01*
X104278242Y-89204433D01*
X104278242Y-89354551D01*
X104278242Y-89504669D01*
X104128124Y-89504669D01*
X103978005Y-89504669D01*
X103978005Y-89955024D01*
X103978005Y-90405378D01*
X103827887Y-90405378D01*
X103677769Y-90405378D01*
X103677769Y-90555496D01*
X103677769Y-90705615D01*
X103377533Y-90705615D01*
X103077296Y-90705615D01*
X103077296Y-90555496D01*
X103077296Y-90405378D01*
X102927178Y-90405378D01*
X102777060Y-90405378D01*
X102777060Y-90705615D01*
X102777060Y-91005851D01*
X103227414Y-91005851D01*
X103677769Y-91005851D01*
X103677769Y-91155969D01*
X103677769Y-91306087D01*
X104128124Y-91306087D01*
X104578478Y-91306087D01*
X104578478Y-91155969D01*
X104578478Y-91005851D01*
X104878715Y-91005851D01*
X105178951Y-91005851D01*
X105178951Y-91306087D01*
X105178951Y-91606324D01*
X105028833Y-91606324D01*
X104878715Y-91606324D01*
X104878715Y-91756442D01*
X104878715Y-91906560D01*
X104728596Y-91906560D01*
X104578478Y-91906560D01*
X104578478Y-92356915D01*
X104578478Y-92807269D01*
X103978005Y-92807269D01*
X103377533Y-92807269D01*
X103377533Y-92657151D01*
X103377533Y-92507033D01*
X103227414Y-92507033D01*
X103077296Y-92507033D01*
X103077296Y-92807269D01*
X103077296Y-92957388D01*
X103077296Y-93107506D01*
X103827887Y-93107506D01*
X104578478Y-93107506D01*
X104578478Y-93257624D01*
X104578478Y-93407742D01*
X104428360Y-93407742D01*
X104278242Y-93407742D01*
X104278242Y-93557860D01*
X104278242Y-94458570D01*
X104278242Y-95509397D01*
X103978005Y-95509397D01*
X103677769Y-95509397D01*
X103677769Y-95659515D01*
X103677769Y-95809634D01*
X104128124Y-95809634D01*
X104578478Y-95809634D01*
X104578478Y-95659515D01*
X104578478Y-95509397D01*
X104728596Y-95509397D01*
X104878715Y-95509397D01*
X104878715Y-95359279D01*
X104878715Y-95209161D01*
X105028833Y-95209161D01*
X105178951Y-95209161D01*
X105178951Y-95359279D01*
X105178951Y-95509397D01*
X105329069Y-95509397D01*
X105479187Y-95509397D01*
X105479187Y-95659515D01*
X105479187Y-95809634D01*
X105779424Y-95809634D01*
X106079660Y-95809634D01*
X106079660Y-96410106D01*
X106079660Y-96710343D01*
X106079660Y-97010579D01*
X105929542Y-97010579D01*
X105779424Y-97010579D01*
X105779424Y-97160697D01*
X105779424Y-97310816D01*
X105629306Y-97310816D01*
X105479187Y-97310816D01*
X105479187Y-97460934D01*
X105479187Y-97611052D01*
X105178951Y-97611052D01*
X104878715Y-97611052D01*
X104878715Y-97761170D01*
X104878715Y-97911288D01*
X104728596Y-97911288D01*
X104578478Y-97911288D01*
X104578478Y-97611052D01*
X104578478Y-97310816D01*
X104428360Y-97310816D01*
X104278242Y-97310816D01*
X104278242Y-97160697D01*
X104278242Y-97010579D01*
X104128124Y-97010579D01*
X103978005Y-97010579D01*
X103978005Y-97310816D01*
X103978005Y-97611052D01*
X104128124Y-97611052D01*
X104278242Y-97611052D01*
X104278242Y-97911288D01*
X104278242Y-98211525D01*
X103978005Y-98211525D01*
X103677769Y-98211525D01*
X103677769Y-97761170D01*
X103677769Y-97310816D01*
X103527651Y-97310816D01*
X103377533Y-97310816D01*
X103377533Y-97761170D01*
X103377533Y-98211525D01*
X103227414Y-98211525D01*
X103077296Y-98211525D01*
X103077296Y-98361643D01*
X103077296Y-98511761D01*
X102777060Y-98511761D01*
X102476823Y-98511761D01*
X102476823Y-98361643D01*
X102476823Y-98211525D01*
X102326705Y-98211525D01*
X102176587Y-98211525D01*
X102176587Y-97761170D01*
X102176587Y-97310816D01*
X102026469Y-97310816D01*
X101876351Y-97310816D01*
X101876351Y-97911288D01*
X101876351Y-98511761D01*
X101726232Y-98511761D01*
X101576114Y-98511761D01*
X101576114Y-97611052D01*
X101576114Y-96710343D01*
X101726232Y-96710343D01*
X101876351Y-96710343D01*
X101876351Y-96410106D01*
X102176587Y-96410106D01*
X102176587Y-96710343D01*
X102176587Y-97010579D01*
X102326705Y-97010579D01*
X102476823Y-97010579D01*
X102476823Y-96710343D01*
X102476823Y-96410106D01*
X102326705Y-96410106D01*
X102176587Y-96410106D01*
X101876351Y-96410106D01*
X101876351Y-96109870D01*
X102326705Y-96109870D01*
X102777060Y-96109870D01*
X102777060Y-96710343D01*
X102777060Y-96860461D01*
X102777060Y-97611052D01*
X102626942Y-97611052D01*
X102476823Y-97611052D01*
X102476823Y-97911288D01*
X102476823Y-98211525D01*
X102777060Y-98211525D01*
X103077296Y-98211525D01*
X103077296Y-97611052D01*
X103077296Y-97010579D01*
X103227414Y-97010579D01*
X103377533Y-97010579D01*
X103377533Y-96710343D01*
X103377533Y-96410106D01*
X103677769Y-96410106D01*
X103677769Y-96710343D01*
X103677769Y-97010579D01*
X103827887Y-97010579D01*
X103978005Y-97010579D01*
X103978005Y-96710343D01*
X103978005Y-96410106D01*
X103827887Y-96410106D01*
X103677769Y-96410106D01*
X103377533Y-96410106D01*
X103227414Y-96410106D01*
X103077296Y-96410106D01*
X103077296Y-96259988D01*
X103077296Y-96109870D01*
X103377533Y-96109870D01*
X103677769Y-96109870D01*
X103677769Y-95959752D01*
X103677769Y-95809634D01*
X102476823Y-95809634D01*
X101275878Y-95809634D01*
X101275878Y-95659515D01*
X101275878Y-95509397D01*
X100975641Y-95509397D01*
X100675405Y-95509397D01*
X100675405Y-95209161D01*
X100675405Y-94908924D01*
X100525287Y-94908924D01*
X100375168Y-94908924D01*
X100375168Y-94608688D01*
X100375168Y-94308451D01*
X100225050Y-94308451D01*
X100074932Y-94308451D01*
X100074932Y-93707979D01*
X100074932Y-93407742D01*
X102176587Y-93407742D01*
X102176587Y-93557860D01*
X102176587Y-93707979D01*
X102326705Y-93707979D01*
X102476823Y-93707979D01*
X102476823Y-93557860D01*
X102476823Y-93407742D01*
X102326705Y-93407742D01*
X102176587Y-93407742D01*
X100074932Y-93407742D01*
X100074932Y-93107506D01*
X100825523Y-93107506D01*
X101576114Y-93107506D01*
X101576114Y-92807269D01*
X102176587Y-92807269D01*
X102176587Y-92957388D01*
X102176587Y-93107506D01*
X102326705Y-93107506D01*
X102476823Y-93107506D01*
X102476823Y-92957388D01*
X102476823Y-92807269D01*
X102326705Y-92807269D01*
X102176587Y-92807269D01*
X101576114Y-92807269D01*
X101576114Y-92507033D01*
X101425996Y-92507033D01*
X101275878Y-92507033D01*
X101275878Y-92657151D01*
X101275878Y-92807269D01*
X100675405Y-92807269D01*
X100074932Y-92807269D01*
X100074932Y-92657151D01*
X100074932Y-92507033D01*
X100225050Y-92507033D01*
X100375168Y-92507033D01*
X100375168Y-92056678D01*
X100375168Y-91606324D01*
X100525287Y-91606324D01*
X100675405Y-91606324D01*
X100675405Y-91306087D01*
X100675405Y-91005851D01*
X101425996Y-91005851D01*
X102176587Y-91005851D01*
X102176587Y-90705615D01*
X102176587Y-90405378D01*
X102026469Y-90405378D01*
X101876351Y-90405378D01*
X101876351Y-90555496D01*
X101876351Y-90705615D01*
X101576114Y-90705615D01*
X101275878Y-90705615D01*
X101275878Y-90405378D01*
X101275878Y-90105142D01*
X101125760Y-90105142D01*
X100975641Y-90105142D01*
X100975641Y-89804905D01*
X101576114Y-89804905D01*
X101576114Y-89955024D01*
X101576114Y-90105142D01*
X101726232Y-90105142D01*
X101876351Y-90105142D01*
X101876351Y-89955024D01*
X101876351Y-89804905D01*
X101726232Y-89804905D01*
X101576114Y-89804905D01*
X100975641Y-89804905D01*
X100975641Y-89354551D01*
X100975641Y-88904196D01*
X101275878Y-88904196D01*
X101275878Y-89204433D01*
X101275878Y-89504669D01*
X101425996Y-89504669D01*
X101576114Y-89504669D01*
X101876351Y-89504669D01*
X101876351Y-89654787D01*
X101876351Y-89804905D01*
X102026469Y-89804905D01*
X102176587Y-89804905D01*
X102176587Y-89654787D01*
X102176587Y-89504669D01*
X102026469Y-89504669D01*
X101876351Y-89504669D01*
X101576114Y-89504669D01*
X101576114Y-89354551D01*
X101576114Y-89204433D01*
X102476823Y-89204433D01*
X103377533Y-89204433D01*
X103377533Y-89504669D01*
X103377533Y-89804905D01*
X103227414Y-89804905D01*
X103077296Y-89804905D01*
X103077296Y-89654787D01*
X103077296Y-89504669D01*
X102927178Y-89504669D01*
X102777060Y-89504669D01*
X102777060Y-89654787D01*
X102777060Y-89804905D01*
X102927178Y-89804905D01*
X103077296Y-89804905D01*
X103077296Y-89955024D01*
X103077296Y-90105142D01*
X103077296Y-90405378D01*
X103227414Y-90405378D01*
X103377533Y-90405378D01*
X103377533Y-90105142D01*
X103377533Y-89804905D01*
X103527651Y-89804905D01*
X103677769Y-89804905D01*
X103677769Y-89354551D01*
X103677769Y-88904196D01*
X102476823Y-88904196D01*
X101275878Y-88904196D01*
X100975641Y-88904196D01*
X100975641Y-88603960D01*
X101125760Y-88603960D01*
X101275878Y-88603960D01*
X101275878Y-88453842D01*
X101275878Y-88303723D01*
X101425996Y-88303723D01*
X101576114Y-88303723D01*
X101576114Y-88153605D01*
X101576114Y-88003487D01*
X101726232Y-88003487D01*
X101876351Y-88003487D01*
X101876351Y-87853369D01*
X101876351Y-87703251D01*
X102026469Y-87703251D01*
X102176587Y-87703251D01*
X102176587Y-87553132D01*
X102176587Y-87403014D01*
X102326705Y-87403014D01*
X102476823Y-87403014D01*
X102476823Y-87553132D01*
X102476823Y-87703251D01*
X102626942Y-87703251D01*
X102777060Y-87703251D01*
X102777060Y-87553132D01*
X102777060Y-87403014D01*
X102927178Y-87403014D01*
X103077296Y-87403014D01*
X103077296Y-87853369D01*
X103077296Y-88303723D01*
X103677769Y-88303723D01*
X104278242Y-88303723D01*
X104278242Y-88453842D01*
X104278242Y-88603960D01*
X104428360Y-88603960D01*
X104578478Y-88603960D01*
X104578478Y-88453842D01*
X104578478Y-88303723D01*
X104428360Y-88303723D01*
X104278242Y-88303723D01*
X104278242Y-88153605D01*
X104278242Y-88003487D01*
X104128124Y-88003487D01*
X103978005Y-88003487D01*
X103978005Y-87853369D01*
X103978005Y-87703251D01*
X103827887Y-87703251D01*
X103677769Y-87703251D01*
X103677769Y-87553132D01*
X103677769Y-87403014D01*
X103527651Y-87403014D01*
X103377533Y-87403014D01*
X103377533Y-87102778D01*
X103377533Y-86802541D01*
X103677769Y-86802541D01*
X103978005Y-86802541D01*
X103978005Y-86952660D01*
X103978005Y-87102778D01*
X104278242Y-87102778D01*
X104578478Y-87102778D01*
X104578478Y-87403014D01*
X104578478Y-87703251D01*
X104728596Y-87703251D01*
X104878715Y-87703251D01*
X104878715Y-87853369D01*
X104878715Y-88003487D01*
X105028833Y-88003487D01*
X105178951Y-88003487D01*
X105178951Y-88153605D01*
X105178951Y-88303723D01*
X105329069Y-88303723D01*
X105479187Y-88303723D01*
X105479187Y-88453842D01*
X105479187Y-88603960D01*
G37*
D12*
%TO.C,R10*%
X141454323Y-95120237D02*
X141454323Y-94645721D01*
X142499323Y-95120237D02*
X142499323Y-94645721D01*
%TO.C,USB_POW1*%
X159001823Y-104962979D02*
X159271823Y-104962979D01*
X159001823Y-111382979D02*
X159001823Y-104962979D01*
X165901823Y-104962979D02*
X165631823Y-104962979D01*
X165901823Y-111382979D02*
X165901823Y-104962979D01*
X159311823Y-103232979D02*
X158841823Y-103572979D01*
X158841823Y-102892979D01*
X159311823Y-103232979D01*
G36*
X159311823Y-103232979D02*
G01*
X158841823Y-103572979D01*
X158841823Y-102892979D01*
X159311823Y-103232979D01*
G37*
%TD*%
M02*
