%TF.GenerationSoftware,KiCad,Pcbnew,9.0.6*%
%TF.CreationDate,2026-02-13T20:59:32+01:00*%
%TF.ProjectId,fotaopar_t,666f7461-6f70-4617-92e1-742e6b696361,rev?*%
%TF.SameCoordinates,Original*%
%TF.FileFunction,Soldermask,Top*%
%TF.FilePolarity,Negative*%
%FSLAX46Y46*%
G04 Gerber Fmt 4.6, Leading zero omitted, Abs format (unit mm)*
G04 Created by KiCad (PCBNEW 9.0.6) date 2026-02-13 20:59:32*
%MOMM*%
%LPD*%
G01*
G04 APERTURE LIST*
G04 Aperture macros list*
%AMRoundRect*
0 Rectangle with rounded corners*
0 $1 Rounding radius*
0 $2 $3 $4 $5 $6 $7 $8 $9 X,Y pos of 4 corners*
0 Add a 4 corners polygon primitive as box body*
4,1,4,$2,$3,$4,$5,$6,$7,$8,$9,$2,$3,0*
0 Add four circle primitives for the rounded corners*
1,1,$1+$1,$2,$3*
1,1,$1+$1,$4,$5*
1,1,$1+$1,$6,$7*
1,1,$1+$1,$8,$9*
0 Add four rect primitives between the rounded corners*
20,1,$1+$1,$2,$3,$4,$5,0*
20,1,$1+$1,$4,$5,$6,$7,0*
20,1,$1+$1,$6,$7,$8,$9,0*
20,1,$1+$1,$8,$9,$2,$3,0*%
%AMRotRect*
0 Rectangle, with rotation*
0 The origin of the aperture is its center*
0 $1 length*
0 $2 width*
0 $3 Rotation angle, in degrees counterclockwise*
0 Add horizontal line*
21,1,$1,$2,0,0,$3*%
G04 Aperture macros list end*
%ADD10RoundRect,0.100000X-0.130000X-0.100000X0.130000X-0.100000X0.130000X0.100000X-0.130000X0.100000X0*%
%ADD11RoundRect,0.200000X-0.275000X0.200000X-0.275000X-0.200000X0.275000X-0.200000X0.275000X0.200000X0*%
%ADD12RoundRect,0.100000X0.100000X-0.130000X0.100000X0.130000X-0.100000X0.130000X-0.100000X-0.130000X0*%
%ADD13RoundRect,0.150000X-0.512500X-0.150000X0.512500X-0.150000X0.512500X0.150000X-0.512500X0.150000X0*%
%ADD14R,1.400000X0.700000*%
%ADD15R,1.200000X0.700000*%
%ADD16R,0.800000X1.200000*%
%ADD17R,1.900000X1.500000*%
%ADD18RotRect,0.200000X0.200000X315.000000*%
%ADD19R,0.500000X0.500000*%
%ADD20R,1.400000X1.000000*%
%ADD21R,1.200000X1.200000*%
%ADD22R,3.200000X1.200000*%
%ADD23RoundRect,0.375000X1.125000X-0.375000X1.125000X0.375000X-1.125000X0.375000X-1.125000X-0.375000X0*%
%ADD24R,0.300000X1.300000*%
%ADD25R,1.800000X2.200000*%
%ADD26R,0.450000X0.950000*%
%ADD27R,4.350000X3.450000*%
%ADD28C,0.600000*%
%ADD29R,1.160000X0.600000*%
%ADD30R,1.160000X0.300000*%
%ADD31O,2.000000X0.900000*%
%ADD32O,1.700000X0.900000*%
%ADD33R,1.300000X0.300000*%
%ADD34R,2.200000X1.800000*%
%ADD35RoundRect,0.250000X-0.450000X-0.350000X0.450000X-0.350000X0.450000X0.350000X-0.450000X0.350000X0*%
%ADD36O,0.650000X0.200000*%
%ADD37O,0.200000X0.650000*%
%ADD38R,2.100000X2.100000*%
%ADD39C,3.500000*%
%ADD40R,2.000000X1.905000*%
%ADD41O,2.000000X1.905000*%
%ADD42O,1.890000X0.570000*%
%ADD43RoundRect,0.200000X-0.200000X-0.275000X0.200000X-0.275000X0.200000X0.275000X-0.200000X0.275000X0*%
G04 APERTURE END LIST*
D10*
%TO.C,C37*%
X127960413Y-89551075D03*
X128600413Y-89551075D03*
%TD*%
D11*
%TO.C,R4*%
X128276823Y-115582979D03*
X128276823Y-117232979D03*
%TD*%
D12*
%TO.C,C30*%
X137701823Y-124397979D03*
X137701823Y-123757979D03*
%TD*%
D13*
%TO.C,U1*%
X146701823Y-87807979D03*
X146701823Y-88757979D03*
X146701823Y-89707979D03*
X148976823Y-89707979D03*
X148976823Y-87807979D03*
%TD*%
D10*
%TO.C,C23*%
X139156823Y-95481951D03*
X139796823Y-95481951D03*
%TD*%
%TO.C,C25*%
X139156823Y-97207979D03*
X139796823Y-97207979D03*
%TD*%
D11*
%TO.C,R5*%
X135976823Y-109557979D03*
X135976823Y-111207979D03*
%TD*%
D10*
%TO.C,C26*%
X139356823Y-96307979D03*
X139996823Y-96307979D03*
%TD*%
D14*
%TO.C,J13*%
X112101823Y-94432979D03*
X112101823Y-95532979D03*
X112101823Y-96632979D03*
X112101823Y-97732979D03*
X112101823Y-98832979D03*
X112101823Y-99932979D03*
X112101823Y-101032979D03*
X112101823Y-102132979D03*
D15*
X112201823Y-103082979D03*
D16*
X101701823Y-103932979D03*
D17*
X97101823Y-90632979D03*
D18*
X96651823Y-91382979D03*
D19*
X96401823Y-91632979D03*
D20*
X112101823Y-92532979D03*
D21*
X107901823Y-103932979D03*
D22*
X98101823Y-103932979D03*
%TD*%
D23*
%TO.C,BAT_OUT1*%
X168476823Y-128757979D03*
%TD*%
D24*
%TO.C,DISPLAY_IN1*%
X130000000Y-127857979D03*
X130500000Y-127857979D03*
X131000000Y-127857979D03*
X131500000Y-127857979D03*
X132000000Y-127857979D03*
X132500000Y-127857979D03*
X133000000Y-127857979D03*
X133500000Y-127857979D03*
X134000000Y-127857979D03*
X134500000Y-127857979D03*
X135000000Y-127857979D03*
X135500000Y-127857979D03*
X136000000Y-127857979D03*
X136500000Y-127857979D03*
X137000000Y-127857979D03*
D25*
X128100000Y-131107979D03*
X138900000Y-131107979D03*
%TD*%
D26*
%TO.C,ESP_FLASH1*%
X113905000Y-110100000D03*
X112635000Y-110100000D03*
X111365000Y-110100000D03*
X110095000Y-110100000D03*
X110095000Y-117900000D03*
X111365000Y-117900000D03*
X112635000Y-117900000D03*
X113905000Y-117900000D03*
D27*
X112000000Y-114000000D03*
%TD*%
D28*
%TO.C,USB-C_2.0*%
X191726823Y-97997979D03*
X191726823Y-92217979D03*
D29*
X190666823Y-98307979D03*
X190666823Y-97507979D03*
D30*
X190666823Y-96357979D03*
X190666823Y-95357979D03*
X190666823Y-94857979D03*
X190666823Y-93857979D03*
D29*
X190666823Y-92707979D03*
X190666823Y-91907979D03*
X190666823Y-91907979D03*
X190666823Y-92707979D03*
D30*
X190666823Y-93357979D03*
X190666823Y-94357979D03*
X190666823Y-95857979D03*
X190666823Y-96857979D03*
D29*
X190666823Y-97507979D03*
X190666823Y-98307979D03*
D31*
X191246823Y-99427979D03*
D32*
X195416823Y-99427979D03*
D31*
X191246823Y-90787979D03*
D32*
X195416823Y-90787979D03*
%TD*%
D33*
%TO.C,CAM_IN1*%
X165626823Y-112500000D03*
X165626823Y-112000000D03*
X165626823Y-111500000D03*
X165626823Y-111000000D03*
X165626823Y-110500000D03*
X165626823Y-110000000D03*
X165626823Y-109500000D03*
X165626823Y-109000000D03*
X165626823Y-108500000D03*
X165626823Y-108000000D03*
X165626823Y-107500000D03*
X165626823Y-107000000D03*
X165626823Y-106500000D03*
X165626823Y-106000000D03*
X165626823Y-105500000D03*
D34*
X168876823Y-114400000D03*
X168876823Y-103600000D03*
%TD*%
D10*
%TO.C,C40*%
X131660116Y-89538320D03*
X132300116Y-89538320D03*
%TD*%
D35*
%TO.C,Y2*%
X129276823Y-88057979D03*
X131476823Y-88057979D03*
X131476823Y-86357979D03*
X129276823Y-86357979D03*
%TD*%
D12*
%TO.C,C29*%
X136876823Y-124407979D03*
X136876823Y-123767979D03*
%TD*%
D23*
%TO.C,BAT_IN1*%
X168476823Y-124207979D03*
%TD*%
D36*
%TO.C,ESP32_P4*%
X128095000Y-94320000D03*
X128095000Y-94670000D03*
X128095000Y-95020000D03*
X128095000Y-95370000D03*
X128095000Y-95720000D03*
X128095000Y-96070000D03*
X128095000Y-96420000D03*
X128095000Y-96770000D03*
X128095000Y-97120000D03*
X128095000Y-97470000D03*
X128095000Y-97820000D03*
X128095000Y-98170000D03*
X128095000Y-98520000D03*
X128095000Y-98870000D03*
X128095000Y-99220000D03*
X128095000Y-99570000D03*
X128095000Y-99920000D03*
X128095000Y-100270000D03*
X128095000Y-100620000D03*
X128095000Y-100970000D03*
X128095000Y-101320000D03*
X128095000Y-101670000D03*
X128095000Y-102020000D03*
X128095000Y-102370000D03*
X128095000Y-102720000D03*
X128095000Y-103070000D03*
D37*
X128595000Y-103570000D03*
X128945000Y-103570000D03*
X129295000Y-103570000D03*
X129645000Y-103570000D03*
X129995000Y-103570000D03*
X130345000Y-103570000D03*
X130695000Y-103570000D03*
X131045000Y-103570000D03*
X131395000Y-103570000D03*
X131745000Y-103570000D03*
X132095000Y-103570000D03*
X132445000Y-103570000D03*
X132795000Y-103570000D03*
X133145000Y-103570000D03*
X133495000Y-103570000D03*
X133845000Y-103570000D03*
X134195000Y-103570000D03*
X134545000Y-103570000D03*
X134895000Y-103570000D03*
X135245000Y-103570000D03*
X135595000Y-103570000D03*
X135945000Y-103570000D03*
X136295000Y-103570000D03*
X136645000Y-103570000D03*
X136995000Y-103570000D03*
X137345000Y-103570000D03*
D36*
X137845000Y-103070000D03*
X137845000Y-102720000D03*
X137845000Y-102370000D03*
X137845000Y-102020000D03*
X137845000Y-101670000D03*
X137845000Y-101320000D03*
X137845000Y-100970000D03*
X137845000Y-100620000D03*
X137845000Y-100270000D03*
X137845000Y-99920000D03*
X137845000Y-99570000D03*
X137845000Y-99220000D03*
X137845000Y-98870000D03*
X137845000Y-98520000D03*
X137845000Y-98170000D03*
X137845000Y-97820000D03*
X137845000Y-97470000D03*
X137845000Y-97120000D03*
X137845000Y-96770000D03*
X137845000Y-96420000D03*
X137845000Y-96070000D03*
X137845000Y-95720000D03*
X137845000Y-95370000D03*
X137845000Y-95020000D03*
X137845000Y-94670000D03*
X137845000Y-94320000D03*
D37*
X137345000Y-93820000D03*
X136995000Y-93820000D03*
X136645000Y-93820000D03*
X136295000Y-93820000D03*
X135945000Y-93820000D03*
X135595000Y-93820000D03*
X135245000Y-93820000D03*
X134895000Y-93820000D03*
X134545000Y-93820000D03*
X134195000Y-93820000D03*
X133845000Y-93820000D03*
X133495000Y-93820000D03*
X133145000Y-93820000D03*
X132795000Y-93820000D03*
X132445000Y-93820000D03*
X132095000Y-93820000D03*
X131745000Y-93820000D03*
X131395000Y-93820000D03*
X131045000Y-93820000D03*
X130695000Y-93820000D03*
X130345000Y-93820000D03*
X129995000Y-93820000D03*
X129645000Y-93820000D03*
X129295000Y-93820000D03*
X128945000Y-93820000D03*
X128595000Y-93820000D03*
D38*
X130270000Y-95995000D03*
X130270000Y-98695000D03*
X130270000Y-101395000D03*
X132970000Y-95995000D03*
X132970000Y-98695000D03*
X132970000Y-101395000D03*
X135670000Y-95995000D03*
X135670000Y-98695000D03*
X135670000Y-101395000D03*
%TD*%
D39*
%TO.C,LENS_POW1*%
X102476823Y-126707979D03*
D40*
X119136823Y-124167979D03*
D41*
X119136823Y-126707979D03*
X119136823Y-129247979D03*
%TD*%
D42*
%TO.C,ESD_PROT1*%
X153876823Y-85797979D03*
X153876823Y-87077979D03*
X153876823Y-88337979D03*
X153876823Y-89607979D03*
X159276823Y-89607979D03*
X159276823Y-88337979D03*
X159276823Y-87077979D03*
X159276823Y-85797979D03*
%TD*%
D43*
%TO.C,R9*%
X156151823Y-93317979D03*
X157801823Y-93317979D03*
%TD*%
%TO.C,R1*%
X156126823Y-96507979D03*
X157776823Y-96507979D03*
%TD*%
M02*
