%TF.GenerationSoftware,KiCad,Pcbnew,9.0.6*%
%TF.CreationDate,2026-02-13T20:59:31+01:00*%
%TF.ProjectId,fotaopar_t,666f7461-6f70-4617-92e1-742e6b696361,rev?*%
%TF.SameCoordinates,Original*%
%TF.FileFunction,Copper,L4,Bot*%
%TF.FilePolarity,Positive*%
%FSLAX46Y46*%
G04 Gerber Fmt 4.6, Leading zero omitted, Abs format (unit mm)*
G04 Created by KiCad (PCBNEW 9.0.6) date 2026-02-13 20:59:31*
%MOMM*%
%LPD*%
G01*
G04 APERTURE LIST*
G04 Aperture macros list*
%AMRoundRect*
0 Rectangle with rounded corners*
0 $1 Rounding radius*
0 $2 $3 $4 $5 $6 $7 $8 $9 X,Y pos of 4 corners*
0 Add a 4 corners polygon primitive as box body*
4,1,4,$2,$3,$4,$5,$6,$7,$8,$9,$2,$3,0*
0 Add four circle primitives for the rounded corners*
1,1,$1+$1,$2,$3*
1,1,$1+$1,$4,$5*
1,1,$1+$1,$6,$7*
1,1,$1+$1,$8,$9*
0 Add four rect primitives between the rounded corners*
20,1,$1+$1,$2,$3,$4,$5,0*
20,1,$1+$1,$4,$5,$6,$7,0*
20,1,$1+$1,$6,$7,$8,$9,0*
20,1,$1+$1,$8,$9,$2,$3,0*%
%AMFreePoly0*
4,1,7,1.050000,-0.975000,-1.050000,-0.975000,-1.050000,0.625000,-0.250000,0.625000,-0.250000,0.975000,1.050000,0.975000,1.050000,-0.975000,1.050000,-0.975000,$1*%
%AMFreePoly1*
4,1,7,0.250000,0.625000,1.050000,0.625000,1.050000,-0.975000,-1.050000,-0.975000,-1.050000,0.975000,0.250000,0.975000,0.250000,0.625000,0.250000,0.625000,$1*%
G04 Aperture macros list end*
%TA.AperFunction,SMDPad,CuDef*%
%ADD10RoundRect,0.075000X0.075000X0.475000X-0.075000X0.475000X-0.075000X-0.475000X0.075000X-0.475000X0*%
%TD*%
%TA.AperFunction,SMDPad,CuDef*%
%ADD11FreePoly0,180.000000*%
%TD*%
%TA.AperFunction,SMDPad,CuDef*%
%ADD12FreePoly1,180.000000*%
%TD*%
%TA.AperFunction,HeatsinkPad*%
%ADD13O,2.000000X0.900000*%
%TD*%
%TA.AperFunction,HeatsinkPad*%
%ADD14O,1.700000X0.900000*%
%TD*%
%TA.AperFunction,SMDPad,CuDef*%
%ADD15RoundRect,0.100000X-0.100000X0.130000X-0.100000X-0.130000X0.100000X-0.130000X0.100000X0.130000X0*%
%TD*%
%TA.AperFunction,SMDPad,CuDef*%
%ADD16RoundRect,0.100000X-0.130000X-0.100000X0.130000X-0.100000X0.130000X0.100000X-0.130000X0.100000X0*%
%TD*%
%TA.AperFunction,ComponentPad*%
%ADD17R,2.000000X1.905000*%
%TD*%
%TA.AperFunction,ComponentPad*%
%ADD18O,2.000000X1.905000*%
%TD*%
%TA.AperFunction,SMDPad,CuDef*%
%ADD19RoundRect,0.250000X0.550000X-1.500000X0.550000X1.500000X-0.550000X1.500000X-0.550000X-1.500000X0*%
%TD*%
%TA.AperFunction,SMDPad,CuDef*%
%ADD20RoundRect,0.200000X-0.200000X-0.275000X0.200000X-0.275000X0.200000X0.275000X-0.200000X0.275000X0*%
%TD*%
%TA.AperFunction,SMDPad,CuDef*%
%ADD21RoundRect,0.100000X-0.100000X0.637500X-0.100000X-0.637500X0.100000X-0.637500X0.100000X0.637500X0*%
%TD*%
%TA.AperFunction,SMDPad,CuDef*%
%ADD22RoundRect,0.375000X0.375000X-0.625000X0.375000X0.625000X-0.375000X0.625000X-0.375000X-0.625000X0*%
%TD*%
%TA.AperFunction,SMDPad,CuDef*%
%ADD23RoundRect,0.500000X1.400000X-0.500000X1.400000X0.500000X-1.400000X0.500000X-1.400000X-0.500000X0*%
%TD*%
%TA.AperFunction,SMDPad,CuDef*%
%ADD24RoundRect,0.250000X0.350000X-0.850000X0.350000X0.850000X-0.350000X0.850000X-0.350000X-0.850000X0*%
%TD*%
%TA.AperFunction,SMDPad,CuDef*%
%ADD25RoundRect,0.249997X2.650003X-2.950003X2.650003X2.950003X-2.650003X2.950003X-2.650003X-2.950003X0*%
%TD*%
%TA.AperFunction,SMDPad,CuDef*%
%ADD26RoundRect,0.100000X0.130000X0.100000X-0.130000X0.100000X-0.130000X-0.100000X0.130000X-0.100000X0*%
%TD*%
%TA.AperFunction,SMDPad,CuDef*%
%ADD27RoundRect,0.200000X0.275000X-0.200000X0.275000X0.200000X-0.275000X0.200000X-0.275000X-0.200000X0*%
%TD*%
%TA.AperFunction,SMDPad,CuDef*%
%ADD28RoundRect,0.100000X0.100000X-0.130000X0.100000X0.130000X-0.100000X0.130000X-0.100000X-0.130000X0*%
%TD*%
%TA.AperFunction,SMDPad,CuDef*%
%ADD29RoundRect,0.250000X-0.350000X0.850000X-0.350000X-0.850000X0.350000X-0.850000X0.350000X0.850000X0*%
%TD*%
%TA.AperFunction,SMDPad,CuDef*%
%ADD30RoundRect,0.249997X-2.650003X2.950003X-2.650003X-2.950003X2.650003X-2.950003X2.650003X2.950003X0*%
%TD*%
%TA.AperFunction,ViaPad*%
%ADD31C,0.600000*%
%TD*%
%TA.AperFunction,ViaPad*%
%ADD32C,0.500000*%
%TD*%
%TA.AperFunction,ViaPad*%
%ADD33C,0.450000*%
%TD*%
%TA.AperFunction,Conductor*%
%ADD34C,0.200000*%
%TD*%
%TA.AperFunction,Conductor*%
%ADD35C,0.150000*%
%TD*%
G04 APERTURE END LIST*
D10*
%TO.P,J1,1,Pin_1*%
%TO.N,+6V*%
X145726823Y-130082979D03*
%TO.P,J1,2,Pin_2*%
%TO.N,GND*%
X145226823Y-130082979D03*
%TO.P,J1,3,Pin_3*%
X144726823Y-130082979D03*
%TO.P,J1,4,Pin_4*%
%TO.N,+5V5*%
X144226823Y-130082979D03*
%TO.P,J1,5,Pin_5*%
%TO.N,/DCL*%
X143726823Y-130082979D03*
%TO.P,J1,6,Pin_6*%
%TO.N,/DLC*%
X143226823Y-130082979D03*
%TO.P,J1,7,Pin_7*%
%TO.N,/LCLK*%
X142726823Y-130082979D03*
%TO.P,J1,8,Pin_8*%
%TO.N,GND*%
X142226823Y-130082979D03*
D11*
%TO.P,J1,MP*%
%TO.N,N/C*%
X147976823Y-131207979D03*
D12*
X139976823Y-131207979D03*
%TD*%
D13*
%TO.P,USB-C_2.0,S1,SHIELD*%
%TO.N,GND*%
X191246823Y-99427979D03*
D14*
X195416823Y-99427979D03*
D13*
X191246823Y-90787979D03*
D14*
X195416823Y-90787979D03*
%TD*%
D15*
%TO.P,C2,1*%
%TO.N,GND*%
X114597500Y-115777500D03*
%TO.P,C2,2*%
%TO.N,/VDDO_FLASH*%
X114597500Y-116417500D03*
%TD*%
D16*
%TO.P,C31,1*%
%TO.N,/VDD_PSRAM_0*%
X139156823Y-101207979D03*
%TO.P,C31,2*%
%TO.N,GND*%
X139796823Y-101207979D03*
%TD*%
D17*
%TO.P,LENS_POW1,1,IN*%
%TO.N,+7V2*%
X119136823Y-124167979D03*
D18*
%TO.P,LENS_POW1,2,GND*%
%TO.N,GND*%
X119136823Y-126707979D03*
%TO.P,LENS_POW1,3,OUT*%
%TO.N,+6V*%
X119136823Y-129247979D03*
%TD*%
D19*
%TO.P,C9,1*%
%TO.N,+6V*%
X125476823Y-129507979D03*
%TO.P,C9,2*%
%TO.N,GND*%
X125476823Y-123907979D03*
%TD*%
D16*
%TO.P,C17,1*%
%TO.N,+3V3*%
X139156823Y-99707979D03*
%TO.P,C17,2*%
%TO.N,GND*%
X139796823Y-99707979D03*
%TD*%
%TO.P,C3,1*%
%TO.N,+3V3*%
X167476823Y-105707979D03*
%TO.P,C3,2*%
%TO.N,GND*%
X168116823Y-105707979D03*
%TD*%
D20*
%TO.P,R3,1*%
%TO.N,Net-(LENS-LOGIC_POW1-ADJ)*%
X159151823Y-126707979D03*
%TO.P,R3,2*%
%TO.N,GND*%
X160801823Y-126707979D03*
%TD*%
D15*
%TO.P,C10,1*%
%TO.N,+5V*%
X157976823Y-103887979D03*
%TO.P,C10,2*%
%TO.N,GND*%
X157976823Y-104527979D03*
%TD*%
D16*
%TO.P,C27,1*%
%TO.N,+3V3*%
X127656823Y-96707979D03*
%TO.P,C27,2*%
%TO.N,GND*%
X128296823Y-96707979D03*
%TD*%
D21*
%TO.P,LOGIC_CONVERT1,1,A1*%
%TO.N,unconnected-(LOGIC_CONVERT1-A1-Pad1)*%
X138551823Y-113845479D03*
%TO.P,LOGIC_CONVERT1,2,VCCA*%
%TO.N,+3V3*%
X139201823Y-113845479D03*
%TO.P,LOGIC_CONVERT1,3,A2*%
%TO.N,unconnected-(LOGIC_CONVERT1-A2-Pad3)*%
X139851823Y-113845479D03*
%TO.P,LOGIC_CONVERT1,4,A3*%
%TO.N,unconnected-(LOGIC_CONVERT1-A3-Pad4)*%
X140501823Y-113845479D03*
%TO.P,LOGIC_CONVERT1,5,A4*%
%TO.N,unconnected-(LOGIC_CONVERT1-A4-Pad5)*%
X141151823Y-113845479D03*
%TO.P,LOGIC_CONVERT1,6,A5*%
%TO.N,unconnected-(LOGIC_CONVERT1-A5-Pad6)*%
X141801823Y-113845479D03*
%TO.P,LOGIC_CONVERT1,7,A6*%
%TO.N,Net-(ESP32_P4-GPIO41)*%
X142451823Y-113845479D03*
%TO.P,LOGIC_CONVERT1,8,A7*%
%TO.N,Net-(ESP32_P4-GPIO40)*%
X143101823Y-113845479D03*
%TO.P,LOGIC_CONVERT1,9,A8*%
%TO.N,Net-(ESP32_P4-GPIO39)*%
X143751823Y-113845479D03*
%TO.P,LOGIC_CONVERT1,10,OE*%
%TO.N,+3V3*%
X144401823Y-113845479D03*
%TO.P,LOGIC_CONVERT1,11,GND*%
%TO.N,GND*%
X144401823Y-119570479D03*
%TO.P,LOGIC_CONVERT1,12,B8*%
%TO.N,/DCL*%
X143751823Y-119570479D03*
%TO.P,LOGIC_CONVERT1,13,B7*%
%TO.N,/DLC*%
X143101823Y-119570479D03*
%TO.P,LOGIC_CONVERT1,14,B6*%
%TO.N,/LCLK*%
X142451823Y-119570479D03*
%TO.P,LOGIC_CONVERT1,15,B5*%
%TO.N,unconnected-(LOGIC_CONVERT1-B5-Pad15)*%
X141801823Y-119570479D03*
%TO.P,LOGIC_CONVERT1,16,B4*%
%TO.N,unconnected-(LOGIC_CONVERT1-B4-Pad16)*%
X141151823Y-119570479D03*
%TO.P,LOGIC_CONVERT1,17,B3*%
%TO.N,unconnected-(LOGIC_CONVERT1-B3-Pad17)*%
X140501823Y-119570479D03*
%TO.P,LOGIC_CONVERT1,18,B2*%
%TO.N,unconnected-(LOGIC_CONVERT1-B2-Pad18)*%
X139851823Y-119570479D03*
%TO.P,LOGIC_CONVERT1,19,VCCB*%
%TO.N,+5V5*%
X139201823Y-119570479D03*
%TO.P,LOGIC_CONVERT1,20,B1*%
%TO.N,unconnected-(LOGIC_CONVERT1-B1-Pad20)*%
X138551823Y-119570479D03*
%TD*%
D22*
%TO.P,LENS-LOGIC_POW1,1,ADJ*%
%TO.N,Net-(LENS-LOGIC_POW1-ADJ)*%
X152776823Y-124857979D03*
%TO.P,LENS-LOGIC_POW1,2,VO*%
%TO.N,+5V5*%
X150476823Y-124857979D03*
D23*
X150476823Y-118557979D03*
D22*
%TO.P,LENS-LOGIC_POW1,3,VI*%
%TO.N,+7V2*%
X148176823Y-124857979D03*
%TD*%
D16*
%TO.P,C33,1*%
%TO.N,+3V3*%
X138630256Y-103938091D03*
%TO.P,C33,2*%
%TO.N,GND*%
X139270256Y-103938091D03*
%TD*%
D24*
%TO.P,BATT_POW1,1,VCC*%
%TO.N,+7V2*%
X164756823Y-123747979D03*
D25*
%TO.P,BATT_POW1,2,GND*%
%TO.N,GND*%
X162476823Y-117447979D03*
D24*
%TO.P,BATT_POW1,3,VO*%
%TO.N,+3V3*%
X160196823Y-123747979D03*
%TD*%
D16*
%TO.P,C28,1*%
%TO.N,/VDDO_3*%
X138945885Y-95615165D03*
%TO.P,C28,2*%
%TO.N,GND*%
X139585885Y-95615165D03*
%TD*%
D15*
%TO.P,C5,1*%
%TO.N,+7V2*%
X164976823Y-126207979D03*
%TO.P,C5,2*%
%TO.N,GND*%
X164976823Y-126847979D03*
%TD*%
%TO.P,C8,1*%
%TO.N,+7V2*%
X120976823Y-124187979D03*
%TO.P,C8,2*%
%TO.N,GND*%
X120976823Y-124827979D03*
%TD*%
D16*
%TO.P,C16,1*%
%TO.N,+3V3*%
X126656823Y-101207979D03*
%TO.P,C16,2*%
%TO.N,GND*%
X127296823Y-101207979D03*
%TD*%
D20*
%TO.P,R2,1*%
%TO.N,Net-(LENS-LOGIC_POW1-ADJ)*%
X159151823Y-129217979D03*
%TO.P,R2,2*%
%TO.N,GND*%
X160801823Y-129217979D03*
%TD*%
D26*
%TO.P,C34,1*%
%TO.N,/VDDO_3*%
X132480254Y-103665603D03*
%TO.P,C34,2*%
%TO.N,GND*%
X131840254Y-103665603D03*
%TD*%
D27*
%TO.P,R10,1*%
%TO.N,Net-(ESP32_P4-GPIO36)*%
X141976823Y-95707979D03*
%TO.P,R10,2*%
%TO.N,+3V3*%
X141976823Y-94057979D03*
%TD*%
D16*
%TO.P,C21,1*%
%TO.N,/ESP_VDD_HP*%
X138976823Y-94707979D03*
%TO.P,C21,2*%
%TO.N,GND*%
X139616823Y-94707979D03*
%TD*%
D15*
%TO.P,C12,1*%
%TO.N,GND*%
X113597500Y-115777500D03*
%TO.P,C12,2*%
%TO.N,/VDDO_FLASH*%
X113597500Y-116417500D03*
%TD*%
D28*
%TO.P,C15,1*%
%TO.N,+3V3*%
X166976823Y-102847979D03*
%TO.P,C15,2*%
%TO.N,GND*%
X166976823Y-102207979D03*
%TD*%
D15*
%TO.P,C36,1*%
%TO.N,+3V3*%
X128976823Y-94732979D03*
%TO.P,C36,2*%
%TO.N,GND*%
X128976823Y-95372979D03*
%TD*%
D28*
%TO.P,C7,1*%
%TO.N,+5V5*%
X150976823Y-116847979D03*
%TO.P,C7,2*%
%TO.N,GND*%
X150976823Y-116207979D03*
%TD*%
D26*
%TO.P,C1,1*%
%TO.N,GND*%
X130691700Y-102999596D03*
%TO.P,C1,2*%
%TO.N,/VDDO_FLASH*%
X130051700Y-102999596D03*
%TD*%
D16*
%TO.P,C6,1*%
%TO.N,+7V2*%
X166656823Y-122207979D03*
%TO.P,C6,2*%
%TO.N,GND*%
X167296823Y-122207979D03*
%TD*%
D15*
%TO.P,C22,1*%
%TO.N,/ESP_VDD_HP*%
X132976823Y-92887979D03*
%TO.P,C22,2*%
%TO.N,GND*%
X132976823Y-93527979D03*
%TD*%
%TO.P,C14,1*%
%TO.N,+3V3*%
X161976823Y-125887979D03*
%TO.P,C14,2*%
%TO.N,GND*%
X161976823Y-126527979D03*
%TD*%
D29*
%TO.P,USB_POW1,1,VCC*%
%TO.N,+5V*%
X160171823Y-103232979D03*
D30*
%TO.P,USB_POW1,2,GND*%
%TO.N,GND*%
X162451823Y-109532979D03*
D29*
%TO.P,USB_POW1,3,VO*%
%TO.N,+3V3*%
X164731823Y-103232979D03*
%TD*%
D15*
%TO.P,C19,1*%
%TO.N,+3V3*%
X131476823Y-93232979D03*
%TO.P,C19,2*%
%TO.N,GND*%
X131476823Y-93872979D03*
%TD*%
D28*
%TO.P,C32,1*%
%TO.N,/VDD_PSRAM_1*%
X139976823Y-97707979D03*
%TO.P,C32,2*%
%TO.N,GND*%
X139976823Y-97067979D03*
%TD*%
D26*
%TO.P,C39,1*%
%TO.N,/VDDO_3*%
X132476823Y-102897509D03*
%TO.P,C39,2*%
%TO.N,GND*%
X131836823Y-102897509D03*
%TD*%
D16*
%TO.P,C4,1*%
%TO.N,+3V3*%
X167476823Y-104707979D03*
%TO.P,C4,2*%
%TO.N,GND*%
X168116823Y-104707979D03*
%TD*%
D28*
%TO.P,C24,1*%
%TO.N,+3V3*%
X138476823Y-93682979D03*
%TO.P,C24,2*%
%TO.N,GND*%
X138476823Y-93042979D03*
%TD*%
D15*
%TO.P,C35,1*%
%TO.N,+3V3*%
X130976823Y-94732979D03*
%TO.P,C35,2*%
%TO.N,GND*%
X130976823Y-95372979D03*
%TD*%
%TO.P,C18,1*%
%TO.N,+3V3*%
X134976823Y-93707979D03*
%TO.P,C18,2*%
%TO.N,GND*%
X134976823Y-94347979D03*
%TD*%
D16*
%TO.P,C38,1*%
%TO.N,+3V3*%
X138636823Y-104707979D03*
%TO.P,C38,2*%
%TO.N,GND*%
X139276823Y-104707979D03*
%TD*%
D15*
%TO.P,C20,1*%
%TO.N,/ESP_VDD_HP*%
X126976823Y-103887979D03*
%TO.P,C20,2*%
%TO.N,GND*%
X126976823Y-104527979D03*
%TD*%
D31*
%TO.N,GND*%
X195376823Y-95107979D03*
X160776823Y-87707979D03*
X156176823Y-92107979D03*
X156176823Y-97707979D03*
%TO.N,Net-(ESD_PROT1-I{slash}O1)*%
X155576823Y-85907979D03*
X158976823Y-96457979D03*
%TO.N,USB_DATA_N*%
X155576823Y-88307979D03*
X154126823Y-95057979D03*
%TO.N,GND*%
X143476823Y-131707979D03*
D32*
X140476823Y-99707979D03*
D31*
X132970000Y-95995000D03*
X130270000Y-101395000D03*
X162451823Y-111000000D03*
X168976823Y-114207979D03*
X127976823Y-131207979D03*
D32*
X135976823Y-111207979D03*
D31*
X127960413Y-90450331D03*
D32*
X140476823Y-104707979D03*
X128276823Y-117232979D03*
D31*
X166976823Y-101707979D03*
X164976823Y-128207979D03*
X120976823Y-126707979D03*
X168476823Y-128707979D03*
X97101823Y-90632979D03*
X138976823Y-131207979D03*
X162451823Y-112500000D03*
X137301823Y-123007979D03*
X135670000Y-98695000D03*
X132970000Y-101395000D03*
X135670000Y-95995000D03*
X135670000Y-101395000D03*
X112000000Y-114000000D03*
D32*
X126976823Y-105207979D03*
X130976823Y-102897509D03*
D31*
X150976823Y-115207979D03*
X168116823Y-105207979D03*
X132976823Y-98707979D03*
X168976823Y-103707979D03*
X162476823Y-117447979D03*
X130270000Y-95995000D03*
X112101823Y-92532979D03*
X162451823Y-109500000D03*
X157976823Y-105207979D03*
X134988412Y-129219568D03*
D32*
X144976823Y-88707979D03*
D31*
X132826823Y-88357979D03*
X98101823Y-103932979D03*
X107901823Y-103932979D03*
X145839323Y-119570479D03*
X130270000Y-98695000D03*
X168476823Y-122207979D03*
X162476823Y-108000000D03*
D32*
X140526823Y-95507979D03*
D33*
%TO.N,/DSI_DATAP0*%
X133206823Y-115387979D03*
X133999999Y-117407979D03*
%TO.N,/DSI_DATAN1*%
X131716823Y-117617979D03*
X130500000Y-118227979D03*
D32*
%TO.N,/VDDO_3*%
X138476823Y-96070000D03*
X132976823Y-102864157D03*
D31*
%TO.N,Net-(ESP32_P4-GPIO36)*%
X141976823Y-95707979D03*
%TO.N,+3V3*%
X113976823Y-97707979D03*
X137000000Y-125107979D03*
D32*
X137660600Y-104524202D03*
D31*
X141976823Y-94057979D03*
X125853554Y-101146446D03*
X126867205Y-96817597D03*
D32*
X138476823Y-93707979D03*
D31*
X129445000Y-93042935D03*
X138543016Y-99732039D03*
X158476823Y-123707979D03*
D32*
X148976823Y-90707979D03*
D31*
X131395000Y-92500000D03*
X166976823Y-103232979D03*
D32*
X135245000Y-92976156D03*
D31*
X145976823Y-113845479D03*
X166846825Y-105207979D03*
%TO.N,+5V*%
X157976823Y-103207979D03*
%TO.N,/DET1*%
X101701823Y-103932979D03*
%TO.N,I2C_SDA*%
X135626102Y-126671030D03*
D32*
X153561008Y-105944760D03*
D31*
X143476823Y-100707979D03*
%TO.N,+7V2*%
X168476823Y-124207979D03*
%TO.N,+5V5*%
X141476823Y-121707979D03*
X144976823Y-121707979D03*
%TO.N,+6V*%
X122476823Y-132707979D03*
X145976823Y-132707979D03*
%TO.N,Net-(ESP32_P4-GPIO40)*%
X137389263Y-91216544D03*
%TO.N,Net-(ESP32_P4-GPIO39)*%
X137929961Y-91661117D03*
%TO.N,Net-(ESP32_P4-GPIO41)*%
X136689313Y-91207979D03*
D32*
%TO.N,/VDDO_PSRAM*%
X139156823Y-101207979D03*
D31*
X139000516Y-96499564D03*
D32*
X140358623Y-98070000D03*
%TO.N,I2C_SCL*%
X153470582Y-106537909D03*
D31*
X135000000Y-126357979D03*
X142976823Y-101207979D03*
%TO.N,/VDDO_FLASH*%
X129644950Y-102987879D03*
X114500000Y-117500000D03*
D32*
%TO.N,/ESP_VDD_HP*%
X145476823Y-89707979D03*
X133076823Y-91257979D03*
X139128285Y-94130839D03*
D31*
X127000000Y-103500000D03*
X133145000Y-92707979D03*
D32*
X141476823Y-93207979D03*
D33*
%TO.N,CSI_CLK_N*%
X134870000Y-105389468D03*
X139976823Y-109150000D03*
D32*
%TO.N,CAM_GPIO1*%
X139976823Y-102707979D03*
X152476823Y-107207979D03*
%TO.N,CAM_GPIO0*%
X140476823Y-102207979D03*
X153048948Y-107027212D03*
D33*
%TO.N,CSI_CLK_P*%
X134595000Y-104913155D03*
X139976823Y-108350000D03*
D32*
%TO.N,Net-(ESP32_P4-CSI_REXT)*%
X135976823Y-109557979D03*
X135557631Y-102896554D03*
%TD*%
D34*
%TO.N,Net-(ESD_PROT1-I{slash}O1)*%
X158976823Y-89307979D02*
X155576823Y-85907979D01*
X158976823Y-96457979D02*
X158976823Y-89307979D01*
%TO.N,USB_DATA_N*%
X154126823Y-89757979D02*
X155576823Y-88307979D01*
X154126823Y-95057979D02*
X154126823Y-89757979D01*
%TO.N,+6V*%
X145976823Y-130332979D02*
X145726823Y-130082979D01*
X145976823Y-132707979D02*
X145976823Y-130332979D01*
%TO.N,+7V2*%
X154476823Y-131157979D02*
X154476823Y-133207979D01*
X148176823Y-124857979D02*
X154476823Y-131157979D01*
X154476823Y-133207979D02*
X160976823Y-133207979D01*
%TO.N,+5V5*%
X144976823Y-121707979D02*
X144226823Y-122457979D01*
X144226823Y-122457979D02*
X144226823Y-130082979D01*
%TO.N,GND*%
X143476823Y-131207979D02*
X143476823Y-131707979D01*
X143476823Y-131207979D02*
X144101823Y-131207979D01*
X144726823Y-130082979D02*
X145226823Y-130082979D01*
X144726823Y-130582979D02*
X144726823Y-130082979D01*
X142909421Y-131207979D02*
X143476823Y-131207979D01*
X144101823Y-131207979D02*
X144726823Y-130582979D01*
X142226823Y-130082979D02*
X142226823Y-130525381D01*
X142226823Y-130525381D02*
X142909421Y-131207979D01*
%TO.N,/DLC*%
X143226823Y-127707979D02*
X143226823Y-130082979D01*
X143101823Y-127582979D02*
X143101823Y-119570479D01*
X143226823Y-127707979D02*
X143101823Y-127582979D01*
%TO.N,/LCLK*%
X142726823Y-125982979D02*
X142726823Y-130082979D01*
X142451823Y-125707979D02*
X142726823Y-125982979D01*
X142451823Y-125707979D02*
X142451823Y-119570479D01*
%TO.N,/DCL*%
X143751823Y-130057979D02*
X143726823Y-130082979D01*
X143751823Y-119570479D02*
X143751823Y-130057979D01*
%TO.N,GND*%
X134976823Y-95301823D02*
X135670000Y-95995000D01*
X150976823Y-115207979D02*
X150976823Y-116207979D01*
X128976823Y-95372979D02*
X129647979Y-95372979D01*
X131836823Y-102897509D02*
X130976823Y-102897509D01*
X128296823Y-96707979D02*
X129557021Y-96707979D01*
X138676822Y-93042979D02*
X139616823Y-93982980D01*
X120976823Y-126707979D02*
X122676823Y-126707979D01*
X130892021Y-95372979D02*
X130270000Y-95995000D01*
X129557021Y-96707979D02*
X130270000Y-95995000D01*
X113597500Y-115777500D02*
X113597500Y-115597500D01*
X132976823Y-93527979D02*
X132976823Y-95988177D01*
X139796823Y-101207979D02*
X139796823Y-99707979D01*
X164976823Y-126847979D02*
X164976823Y-128207979D01*
X162451823Y-109532979D02*
X162451823Y-109500000D01*
X131836823Y-103662172D02*
X131840254Y-103665603D01*
X140526823Y-95507979D02*
X140526823Y-96021581D01*
X162476823Y-109707979D02*
X162451823Y-109682979D01*
X131476823Y-93872979D02*
X131476823Y-94891429D01*
X139616823Y-94707979D02*
X139616823Y-95584227D01*
X140526823Y-95507979D02*
X139693071Y-95507979D01*
X145839323Y-119570479D02*
X144401823Y-119570479D01*
X120976823Y-126707979D02*
X119136823Y-126707979D01*
X168116823Y-105207979D02*
X168116823Y-105707979D01*
X139976823Y-96571581D02*
X139976823Y-97067979D01*
X160801823Y-127707979D02*
X160801823Y-128032979D01*
X167296823Y-122207979D02*
X168476823Y-122207979D01*
X130995273Y-95372979D02*
X130976823Y-95372979D01*
X139616823Y-95584227D02*
X139585885Y-95615165D01*
X139270256Y-104701412D02*
X139276823Y-104707979D01*
X126976823Y-104527979D02*
X126976823Y-105207979D01*
X127296823Y-101207979D02*
X130082979Y-101207979D01*
X120976823Y-124827979D02*
X120976823Y-126707979D01*
X132976823Y-95988177D02*
X132970000Y-95995000D01*
X113597500Y-115597500D02*
X112000000Y-114000000D01*
X122676823Y-126707979D02*
X125476823Y-123907979D01*
X140526823Y-96021581D02*
X139976823Y-96571581D01*
X162476823Y-117447979D02*
X162476823Y-109707979D01*
X168116823Y-104707979D02*
X168116823Y-105207979D01*
X160981823Y-126527979D02*
X160801823Y-126707979D01*
X160801823Y-127707979D02*
X160801823Y-129217979D01*
X139616823Y-93982980D02*
X139616823Y-94707979D01*
X139693071Y-95507979D02*
X139585885Y-95615165D01*
X160801823Y-126707979D02*
X160801823Y-127707979D01*
X139796823Y-99707979D02*
X140476823Y-99707979D01*
X138476823Y-93042979D02*
X138676822Y-93042979D01*
X130874736Y-102999596D02*
X130976823Y-102897509D01*
X139436823Y-104707979D02*
X140476823Y-104707979D01*
X139270256Y-103938091D02*
X139270256Y-104701412D01*
X134976823Y-94347979D02*
X134976823Y-95301823D01*
X160801823Y-128032979D02*
X160976823Y-128207979D01*
X131836823Y-102897509D02*
X131836823Y-103662172D01*
X130976823Y-95372979D02*
X130892021Y-95372979D01*
X157976823Y-104527979D02*
X157976823Y-105207979D01*
X113597500Y-115777500D02*
X114597500Y-115777500D01*
X162451823Y-109682979D02*
X162451823Y-109532979D01*
X160976823Y-128207979D02*
X164976823Y-128207979D01*
X130082979Y-101207979D02*
X130270000Y-101395000D01*
X166976823Y-102207979D02*
X166976823Y-101707979D01*
X161976823Y-126527979D02*
X160981823Y-126527979D01*
X130691700Y-102999596D02*
X130874736Y-102999596D01*
X131476823Y-94891429D02*
X130995273Y-95372979D01*
X129647979Y-95372979D02*
X130270000Y-95995000D01*
D35*
%TO.N,/DSI_DATAP0*%
X133206823Y-115387979D02*
X133999999Y-116181155D01*
X133999999Y-116181155D02*
X133999999Y-117407979D01*
%TO.N,/DSI_DATAN1*%
X131110000Y-117617979D02*
X131716823Y-117617979D01*
X130500000Y-118227979D02*
X131110000Y-117617979D01*
D34*
%TO.N,/VDDO_3*%
X132476823Y-102897509D02*
X132476823Y-103662172D01*
X138491050Y-96070000D02*
X138945885Y-95615165D01*
X132943471Y-102897509D02*
X132976823Y-102864157D01*
X138476823Y-96070000D02*
X138491050Y-96070000D01*
X132476823Y-102897509D02*
X132943471Y-102897509D01*
X132476823Y-103662172D02*
X132480254Y-103665603D01*
X132976823Y-102864157D02*
X133133001Y-102864157D01*
%TO.N,+3V3*%
X139476823Y-115207979D02*
X139201823Y-114932979D01*
X139124802Y-99740000D02*
X139156823Y-99707979D01*
X126867205Y-96817597D02*
X127547205Y-96817597D01*
X125853554Y-101146446D02*
X126595290Y-101146446D01*
X129645000Y-93242935D02*
X129645000Y-94064802D01*
X131395000Y-93151156D02*
X131476823Y-93232979D01*
X161976823Y-125527979D02*
X161976823Y-125887979D01*
X129645000Y-94064802D02*
X130313177Y-94732979D01*
X139201823Y-114932979D02*
X139201823Y-113845479D01*
X137660600Y-104524202D02*
X138044145Y-104524202D01*
X137660600Y-104524202D02*
X138293046Y-104524202D01*
X167476823Y-105207979D02*
X166846825Y-105207979D01*
X138044145Y-104524202D02*
X138630256Y-103938091D01*
X135245000Y-92976156D02*
X134976823Y-93244333D01*
X134976823Y-93244333D02*
X134976823Y-93707979D01*
X167476823Y-105207979D02*
X167476823Y-105707979D01*
X166976823Y-103232979D02*
X164731823Y-103232979D01*
X167476823Y-104707979D02*
X167476823Y-105207979D01*
X160196823Y-123747979D02*
X161976823Y-125527979D01*
X129645000Y-94064802D02*
X128976823Y-94732979D01*
X166976823Y-102847979D02*
X166976823Y-103232979D01*
X130313177Y-94732979D02*
X130976823Y-94732979D01*
X144401823Y-114782979D02*
X143976823Y-115207979D01*
X129445000Y-93042935D02*
X129645000Y-93242935D01*
X158501823Y-123682979D02*
X158476823Y-123707979D01*
X145976823Y-113845479D02*
X144401823Y-113845479D01*
X138543016Y-99732039D02*
X138550977Y-99740000D01*
X143976823Y-115207979D02*
X139476823Y-115207979D01*
X160131823Y-123682979D02*
X158501823Y-123682979D01*
X126595290Y-101146446D02*
X126656823Y-101207979D01*
X160196823Y-123747979D02*
X160131823Y-123682979D01*
X131395000Y-92500000D02*
X131395000Y-93151156D01*
X138293046Y-104524202D02*
X138476823Y-104707979D01*
X138550977Y-99740000D02*
X139124802Y-99740000D01*
X127547205Y-96817597D02*
X127656823Y-96707979D01*
X144401823Y-113845479D02*
X144401823Y-114782979D01*
%TO.N,+5V*%
X157976823Y-103887979D02*
X157976823Y-103207979D01*
X160171823Y-103232979D02*
X158001823Y-103232979D01*
X158001823Y-103232979D02*
X157976823Y-103207979D01*
%TO.N,I2C_SDA*%
X143476823Y-100707979D02*
X148324227Y-100707979D01*
X148324227Y-100707979D02*
X153561008Y-105944760D01*
%TO.N,+7V2*%
X121976823Y-121327979D02*
X119136823Y-124167979D01*
X168476823Y-124207979D02*
X167976823Y-124207979D01*
X167976823Y-124207979D02*
X167451823Y-123682979D01*
X126976823Y-121207979D02*
X122096823Y-121207979D01*
X166976823Y-123682979D02*
X165976823Y-123682979D01*
X165976823Y-128207979D02*
X165976823Y-123682979D01*
X119136823Y-124167979D02*
X120976823Y-124167979D01*
X164796823Y-123747979D02*
X164756823Y-123747979D01*
X167451823Y-123682979D02*
X166976823Y-123682979D01*
X122096823Y-121207979D02*
X121976823Y-121327979D01*
X164976823Y-126207979D02*
X164976823Y-123927979D01*
X166296823Y-122207979D02*
X166656823Y-122207979D01*
X145476823Y-133207979D02*
X134476823Y-133207979D01*
X160976823Y-133207979D02*
X165976823Y-128207979D01*
X127976823Y-126707979D02*
X127976823Y-122207979D01*
X145476823Y-133207979D02*
X154476823Y-133207979D01*
X165976823Y-123682979D02*
X164821823Y-123682979D01*
X164756823Y-123747979D02*
X166296823Y-122207979D01*
X134476823Y-133207979D02*
X127976823Y-126707979D01*
X127976823Y-122207979D02*
X126976823Y-121207979D01*
X164976823Y-123927979D02*
X164796823Y-123747979D01*
X164821823Y-123682979D02*
X164756823Y-123747979D01*
%TO.N,+5V5*%
X139201823Y-119570479D02*
X139201823Y-120432979D01*
X150476823Y-118557979D02*
X150476823Y-121707979D01*
X150976823Y-118057979D02*
X150476823Y-118557979D01*
X140476823Y-121707979D02*
X141476823Y-121707979D01*
X144976823Y-121707979D02*
X150476823Y-121707979D01*
X150976823Y-116847979D02*
X150976823Y-118057979D01*
X139201823Y-120432979D02*
X140476823Y-121707979D01*
X150476823Y-125207979D02*
X150476823Y-124857979D01*
X150476823Y-121707979D02*
X150476823Y-124857979D01*
%TO.N,+6V*%
X121476823Y-129247979D02*
X121476823Y-131707979D01*
X119136823Y-129247979D02*
X121476823Y-129247979D01*
X125216823Y-129247979D02*
X125476823Y-129507979D01*
X121476823Y-131707979D02*
X122476823Y-132707979D01*
X121476823Y-129247979D02*
X125216823Y-129247979D01*
%TO.N,Net-(LENS-LOGIC_POW1-ADJ)*%
X157476823Y-126707979D02*
X155626823Y-124857979D01*
X155626823Y-124857979D02*
X152776823Y-124857979D01*
X159151823Y-126707979D02*
X157476823Y-126707979D01*
X159151823Y-126707979D02*
X159151823Y-129217979D01*
%TO.N,Net-(ESP32_P4-GPIO40)*%
X143101823Y-111332979D02*
X143101823Y-113845479D01*
X136676431Y-91927967D02*
X136676431Y-107907587D01*
X141976823Y-110207979D02*
X143101823Y-111332979D01*
X136676431Y-107907587D02*
X138976823Y-110207979D01*
X137389263Y-91216544D02*
X137387854Y-91216544D01*
X138976823Y-110207979D02*
X141976823Y-110207979D01*
X137387854Y-91216544D02*
X136676431Y-91927967D01*
%TO.N,Net-(ESP32_P4-GPIO39)*%
X137928547Y-91661117D02*
X136976823Y-92612841D01*
X137929961Y-91661117D02*
X137928547Y-91661117D01*
X136976823Y-107707979D02*
X138976823Y-109707979D01*
X141958242Y-109707979D02*
X143751823Y-111501560D01*
X143751823Y-111501560D02*
X143751823Y-113845479D01*
X136976823Y-92612841D02*
X136976823Y-107707979D01*
X138976823Y-109707979D02*
X141958242Y-109707979D01*
%TO.N,Net-(ESP32_P4-GPIO41)*%
X136301000Y-92532156D02*
X136301000Y-108032156D01*
X136689313Y-91207979D02*
X136301000Y-91596292D01*
X141976823Y-110707979D02*
X142451823Y-111182979D01*
X142451823Y-111182979D02*
X142451823Y-113845479D01*
X136301000Y-108032156D02*
X138976823Y-110707979D01*
X138976823Y-110707979D02*
X141976823Y-110707979D01*
X136301000Y-91596292D02*
X136301000Y-92532156D01*
%TO.N,/VDDO_PSRAM*%
X140338844Y-98070000D02*
X139976823Y-97707979D01*
X140358623Y-98070000D02*
X140338844Y-98070000D01*
%TO.N,I2C_SCL*%
X142976823Y-101207979D02*
X143001823Y-101207979D01*
X153470582Y-106490731D02*
X148187830Y-101207979D01*
X153470582Y-106537909D02*
X153470582Y-106490731D01*
X148187830Y-101207979D02*
X142976823Y-101207979D01*
%TO.N,/VDDO_FLASH*%
X122000000Y-117500000D02*
X114500000Y-117500000D01*
X130051700Y-102999596D02*
X129656667Y-102999596D01*
X114597500Y-116417500D02*
X113597500Y-116417500D01*
X114500000Y-117500000D02*
X114500000Y-116515000D01*
X129477692Y-102987879D02*
X129465571Y-103000000D01*
X129550414Y-109949586D02*
X122000000Y-117500000D01*
X129550414Y-103082415D02*
X129550414Y-109949586D01*
X129644950Y-102987879D02*
X129477692Y-102987879D01*
X129656667Y-102999596D02*
X129644950Y-102987879D01*
X129644950Y-102987879D02*
X129550414Y-103082415D01*
%TO.N,/ESP_VDD_HP*%
X141476823Y-93207979D02*
X141476823Y-89707979D01*
X133145000Y-92707979D02*
X132976823Y-92876156D01*
X134626823Y-89707979D02*
X145476823Y-89707979D01*
X141476823Y-89707979D02*
X145476823Y-89707979D01*
X133076823Y-91257979D02*
X134626823Y-89707979D01*
X139128285Y-94130839D02*
X138976823Y-94282301D01*
X126976823Y-103523177D02*
X127000000Y-103500000D01*
X132976823Y-92876156D02*
X132976823Y-92887979D01*
X138976823Y-94282301D02*
X138976823Y-94707979D01*
X126976823Y-103887979D02*
X126976823Y-103523177D01*
%TO.N,CAM_GPIO1*%
X147976823Y-102707979D02*
X139976823Y-102707979D01*
X152476823Y-107207979D02*
X147976823Y-102707979D01*
%TO.N,CAM_GPIO0*%
X148229715Y-102207979D02*
X153048948Y-107027212D01*
X140476823Y-102207979D02*
X148229715Y-102207979D01*
%TO.N,Net-(ESP32_P4-CSI_REXT)*%
X135976823Y-103315746D02*
X135557631Y-102896554D01*
X135976823Y-109557979D02*
X135976823Y-103315746D01*
%TD*%
M02*
