%TF.GenerationSoftware,KiCad,Pcbnew,9.0.6*%
%TF.CreationDate,2026-02-13T20:59:32+01:00*%
%TF.ProjectId,fotaopar_t,666f7461-6f70-4617-92e1-742e6b696361,rev?*%
%TF.SameCoordinates,Original*%
%TF.FileFunction,Soldermask,Bot*%
%TF.FilePolarity,Negative*%
%FSLAX46Y46*%
G04 Gerber Fmt 4.6, Leading zero omitted, Abs format (unit mm)*
G04 Created by KiCad (PCBNEW 9.0.6) date 2026-02-13 20:59:32*
%MOMM*%
%LPD*%
G01*
G04 APERTURE LIST*
G04 Aperture macros list*
%AMRoundRect*
0 Rectangle with rounded corners*
0 $1 Rounding radius*
0 $2 $3 $4 $5 $6 $7 $8 $9 X,Y pos of 4 corners*
0 Add a 4 corners polygon primitive as box body*
4,1,4,$2,$3,$4,$5,$6,$7,$8,$9,$2,$3,0*
0 Add four circle primitives for the rounded corners*
1,1,$1+$1,$2,$3*
1,1,$1+$1,$4,$5*
1,1,$1+$1,$6,$7*
1,1,$1+$1,$8,$9*
0 Add four rect primitives between the rounded corners*
20,1,$1+$1,$2,$3,$4,$5,0*
20,1,$1+$1,$4,$5,$6,$7,0*
20,1,$1+$1,$6,$7,$8,$9,0*
20,1,$1+$1,$8,$9,$2,$3,0*%
%AMFreePoly0*
4,1,7,1.050000,-0.975000,-1.050000,-0.975000,-1.050000,0.625000,-0.250000,0.625000,-0.250000,0.975000,1.050000,0.975000,1.050000,-0.975000,1.050000,-0.975000,$1*%
%AMFreePoly1*
4,1,7,0.250000,0.625000,1.050000,0.625000,1.050000,-0.975000,-1.050000,-0.975000,-1.050000,0.975000,0.250000,0.975000,0.250000,0.625000,0.250000,0.625000,$1*%
G04 Aperture macros list end*
%ADD10RoundRect,0.075000X0.075000X0.475000X-0.075000X0.475000X-0.075000X-0.475000X0.075000X-0.475000X0*%
%ADD11FreePoly0,180.000000*%
%ADD12FreePoly1,180.000000*%
%ADD13C,0.600000*%
%ADD14O,2.000000X0.900000*%
%ADD15O,1.700000X0.900000*%
%ADD16RoundRect,0.100000X-0.100000X0.130000X-0.100000X-0.130000X0.100000X-0.130000X0.100000X0.130000X0*%
%ADD17RoundRect,0.100000X-0.130000X-0.100000X0.130000X-0.100000X0.130000X0.100000X-0.130000X0.100000X0*%
%ADD18C,3.500000*%
%ADD19R,2.000000X1.905000*%
%ADD20O,2.000000X1.905000*%
%ADD21RoundRect,0.250000X0.550000X-1.500000X0.550000X1.500000X-0.550000X1.500000X-0.550000X-1.500000X0*%
%ADD22RoundRect,0.200000X-0.200000X-0.275000X0.200000X-0.275000X0.200000X0.275000X-0.200000X0.275000X0*%
%ADD23RoundRect,0.100000X-0.100000X0.637500X-0.100000X-0.637500X0.100000X-0.637500X0.100000X0.637500X0*%
%ADD24RoundRect,0.375000X0.375000X-0.625000X0.375000X0.625000X-0.375000X0.625000X-0.375000X-0.625000X0*%
%ADD25RoundRect,0.500000X1.400000X-0.500000X1.400000X0.500000X-1.400000X0.500000X-1.400000X-0.500000X0*%
%ADD26RoundRect,0.250000X0.350000X-0.850000X0.350000X0.850000X-0.350000X0.850000X-0.350000X-0.850000X0*%
%ADD27RoundRect,0.249997X2.650003X-2.950003X2.650003X2.950003X-2.650003X2.950003X-2.650003X-2.950003X0*%
%ADD28RoundRect,0.100000X0.130000X0.100000X-0.130000X0.100000X-0.130000X-0.100000X0.130000X-0.100000X0*%
%ADD29RoundRect,0.200000X0.275000X-0.200000X0.275000X0.200000X-0.275000X0.200000X-0.275000X-0.200000X0*%
%ADD30RoundRect,0.100000X0.100000X-0.130000X0.100000X0.130000X-0.100000X0.130000X-0.100000X-0.130000X0*%
%ADD31RoundRect,0.250000X-0.350000X0.850000X-0.350000X-0.850000X0.350000X-0.850000X0.350000X0.850000X0*%
%ADD32RoundRect,0.249997X-2.650003X2.950003X-2.650003X-2.950003X2.650003X-2.950003X2.650003X2.950003X0*%
G04 APERTURE END LIST*
D10*
%TO.C,J1*%
X145726823Y-130082979D03*
X145226823Y-130082979D03*
X144726823Y-130082979D03*
X144226823Y-130082979D03*
X143726823Y-130082979D03*
X143226823Y-130082979D03*
X142726823Y-130082979D03*
X142226823Y-130082979D03*
D11*
X147976823Y-131207979D03*
D12*
X139976823Y-131207979D03*
%TD*%
D13*
%TO.C,USB-C_2.0*%
X191726823Y-97997979D03*
X191726823Y-92217979D03*
D14*
X191246823Y-99427979D03*
D15*
X195416823Y-99427979D03*
D14*
X191246823Y-90787979D03*
D15*
X195416823Y-90787979D03*
%TD*%
D16*
%TO.C,C2*%
X114597500Y-115777500D03*
X114597500Y-116417500D03*
%TD*%
D17*
%TO.C,C31*%
X139156823Y-101207979D03*
X139796823Y-101207979D03*
%TD*%
D18*
%TO.C,LENS_POW1*%
X102476823Y-126707979D03*
D19*
X119136823Y-124167979D03*
D20*
X119136823Y-126707979D03*
X119136823Y-129247979D03*
%TD*%
D21*
%TO.C,C9*%
X125476823Y-129507979D03*
X125476823Y-123907979D03*
%TD*%
D17*
%TO.C,C17*%
X139156823Y-99707979D03*
X139796823Y-99707979D03*
%TD*%
%TO.C,C3*%
X167476823Y-105707979D03*
X168116823Y-105707979D03*
%TD*%
D22*
%TO.C,R3*%
X159151823Y-126707979D03*
X160801823Y-126707979D03*
%TD*%
D16*
%TO.C,C10*%
X157976823Y-103887979D03*
X157976823Y-104527979D03*
%TD*%
D17*
%TO.C,C27*%
X127656823Y-96707979D03*
X128296823Y-96707979D03*
%TD*%
D23*
%TO.C,LOGIC_CONVERT1*%
X138551823Y-113845479D03*
X139201823Y-113845479D03*
X139851823Y-113845479D03*
X140501823Y-113845479D03*
X141151823Y-113845479D03*
X141801823Y-113845479D03*
X142451823Y-113845479D03*
X143101823Y-113845479D03*
X143751823Y-113845479D03*
X144401823Y-113845479D03*
X144401823Y-119570479D03*
X143751823Y-119570479D03*
X143101823Y-119570479D03*
X142451823Y-119570479D03*
X141801823Y-119570479D03*
X141151823Y-119570479D03*
X140501823Y-119570479D03*
X139851823Y-119570479D03*
X139201823Y-119570479D03*
X138551823Y-119570479D03*
%TD*%
D24*
%TO.C,LENS-LOGIC_POW1*%
X152776823Y-124857979D03*
X150476823Y-124857979D03*
D25*
X150476823Y-118557979D03*
D24*
X148176823Y-124857979D03*
%TD*%
D17*
%TO.C,C33*%
X138630256Y-103938091D03*
X139270256Y-103938091D03*
%TD*%
D26*
%TO.C,BATT_POW1*%
X164756823Y-123747979D03*
D27*
X162476823Y-117447979D03*
D26*
X160196823Y-123747979D03*
%TD*%
D17*
%TO.C,C28*%
X138945885Y-95615165D03*
X139585885Y-95615165D03*
%TD*%
D16*
%TO.C,C5*%
X164976823Y-126207979D03*
X164976823Y-126847979D03*
%TD*%
%TO.C,C8*%
X120976823Y-124187979D03*
X120976823Y-124827979D03*
%TD*%
D17*
%TO.C,C16*%
X126656823Y-101207979D03*
X127296823Y-101207979D03*
%TD*%
D22*
%TO.C,R2*%
X159151823Y-129217979D03*
X160801823Y-129217979D03*
%TD*%
D28*
%TO.C,C34*%
X132480254Y-103665603D03*
X131840254Y-103665603D03*
%TD*%
D29*
%TO.C,R10*%
X141976823Y-95707979D03*
X141976823Y-94057979D03*
%TD*%
D17*
%TO.C,C21*%
X138976823Y-94707979D03*
X139616823Y-94707979D03*
%TD*%
D16*
%TO.C,C12*%
X113597500Y-115777500D03*
X113597500Y-116417500D03*
%TD*%
D30*
%TO.C,C15*%
X166976823Y-102847979D03*
X166976823Y-102207979D03*
%TD*%
D16*
%TO.C,C36*%
X128976823Y-94732979D03*
X128976823Y-95372979D03*
%TD*%
D30*
%TO.C,C7*%
X150976823Y-116847979D03*
X150976823Y-116207979D03*
%TD*%
D28*
%TO.C,C1*%
X130691700Y-102999596D03*
X130051700Y-102999596D03*
%TD*%
D17*
%TO.C,C6*%
X166656823Y-122207979D03*
X167296823Y-122207979D03*
%TD*%
D16*
%TO.C,C22*%
X132976823Y-92887979D03*
X132976823Y-93527979D03*
%TD*%
%TO.C,C14*%
X161976823Y-125887979D03*
X161976823Y-126527979D03*
%TD*%
D31*
%TO.C,USB_POW1*%
X160171823Y-103232979D03*
D32*
X162451823Y-109532979D03*
D31*
X164731823Y-103232979D03*
%TD*%
D16*
%TO.C,C19*%
X131476823Y-93232979D03*
X131476823Y-93872979D03*
%TD*%
D30*
%TO.C,C32*%
X139976823Y-97707979D03*
X139976823Y-97067979D03*
%TD*%
D28*
%TO.C,C39*%
X132476823Y-102897509D03*
X131836823Y-102897509D03*
%TD*%
D17*
%TO.C,C4*%
X167476823Y-104707979D03*
X168116823Y-104707979D03*
%TD*%
D30*
%TO.C,C24*%
X138476823Y-93682979D03*
X138476823Y-93042979D03*
%TD*%
D16*
%TO.C,C35*%
X130976823Y-94732979D03*
X130976823Y-95372979D03*
%TD*%
%TO.C,C18*%
X134976823Y-93707979D03*
X134976823Y-94347979D03*
%TD*%
D17*
%TO.C,C38*%
X138636823Y-104707979D03*
X139276823Y-104707979D03*
%TD*%
D16*
%TO.C,C20*%
X126976823Y-103887979D03*
X126976823Y-104527979D03*
%TD*%
M02*
