M48
; DRILL file {KiCad 9.0.6} date 2026-02-13T20:59:40+0100
; FORMAT={-:-/ absolute / metric / decimal}
; #@! TF.CreationDate,2026-02-13T20:59:40+01:00
; #@! TF.GenerationSoftware,Kicad,Pcbnew,9.0.6
; #@! TF.FileFunction,Plated,1,4,PTH
FMAT,2
METRIC
; #@! TA.AperFunction,Plated,PTH,ViaDrill
T1C0.250
; #@! TA.AperFunction,Plated,PTH,ViaDrill
T2C0.300
; #@! TA.AperFunction,Plated,PTH,ComponentDrill
T3C0.600
; #@! TA.AperFunction,Plated,PTH,ComponentDrill
T4C1.100
%
G90
G05
T1
X126.977Y-105.208
X128.277Y-117.233
X130.5Y-118.228
X130.977Y-102.898
X131.717Y-117.618
X132.977Y-102.864
X133.077Y-91.258
X133.207Y-115.388
X134.0Y-117.408
X134.595Y-104.913
X134.87Y-105.389
X135.245Y-92.976
X135.558Y-102.897
X135.977Y-109.558
X135.977Y-111.208
X137.661Y-104.524
X138.477Y-93.708
X138.477Y-96.07
X139.128Y-94.131
X139.157Y-101.208
X139.977Y-102.708
X139.977Y-108.35
X139.977Y-109.15
X140.359Y-98.07
X140.477Y-99.708
X140.477Y-102.208
X140.477Y-104.708
X140.527Y-95.508
X141.477Y-93.208
X144.977Y-88.708
X145.477Y-89.708
X148.977Y-90.708
X152.477Y-107.208
X153.049Y-107.027
X153.471Y-106.538
X153.561Y-105.945
T2
X97.102Y-90.633
X98.102Y-103.933
X101.702Y-103.933
X107.902Y-103.933
X112.0Y-114.0
X112.102Y-92.533
X113.977Y-97.708
X114.5Y-117.5
X120.977Y-126.708
X122.477Y-132.708
X125.854Y-101.146
X126.867Y-96.818
X127.0Y-103.5
X127.96Y-90.45
X127.977Y-131.208
X129.445Y-93.043
X129.645Y-102.988
X130.27Y-95.995
X130.27Y-98.695
X130.27Y-101.395
X131.395Y-92.5
X132.827Y-88.358
X132.97Y-95.995
X132.97Y-101.395
X132.977Y-98.708
X133.145Y-92.708
X134.988Y-129.22
X135.0Y-126.358
X135.626Y-126.671
X135.67Y-95.995
X135.67Y-98.695
X135.67Y-101.395
X136.689Y-91.208
X137.0Y-125.108
X137.302Y-123.008
X137.389Y-91.217
X137.93Y-91.661
X138.543Y-99.732
X138.977Y-131.208
X139.001Y-96.5
X141.477Y-121.708
X141.977Y-94.058
X141.977Y-95.708
X142.977Y-101.208
X143.477Y-100.708
X143.477Y-131.708
X144.977Y-121.708
X145.839Y-119.57
X145.977Y-113.845
X145.977Y-132.708
X150.977Y-115.208
X154.127Y-95.058
X155.577Y-85.908
X155.577Y-88.308
X156.177Y-92.108
X156.177Y-97.708
X157.977Y-103.208
X157.977Y-105.208
X158.477Y-123.708
X158.977Y-96.458
X160.777Y-87.708
X162.452Y-109.5
X162.452Y-111.0
X162.452Y-112.5
X162.477Y-108.0
X162.477Y-117.448
X164.977Y-128.208
X166.847Y-105.208
X166.977Y-101.708
X166.977Y-103.233
X168.117Y-105.208
X168.477Y-122.208
X168.477Y-124.208
X168.477Y-128.708
X168.977Y-103.708
X168.977Y-114.208
X195.377Y-95.108
T4
X119.137Y-124.168
X119.137Y-126.708
X119.137Y-129.248
T3
G00X191.797Y-90.788
M15
G01X190.697Y-90.788
M16
G05
G00X191.797Y-99.428
M15
G01X190.697Y-99.428
M16
G05
G00X195.817Y-90.788
M15
G01X195.017Y-90.788
M16
G05
G00X195.817Y-99.428
M15
G01X195.017Y-99.428
M16
G05
M30
