%TF.GenerationSoftware,KiCad,Pcbnew,9.0.6*%
%TF.CreationDate,2026-02-13T20:59:31+01:00*%
%TF.ProjectId,fotaopar_t,666f7461-6f70-4617-92e1-742e6b696361,rev?*%
%TF.SameCoordinates,Original*%
%TF.FileFunction,Copper,L2,Inr*%
%TF.FilePolarity,Positive*%
%FSLAX46Y46*%
G04 Gerber Fmt 4.6, Leading zero omitted, Abs format (unit mm)*
G04 Created by KiCad (PCBNEW 9.0.6) date 2026-02-13 20:59:31*
%MOMM*%
%LPD*%
G01*
G04 APERTURE LIST*
%TA.AperFunction,HeatsinkPad*%
%ADD10O,2.000000X0.900000*%
%TD*%
%TA.AperFunction,HeatsinkPad*%
%ADD11O,1.700000X0.900000*%
%TD*%
%TA.AperFunction,ComponentPad*%
%ADD12R,2.000000X1.905000*%
%TD*%
%TA.AperFunction,ComponentPad*%
%ADD13O,2.000000X1.905000*%
%TD*%
%TA.AperFunction,ViaPad*%
%ADD14C,0.600000*%
%TD*%
%TA.AperFunction,ViaPad*%
%ADD15C,0.500000*%
%TD*%
%TA.AperFunction,ViaPad*%
%ADD16C,0.450000*%
%TD*%
G04 APERTURE END LIST*
D10*
%TO.N,GND*%
%TO.C,USB-C_2.0*%
X191246823Y-99427979D03*
D11*
X195416823Y-99427979D03*
D10*
X191246823Y-90787979D03*
D11*
X195416823Y-90787979D03*
%TD*%
D12*
%TO.N,+7V2*%
%TO.C,LENS_POW1*%
X119136823Y-124167979D03*
D13*
%TO.N,GND*%
X119136823Y-126707979D03*
%TO.N,+6V*%
X119136823Y-129247979D03*
%TD*%
D14*
%TO.N,GND*%
X195376823Y-95107979D03*
X160776823Y-87707979D03*
X156176823Y-92107979D03*
X156176823Y-97707979D03*
%TO.N,Net-(ESD_PROT1-I{slash}O1)*%
X155576823Y-85907979D03*
X158976823Y-96457979D03*
%TO.N,USB_DATA_N*%
X155576823Y-88307979D03*
X154126823Y-95057979D03*
%TO.N,GND*%
X143476823Y-131707979D03*
D15*
X140476823Y-99707979D03*
D14*
X132970000Y-95995000D03*
X130270000Y-101395000D03*
X162451823Y-111000000D03*
X168976823Y-114207979D03*
X127976823Y-131207979D03*
D15*
X135976823Y-111207979D03*
D14*
X127960413Y-90450331D03*
D15*
X140476823Y-104707979D03*
X128276823Y-117232979D03*
D14*
X166976823Y-101707979D03*
X164976823Y-128207979D03*
X120976823Y-126707979D03*
X168476823Y-128707979D03*
X97101823Y-90632979D03*
X138976823Y-131207979D03*
X162451823Y-112500000D03*
X137301823Y-123007979D03*
X135670000Y-98695000D03*
X132970000Y-101395000D03*
X135670000Y-95995000D03*
X135670000Y-101395000D03*
X112000000Y-114000000D03*
D15*
X126976823Y-105207979D03*
X130976823Y-102897509D03*
D14*
X150976823Y-115207979D03*
X168116823Y-105207979D03*
X132976823Y-98707979D03*
X168976823Y-103707979D03*
X162476823Y-117447979D03*
X130270000Y-95995000D03*
X112101823Y-92532979D03*
X162451823Y-109500000D03*
X157976823Y-105207979D03*
X134988412Y-129219568D03*
D15*
X144976823Y-88707979D03*
D14*
X132826823Y-88357979D03*
X98101823Y-103932979D03*
X107901823Y-103932979D03*
X145839323Y-119570479D03*
X130270000Y-98695000D03*
X168476823Y-122207979D03*
X162476823Y-108000000D03*
D15*
X140526823Y-95507979D03*
D16*
%TO.N,/DSI_DATAP0*%
X133206823Y-115387979D03*
X133999999Y-117407979D03*
%TO.N,/DSI_DATAN1*%
X131716823Y-117617979D03*
X130500000Y-118227979D03*
D15*
%TO.N,/VDDO_3*%
X138476823Y-96070000D03*
X132976823Y-102864157D03*
D14*
%TO.N,Net-(ESP32_P4-GPIO36)*%
X141976823Y-95707979D03*
%TO.N,+3V3*%
X113976823Y-97707979D03*
X137000000Y-125107979D03*
D15*
X137660600Y-104524202D03*
D14*
X141976823Y-94057979D03*
X125853554Y-101146446D03*
X126867205Y-96817597D03*
D15*
X138476823Y-93707979D03*
D14*
X129445000Y-93042935D03*
X138543016Y-99732039D03*
X158476823Y-123707979D03*
D15*
X148976823Y-90707979D03*
D14*
X131395000Y-92500000D03*
X166976823Y-103232979D03*
D15*
X135245000Y-92976156D03*
D14*
X145976823Y-113845479D03*
X166846825Y-105207979D03*
%TO.N,+5V*%
X157976823Y-103207979D03*
%TO.N,/DET1*%
X101701823Y-103932979D03*
%TO.N,I2C_SDA*%
X135626102Y-126671030D03*
D15*
X153561008Y-105944760D03*
D14*
X143476823Y-100707979D03*
%TO.N,+7V2*%
X168476823Y-124207979D03*
%TO.N,+5V5*%
X141476823Y-121707979D03*
X144976823Y-121707979D03*
%TO.N,+6V*%
X122476823Y-132707979D03*
X145976823Y-132707979D03*
%TO.N,Net-(ESP32_P4-GPIO40)*%
X137389263Y-91216544D03*
%TO.N,Net-(ESP32_P4-GPIO39)*%
X137929961Y-91661117D03*
%TO.N,Net-(ESP32_P4-GPIO41)*%
X136689313Y-91207979D03*
D15*
%TO.N,/VDDO_PSRAM*%
X139156823Y-101207979D03*
D14*
X139000516Y-96499564D03*
D15*
X140358623Y-98070000D03*
%TO.N,I2C_SCL*%
X153470582Y-106537909D03*
D14*
X135000000Y-126357979D03*
X142976823Y-101207979D03*
%TO.N,/VDDO_FLASH*%
X129644950Y-102987879D03*
X114500000Y-117500000D03*
D15*
%TO.N,/ESP_VDD_HP*%
X145476823Y-89707979D03*
X133076823Y-91257979D03*
X139128285Y-94130839D03*
D14*
X127000000Y-103500000D03*
X133145000Y-92707979D03*
D15*
X141476823Y-93207979D03*
D16*
%TO.N,CSI_CLK_N*%
X134870000Y-105389468D03*
X139976823Y-109150000D03*
D15*
%TO.N,CAM_GPIO1*%
X139976823Y-102707979D03*
X152476823Y-107207979D03*
%TO.N,CAM_GPIO0*%
X140476823Y-102207979D03*
X153048948Y-107027212D03*
D16*
%TO.N,CSI_CLK_P*%
X134595000Y-104913155D03*
X139976823Y-108350000D03*
D15*
%TO.N,Net-(ESP32_P4-CSI_REXT)*%
X135976823Y-109557979D03*
X135557631Y-102896554D03*
%TD*%
%TA.AperFunction,Conductor*%
%TO.N,GND*%
G36*
X197419362Y-83728164D02*
G01*
X197465117Y-83780968D01*
X197476323Y-83832479D01*
X197476323Y-135583479D01*
X197456638Y-135650518D01*
X197403834Y-135696273D01*
X197352323Y-135707479D01*
X95601323Y-135707479D01*
X95534284Y-135687794D01*
X95488529Y-135634990D01*
X95477323Y-135583479D01*
X95477323Y-132629132D01*
X121676323Y-132629132D01*
X121676323Y-132786825D01*
X121707084Y-132941468D01*
X121707087Y-132941480D01*
X121767425Y-133087151D01*
X121767432Y-133087164D01*
X121855033Y-133218267D01*
X121855036Y-133218271D01*
X121966530Y-133329765D01*
X121966534Y-133329768D01*
X122097637Y-133417369D01*
X122097650Y-133417376D01*
X122243321Y-133477714D01*
X122243326Y-133477716D01*
X122397976Y-133508478D01*
X122397979Y-133508479D01*
X122397981Y-133508479D01*
X122555667Y-133508479D01*
X122555668Y-133508478D01*
X122710320Y-133477716D01*
X122856002Y-133417373D01*
X122987112Y-133329768D01*
X123098612Y-133218268D01*
X123186217Y-133087158D01*
X123246560Y-132941476D01*
X123277323Y-132786821D01*
X123277323Y-132629137D01*
X123277323Y-132629134D01*
X123277322Y-132629132D01*
X145176323Y-132629132D01*
X145176323Y-132786825D01*
X145207084Y-132941468D01*
X145207087Y-132941480D01*
X145267425Y-133087151D01*
X145267432Y-133087164D01*
X145355033Y-133218267D01*
X145355036Y-133218271D01*
X145466530Y-133329765D01*
X145466534Y-133329768D01*
X145597637Y-133417369D01*
X145597650Y-133417376D01*
X145743321Y-133477714D01*
X145743326Y-133477716D01*
X145897976Y-133508478D01*
X145897979Y-133508479D01*
X145897981Y-133508479D01*
X146055667Y-133508479D01*
X146055668Y-133508478D01*
X146210320Y-133477716D01*
X146356002Y-133417373D01*
X146487112Y-133329768D01*
X146598612Y-133218268D01*
X146686217Y-133087158D01*
X146746560Y-132941476D01*
X146777323Y-132786821D01*
X146777323Y-132629137D01*
X146777323Y-132629134D01*
X146777322Y-132629132D01*
X146746561Y-132474489D01*
X146746560Y-132474482D01*
X146746558Y-132474477D01*
X146686220Y-132328806D01*
X146686213Y-132328793D01*
X146598612Y-132197690D01*
X146598609Y-132197686D01*
X146487115Y-132086192D01*
X146487111Y-132086189D01*
X146356008Y-131998588D01*
X146355995Y-131998581D01*
X146210324Y-131938243D01*
X146210312Y-131938240D01*
X146055668Y-131907479D01*
X146055665Y-131907479D01*
X145897981Y-131907479D01*
X145897978Y-131907479D01*
X145743333Y-131938240D01*
X145743321Y-131938243D01*
X145597650Y-131998581D01*
X145597637Y-131998588D01*
X145466534Y-132086189D01*
X145466530Y-132086192D01*
X145355036Y-132197686D01*
X145355033Y-132197690D01*
X145267432Y-132328793D01*
X145267425Y-132328806D01*
X145207087Y-132474477D01*
X145207084Y-132474489D01*
X145176323Y-132629132D01*
X123277322Y-132629132D01*
X123246561Y-132474489D01*
X123246560Y-132474482D01*
X123246558Y-132474477D01*
X123186220Y-132328806D01*
X123186213Y-132328793D01*
X123098612Y-132197690D01*
X123098609Y-132197686D01*
X122987115Y-132086192D01*
X122987111Y-132086189D01*
X122856008Y-131998588D01*
X122855995Y-131998581D01*
X122710324Y-131938243D01*
X122710312Y-131938240D01*
X122555668Y-131907479D01*
X122555665Y-131907479D01*
X122397981Y-131907479D01*
X122397978Y-131907479D01*
X122243333Y-131938240D01*
X122243321Y-131938243D01*
X122097650Y-131998581D01*
X122097637Y-131998588D01*
X121966534Y-132086189D01*
X121966530Y-132086192D01*
X121855036Y-132197686D01*
X121855033Y-132197690D01*
X121767432Y-132328793D01*
X121767425Y-132328806D01*
X121707087Y-132474477D01*
X121707084Y-132474489D01*
X121676323Y-132629132D01*
X95477323Y-132629132D01*
X95477323Y-126593237D01*
X100726323Y-126593237D01*
X100726323Y-126822720D01*
X100747000Y-126979768D01*
X100756275Y-127050217D01*
X100790558Y-127178164D01*
X100815665Y-127271866D01*
X100903473Y-127483855D01*
X100903480Y-127483869D01*
X101018215Y-127682596D01*
X101157904Y-127864640D01*
X101157912Y-127864649D01*
X101320153Y-128026890D01*
X101320161Y-128026897D01*
X101502205Y-128166586D01*
X101502208Y-128166587D01*
X101502211Y-128166590D01*
X101700935Y-128281323D01*
X101700940Y-128281325D01*
X101700946Y-128281328D01*
X101749436Y-128301413D01*
X101912936Y-128369137D01*
X102134585Y-128428527D01*
X102362089Y-128458479D01*
X102362096Y-128458479D01*
X102591550Y-128458479D01*
X102591557Y-128458479D01*
X102819061Y-128428527D01*
X103040710Y-128369137D01*
X103252711Y-128281323D01*
X103451435Y-128166590D01*
X103633484Y-128026898D01*
X103633488Y-128026893D01*
X103633493Y-128026890D01*
X103795734Y-127864649D01*
X103795737Y-127864644D01*
X103795742Y-127864640D01*
X103935434Y-127682591D01*
X104050167Y-127483867D01*
X104137981Y-127271866D01*
X104197371Y-127050217D01*
X104227323Y-126822713D01*
X104227323Y-126593245D01*
X104197371Y-126365741D01*
X104137981Y-126144092D01*
X104069512Y-125978793D01*
X104050172Y-125932102D01*
X104050169Y-125932096D01*
X104050167Y-125932091D01*
X103935434Y-125733367D01*
X103935431Y-125733364D01*
X103935430Y-125733361D01*
X103805684Y-125564275D01*
X103795742Y-125551318D01*
X103795741Y-125551317D01*
X103795734Y-125551309D01*
X103633493Y-125389068D01*
X103633484Y-125389060D01*
X103451440Y-125249371D01*
X103414358Y-125227962D01*
X103252711Y-125134635D01*
X103252699Y-125134629D01*
X103040710Y-125046821D01*
X102819061Y-124987431D01*
X102781038Y-124982425D01*
X102591564Y-124957479D01*
X102591557Y-124957479D01*
X102362089Y-124957479D01*
X102362081Y-124957479D01*
X102145538Y-124985988D01*
X102134585Y-124987431D01*
X102056036Y-125008478D01*
X101912935Y-125046821D01*
X101700946Y-125134629D01*
X101700932Y-125134636D01*
X101502205Y-125249371D01*
X101320161Y-125389060D01*
X101157904Y-125551317D01*
X101018215Y-125733361D01*
X100903480Y-125932088D01*
X100903473Y-125932102D01*
X100815665Y-126144091D01*
X100756276Y-126365738D01*
X100756274Y-126365749D01*
X100726323Y-126593237D01*
X95477323Y-126593237D01*
X95477323Y-123167614D01*
X117636323Y-123167614D01*
X117636323Y-125168349D01*
X117636324Y-125168355D01*
X117642731Y-125227962D01*
X117693025Y-125362807D01*
X117693029Y-125362814D01*
X117779275Y-125478023D01*
X117779278Y-125478026D01*
X117894487Y-125564272D01*
X117894490Y-125564274D01*
X117894491Y-125564274D01*
X117894492Y-125564275D01*
X117922848Y-125574851D01*
X117978781Y-125616721D01*
X118003199Y-125682185D01*
X117988348Y-125750458D01*
X117979833Y-125763918D01*
X117847036Y-125946698D01*
X117743240Y-126150408D01*
X117672588Y-126367850D01*
X117658314Y-126457979D01*
X118646075Y-126457979D01*
X118624305Y-126495687D01*
X118586823Y-126635570D01*
X118586823Y-126780388D01*
X118624305Y-126920271D01*
X118646075Y-126957979D01*
X117658314Y-126957979D01*
X117672588Y-127048107D01*
X117743240Y-127265549D01*
X117847034Y-127469255D01*
X117981420Y-127654221D01*
X118143080Y-127815881D01*
X118143086Y-127815886D01*
X118227686Y-127877351D01*
X118270352Y-127932680D01*
X118276331Y-128002294D01*
X118243726Y-128064089D01*
X118227687Y-128077986D01*
X118142763Y-128139688D01*
X118142754Y-128139695D01*
X117981039Y-128301410D01*
X117981039Y-128301411D01*
X117981037Y-128301413D01*
X117931833Y-128369136D01*
X117846606Y-128486440D01*
X117742773Y-128690223D01*
X117672101Y-128907729D01*
X117672101Y-128907732D01*
X117636323Y-129133625D01*
X117636323Y-129362332D01*
X117672101Y-129588225D01*
X117672101Y-129588228D01*
X117742773Y-129805734D01*
X117742775Y-129805737D01*
X117846606Y-130009517D01*
X117981037Y-130194545D01*
X118142757Y-130356265D01*
X118327785Y-130490696D01*
X118531565Y-130594527D01*
X118531567Y-130594528D01*
X118749074Y-130665200D01*
X118749075Y-130665200D01*
X118749078Y-130665201D01*
X118974969Y-130700979D01*
X118974970Y-130700979D01*
X119298676Y-130700979D01*
X119298677Y-130700979D01*
X119524568Y-130665201D01*
X119524571Y-130665200D01*
X119524572Y-130665200D01*
X119742078Y-130594528D01*
X119742078Y-130594527D01*
X119742081Y-130594527D01*
X119945861Y-130490696D01*
X120130889Y-130356265D01*
X120292609Y-130194545D01*
X120427040Y-130009517D01*
X120530871Y-129805737D01*
X120601545Y-129588224D01*
X120637323Y-129362333D01*
X120637323Y-129133625D01*
X120601545Y-128907734D01*
X120601544Y-128907730D01*
X120601544Y-128907729D01*
X120530872Y-128690223D01*
X120427039Y-128486440D01*
X120406724Y-128458479D01*
X120292609Y-128301413D01*
X120130889Y-128139693D01*
X120045957Y-128077986D01*
X120003293Y-128022657D01*
X119997314Y-127953043D01*
X120029920Y-127891248D01*
X120045960Y-127877350D01*
X120130562Y-127815884D01*
X120292225Y-127654221D01*
X120426611Y-127469255D01*
X120530405Y-127265549D01*
X120601057Y-127048107D01*
X120615332Y-126957979D01*
X119627571Y-126957979D01*
X119649341Y-126920271D01*
X119686823Y-126780388D01*
X119686823Y-126635570D01*
X119649341Y-126495687D01*
X119627571Y-126457979D01*
X120615332Y-126457979D01*
X120601057Y-126367850D01*
X120582703Y-126311364D01*
X120582702Y-126311362D01*
X120572230Y-126279132D01*
X134199500Y-126279132D01*
X134199500Y-126436825D01*
X134230261Y-126591468D01*
X134230264Y-126591480D01*
X134290602Y-126737151D01*
X134290609Y-126737164D01*
X134378210Y-126868267D01*
X134378213Y-126868271D01*
X134489707Y-126979765D01*
X134489711Y-126979768D01*
X134620814Y-127067369D01*
X134620827Y-127067376D01*
X134766498Y-127127714D01*
X134766503Y-127127716D01*
X134921153Y-127158478D01*
X134921156Y-127158479D01*
X134921158Y-127158479D01*
X134930110Y-127158479D01*
X134997149Y-127178164D01*
X135017791Y-127194798D01*
X135115809Y-127292816D01*
X135115813Y-127292819D01*
X135246916Y-127380420D01*
X135246929Y-127380427D01*
X135392600Y-127440765D01*
X135392605Y-127440767D01*
X135535823Y-127469255D01*
X135547255Y-127471529D01*
X135547258Y-127471530D01*
X135547260Y-127471530D01*
X135704946Y-127471530D01*
X135704947Y-127471529D01*
X135859599Y-127440767D01*
X136005281Y-127380424D01*
X136136391Y-127292819D01*
X136247891Y-127181319D01*
X136335496Y-127050209D01*
X136395839Y-126904527D01*
X136426602Y-126749872D01*
X136426602Y-126592188D01*
X136426602Y-126592185D01*
X136426601Y-126592183D01*
X136426459Y-126591468D01*
X136395839Y-126437533D01*
X136395544Y-126436821D01*
X136335499Y-126291857D01*
X136335492Y-126291844D01*
X136247891Y-126160741D01*
X136247888Y-126160737D01*
X136136394Y-126049243D01*
X136136390Y-126049240D01*
X136005287Y-125961639D01*
X136005274Y-125961632D01*
X135859603Y-125901294D01*
X135859591Y-125901291D01*
X135704947Y-125870530D01*
X135704944Y-125870530D01*
X135695992Y-125870530D01*
X135628953Y-125850845D01*
X135608311Y-125834211D01*
X135510292Y-125736192D01*
X135510288Y-125736189D01*
X135379185Y-125648588D01*
X135379172Y-125648581D01*
X135233501Y-125588243D01*
X135233489Y-125588240D01*
X135078845Y-125557479D01*
X135078842Y-125557479D01*
X134921158Y-125557479D01*
X134921155Y-125557479D01*
X134766510Y-125588240D01*
X134766498Y-125588243D01*
X134620827Y-125648581D01*
X134620814Y-125648588D01*
X134489711Y-125736189D01*
X134489707Y-125736192D01*
X134378213Y-125847686D01*
X134378210Y-125847690D01*
X134290609Y-125978793D01*
X134290602Y-125978806D01*
X134230264Y-126124477D01*
X134230261Y-126124489D01*
X134199500Y-126279132D01*
X120572230Y-126279132D01*
X120530405Y-126150410D01*
X120426611Y-125946702D01*
X120293811Y-125763919D01*
X120270331Y-125698112D01*
X120286156Y-125630058D01*
X120336262Y-125581363D01*
X120350789Y-125574854D01*
X120379154Y-125564275D01*
X120494369Y-125478025D01*
X120580619Y-125362810D01*
X120630914Y-125227962D01*
X120637323Y-125168352D01*
X120637323Y-125029132D01*
X136199500Y-125029132D01*
X136199500Y-125186825D01*
X136230261Y-125341468D01*
X136230264Y-125341480D01*
X136290602Y-125487151D01*
X136290609Y-125487164D01*
X136378210Y-125618267D01*
X136378213Y-125618271D01*
X136489707Y-125729765D01*
X136489711Y-125729768D01*
X136620814Y-125817369D01*
X136620827Y-125817376D01*
X136694013Y-125847690D01*
X136766503Y-125877716D01*
X136885022Y-125901291D01*
X136921153Y-125908478D01*
X136921156Y-125908479D01*
X136921158Y-125908479D01*
X137078844Y-125908479D01*
X137078845Y-125908478D01*
X137233497Y-125877716D01*
X137379179Y-125817373D01*
X137510289Y-125729768D01*
X137621789Y-125618268D01*
X137709394Y-125487158D01*
X137769737Y-125341476D01*
X137800500Y-125186821D01*
X137800500Y-125029137D01*
X137800500Y-125029134D01*
X137800499Y-125029132D01*
X137778269Y-124917376D01*
X137769737Y-124874482D01*
X137751215Y-124829765D01*
X137709397Y-124728806D01*
X137709390Y-124728793D01*
X137621789Y-124597690D01*
X137621786Y-124597686D01*
X137510292Y-124486192D01*
X137510288Y-124486189D01*
X137379185Y-124398588D01*
X137379172Y-124398581D01*
X137233501Y-124338243D01*
X137233489Y-124338240D01*
X137078845Y-124307479D01*
X137078842Y-124307479D01*
X136921158Y-124307479D01*
X136921155Y-124307479D01*
X136766510Y-124338240D01*
X136766498Y-124338243D01*
X136620827Y-124398581D01*
X136620814Y-124398588D01*
X136489711Y-124486189D01*
X136489707Y-124486192D01*
X136378213Y-124597686D01*
X136378210Y-124597690D01*
X136290609Y-124728793D01*
X136290602Y-124728806D01*
X136230264Y-124874477D01*
X136230261Y-124874489D01*
X136199500Y-125029132D01*
X120637323Y-125029132D01*
X120637322Y-123629132D01*
X157676323Y-123629132D01*
X157676323Y-123786825D01*
X157707084Y-123941468D01*
X157707087Y-123941480D01*
X157767425Y-124087151D01*
X157767432Y-124087164D01*
X157855033Y-124218267D01*
X157855036Y-124218271D01*
X157966530Y-124329765D01*
X157966534Y-124329768D01*
X158097637Y-124417369D01*
X158097650Y-124417376D01*
X158243321Y-124477714D01*
X158243326Y-124477716D01*
X158397976Y-124508478D01*
X158397979Y-124508479D01*
X158397981Y-124508479D01*
X158555667Y-124508479D01*
X158555668Y-124508478D01*
X158710320Y-124477716D01*
X158856002Y-124417373D01*
X158987112Y-124329768D01*
X159098612Y-124218268D01*
X159158171Y-124129132D01*
X167676323Y-124129132D01*
X167676323Y-124286825D01*
X167707084Y-124441468D01*
X167707087Y-124441480D01*
X167767425Y-124587151D01*
X167767432Y-124587164D01*
X167855033Y-124718267D01*
X167855036Y-124718271D01*
X167966530Y-124829765D01*
X167966534Y-124829768D01*
X168097637Y-124917369D01*
X168097650Y-124917376D01*
X168194469Y-124957479D01*
X168243326Y-124977716D01*
X168397976Y-125008478D01*
X168397979Y-125008479D01*
X168397981Y-125008479D01*
X168555667Y-125008479D01*
X168555668Y-125008478D01*
X168710320Y-124977716D01*
X168856002Y-124917373D01*
X168987112Y-124829768D01*
X169098612Y-124718268D01*
X169186217Y-124587158D01*
X169246560Y-124441476D01*
X169277323Y-124286821D01*
X169277323Y-124129137D01*
X169277323Y-124129134D01*
X169277322Y-124129132D01*
X169246561Y-123974489D01*
X169246560Y-123974482D01*
X169232885Y-123941468D01*
X169186220Y-123828806D01*
X169186213Y-123828793D01*
X169098612Y-123697690D01*
X169098609Y-123697686D01*
X168987115Y-123586192D01*
X168987111Y-123586189D01*
X168856008Y-123498588D01*
X168855995Y-123498581D01*
X168710324Y-123438243D01*
X168710312Y-123438240D01*
X168555668Y-123407479D01*
X168555665Y-123407479D01*
X168397981Y-123407479D01*
X168397978Y-123407479D01*
X168243333Y-123438240D01*
X168243321Y-123438243D01*
X168097650Y-123498581D01*
X168097637Y-123498588D01*
X167966534Y-123586189D01*
X167966530Y-123586192D01*
X167855036Y-123697686D01*
X167855033Y-123697690D01*
X167767432Y-123828793D01*
X167767425Y-123828806D01*
X167707087Y-123974477D01*
X167707084Y-123974489D01*
X167676323Y-124129132D01*
X159158171Y-124129132D01*
X159186217Y-124087158D01*
X159246560Y-123941476D01*
X159277323Y-123786821D01*
X159277323Y-123629137D01*
X159277323Y-123629134D01*
X159277322Y-123629132D01*
X159251354Y-123498585D01*
X159246560Y-123474482D01*
X159246558Y-123474477D01*
X159186220Y-123328806D01*
X159186213Y-123328793D01*
X159098612Y-123197690D01*
X159098609Y-123197686D01*
X158987115Y-123086192D01*
X158987111Y-123086189D01*
X158856008Y-122998588D01*
X158855995Y-122998581D01*
X158710324Y-122938243D01*
X158710312Y-122938240D01*
X158555668Y-122907479D01*
X158555665Y-122907479D01*
X158397981Y-122907479D01*
X158397978Y-122907479D01*
X158243333Y-122938240D01*
X158243321Y-122938243D01*
X158097650Y-122998581D01*
X158097637Y-122998588D01*
X157966534Y-123086189D01*
X157966530Y-123086192D01*
X157855036Y-123197686D01*
X157855033Y-123197690D01*
X157767432Y-123328793D01*
X157767425Y-123328806D01*
X157707087Y-123474477D01*
X157707084Y-123474489D01*
X157676323Y-123629132D01*
X120637322Y-123629132D01*
X120637322Y-123167607D01*
X120630914Y-123107996D01*
X120590107Y-122998588D01*
X120580620Y-122973150D01*
X120580616Y-122973143D01*
X120494370Y-122857934D01*
X120494367Y-122857931D01*
X120379158Y-122771685D01*
X120379151Y-122771681D01*
X120244305Y-122721387D01*
X120244306Y-122721387D01*
X120184706Y-122714980D01*
X120184704Y-122714979D01*
X120184696Y-122714979D01*
X120184687Y-122714979D01*
X118088952Y-122714979D01*
X118088946Y-122714980D01*
X118029339Y-122721387D01*
X117894494Y-122771681D01*
X117894487Y-122771685D01*
X117779278Y-122857931D01*
X117779275Y-122857934D01*
X117693029Y-122973143D01*
X117693025Y-122973150D01*
X117642731Y-123107996D01*
X117636324Y-123167595D01*
X117636324Y-123167602D01*
X117636323Y-123167614D01*
X95477323Y-123167614D01*
X95477323Y-121629132D01*
X140676323Y-121629132D01*
X140676323Y-121786825D01*
X140707084Y-121941468D01*
X140707087Y-121941480D01*
X140767425Y-122087151D01*
X140767432Y-122087164D01*
X140855033Y-122218267D01*
X140855036Y-122218271D01*
X140966530Y-122329765D01*
X140966534Y-122329768D01*
X141097637Y-122417369D01*
X141097650Y-122417376D01*
X141243321Y-122477714D01*
X141243326Y-122477716D01*
X141397976Y-122508478D01*
X141397979Y-122508479D01*
X141397981Y-122508479D01*
X141555667Y-122508479D01*
X141555668Y-122508478D01*
X141710320Y-122477716D01*
X141856002Y-122417373D01*
X141987112Y-122329768D01*
X142098612Y-122218268D01*
X142186217Y-122087158D01*
X142246560Y-121941476D01*
X142277323Y-121786821D01*
X142277323Y-121629137D01*
X142277323Y-121629134D01*
X142277322Y-121629132D01*
X144176323Y-121629132D01*
X144176323Y-121786825D01*
X144207084Y-121941468D01*
X144207087Y-121941480D01*
X144267425Y-122087151D01*
X144267432Y-122087164D01*
X144355033Y-122218267D01*
X144355036Y-122218271D01*
X144466530Y-122329765D01*
X144466534Y-122329768D01*
X144597637Y-122417369D01*
X144597650Y-122417376D01*
X144743321Y-122477714D01*
X144743326Y-122477716D01*
X144897976Y-122508478D01*
X144897979Y-122508479D01*
X144897981Y-122508479D01*
X145055667Y-122508479D01*
X145055668Y-122508478D01*
X145210320Y-122477716D01*
X145356002Y-122417373D01*
X145487112Y-122329768D01*
X145598612Y-122218268D01*
X145686217Y-122087158D01*
X145746560Y-121941476D01*
X145777323Y-121786821D01*
X145777323Y-121629137D01*
X145777323Y-121629134D01*
X145777322Y-121629132D01*
X145746561Y-121474489D01*
X145746560Y-121474482D01*
X145746558Y-121474477D01*
X145686220Y-121328806D01*
X145686213Y-121328793D01*
X145598612Y-121197690D01*
X145598609Y-121197686D01*
X145487115Y-121086192D01*
X145487111Y-121086189D01*
X145356008Y-120998588D01*
X145355995Y-120998581D01*
X145210324Y-120938243D01*
X145210312Y-120938240D01*
X145055668Y-120907479D01*
X145055665Y-120907479D01*
X144897981Y-120907479D01*
X144897978Y-120907479D01*
X144743333Y-120938240D01*
X144743321Y-120938243D01*
X144597650Y-120998581D01*
X144597637Y-120998588D01*
X144466534Y-121086189D01*
X144466530Y-121086192D01*
X144355036Y-121197686D01*
X144355033Y-121197690D01*
X144267432Y-121328793D01*
X144267425Y-121328806D01*
X144207087Y-121474477D01*
X144207084Y-121474489D01*
X144176323Y-121629132D01*
X142277322Y-121629132D01*
X142246561Y-121474489D01*
X142246560Y-121474482D01*
X142246558Y-121474477D01*
X142186220Y-121328806D01*
X142186213Y-121328793D01*
X142098612Y-121197690D01*
X142098609Y-121197686D01*
X141987115Y-121086192D01*
X141987111Y-121086189D01*
X141856008Y-120998588D01*
X141855995Y-120998581D01*
X141710324Y-120938243D01*
X141710312Y-120938240D01*
X141555668Y-120907479D01*
X141555665Y-120907479D01*
X141397981Y-120907479D01*
X141397978Y-120907479D01*
X141243333Y-120938240D01*
X141243321Y-120938243D01*
X141097650Y-120998581D01*
X141097637Y-120998588D01*
X140966534Y-121086189D01*
X140966530Y-121086192D01*
X140855036Y-121197686D01*
X140855033Y-121197690D01*
X140767432Y-121328793D01*
X140767425Y-121328806D01*
X140707087Y-121474477D01*
X140707084Y-121474489D01*
X140676323Y-121629132D01*
X95477323Y-121629132D01*
X95477323Y-117421153D01*
X113699500Y-117421153D01*
X113699500Y-117578846D01*
X113730261Y-117733489D01*
X113730264Y-117733501D01*
X113790602Y-117879172D01*
X113790609Y-117879185D01*
X113878210Y-118010288D01*
X113878213Y-118010292D01*
X113989707Y-118121786D01*
X113989711Y-118121789D01*
X114120814Y-118209390D01*
X114120827Y-118209397D01*
X114245190Y-118260909D01*
X114266503Y-118269737D01*
X114386520Y-118293610D01*
X114421153Y-118300499D01*
X114421156Y-118300500D01*
X114421158Y-118300500D01*
X114578844Y-118300500D01*
X114578845Y-118300499D01*
X114584189Y-118299436D01*
X129774499Y-118299436D01*
X129802379Y-118439593D01*
X129802381Y-118439599D01*
X129857069Y-118571629D01*
X129857074Y-118571638D01*
X129936467Y-118690457D01*
X129936470Y-118690461D01*
X130037517Y-118791508D01*
X130037521Y-118791511D01*
X130156340Y-118870904D01*
X130156346Y-118870907D01*
X130156347Y-118870908D01*
X130288380Y-118925598D01*
X130288384Y-118925598D01*
X130288385Y-118925599D01*
X130428542Y-118953479D01*
X130428545Y-118953479D01*
X130571457Y-118953479D01*
X130665751Y-118934721D01*
X130711620Y-118925598D01*
X130843653Y-118870908D01*
X130962479Y-118791511D01*
X131063532Y-118690458D01*
X131142929Y-118571632D01*
X131197619Y-118439599D01*
X131214343Y-118355518D01*
X131246727Y-118293610D01*
X131307443Y-118259036D01*
X131377212Y-118262775D01*
X131383413Y-118265151D01*
X131505203Y-118315598D01*
X131505207Y-118315598D01*
X131505208Y-118315599D01*
X131645365Y-118343479D01*
X131645368Y-118343479D01*
X131788280Y-118343479D01*
X131882574Y-118324721D01*
X131928443Y-118315598D01*
X132060476Y-118260908D01*
X132179302Y-118181511D01*
X132280355Y-118080458D01*
X132359752Y-117961632D01*
X132414442Y-117829599D01*
X132429951Y-117751632D01*
X132442323Y-117689436D01*
X132442323Y-117546521D01*
X132428978Y-117479436D01*
X133274498Y-117479436D01*
X133302378Y-117619593D01*
X133302380Y-117619599D01*
X133357068Y-117751629D01*
X133357073Y-117751638D01*
X133436466Y-117870457D01*
X133436469Y-117870461D01*
X133537516Y-117971508D01*
X133537520Y-117971511D01*
X133656339Y-118050904D01*
X133656345Y-118050907D01*
X133656346Y-118050908D01*
X133788379Y-118105598D01*
X133788383Y-118105598D01*
X133788384Y-118105599D01*
X133928541Y-118133479D01*
X133928544Y-118133479D01*
X134071456Y-118133479D01*
X134165750Y-118114721D01*
X134211619Y-118105598D01*
X134343652Y-118050908D01*
X134462478Y-117971511D01*
X134563531Y-117870458D01*
X134642928Y-117751632D01*
X134697618Y-117619599D01*
X134715369Y-117530360D01*
X134725499Y-117479436D01*
X134725499Y-117336521D01*
X134697619Y-117196364D01*
X134697618Y-117196363D01*
X134697618Y-117196359D01*
X134642928Y-117064326D01*
X134642927Y-117064325D01*
X134642924Y-117064319D01*
X134563531Y-116945500D01*
X134563528Y-116945496D01*
X134462481Y-116844449D01*
X134462477Y-116844446D01*
X134343658Y-116765053D01*
X134343649Y-116765048D01*
X134211619Y-116710360D01*
X134211613Y-116710358D01*
X134071456Y-116682479D01*
X134071454Y-116682479D01*
X133928544Y-116682479D01*
X133928542Y-116682479D01*
X133788384Y-116710358D01*
X133788378Y-116710360D01*
X133656348Y-116765048D01*
X133656339Y-116765053D01*
X133537520Y-116844446D01*
X133537516Y-116844449D01*
X133436469Y-116945496D01*
X133436466Y-116945500D01*
X133357073Y-117064319D01*
X133357068Y-117064328D01*
X133302380Y-117196358D01*
X133302378Y-117196364D01*
X133274499Y-117336521D01*
X133274499Y-117336524D01*
X133274499Y-117479434D01*
X133274499Y-117479436D01*
X133274498Y-117479436D01*
X132428978Y-117479436D01*
X132414443Y-117406364D01*
X132414442Y-117406363D01*
X132414442Y-117406359D01*
X132359752Y-117274326D01*
X132359750Y-117274323D01*
X132359748Y-117274319D01*
X132280355Y-117155500D01*
X132280352Y-117155496D01*
X132179305Y-117054449D01*
X132179301Y-117054446D01*
X132060482Y-116975053D01*
X132060473Y-116975048D01*
X131928443Y-116920360D01*
X131928437Y-116920358D01*
X131788280Y-116892479D01*
X131788278Y-116892479D01*
X131645368Y-116892479D01*
X131645366Y-116892479D01*
X131505208Y-116920358D01*
X131505202Y-116920360D01*
X131373172Y-116975048D01*
X131373163Y-116975053D01*
X131254344Y-117054446D01*
X131254340Y-117054449D01*
X131153293Y-117155496D01*
X131153290Y-117155500D01*
X131073897Y-117274319D01*
X131073892Y-117274328D01*
X131019204Y-117406358D01*
X131019202Y-117406364D01*
X131002479Y-117490437D01*
X130970094Y-117552348D01*
X130909378Y-117586922D01*
X130839608Y-117583181D01*
X130833410Y-117580806D01*
X130711624Y-117530361D01*
X130711614Y-117530358D01*
X130571457Y-117502479D01*
X130571455Y-117502479D01*
X130428545Y-117502479D01*
X130428543Y-117502479D01*
X130288385Y-117530358D01*
X130288379Y-117530360D01*
X130156349Y-117585048D01*
X130156340Y-117585053D01*
X130037521Y-117664446D01*
X130037517Y-117664449D01*
X129936470Y-117765496D01*
X129936467Y-117765500D01*
X129857074Y-117884319D01*
X129857069Y-117884328D01*
X129802381Y-118016358D01*
X129802379Y-118016364D01*
X129774500Y-118156521D01*
X129774500Y-118156524D01*
X129774500Y-118299434D01*
X129774500Y-118299436D01*
X129774499Y-118299436D01*
X114584189Y-118299436D01*
X114733497Y-118269737D01*
X114879179Y-118209394D01*
X115010289Y-118121789D01*
X115026481Y-118105597D01*
X115069328Y-118062751D01*
X115121786Y-118010292D01*
X115121789Y-118010289D01*
X115209394Y-117879179D01*
X115269737Y-117733497D01*
X115300500Y-117578842D01*
X115300500Y-117421158D01*
X115300500Y-117421155D01*
X115300499Y-117421153D01*
X115283665Y-117336524D01*
X115269737Y-117266503D01*
X115240682Y-117196358D01*
X115209397Y-117120827D01*
X115209390Y-117120814D01*
X115121789Y-116989711D01*
X115121786Y-116989707D01*
X115010292Y-116878213D01*
X115010288Y-116878210D01*
X114879185Y-116790609D01*
X114879172Y-116790602D01*
X114733501Y-116730264D01*
X114733489Y-116730261D01*
X114578845Y-116699500D01*
X114578842Y-116699500D01*
X114421158Y-116699500D01*
X114421155Y-116699500D01*
X114266510Y-116730261D01*
X114266498Y-116730264D01*
X114120827Y-116790602D01*
X114120814Y-116790609D01*
X113989711Y-116878210D01*
X113989707Y-116878213D01*
X113878213Y-116989707D01*
X113878210Y-116989711D01*
X113790609Y-117120814D01*
X113790602Y-117120827D01*
X113730264Y-117266498D01*
X113730261Y-117266510D01*
X113699500Y-117421153D01*
X95477323Y-117421153D01*
X95477323Y-115459436D01*
X132481322Y-115459436D01*
X132509202Y-115599593D01*
X132509204Y-115599599D01*
X132563892Y-115731629D01*
X132563897Y-115731638D01*
X132643290Y-115850457D01*
X132643293Y-115850461D01*
X132744340Y-115951508D01*
X132744344Y-115951511D01*
X132863163Y-116030904D01*
X132863169Y-116030907D01*
X132863170Y-116030908D01*
X132995203Y-116085598D01*
X132995207Y-116085598D01*
X132995208Y-116085599D01*
X133135365Y-116113479D01*
X133135368Y-116113479D01*
X133278280Y-116113479D01*
X133372574Y-116094721D01*
X133418443Y-116085598D01*
X133550476Y-116030908D01*
X133597044Y-115999792D01*
X191999500Y-115999792D01*
X191999500Y-115999793D01*
X191999500Y-116000207D01*
X191999793Y-116000500D01*
X192000207Y-116000500D01*
X192000500Y-116000207D01*
X192000500Y-115999793D01*
X192000207Y-115999500D01*
X191999793Y-115999500D01*
X191999792Y-115999500D01*
X191999500Y-115999792D01*
X133597044Y-115999792D01*
X133669302Y-115951511D01*
X133669305Y-115951508D01*
X133733367Y-115887447D01*
X133770352Y-115850461D01*
X133770355Y-115850458D01*
X133849752Y-115731632D01*
X133904442Y-115599599D01*
X133932323Y-115459434D01*
X133932323Y-115316524D01*
X133932323Y-115316521D01*
X133904443Y-115176364D01*
X133904442Y-115176363D01*
X133904442Y-115176359D01*
X133849752Y-115044326D01*
X133849751Y-115044325D01*
X133849748Y-115044319D01*
X133770355Y-114925500D01*
X133770352Y-114925496D01*
X133669305Y-114824449D01*
X133669301Y-114824446D01*
X133550482Y-114745053D01*
X133550473Y-114745048D01*
X133418443Y-114690360D01*
X133418437Y-114690358D01*
X133278280Y-114662479D01*
X133278278Y-114662479D01*
X133135368Y-114662479D01*
X133135366Y-114662479D01*
X132995208Y-114690358D01*
X132995202Y-114690360D01*
X132863172Y-114745048D01*
X132863163Y-114745053D01*
X132744344Y-114824446D01*
X132744340Y-114824449D01*
X132643293Y-114925496D01*
X132643290Y-114925500D01*
X132563897Y-115044319D01*
X132563892Y-115044328D01*
X132509204Y-115176358D01*
X132509202Y-115176364D01*
X132481323Y-115316521D01*
X132481323Y-115316524D01*
X132481323Y-115459434D01*
X132481323Y-115459436D01*
X132481322Y-115459436D01*
X95477323Y-115459436D01*
X95477323Y-113766632D01*
X145176323Y-113766632D01*
X145176323Y-113924325D01*
X145207084Y-114078968D01*
X145207087Y-114078980D01*
X145267425Y-114224651D01*
X145267432Y-114224664D01*
X145355033Y-114355767D01*
X145355036Y-114355771D01*
X145466530Y-114467265D01*
X145466534Y-114467268D01*
X145597637Y-114554869D01*
X145597650Y-114554876D01*
X145743321Y-114615214D01*
X145743326Y-114615216D01*
X145897976Y-114645978D01*
X145897979Y-114645979D01*
X145897981Y-114645979D01*
X146055667Y-114645979D01*
X146055668Y-114645978D01*
X146210320Y-114615216D01*
X146356002Y-114554873D01*
X146487112Y-114467268D01*
X146598612Y-114355768D01*
X146686217Y-114224658D01*
X146746560Y-114078976D01*
X146777323Y-113924321D01*
X146777323Y-113766637D01*
X146777323Y-113766634D01*
X146777322Y-113766632D01*
X146746561Y-113611989D01*
X146746560Y-113611982D01*
X146746558Y-113611977D01*
X146686220Y-113466306D01*
X146686213Y-113466293D01*
X146598612Y-113335190D01*
X146598609Y-113335186D01*
X146487115Y-113223692D01*
X146487111Y-113223689D01*
X146356008Y-113136088D01*
X146355995Y-113136081D01*
X146210324Y-113075743D01*
X146210312Y-113075740D01*
X146055668Y-113044979D01*
X146055665Y-113044979D01*
X145897981Y-113044979D01*
X145897978Y-113044979D01*
X145743333Y-113075740D01*
X145743321Y-113075743D01*
X145597650Y-113136081D01*
X145597637Y-113136088D01*
X145466534Y-113223689D01*
X145466530Y-113223692D01*
X145355036Y-113335186D01*
X145355033Y-113335190D01*
X145267432Y-113466293D01*
X145267425Y-113466306D01*
X145207087Y-113611977D01*
X145207084Y-113611989D01*
X145176323Y-113766632D01*
X95477323Y-113766632D01*
X95477323Y-109631899D01*
X135226322Y-109631899D01*
X135255163Y-109776886D01*
X135255166Y-109776896D01*
X135311735Y-109913467D01*
X135311742Y-109913480D01*
X135393871Y-110036394D01*
X135393874Y-110036398D01*
X135498403Y-110140927D01*
X135498407Y-110140930D01*
X135621321Y-110223059D01*
X135621334Y-110223066D01*
X135757905Y-110279635D01*
X135757910Y-110279637D01*
X135757914Y-110279637D01*
X135757915Y-110279638D01*
X135902902Y-110308479D01*
X135902905Y-110308479D01*
X136050743Y-110308479D01*
X136148285Y-110289075D01*
X136195736Y-110279637D01*
X136332318Y-110223063D01*
X136455239Y-110140930D01*
X136559774Y-110036395D01*
X136641907Y-109913474D01*
X136698481Y-109776892D01*
X136727323Y-109631897D01*
X136727323Y-109484061D01*
X136727323Y-109484058D01*
X136698482Y-109339071D01*
X136698481Y-109339070D01*
X136698481Y-109339066D01*
X136649765Y-109221455D01*
X136641910Y-109202490D01*
X136641903Y-109202477D01*
X136559774Y-109079563D01*
X136559771Y-109079559D01*
X136455242Y-108975030D01*
X136455238Y-108975027D01*
X136332324Y-108892898D01*
X136332311Y-108892891D01*
X136195740Y-108836322D01*
X136195730Y-108836319D01*
X136050743Y-108807479D01*
X136050741Y-108807479D01*
X135902905Y-108807479D01*
X135902903Y-108807479D01*
X135757915Y-108836319D01*
X135757905Y-108836322D01*
X135621334Y-108892891D01*
X135621321Y-108892898D01*
X135498407Y-108975027D01*
X135498403Y-108975030D01*
X135393874Y-109079559D01*
X135393871Y-109079563D01*
X135311742Y-109202477D01*
X135311735Y-109202490D01*
X135255166Y-109339061D01*
X135255163Y-109339071D01*
X135226323Y-109484058D01*
X135226323Y-109484061D01*
X135226323Y-109631897D01*
X135226323Y-109631899D01*
X135226322Y-109631899D01*
X95477323Y-109631899D01*
X95477323Y-108421457D01*
X139251322Y-108421457D01*
X139279202Y-108561614D01*
X139279204Y-108561620D01*
X139336225Y-108699281D01*
X139334528Y-108699983D01*
X139347007Y-108759971D01*
X139335170Y-108800282D01*
X139336225Y-108800719D01*
X139279204Y-108938379D01*
X139279202Y-108938385D01*
X139251323Y-109078542D01*
X139251323Y-109078545D01*
X139251323Y-109221455D01*
X139251323Y-109221457D01*
X139251322Y-109221457D01*
X139279202Y-109361614D01*
X139279204Y-109361620D01*
X139333892Y-109493650D01*
X139333897Y-109493659D01*
X139413290Y-109612478D01*
X139413293Y-109612482D01*
X139514340Y-109713529D01*
X139514344Y-109713532D01*
X139633163Y-109792925D01*
X139633169Y-109792928D01*
X139633170Y-109792929D01*
X139765203Y-109847619D01*
X139765207Y-109847619D01*
X139765208Y-109847620D01*
X139905365Y-109875500D01*
X139905368Y-109875500D01*
X140048280Y-109875500D01*
X140142574Y-109856742D01*
X140188443Y-109847619D01*
X140320476Y-109792929D01*
X140439302Y-109713532D01*
X140540355Y-109612479D01*
X140619752Y-109493653D01*
X140674442Y-109361620D01*
X140702323Y-109221455D01*
X140702323Y-109078545D01*
X140702323Y-109078542D01*
X140674443Y-108938385D01*
X140674442Y-108938384D01*
X140674442Y-108938380D01*
X140619752Y-108806347D01*
X140617421Y-108800719D01*
X140619122Y-108800014D01*
X140606635Y-108740059D01*
X140618479Y-108699719D01*
X140617421Y-108699281D01*
X140626921Y-108676344D01*
X140674442Y-108561620D01*
X140702323Y-108421455D01*
X140702323Y-108278545D01*
X140702323Y-108278542D01*
X140674443Y-108138385D01*
X140674442Y-108138384D01*
X140674442Y-108138380D01*
X140619752Y-108006347D01*
X140619751Y-108006346D01*
X140619748Y-108006340D01*
X140540355Y-107887521D01*
X140540352Y-107887517D01*
X140439305Y-107786470D01*
X140439301Y-107786467D01*
X140320482Y-107707074D01*
X140320473Y-107707069D01*
X140188443Y-107652381D01*
X140188437Y-107652379D01*
X140048280Y-107624500D01*
X140048278Y-107624500D01*
X139905368Y-107624500D01*
X139905366Y-107624500D01*
X139765208Y-107652379D01*
X139765202Y-107652381D01*
X139633172Y-107707069D01*
X139633163Y-107707074D01*
X139514344Y-107786467D01*
X139514340Y-107786470D01*
X139413293Y-107887517D01*
X139413290Y-107887521D01*
X139333897Y-108006340D01*
X139333892Y-108006349D01*
X139279204Y-108138379D01*
X139279202Y-108138385D01*
X139251323Y-108278542D01*
X139251323Y-108278545D01*
X139251323Y-108421455D01*
X139251323Y-108421457D01*
X139251322Y-108421457D01*
X95477323Y-108421457D01*
X95477323Y-107281899D01*
X151726322Y-107281899D01*
X151755163Y-107426886D01*
X151755166Y-107426896D01*
X151811735Y-107563467D01*
X151811742Y-107563480D01*
X151893871Y-107686394D01*
X151893874Y-107686398D01*
X151998403Y-107790927D01*
X151998407Y-107790930D01*
X152121321Y-107873059D01*
X152121334Y-107873066D01*
X152257905Y-107929635D01*
X152257910Y-107929637D01*
X152257914Y-107929637D01*
X152257915Y-107929638D01*
X152402902Y-107958479D01*
X152402905Y-107958479D01*
X152550743Y-107958479D01*
X152648285Y-107939075D01*
X152695736Y-107929637D01*
X152832318Y-107873063D01*
X152943745Y-107798609D01*
X153010422Y-107777732D01*
X153012636Y-107777712D01*
X153122868Y-107777712D01*
X153220410Y-107758308D01*
X153267861Y-107748870D01*
X153404443Y-107692296D01*
X153527364Y-107610163D01*
X153631899Y-107505628D01*
X153714032Y-107382707D01*
X153761029Y-107269244D01*
X153804867Y-107214846D01*
X153820841Y-107206125D01*
X153820703Y-107205866D01*
X153826073Y-107202994D01*
X153826077Y-107202993D01*
X153948998Y-107120860D01*
X154053533Y-107016325D01*
X154135666Y-106893404D01*
X154192240Y-106756822D01*
X154218456Y-106625028D01*
X154221082Y-106611829D01*
X154221082Y-106463988D01*
X154207154Y-106393971D01*
X154213381Y-106324380D01*
X154225675Y-106300879D01*
X154226091Y-106300256D01*
X154226092Y-106300255D01*
X154282666Y-106163673D01*
X154297900Y-106087087D01*
X154311508Y-106018680D01*
X154311508Y-105870839D01*
X154282667Y-105725852D01*
X154282666Y-105725851D01*
X154282666Y-105725847D01*
X154279526Y-105718267D01*
X154226095Y-105589271D01*
X154226088Y-105589258D01*
X154143959Y-105466344D01*
X154143956Y-105466340D01*
X154039427Y-105361811D01*
X154039423Y-105361808D01*
X153916509Y-105279679D01*
X153916500Y-105279674D01*
X153814937Y-105237606D01*
X153814935Y-105237605D01*
X153779925Y-105223103D01*
X153779915Y-105223100D01*
X153634928Y-105194260D01*
X153634926Y-105194260D01*
X153487090Y-105194260D01*
X153487088Y-105194260D01*
X153342100Y-105223100D01*
X153342090Y-105223103D01*
X153205519Y-105279672D01*
X153205506Y-105279679D01*
X153082592Y-105361808D01*
X153082588Y-105361811D01*
X152978059Y-105466340D01*
X152978056Y-105466344D01*
X152895927Y-105589258D01*
X152895920Y-105589271D01*
X152839351Y-105725842D01*
X152839348Y-105725852D01*
X152810508Y-105870839D01*
X152810508Y-106018682D01*
X152824435Y-106088698D01*
X152818208Y-106158290D01*
X152816549Y-106162297D01*
X152812106Y-106172523D01*
X152805498Y-106182414D01*
X152758132Y-106296764D01*
X152757671Y-106297827D01*
X152735951Y-106323854D01*
X152714659Y-106350276D01*
X152713269Y-106351034D01*
X152712905Y-106351472D01*
X152711880Y-106351793D01*
X152698691Y-106358997D01*
X152698829Y-106359254D01*
X152693458Y-106362125D01*
X152693454Y-106362127D01*
X152693453Y-106362128D01*
X152634963Y-106401209D01*
X152582024Y-106436582D01*
X152515346Y-106457459D01*
X152513134Y-106457479D01*
X152402903Y-106457479D01*
X152257915Y-106486319D01*
X152257905Y-106486322D01*
X152121334Y-106542891D01*
X152121321Y-106542898D01*
X151998407Y-106625027D01*
X151998403Y-106625030D01*
X151893874Y-106729559D01*
X151893871Y-106729563D01*
X151811742Y-106852477D01*
X151811735Y-106852490D01*
X151755166Y-106989061D01*
X151755163Y-106989071D01*
X151726323Y-107134058D01*
X151726323Y-107134061D01*
X151726323Y-107281897D01*
X151726323Y-107281899D01*
X151726322Y-107281899D01*
X95477323Y-107281899D01*
X95477323Y-104984612D01*
X133869499Y-104984612D01*
X133897379Y-105124769D01*
X133897381Y-105124775D01*
X133952069Y-105256805D01*
X133952074Y-105256814D01*
X134031467Y-105375633D01*
X134031470Y-105375637D01*
X134124790Y-105468957D01*
X134158275Y-105530280D01*
X134158726Y-105532446D01*
X134172379Y-105601082D01*
X134172380Y-105601086D01*
X134227069Y-105733118D01*
X134227074Y-105733127D01*
X134306467Y-105851946D01*
X134306470Y-105851950D01*
X134407517Y-105952997D01*
X134407521Y-105953000D01*
X134526340Y-106032393D01*
X134526346Y-106032396D01*
X134526347Y-106032397D01*
X134658380Y-106087087D01*
X134658384Y-106087087D01*
X134658385Y-106087088D01*
X134798542Y-106114968D01*
X134798545Y-106114968D01*
X134941457Y-106114968D01*
X135035751Y-106096210D01*
X135081620Y-106087087D01*
X135213653Y-106032397D01*
X135332479Y-105953000D01*
X135433532Y-105851947D01*
X135512929Y-105733121D01*
X135567619Y-105601088D01*
X135590048Y-105488334D01*
X135595500Y-105460925D01*
X135595500Y-105318010D01*
X135567620Y-105177853D01*
X135567619Y-105177852D01*
X135567619Y-105177848D01*
X135512929Y-105045815D01*
X135512928Y-105045814D01*
X135512925Y-105045808D01*
X135433533Y-104926990D01*
X135433532Y-104926989D01*
X135340206Y-104833663D01*
X135306723Y-104772343D01*
X135306296Y-104770297D01*
X135292619Y-104701535D01*
X135249784Y-104598122D01*
X136910099Y-104598122D01*
X136938940Y-104743109D01*
X136938943Y-104743119D01*
X136995512Y-104879690D01*
X136995519Y-104879703D01*
X137077648Y-105002617D01*
X137077651Y-105002621D01*
X137182180Y-105107150D01*
X137182184Y-105107153D01*
X137305098Y-105189282D01*
X137305111Y-105189289D01*
X137421760Y-105237606D01*
X137441687Y-105245860D01*
X137441691Y-105245860D01*
X137441692Y-105245861D01*
X137586679Y-105274702D01*
X137586682Y-105274702D01*
X137734520Y-105274702D01*
X137832062Y-105255298D01*
X137879513Y-105245860D01*
X138016095Y-105189286D01*
X138106122Y-105129132D01*
X166046325Y-105129132D01*
X166046325Y-105286825D01*
X166077086Y-105441468D01*
X166077089Y-105441480D01*
X166137427Y-105587151D01*
X166137434Y-105587164D01*
X166225035Y-105718267D01*
X166225038Y-105718271D01*
X166336532Y-105829765D01*
X166336536Y-105829768D01*
X166467639Y-105917369D01*
X166467652Y-105917376D01*
X166613323Y-105977714D01*
X166613328Y-105977716D01*
X166767978Y-106008478D01*
X166767981Y-106008479D01*
X166767983Y-106008479D01*
X166925669Y-106008479D01*
X166925670Y-106008478D01*
X167080322Y-105977716D01*
X167226004Y-105917373D01*
X167357114Y-105829768D01*
X167468614Y-105718268D01*
X167556219Y-105587158D01*
X167616562Y-105441476D01*
X167647325Y-105286821D01*
X167647325Y-105129137D01*
X167647325Y-105129134D01*
X167647324Y-105129132D01*
X167642951Y-105107150D01*
X167616562Y-104974482D01*
X167616560Y-104974477D01*
X167556222Y-104828806D01*
X167556215Y-104828793D01*
X167468614Y-104697690D01*
X167468611Y-104697686D01*
X167357117Y-104586192D01*
X167357113Y-104586189D01*
X167226010Y-104498588D01*
X167225997Y-104498581D01*
X167080326Y-104438243D01*
X167080314Y-104438240D01*
X166925670Y-104407479D01*
X166925667Y-104407479D01*
X166767983Y-104407479D01*
X166767980Y-104407479D01*
X166613335Y-104438240D01*
X166613323Y-104438243D01*
X166467652Y-104498581D01*
X166467639Y-104498588D01*
X166336536Y-104586189D01*
X166336532Y-104586192D01*
X166225038Y-104697686D01*
X166225035Y-104697690D01*
X166137434Y-104828793D01*
X166137427Y-104828806D01*
X166077089Y-104974477D01*
X166077086Y-104974489D01*
X166046325Y-105129132D01*
X138106122Y-105129132D01*
X138139016Y-105107153D01*
X138243551Y-105002618D01*
X138325684Y-104879697D01*
X138382258Y-104743115D01*
X138402297Y-104642376D01*
X138411100Y-104598122D01*
X138411100Y-104450281D01*
X138382259Y-104305294D01*
X138382258Y-104305293D01*
X138382258Y-104305289D01*
X138367736Y-104270229D01*
X138325687Y-104168713D01*
X138325680Y-104168700D01*
X138243551Y-104045786D01*
X138243548Y-104045782D01*
X138139019Y-103941253D01*
X138139015Y-103941250D01*
X138016101Y-103859121D01*
X138016088Y-103859114D01*
X137879517Y-103802545D01*
X137879507Y-103802542D01*
X137734520Y-103773702D01*
X137734518Y-103773702D01*
X137586682Y-103773702D01*
X137586680Y-103773702D01*
X137441692Y-103802542D01*
X137441682Y-103802545D01*
X137305111Y-103859114D01*
X137305098Y-103859121D01*
X137182184Y-103941250D01*
X137182180Y-103941253D01*
X137077651Y-104045782D01*
X137077648Y-104045786D01*
X136995519Y-104168700D01*
X136995512Y-104168713D01*
X136938943Y-104305284D01*
X136938940Y-104305294D01*
X136910100Y-104450281D01*
X136910100Y-104450284D01*
X136910100Y-104598120D01*
X136910100Y-104598122D01*
X136910099Y-104598122D01*
X135249784Y-104598122D01*
X135237929Y-104569502D01*
X135237928Y-104569500D01*
X135237922Y-104569490D01*
X135200233Y-104513084D01*
X135200232Y-104513083D01*
X135158532Y-104450676D01*
X135158529Y-104450672D01*
X135057482Y-104349625D01*
X135057478Y-104349622D01*
X134938659Y-104270229D01*
X134938650Y-104270224D01*
X134806620Y-104215536D01*
X134806614Y-104215534D01*
X134666457Y-104187655D01*
X134666455Y-104187655D01*
X134523545Y-104187655D01*
X134523543Y-104187655D01*
X134383385Y-104215534D01*
X134383379Y-104215536D01*
X134251349Y-104270224D01*
X134251340Y-104270229D01*
X134132521Y-104349622D01*
X134132517Y-104349625D01*
X134031470Y-104450672D01*
X134031467Y-104450676D01*
X133952074Y-104569495D01*
X133952069Y-104569504D01*
X133897381Y-104701534D01*
X133897379Y-104701540D01*
X133869500Y-104841697D01*
X133869500Y-104841700D01*
X133869500Y-104984610D01*
X133869500Y-104984612D01*
X133869499Y-104984612D01*
X95477323Y-104984612D01*
X95477323Y-103854132D01*
X100901323Y-103854132D01*
X100901323Y-104011825D01*
X100932084Y-104166468D01*
X100932087Y-104166480D01*
X100992425Y-104312151D01*
X100992432Y-104312164D01*
X101080033Y-104443267D01*
X101080036Y-104443271D01*
X101191530Y-104554765D01*
X101191534Y-104554768D01*
X101322637Y-104642369D01*
X101322650Y-104642376D01*
X101456182Y-104697686D01*
X101468326Y-104702716D01*
X101622976Y-104733478D01*
X101622979Y-104733479D01*
X101622981Y-104733479D01*
X101780667Y-104733479D01*
X101780668Y-104733478D01*
X101806494Y-104728341D01*
X101878640Y-104713991D01*
X101906477Y-104708453D01*
X101935320Y-104702716D01*
X102081002Y-104642373D01*
X102212112Y-104554768D01*
X102323612Y-104443268D01*
X102411217Y-104312158D01*
X102471560Y-104166476D01*
X102502323Y-104011821D01*
X102502323Y-103854137D01*
X102502323Y-103854134D01*
X102502322Y-103854132D01*
X102489243Y-103788379D01*
X102471560Y-103699482D01*
X102437897Y-103618212D01*
X102411220Y-103553806D01*
X102411213Y-103553793D01*
X102364550Y-103483957D01*
X102323612Y-103422690D01*
X102323609Y-103422686D01*
X102322076Y-103421153D01*
X126199500Y-103421153D01*
X126199500Y-103578846D01*
X126230261Y-103733489D01*
X126230264Y-103733501D01*
X126290602Y-103879172D01*
X126290609Y-103879185D01*
X126378210Y-104010288D01*
X126378213Y-104010292D01*
X126489707Y-104121786D01*
X126489711Y-104121789D01*
X126620814Y-104209390D01*
X126620827Y-104209397D01*
X126766498Y-104269735D01*
X126766503Y-104269737D01*
X126921153Y-104300499D01*
X126921156Y-104300500D01*
X126921158Y-104300500D01*
X127078844Y-104300500D01*
X127078845Y-104300499D01*
X127233497Y-104269737D01*
X127379179Y-104209394D01*
X127510289Y-104121789D01*
X127621789Y-104010289D01*
X127709394Y-103879179D01*
X127717704Y-103859118D01*
X127729862Y-103829765D01*
X127769737Y-103733497D01*
X127800500Y-103578842D01*
X127800500Y-103421158D01*
X127800500Y-103421155D01*
X127800499Y-103421153D01*
X127791313Y-103374973D01*
X127769737Y-103266503D01*
X127769735Y-103266498D01*
X127709397Y-103120827D01*
X127709390Y-103120814D01*
X127621789Y-102989711D01*
X127621786Y-102989707D01*
X127541111Y-102909032D01*
X128844450Y-102909032D01*
X128844450Y-103066725D01*
X128875211Y-103221368D01*
X128875214Y-103221380D01*
X128935552Y-103367051D01*
X128935559Y-103367064D01*
X129023160Y-103498167D01*
X129023163Y-103498171D01*
X129134657Y-103609665D01*
X129134661Y-103609668D01*
X129265764Y-103697269D01*
X129265777Y-103697276D01*
X129411448Y-103757614D01*
X129411453Y-103757616D01*
X129566103Y-103788378D01*
X129566106Y-103788379D01*
X129566108Y-103788379D01*
X129723794Y-103788379D01*
X129723795Y-103788378D01*
X129878447Y-103757616D01*
X130024129Y-103697273D01*
X130155239Y-103609668D01*
X130266739Y-103498168D01*
X130354344Y-103367058D01*
X130414687Y-103221376D01*
X130445450Y-103066721D01*
X130445450Y-102938077D01*
X132226322Y-102938077D01*
X132255163Y-103083064D01*
X132255166Y-103083074D01*
X132311735Y-103219645D01*
X132311742Y-103219658D01*
X132393871Y-103342572D01*
X132393874Y-103342576D01*
X132498403Y-103447105D01*
X132498407Y-103447108D01*
X132621321Y-103529237D01*
X132621334Y-103529244D01*
X132741080Y-103578844D01*
X132757910Y-103585815D01*
X132757914Y-103585815D01*
X132757915Y-103585816D01*
X132902902Y-103614657D01*
X132902905Y-103614657D01*
X133050743Y-103614657D01*
X133148285Y-103595253D01*
X133195736Y-103585815D01*
X133332318Y-103529241D01*
X133455239Y-103447108D01*
X133559774Y-103342573D01*
X133641907Y-103219652D01*
X133698481Y-103083070D01*
X133717053Y-102989707D01*
X133720879Y-102970474D01*
X134807130Y-102970474D01*
X134835971Y-103115461D01*
X134835974Y-103115471D01*
X134892543Y-103252042D01*
X134892550Y-103252055D01*
X134974679Y-103374969D01*
X134974682Y-103374973D01*
X135079211Y-103479502D01*
X135079215Y-103479505D01*
X135202129Y-103561634D01*
X135202142Y-103561641D01*
X135318091Y-103609668D01*
X135338718Y-103618212D01*
X135338722Y-103618212D01*
X135338723Y-103618213D01*
X135483710Y-103647054D01*
X135483713Y-103647054D01*
X135631551Y-103647054D01*
X135729093Y-103627650D01*
X135776544Y-103618212D01*
X135913126Y-103561638D01*
X136036047Y-103479505D01*
X136140582Y-103374970D01*
X136222715Y-103252049D01*
X136279289Y-103115467D01*
X136302359Y-102999489D01*
X136308131Y-102970474D01*
X136308131Y-102822633D01*
X136279290Y-102677646D01*
X136279289Y-102677645D01*
X136279289Y-102677641D01*
X136261238Y-102634061D01*
X136222718Y-102541065D01*
X136222711Y-102541052D01*
X136140582Y-102418138D01*
X136140579Y-102418134D01*
X136036050Y-102313605D01*
X136036046Y-102313602D01*
X135913132Y-102231473D01*
X135913119Y-102231466D01*
X135776548Y-102174897D01*
X135776538Y-102174894D01*
X135631551Y-102146054D01*
X135631549Y-102146054D01*
X135483713Y-102146054D01*
X135483711Y-102146054D01*
X135338723Y-102174894D01*
X135338713Y-102174897D01*
X135202142Y-102231466D01*
X135202129Y-102231473D01*
X135079215Y-102313602D01*
X135079211Y-102313605D01*
X134974682Y-102418134D01*
X134974679Y-102418138D01*
X134892550Y-102541052D01*
X134892543Y-102541065D01*
X134835974Y-102677636D01*
X134835971Y-102677646D01*
X134807131Y-102822633D01*
X134807131Y-102822636D01*
X134807131Y-102970472D01*
X134807131Y-102970474D01*
X134807130Y-102970474D01*
X133720879Y-102970474D01*
X133727323Y-102938077D01*
X133727323Y-102790236D01*
X133698482Y-102645249D01*
X133698481Y-102645248D01*
X133698481Y-102645244D01*
X133684376Y-102611192D01*
X133641910Y-102508668D01*
X133641903Y-102508655D01*
X133559774Y-102385741D01*
X133559771Y-102385737D01*
X133455242Y-102281208D01*
X133455238Y-102281205D01*
X133332324Y-102199076D01*
X133332311Y-102199069D01*
X133195740Y-102142500D01*
X133195730Y-102142497D01*
X133050743Y-102113657D01*
X133050741Y-102113657D01*
X132902905Y-102113657D01*
X132902903Y-102113657D01*
X132757915Y-102142497D01*
X132757905Y-102142500D01*
X132621334Y-102199069D01*
X132621321Y-102199076D01*
X132498407Y-102281205D01*
X132498403Y-102281208D01*
X132393874Y-102385737D01*
X132393871Y-102385741D01*
X132311742Y-102508655D01*
X132311735Y-102508668D01*
X132255166Y-102645239D01*
X132255163Y-102645249D01*
X132226323Y-102790236D01*
X132226323Y-102790239D01*
X132226323Y-102938075D01*
X132226323Y-102938077D01*
X132226322Y-102938077D01*
X130445450Y-102938077D01*
X130445450Y-102909037D01*
X130445450Y-102909034D01*
X130425420Y-102808339D01*
X130425420Y-102808338D01*
X130414688Y-102754389D01*
X130414687Y-102754382D01*
X130401558Y-102722686D01*
X130354347Y-102608706D01*
X130354340Y-102608693D01*
X130266739Y-102477590D01*
X130266736Y-102477586D01*
X130155242Y-102366092D01*
X130155238Y-102366089D01*
X130024135Y-102278488D01*
X130024122Y-102278481D01*
X129878451Y-102218143D01*
X129878439Y-102218140D01*
X129723795Y-102187379D01*
X129723792Y-102187379D01*
X129566108Y-102187379D01*
X129566105Y-102187379D01*
X129411460Y-102218140D01*
X129411448Y-102218143D01*
X129265777Y-102278481D01*
X129265764Y-102278488D01*
X129134661Y-102366089D01*
X129134657Y-102366092D01*
X129023163Y-102477586D01*
X129023160Y-102477590D01*
X128935559Y-102608693D01*
X128935552Y-102608706D01*
X128875214Y-102754377D01*
X128875211Y-102754389D01*
X128844450Y-102909032D01*
X127541111Y-102909032D01*
X127510292Y-102878213D01*
X127510288Y-102878210D01*
X127379185Y-102790609D01*
X127379172Y-102790602D01*
X127233501Y-102730264D01*
X127233489Y-102730261D01*
X127078845Y-102699500D01*
X127078842Y-102699500D01*
X126921158Y-102699500D01*
X126921155Y-102699500D01*
X126766510Y-102730261D01*
X126766498Y-102730264D01*
X126620827Y-102790602D01*
X126620814Y-102790609D01*
X126489711Y-102878210D01*
X126489707Y-102878213D01*
X126378213Y-102989707D01*
X126378210Y-102989711D01*
X126290609Y-103120814D01*
X126290602Y-103120827D01*
X126230264Y-103266498D01*
X126230261Y-103266510D01*
X126199500Y-103421153D01*
X102322076Y-103421153D01*
X102212115Y-103311192D01*
X102212111Y-103311189D01*
X102081008Y-103223588D01*
X102080995Y-103223581D01*
X101935324Y-103163243D01*
X101935312Y-103163240D01*
X101780668Y-103132479D01*
X101780665Y-103132479D01*
X101622981Y-103132479D01*
X101622978Y-103132479D01*
X101468333Y-103163240D01*
X101468321Y-103163243D01*
X101322650Y-103223581D01*
X101322637Y-103223588D01*
X101191534Y-103311189D01*
X101191530Y-103311192D01*
X101080036Y-103422686D01*
X101080033Y-103422690D01*
X100992432Y-103553793D01*
X100992425Y-103553806D01*
X100932087Y-103699477D01*
X100932084Y-103699489D01*
X100901323Y-103854132D01*
X95477323Y-103854132D01*
X95477323Y-101067599D01*
X125053054Y-101067599D01*
X125053054Y-101225292D01*
X125083815Y-101379935D01*
X125083818Y-101379947D01*
X125144156Y-101525618D01*
X125144163Y-101525631D01*
X125231764Y-101656734D01*
X125231767Y-101656738D01*
X125343261Y-101768232D01*
X125343265Y-101768235D01*
X125474368Y-101855836D01*
X125474381Y-101855843D01*
X125620052Y-101916181D01*
X125620057Y-101916183D01*
X125774707Y-101946945D01*
X125774710Y-101946946D01*
X125774712Y-101946946D01*
X125932398Y-101946946D01*
X125932399Y-101946945D01*
X126087051Y-101916183D01*
X126232733Y-101855840D01*
X126363843Y-101768235D01*
X126475343Y-101656735D01*
X126562948Y-101525625D01*
X126623291Y-101379943D01*
X126654054Y-101225288D01*
X126654054Y-101067604D01*
X126654054Y-101067601D01*
X126654053Y-101067599D01*
X126628965Y-100941476D01*
X126623291Y-100912949D01*
X126623289Y-100912944D01*
X126562951Y-100767273D01*
X126562944Y-100767260D01*
X126475343Y-100636157D01*
X126475340Y-100636153D01*
X126363846Y-100524659D01*
X126363842Y-100524656D01*
X126232739Y-100437055D01*
X126232726Y-100437048D01*
X126087055Y-100376710D01*
X126087043Y-100376707D01*
X125932399Y-100345946D01*
X125932396Y-100345946D01*
X125774712Y-100345946D01*
X125774709Y-100345946D01*
X125620064Y-100376707D01*
X125620052Y-100376710D01*
X125474381Y-100437048D01*
X125474368Y-100437055D01*
X125343265Y-100524656D01*
X125343261Y-100524659D01*
X125231767Y-100636153D01*
X125231764Y-100636157D01*
X125144163Y-100767260D01*
X125144156Y-100767273D01*
X125083818Y-100912944D01*
X125083815Y-100912956D01*
X125053054Y-101067599D01*
X95477323Y-101067599D01*
X95477323Y-99653192D01*
X137742516Y-99653192D01*
X137742516Y-99810885D01*
X137773277Y-99965528D01*
X137773280Y-99965540D01*
X137833618Y-100111211D01*
X137833625Y-100111224D01*
X137921226Y-100242327D01*
X137921229Y-100242331D01*
X138032723Y-100353825D01*
X138032727Y-100353828D01*
X138163830Y-100441429D01*
X138163843Y-100441436D01*
X138272202Y-100486319D01*
X138309519Y-100501776D01*
X138424544Y-100524656D01*
X138464169Y-100532538D01*
X138464172Y-100532539D01*
X138473531Y-100532539D01*
X138540570Y-100552224D01*
X138586325Y-100605028D01*
X138596269Y-100674186D01*
X138576633Y-100725430D01*
X138491742Y-100852477D01*
X138491735Y-100852490D01*
X138435166Y-100989061D01*
X138435163Y-100989071D01*
X138406323Y-101134058D01*
X138406323Y-101134061D01*
X138406323Y-101281897D01*
X138406323Y-101281899D01*
X138406322Y-101281899D01*
X138435163Y-101426886D01*
X138435166Y-101426896D01*
X138491735Y-101563467D01*
X138491742Y-101563480D01*
X138573871Y-101686394D01*
X138573874Y-101686398D01*
X138678403Y-101790927D01*
X138678407Y-101790930D01*
X138801321Y-101873059D01*
X138801334Y-101873066D01*
X138908292Y-101917369D01*
X138937910Y-101929637D01*
X138937914Y-101929637D01*
X138937915Y-101929638D01*
X139082902Y-101958479D01*
X139082905Y-101958479D01*
X139230742Y-101958479D01*
X139288725Y-101946945D01*
X139371854Y-101930409D01*
X139441444Y-101936636D01*
X139496622Y-101979498D01*
X139519867Y-102045388D01*
X139503800Y-102113385D01*
X139483727Y-102139707D01*
X139393871Y-102229563D01*
X139311742Y-102352477D01*
X139311735Y-102352490D01*
X139255166Y-102489061D01*
X139255163Y-102489071D01*
X139226323Y-102634058D01*
X139226323Y-102634061D01*
X139226323Y-102781897D01*
X139226323Y-102781899D01*
X139226322Y-102781899D01*
X139255163Y-102926886D01*
X139255166Y-102926896D01*
X139311735Y-103063467D01*
X139311742Y-103063480D01*
X139393871Y-103186394D01*
X139393874Y-103186398D01*
X139498403Y-103290927D01*
X139498407Y-103290930D01*
X139621321Y-103373059D01*
X139621334Y-103373066D01*
X139741138Y-103422690D01*
X139757910Y-103429637D01*
X139757914Y-103429637D01*
X139757915Y-103429638D01*
X139902902Y-103458479D01*
X139902905Y-103458479D01*
X140050743Y-103458479D01*
X140148285Y-103439075D01*
X140195736Y-103429637D01*
X140327714Y-103374970D01*
X140332311Y-103373066D01*
X140332311Y-103373065D01*
X140332318Y-103373063D01*
X140455239Y-103290930D01*
X140559774Y-103186395D01*
X140598036Y-103129132D01*
X157176323Y-103129132D01*
X157176323Y-103286825D01*
X157207084Y-103441468D01*
X157207087Y-103441480D01*
X157267425Y-103587151D01*
X157267432Y-103587164D01*
X157355033Y-103718267D01*
X157355036Y-103718271D01*
X157466530Y-103829765D01*
X157466534Y-103829768D01*
X157597637Y-103917369D01*
X157597650Y-103917376D01*
X157743321Y-103977714D01*
X157743326Y-103977716D01*
X157868999Y-104002714D01*
X157897976Y-104008478D01*
X157897979Y-104008479D01*
X157897981Y-104008479D01*
X158055667Y-104008479D01*
X158055668Y-104008478D01*
X158210320Y-103977716D01*
X158356002Y-103917373D01*
X158487112Y-103829768D01*
X158598612Y-103718268D01*
X158686217Y-103587158D01*
X158746560Y-103441476D01*
X158777323Y-103286821D01*
X158777323Y-103154132D01*
X166176323Y-103154132D01*
X166176323Y-103311825D01*
X166207084Y-103466468D01*
X166207087Y-103466480D01*
X166267425Y-103612151D01*
X166267432Y-103612164D01*
X166355033Y-103743267D01*
X166355036Y-103743271D01*
X166466530Y-103854765D01*
X166466534Y-103854768D01*
X166597637Y-103942369D01*
X166597650Y-103942376D01*
X166743321Y-104002714D01*
X166743326Y-104002716D01*
X166897976Y-104033478D01*
X166897979Y-104033479D01*
X166897981Y-104033479D01*
X167055667Y-104033479D01*
X167055668Y-104033478D01*
X167210320Y-104002716D01*
X167356002Y-103942373D01*
X167487112Y-103854768D01*
X167598612Y-103743268D01*
X167686217Y-103612158D01*
X167746560Y-103466476D01*
X167777323Y-103311821D01*
X167777323Y-103154137D01*
X167777323Y-103154134D01*
X167777322Y-103154132D01*
X167772350Y-103129137D01*
X167746560Y-102999482D01*
X167734544Y-102970472D01*
X167686220Y-102853806D01*
X167686213Y-102853793D01*
X167598612Y-102722690D01*
X167598609Y-102722686D01*
X167487115Y-102611192D01*
X167487111Y-102611189D01*
X167356008Y-102523588D01*
X167355995Y-102523581D01*
X167210324Y-102463243D01*
X167210312Y-102463240D01*
X167055668Y-102432479D01*
X167055665Y-102432479D01*
X166897981Y-102432479D01*
X166897978Y-102432479D01*
X166743333Y-102463240D01*
X166743321Y-102463243D01*
X166597650Y-102523581D01*
X166597637Y-102523588D01*
X166466534Y-102611189D01*
X166466530Y-102611192D01*
X166355036Y-102722686D01*
X166355033Y-102722690D01*
X166267432Y-102853793D01*
X166267425Y-102853806D01*
X166207087Y-102999477D01*
X166207084Y-102999489D01*
X166176323Y-103154132D01*
X158777323Y-103154132D01*
X158777323Y-103129137D01*
X158777323Y-103129134D01*
X158777322Y-103129132D01*
X158764908Y-103066723D01*
X158746560Y-102974482D01*
X158727652Y-102928833D01*
X158686220Y-102828806D01*
X158686213Y-102828793D01*
X158598612Y-102697690D01*
X158598609Y-102697686D01*
X158487115Y-102586192D01*
X158487111Y-102586189D01*
X158356008Y-102498588D01*
X158355995Y-102498581D01*
X158210324Y-102438243D01*
X158210312Y-102438240D01*
X158055668Y-102407479D01*
X158055665Y-102407479D01*
X157897981Y-102407479D01*
X157897978Y-102407479D01*
X157743333Y-102438240D01*
X157743321Y-102438243D01*
X157597650Y-102498581D01*
X157597637Y-102498588D01*
X157466534Y-102586189D01*
X157466530Y-102586192D01*
X157355036Y-102697686D01*
X157355033Y-102697690D01*
X157267432Y-102828793D01*
X157267425Y-102828806D01*
X157207087Y-102974477D01*
X157207084Y-102974489D01*
X157176323Y-103129132D01*
X140598036Y-103129132D01*
X140641907Y-103063474D01*
X140678192Y-102975871D01*
X140678341Y-102975521D01*
X140700178Y-102948789D01*
X140721861Y-102921883D01*
X140722397Y-102921589D01*
X140722544Y-102921411D01*
X140722992Y-102921264D01*
X140745119Y-102909181D01*
X140832318Y-102873063D01*
X140955239Y-102790930D01*
X141059774Y-102686395D01*
X141141907Y-102563474D01*
X141151195Y-102541052D01*
X141164614Y-102508655D01*
X141198481Y-102426892D01*
X141213282Y-102352484D01*
X141227323Y-102281899D01*
X141227323Y-102134058D01*
X141198482Y-101989071D01*
X141198481Y-101989070D01*
X141198481Y-101989066D01*
X141193779Y-101977714D01*
X141141910Y-101852490D01*
X141141903Y-101852477D01*
X141059774Y-101729563D01*
X141059771Y-101729559D01*
X140955242Y-101625030D01*
X140955238Y-101625027D01*
X140832324Y-101542898D01*
X140832311Y-101542891D01*
X140695740Y-101486322D01*
X140695730Y-101486319D01*
X140550743Y-101457479D01*
X140550741Y-101457479D01*
X140402905Y-101457479D01*
X140402903Y-101457479D01*
X140257915Y-101486319D01*
X140257905Y-101486322D01*
X140121334Y-101542891D01*
X140121323Y-101542897D01*
X140058991Y-101584546D01*
X139992313Y-101605423D01*
X139924933Y-101586938D01*
X139878244Y-101534958D01*
X139867068Y-101465988D01*
X139875540Y-101433991D01*
X139878481Y-101426892D01*
X139907323Y-101281897D01*
X139907323Y-101134061D01*
X139907323Y-101134058D01*
X139906343Y-101129132D01*
X142176323Y-101129132D01*
X142176323Y-101286825D01*
X142207084Y-101441468D01*
X142207087Y-101441480D01*
X142267425Y-101587151D01*
X142267432Y-101587164D01*
X142355033Y-101718267D01*
X142355036Y-101718271D01*
X142466530Y-101829765D01*
X142466534Y-101829768D01*
X142597637Y-101917369D01*
X142597650Y-101917376D01*
X142696883Y-101958479D01*
X142743326Y-101977716D01*
X142897976Y-102008478D01*
X142897979Y-102008479D01*
X142897981Y-102008479D01*
X143055667Y-102008479D01*
X143055668Y-102008478D01*
X143210320Y-101977716D01*
X143356002Y-101917373D01*
X143487112Y-101829768D01*
X143598612Y-101718268D01*
X143686217Y-101587158D01*
X143716290Y-101514551D01*
X143760128Y-101460151D01*
X143783388Y-101447449D01*
X143856002Y-101417373D01*
X143987112Y-101329768D01*
X144098612Y-101218268D01*
X144186217Y-101087158D01*
X144194317Y-101067604D01*
X144199890Y-101054145D01*
X144246560Y-100941476D01*
X144277323Y-100786821D01*
X144277323Y-100629137D01*
X144277323Y-100629134D01*
X144277322Y-100629132D01*
X144251989Y-100501776D01*
X144246560Y-100474482D01*
X144237968Y-100453739D01*
X144186220Y-100328806D01*
X144186213Y-100328793D01*
X144098612Y-100197690D01*
X144098609Y-100197686D01*
X143987115Y-100086192D01*
X143987111Y-100086189D01*
X143856008Y-99998588D01*
X143855995Y-99998581D01*
X143710324Y-99938243D01*
X143710312Y-99938240D01*
X143555668Y-99907479D01*
X143555665Y-99907479D01*
X143397981Y-99907479D01*
X143397978Y-99907479D01*
X143243333Y-99938240D01*
X143243321Y-99938243D01*
X143097650Y-99998581D01*
X143097637Y-99998588D01*
X142966534Y-100086189D01*
X142966530Y-100086192D01*
X142855036Y-100197686D01*
X142855033Y-100197690D01*
X142767432Y-100328793D01*
X142767429Y-100328799D01*
X142737355Y-100401404D01*
X142693513Y-100455807D01*
X142670248Y-100468511D01*
X142597643Y-100498585D01*
X142597637Y-100498588D01*
X142466534Y-100586189D01*
X142466530Y-100586192D01*
X142355036Y-100697686D01*
X142355033Y-100697690D01*
X142267432Y-100828793D01*
X142267425Y-100828806D01*
X142207087Y-100974477D01*
X142207084Y-100974489D01*
X142176323Y-101129132D01*
X139906343Y-101129132D01*
X139878482Y-100989071D01*
X139878481Y-100989070D01*
X139878481Y-100989066D01*
X139858769Y-100941476D01*
X139821910Y-100852490D01*
X139821903Y-100852477D01*
X139739774Y-100729563D01*
X139739771Y-100729559D01*
X139635242Y-100625030D01*
X139635238Y-100625027D01*
X139512324Y-100542898D01*
X139512311Y-100542891D01*
X139375740Y-100486322D01*
X139375730Y-100486319D01*
X139224766Y-100456290D01*
X139225273Y-100453739D01*
X139170968Y-100431801D01*
X139130618Y-100374761D01*
X139127511Y-100304960D01*
X139160248Y-100246885D01*
X139164804Y-100242329D01*
X139164805Y-100242328D01*
X139252410Y-100111218D01*
X139312753Y-99965536D01*
X139343516Y-99810881D01*
X139343516Y-99653197D01*
X139343514Y-99653190D01*
X139343514Y-99653184D01*
X139312754Y-99498549D01*
X139312753Y-99498542D01*
X139299885Y-99467475D01*
X139252413Y-99352866D01*
X139252406Y-99352853D01*
X139203859Y-99280198D01*
X139164805Y-99221750D01*
X139164802Y-99221746D01*
X139121034Y-99177978D01*
X189777938Y-99177978D01*
X189777939Y-99177979D01*
X190529835Y-99177979D01*
X190512618Y-99187919D01*
X190456763Y-99243774D01*
X190417267Y-99312183D01*
X190396823Y-99388483D01*
X190396823Y-99467475D01*
X190417267Y-99543775D01*
X190456763Y-99612184D01*
X190512618Y-99668039D01*
X190529835Y-99677979D01*
X189777939Y-99677979D01*
X189783329Y-99705079D01*
X189783330Y-99705082D01*
X189854942Y-99877970D01*
X189854947Y-99877979D01*
X189958909Y-100033568D01*
X189958912Y-100033572D01*
X190091229Y-100165889D01*
X190091233Y-100165892D01*
X190246822Y-100269854D01*
X190246831Y-100269859D01*
X190419717Y-100341470D01*
X190419725Y-100341472D01*
X190603251Y-100377978D01*
X190603254Y-100377979D01*
X190996823Y-100377979D01*
X190996823Y-99727979D01*
X191496823Y-99727979D01*
X191496823Y-100377979D01*
X191890392Y-100377979D01*
X191890394Y-100377978D01*
X192073920Y-100341472D01*
X192073928Y-100341470D01*
X192246814Y-100269859D01*
X192246823Y-100269854D01*
X192402412Y-100165892D01*
X192402416Y-100165889D01*
X192534733Y-100033572D01*
X192534736Y-100033568D01*
X192638698Y-99877979D01*
X192638703Y-99877970D01*
X192710315Y-99705082D01*
X192710316Y-99705079D01*
X192715707Y-99677979D01*
X191963811Y-99677979D01*
X191981028Y-99668039D01*
X192036883Y-99612184D01*
X192076379Y-99543775D01*
X192096823Y-99467475D01*
X192096823Y-99388483D01*
X192076379Y-99312183D01*
X192036883Y-99243774D01*
X191981028Y-99187919D01*
X191963811Y-99177979D01*
X192715707Y-99177979D01*
X192715707Y-99177978D01*
X194097938Y-99177978D01*
X194097939Y-99177979D01*
X194849835Y-99177979D01*
X194832618Y-99187919D01*
X194776763Y-99243774D01*
X194737267Y-99312183D01*
X194716823Y-99388483D01*
X194716823Y-99467475D01*
X194737267Y-99543775D01*
X194776763Y-99612184D01*
X194832618Y-99668039D01*
X194849835Y-99677979D01*
X194097939Y-99677979D01*
X194103329Y-99705079D01*
X194103330Y-99705082D01*
X194174942Y-99877970D01*
X194174947Y-99877979D01*
X194278909Y-100033568D01*
X194278912Y-100033572D01*
X194411229Y-100165889D01*
X194411233Y-100165892D01*
X194566822Y-100269854D01*
X194566831Y-100269859D01*
X194739717Y-100341470D01*
X194739725Y-100341472D01*
X194923251Y-100377978D01*
X194923254Y-100377979D01*
X195166823Y-100377979D01*
X195166823Y-99727979D01*
X195666823Y-99727979D01*
X195666823Y-100377979D01*
X195910392Y-100377979D01*
X195910394Y-100377978D01*
X196093920Y-100341472D01*
X196093928Y-100341470D01*
X196266814Y-100269859D01*
X196266823Y-100269854D01*
X196422412Y-100165892D01*
X196422416Y-100165889D01*
X196554733Y-100033572D01*
X196554736Y-100033568D01*
X196658698Y-99877979D01*
X196658703Y-99877970D01*
X196730315Y-99705082D01*
X196730316Y-99705079D01*
X196735707Y-99677979D01*
X195983811Y-99677979D01*
X196001028Y-99668039D01*
X196056883Y-99612184D01*
X196096379Y-99543775D01*
X196116823Y-99467475D01*
X196116823Y-99388483D01*
X196096379Y-99312183D01*
X196056883Y-99243774D01*
X196001028Y-99187919D01*
X195983811Y-99177979D01*
X196735707Y-99177979D01*
X196735707Y-99177978D01*
X196730316Y-99150878D01*
X196730315Y-99150875D01*
X196658703Y-98977987D01*
X196658698Y-98977978D01*
X196554736Y-98822389D01*
X196554733Y-98822385D01*
X196422416Y-98690068D01*
X196422412Y-98690065D01*
X196266823Y-98586103D01*
X196266814Y-98586098D01*
X196093928Y-98514487D01*
X196093920Y-98514485D01*
X195910393Y-98477979D01*
X195666823Y-98477979D01*
X195666823Y-99127979D01*
X195166823Y-99127979D01*
X195166823Y-98477979D01*
X194923253Y-98477979D01*
X194739725Y-98514485D01*
X194739717Y-98514487D01*
X194566831Y-98586098D01*
X194566822Y-98586103D01*
X194411233Y-98690065D01*
X194411229Y-98690068D01*
X194278912Y-98822385D01*
X194278909Y-98822389D01*
X194174947Y-98977978D01*
X194174942Y-98977987D01*
X194103330Y-99150875D01*
X194103329Y-99150878D01*
X194097938Y-99177978D01*
X192715707Y-99177978D01*
X192710316Y-99150878D01*
X192710315Y-99150875D01*
X192638703Y-98977987D01*
X192638698Y-98977978D01*
X192534736Y-98822389D01*
X192534733Y-98822385D01*
X192402416Y-98690068D01*
X192402412Y-98690065D01*
X192246823Y-98586103D01*
X192246814Y-98586098D01*
X192073928Y-98514487D01*
X192073922Y-98514485D01*
X191920515Y-98483970D01*
X191858604Y-98451585D01*
X191824030Y-98390869D01*
X191827771Y-98321099D01*
X191868637Y-98264428D01*
X191882699Y-98254971D01*
X191911334Y-98238439D01*
X191967283Y-98182490D01*
X192006844Y-98113968D01*
X192027323Y-98037541D01*
X192027323Y-97958417D01*
X192006844Y-97881990D01*
X191989002Y-97851087D01*
X191967287Y-97813474D01*
X191967281Y-97813466D01*
X191911335Y-97757520D01*
X191911327Y-97757514D01*
X191842818Y-97717961D01*
X191842813Y-97717958D01*
X191817336Y-97711131D01*
X191766385Y-97697479D01*
X191687261Y-97697479D01*
X191649047Y-97707718D01*
X191610832Y-97717958D01*
X191610827Y-97717961D01*
X191542318Y-97757514D01*
X191542310Y-97757520D01*
X191486364Y-97813466D01*
X191486358Y-97813474D01*
X191446805Y-97881983D01*
X191446802Y-97881988D01*
X191433149Y-97932941D01*
X191426323Y-97958417D01*
X191426323Y-98037541D01*
X191439616Y-98087151D01*
X191446802Y-98113969D01*
X191446805Y-98113974D01*
X191486358Y-98182483D01*
X191486362Y-98182488D01*
X191486363Y-98182490D01*
X191542312Y-98238439D01*
X191542314Y-98238440D01*
X191542318Y-98238443D01*
X191556432Y-98246592D01*
X191604648Y-98297158D01*
X191617872Y-98365765D01*
X191591904Y-98430630D01*
X191534990Y-98471159D01*
X191497306Y-98477495D01*
X191496823Y-98477979D01*
X191496823Y-99127979D01*
X190996823Y-99127979D01*
X190996823Y-98477979D01*
X190603253Y-98477979D01*
X190419725Y-98514485D01*
X190419717Y-98514487D01*
X190246831Y-98586098D01*
X190246822Y-98586103D01*
X190091233Y-98690065D01*
X190091229Y-98690068D01*
X189958912Y-98822385D01*
X189958909Y-98822389D01*
X189854947Y-98977978D01*
X189854942Y-98977987D01*
X189783330Y-99150875D01*
X189783329Y-99150878D01*
X189777938Y-99177978D01*
X139121034Y-99177978D01*
X139053308Y-99110252D01*
X139053304Y-99110249D01*
X138922201Y-99022648D01*
X138922188Y-99022641D01*
X138776517Y-98962303D01*
X138776505Y-98962300D01*
X138621861Y-98931539D01*
X138621858Y-98931539D01*
X138464174Y-98931539D01*
X138464171Y-98931539D01*
X138309526Y-98962300D01*
X138309514Y-98962303D01*
X138163843Y-99022641D01*
X138163830Y-99022648D01*
X138032727Y-99110249D01*
X138032723Y-99110252D01*
X137921229Y-99221746D01*
X137921226Y-99221750D01*
X137833625Y-99352853D01*
X137833618Y-99352866D01*
X137773280Y-99498537D01*
X137773277Y-99498549D01*
X137742516Y-99653192D01*
X95477323Y-99653192D01*
X95477323Y-97629132D01*
X113176323Y-97629132D01*
X113176323Y-97786825D01*
X113207084Y-97941468D01*
X113207087Y-97941480D01*
X113267425Y-98087151D01*
X113267432Y-98087164D01*
X113355033Y-98218267D01*
X113355036Y-98218271D01*
X113466530Y-98329765D01*
X113466534Y-98329768D01*
X113597637Y-98417369D01*
X113597650Y-98417376D01*
X113727496Y-98471159D01*
X113743326Y-98477716D01*
X113897976Y-98508478D01*
X113897979Y-98508479D01*
X113897981Y-98508479D01*
X114055667Y-98508479D01*
X114055668Y-98508478D01*
X114210320Y-98477716D01*
X114356002Y-98417373D01*
X114487112Y-98329768D01*
X114598612Y-98218268D01*
X114648290Y-98143920D01*
X139608122Y-98143920D01*
X139636963Y-98288907D01*
X139636966Y-98288917D01*
X139693535Y-98425488D01*
X139693542Y-98425501D01*
X139775671Y-98548415D01*
X139775674Y-98548419D01*
X139880203Y-98652948D01*
X139880207Y-98652951D01*
X140003121Y-98735080D01*
X140003134Y-98735087D01*
X140139705Y-98791656D01*
X140139710Y-98791658D01*
X140139714Y-98791658D01*
X140139715Y-98791659D01*
X140284702Y-98820500D01*
X140284705Y-98820500D01*
X140432543Y-98820500D01*
X140530085Y-98801096D01*
X140577536Y-98791658D01*
X140714118Y-98735084D01*
X140837039Y-98652951D01*
X140941574Y-98548416D01*
X141023707Y-98425495D01*
X141080281Y-98288913D01*
X141101450Y-98182491D01*
X141109123Y-98143920D01*
X141109123Y-97996082D01*
X141104826Y-97974479D01*
X141104826Y-97974476D01*
X141080282Y-97851092D01*
X141080281Y-97851091D01*
X141080281Y-97851087D01*
X141053661Y-97786821D01*
X141023710Y-97714511D01*
X141023703Y-97714498D01*
X140941574Y-97591584D01*
X140941571Y-97591580D01*
X140837042Y-97487051D01*
X140837038Y-97487048D01*
X140714124Y-97404919D01*
X140714111Y-97404912D01*
X140577540Y-97348343D01*
X140577530Y-97348340D01*
X140432543Y-97319500D01*
X140432541Y-97319500D01*
X140284705Y-97319500D01*
X140284703Y-97319500D01*
X140139715Y-97348340D01*
X140139705Y-97348343D01*
X140003134Y-97404912D01*
X140003121Y-97404919D01*
X139880207Y-97487048D01*
X139880203Y-97487051D01*
X139775674Y-97591580D01*
X139775671Y-97591584D01*
X139693542Y-97714498D01*
X139693535Y-97714511D01*
X139636966Y-97851082D01*
X139636963Y-97851092D01*
X139608123Y-97996079D01*
X139608123Y-97996082D01*
X139608123Y-98143918D01*
X139608123Y-98143920D01*
X139608122Y-98143920D01*
X114648290Y-98143920D01*
X114686217Y-98087158D01*
X114746560Y-97941476D01*
X114777323Y-97786821D01*
X114777323Y-97629137D01*
X114777323Y-97629134D01*
X114777322Y-97629132D01*
X114757005Y-97526994D01*
X114746560Y-97474482D01*
X114732022Y-97439383D01*
X114686220Y-97328806D01*
X114686213Y-97328793D01*
X114598612Y-97197690D01*
X114598609Y-97197686D01*
X114487115Y-97086192D01*
X114487111Y-97086189D01*
X114356008Y-96998588D01*
X114355995Y-96998581D01*
X114210324Y-96938243D01*
X114210312Y-96938240D01*
X114055668Y-96907479D01*
X114055665Y-96907479D01*
X113897981Y-96907479D01*
X113897978Y-96907479D01*
X113743333Y-96938240D01*
X113743321Y-96938243D01*
X113597650Y-96998581D01*
X113597637Y-96998588D01*
X113466534Y-97086189D01*
X113466530Y-97086192D01*
X113355036Y-97197686D01*
X113355033Y-97197690D01*
X113267432Y-97328793D01*
X113267425Y-97328806D01*
X113207087Y-97474477D01*
X113207084Y-97474489D01*
X113176323Y-97629132D01*
X95477323Y-97629132D01*
X95477323Y-96738750D01*
X126066705Y-96738750D01*
X126066705Y-96896443D01*
X126097466Y-97051086D01*
X126097469Y-97051098D01*
X126157807Y-97196769D01*
X126157814Y-97196782D01*
X126245415Y-97327885D01*
X126245418Y-97327889D01*
X126356912Y-97439383D01*
X126356916Y-97439386D01*
X126488019Y-97526987D01*
X126488032Y-97526994D01*
X126633703Y-97587332D01*
X126633708Y-97587334D01*
X126788358Y-97618096D01*
X126788361Y-97618097D01*
X126788363Y-97618097D01*
X126946049Y-97618097D01*
X126946050Y-97618096D01*
X127100702Y-97587334D01*
X127246384Y-97526991D01*
X127377494Y-97439386D01*
X127488994Y-97327886D01*
X127576599Y-97196776D01*
X127636942Y-97051094D01*
X127667705Y-96896439D01*
X127667705Y-96738755D01*
X127667705Y-96738752D01*
X127667704Y-96738750D01*
X127658301Y-96691480D01*
X127636942Y-96584100D01*
X127634584Y-96578408D01*
X127576602Y-96438424D01*
X127576595Y-96438411D01*
X127488994Y-96307308D01*
X127488991Y-96307304D01*
X127377497Y-96195810D01*
X127377493Y-96195807D01*
X127299839Y-96143920D01*
X137726322Y-96143920D01*
X137755163Y-96288907D01*
X137755166Y-96288917D01*
X137811735Y-96425488D01*
X137811742Y-96425501D01*
X137893871Y-96548415D01*
X137893874Y-96548419D01*
X137998403Y-96652948D01*
X137998411Y-96652954D01*
X138121326Y-96735083D01*
X138121329Y-96735085D01*
X138207004Y-96770572D01*
X138261408Y-96814412D01*
X138274113Y-96837680D01*
X138291120Y-96878740D01*
X138291125Y-96878749D01*
X138378726Y-97009852D01*
X138378729Y-97009856D01*
X138490223Y-97121350D01*
X138490227Y-97121353D01*
X138621330Y-97208954D01*
X138621343Y-97208961D01*
X138740892Y-97258479D01*
X138767019Y-97269301D01*
X138921669Y-97300063D01*
X138921672Y-97300064D01*
X138921674Y-97300064D01*
X139079360Y-97300064D01*
X139079361Y-97300063D01*
X139234013Y-97269301D01*
X139379695Y-97208958D01*
X139510805Y-97121353D01*
X139622305Y-97009853D01*
X139709910Y-96878743D01*
X139770253Y-96733061D01*
X139801016Y-96578406D01*
X139801016Y-96420722D01*
X139801016Y-96420719D01*
X139801015Y-96420717D01*
X139792744Y-96379137D01*
X139770253Y-96266067D01*
X139753026Y-96224477D01*
X139709913Y-96120391D01*
X139709906Y-96120378D01*
X139622305Y-95989275D01*
X139622302Y-95989271D01*
X139510808Y-95877777D01*
X139510804Y-95877774D01*
X139379701Y-95790173D01*
X139379688Y-95790166D01*
X139234017Y-95729828D01*
X139234005Y-95729825D01*
X139189971Y-95721066D01*
X139128060Y-95688681D01*
X139111060Y-95668339D01*
X139059775Y-95591585D01*
X139059769Y-95591578D01*
X138955242Y-95487051D01*
X138955238Y-95487048D01*
X138832324Y-95404919D01*
X138832311Y-95404912D01*
X138695740Y-95348343D01*
X138695730Y-95348340D01*
X138550743Y-95319500D01*
X138550741Y-95319500D01*
X138402905Y-95319500D01*
X138402903Y-95319500D01*
X138257915Y-95348340D01*
X138257905Y-95348343D01*
X138121334Y-95404912D01*
X138121321Y-95404919D01*
X137998407Y-95487048D01*
X137998403Y-95487051D01*
X137893874Y-95591580D01*
X137893871Y-95591584D01*
X137811742Y-95714498D01*
X137811735Y-95714511D01*
X137755166Y-95851082D01*
X137755163Y-95851092D01*
X137726323Y-95996079D01*
X137726323Y-95996082D01*
X137726323Y-96143918D01*
X137726323Y-96143920D01*
X137726322Y-96143920D01*
X127299839Y-96143920D01*
X127246390Y-96108206D01*
X127246380Y-96108201D01*
X127237568Y-96104551D01*
X127237566Y-96104550D01*
X127100706Y-96047861D01*
X127100694Y-96047858D01*
X126946050Y-96017097D01*
X126946047Y-96017097D01*
X126788363Y-96017097D01*
X126788360Y-96017097D01*
X126633715Y-96047858D01*
X126633703Y-96047861D01*
X126488032Y-96108199D01*
X126488019Y-96108206D01*
X126356916Y-96195807D01*
X126356912Y-96195810D01*
X126245418Y-96307304D01*
X126245415Y-96307308D01*
X126157814Y-96438411D01*
X126157807Y-96438424D01*
X126097469Y-96584095D01*
X126097466Y-96584107D01*
X126066705Y-96738750D01*
X95477323Y-96738750D01*
X95477323Y-92964088D01*
X128644500Y-92964088D01*
X128644500Y-93121781D01*
X128675261Y-93276424D01*
X128675264Y-93276436D01*
X128735602Y-93422107D01*
X128735609Y-93422120D01*
X128823210Y-93553223D01*
X128823213Y-93553227D01*
X128934707Y-93664721D01*
X128934711Y-93664724D01*
X129065814Y-93752325D01*
X129065827Y-93752332D01*
X129211498Y-93812670D01*
X129211503Y-93812672D01*
X129366153Y-93843434D01*
X129366156Y-93843435D01*
X129366158Y-93843435D01*
X129523844Y-93843435D01*
X129523845Y-93843434D01*
X129678497Y-93812672D01*
X129752790Y-93781899D01*
X137726322Y-93781899D01*
X137755163Y-93926886D01*
X137755166Y-93926896D01*
X137811735Y-94063467D01*
X137811742Y-94063480D01*
X137893871Y-94186394D01*
X137893874Y-94186398D01*
X137998403Y-94290927D01*
X137998407Y-94290930D01*
X138121321Y-94373059D01*
X138121334Y-94373066D01*
X138257905Y-94429635D01*
X138257910Y-94429637D01*
X138257914Y-94429637D01*
X138257915Y-94429638D01*
X138400602Y-94458021D01*
X138462513Y-94490406D01*
X138479512Y-94510747D01*
X138545333Y-94609254D01*
X138545336Y-94609258D01*
X138649865Y-94713787D01*
X138649869Y-94713790D01*
X138772783Y-94795919D01*
X138772796Y-94795926D01*
X138849545Y-94827716D01*
X138909372Y-94852497D01*
X138909376Y-94852497D01*
X138909377Y-94852498D01*
X139054364Y-94881339D01*
X139054367Y-94881339D01*
X139202205Y-94881339D01*
X139317125Y-94858479D01*
X139347198Y-94852497D01*
X139483780Y-94795923D01*
X139606701Y-94713790D01*
X139711236Y-94609255D01*
X139793369Y-94486334D01*
X139849943Y-94349752D01*
X139878785Y-94204757D01*
X139878785Y-94056921D01*
X139878785Y-94056918D01*
X139849944Y-93911931D01*
X139849943Y-93911930D01*
X139849943Y-93911926D01*
X139845907Y-93902183D01*
X139793372Y-93775350D01*
X139793365Y-93775337D01*
X139711236Y-93652423D01*
X139711233Y-93652419D01*
X139606704Y-93547890D01*
X139606700Y-93547887D01*
X139483786Y-93465758D01*
X139483773Y-93465751D01*
X139347202Y-93409182D01*
X139347192Y-93409179D01*
X139204505Y-93380796D01*
X139179341Y-93367633D01*
X139152891Y-93357308D01*
X139146485Y-93350446D01*
X139142594Y-93348411D01*
X139128315Y-93331976D01*
X139126903Y-93330029D01*
X139094744Y-93281899D01*
X140726322Y-93281899D01*
X140755163Y-93426886D01*
X140755166Y-93426896D01*
X140811735Y-93563467D01*
X140811742Y-93563480D01*
X140893871Y-93686394D01*
X140893874Y-93686398D01*
X140998406Y-93790930D01*
X141121214Y-93872987D01*
X141166019Y-93926599D01*
X141176323Y-93976089D01*
X141176323Y-94136825D01*
X141207084Y-94291468D01*
X141207087Y-94291480D01*
X141267425Y-94437151D01*
X141267432Y-94437164D01*
X141355033Y-94568267D01*
X141355036Y-94568271D01*
X141466530Y-94679765D01*
X141466534Y-94679768D01*
X141597637Y-94767369D01*
X141597641Y-94767371D01*
X141597644Y-94767373D01*
X141597649Y-94767375D01*
X141600168Y-94768419D01*
X141601283Y-94769318D01*
X141603014Y-94770243D01*
X141602838Y-94770571D01*
X141654570Y-94812261D01*
X141676634Y-94878555D01*
X141659354Y-94946254D01*
X141608216Y-94993864D01*
X141600168Y-94997539D01*
X141597649Y-94998582D01*
X141597637Y-94998588D01*
X141466534Y-95086189D01*
X141466530Y-95086192D01*
X141355036Y-95197686D01*
X141355033Y-95197690D01*
X141267432Y-95328793D01*
X141267425Y-95328806D01*
X141207087Y-95474477D01*
X141207084Y-95474489D01*
X141176323Y-95629132D01*
X141176323Y-95786825D01*
X141207084Y-95941468D01*
X141207087Y-95941480D01*
X141267425Y-96087151D01*
X141267432Y-96087164D01*
X141355033Y-96218267D01*
X141355036Y-96218271D01*
X141466530Y-96329765D01*
X141466534Y-96329768D01*
X141597637Y-96417369D01*
X141597650Y-96417376D01*
X141743321Y-96477714D01*
X141743326Y-96477716D01*
X141897976Y-96508478D01*
X141897979Y-96508479D01*
X141897981Y-96508479D01*
X142055667Y-96508479D01*
X142055668Y-96508478D01*
X142210320Y-96477716D01*
X142356002Y-96417373D01*
X142413234Y-96379132D01*
X158176323Y-96379132D01*
X158176323Y-96536825D01*
X158207084Y-96691468D01*
X158207087Y-96691480D01*
X158267425Y-96837151D01*
X158267432Y-96837164D01*
X158355033Y-96968267D01*
X158355036Y-96968271D01*
X158466530Y-97079765D01*
X158466534Y-97079768D01*
X158597637Y-97167369D01*
X158597650Y-97167376D01*
X158698047Y-97208961D01*
X158743326Y-97227716D01*
X158897976Y-97258478D01*
X158897979Y-97258479D01*
X158897981Y-97258479D01*
X159055667Y-97258479D01*
X159055668Y-97258478D01*
X159210320Y-97227716D01*
X159356002Y-97167373D01*
X159487112Y-97079768D01*
X159598612Y-96968268D01*
X159686217Y-96837158D01*
X159746560Y-96691476D01*
X159777323Y-96536821D01*
X159777323Y-96379137D01*
X159777323Y-96379134D01*
X159777322Y-96379132D01*
X159746561Y-96224489D01*
X159746560Y-96224482D01*
X159734683Y-96195807D01*
X159686220Y-96078806D01*
X159686213Y-96078793D01*
X159598612Y-95947690D01*
X159598609Y-95947686D01*
X159487115Y-95836192D01*
X159487111Y-95836189D01*
X159356008Y-95748588D01*
X159355995Y-95748581D01*
X159210324Y-95688243D01*
X159210312Y-95688240D01*
X159055668Y-95657479D01*
X159055665Y-95657479D01*
X158897981Y-95657479D01*
X158897978Y-95657479D01*
X158743333Y-95688240D01*
X158743321Y-95688243D01*
X158597650Y-95748581D01*
X158597637Y-95748588D01*
X158466534Y-95836189D01*
X158466530Y-95836192D01*
X158355036Y-95947686D01*
X158355033Y-95947690D01*
X158267432Y-96078793D01*
X158267425Y-96078806D01*
X158207087Y-96224477D01*
X158207084Y-96224489D01*
X158176323Y-96379132D01*
X142413234Y-96379132D01*
X142487112Y-96329768D01*
X142487115Y-96329765D01*
X142531517Y-96285364D01*
X142598609Y-96218271D01*
X142598612Y-96218268D01*
X142686217Y-96087158D01*
X142689677Y-96078806D01*
X142715237Y-96017097D01*
X142746560Y-95941476D01*
X142777323Y-95786821D01*
X142777323Y-95629137D01*
X142777323Y-95629134D01*
X142777322Y-95629132D01*
X142749060Y-95487051D01*
X142746560Y-95474482D01*
X142746558Y-95474477D01*
X142686220Y-95328806D01*
X142686213Y-95328793D01*
X142598612Y-95197690D01*
X142598609Y-95197686D01*
X142487112Y-95086189D01*
X142473002Y-95076762D01*
X142356002Y-94998585D01*
X142343206Y-94993284D01*
X142333857Y-94987272D01*
X142326808Y-94979132D01*
X153326323Y-94979132D01*
X153326323Y-95136825D01*
X153357084Y-95291468D01*
X153357087Y-95291480D01*
X153417425Y-95437151D01*
X153417432Y-95437164D01*
X153505033Y-95568267D01*
X153505036Y-95568271D01*
X153616530Y-95679765D01*
X153616534Y-95679768D01*
X153747637Y-95767369D01*
X153747650Y-95767376D01*
X153802688Y-95790173D01*
X153893326Y-95827716D01*
X154047976Y-95858478D01*
X154047979Y-95858479D01*
X154047981Y-95858479D01*
X154205667Y-95858479D01*
X154205668Y-95858478D01*
X154360320Y-95827716D01*
X154506002Y-95767373D01*
X154637112Y-95679768D01*
X154748612Y-95568268D01*
X154836217Y-95437158D01*
X154896560Y-95291476D01*
X154927323Y-95136821D01*
X154927323Y-94979137D01*
X154927323Y-94979134D01*
X154927322Y-94979132D01*
X154919188Y-94938242D01*
X154896560Y-94824482D01*
X154874094Y-94770243D01*
X154836220Y-94678806D01*
X154836213Y-94678793D01*
X154748612Y-94547690D01*
X154748609Y-94547686D01*
X154637115Y-94436192D01*
X154637111Y-94436189D01*
X154506008Y-94348588D01*
X154505995Y-94348581D01*
X154360324Y-94288243D01*
X154360312Y-94288240D01*
X154205668Y-94257479D01*
X154205665Y-94257479D01*
X154047981Y-94257479D01*
X154047978Y-94257479D01*
X153893333Y-94288240D01*
X153893321Y-94288243D01*
X153747650Y-94348581D01*
X153747637Y-94348588D01*
X153616534Y-94436189D01*
X153616530Y-94436192D01*
X153505036Y-94547686D01*
X153505033Y-94547690D01*
X153417432Y-94678793D01*
X153417425Y-94678806D01*
X153357087Y-94824477D01*
X153357084Y-94824489D01*
X153326323Y-94979132D01*
X142326808Y-94979132D01*
X142317971Y-94968926D01*
X142299078Y-94953702D01*
X142295511Y-94942988D01*
X142288120Y-94934452D01*
X142284674Y-94910431D01*
X142277011Y-94887408D01*
X142279803Y-94876467D01*
X142278200Y-94865290D01*
X142288288Y-94843219D01*
X142294289Y-94819708D01*
X142302552Y-94812014D01*
X142307247Y-94801744D01*
X142327667Y-94788630D01*
X142345425Y-94772097D01*
X142353482Y-94768417D01*
X142354045Y-94768183D01*
X142356002Y-94767373D01*
X142487112Y-94679768D01*
X142598612Y-94568268D01*
X142686217Y-94437158D01*
X142746560Y-94291476D01*
X142777323Y-94136821D01*
X142777323Y-93979137D01*
X142777323Y-93979134D01*
X142777322Y-93979132D01*
X142776717Y-93976089D01*
X142746560Y-93824482D01*
X142741667Y-93812670D01*
X142686220Y-93678806D01*
X142686213Y-93678793D01*
X142598612Y-93547690D01*
X142598609Y-93547686D01*
X142487115Y-93436192D01*
X142487111Y-93436189D01*
X142356008Y-93348588D01*
X142355999Y-93348583D01*
X142303870Y-93326991D01*
X142249467Y-93283150D01*
X142227402Y-93216856D01*
X142227323Y-93212430D01*
X142227323Y-93134058D01*
X142198482Y-92989071D01*
X142198481Y-92989070D01*
X142198481Y-92989066D01*
X142178766Y-92941470D01*
X142141910Y-92852490D01*
X142141903Y-92852477D01*
X142059774Y-92729563D01*
X142059771Y-92729559D01*
X141955242Y-92625030D01*
X141955238Y-92625027D01*
X141832324Y-92542898D01*
X141832311Y-92542891D01*
X141695740Y-92486322D01*
X141695730Y-92486319D01*
X141550743Y-92457479D01*
X141550741Y-92457479D01*
X141402905Y-92457479D01*
X141402903Y-92457479D01*
X141257915Y-92486319D01*
X141257905Y-92486322D01*
X141121334Y-92542891D01*
X141121321Y-92542898D01*
X140998407Y-92625027D01*
X140998403Y-92625030D01*
X140893874Y-92729559D01*
X140893871Y-92729563D01*
X140811742Y-92852477D01*
X140811735Y-92852490D01*
X140755166Y-92989061D01*
X140755163Y-92989071D01*
X140726323Y-93134058D01*
X140726323Y-93134061D01*
X140726323Y-93281897D01*
X140726323Y-93281899D01*
X140726322Y-93281899D01*
X139094744Y-93281899D01*
X139059774Y-93229563D01*
X139038924Y-93208713D01*
X139038922Y-93208710D01*
X138955242Y-93125030D01*
X138955238Y-93125027D01*
X138832324Y-93042898D01*
X138832311Y-93042891D01*
X138695740Y-92986322D01*
X138695730Y-92986319D01*
X138550743Y-92957479D01*
X138550741Y-92957479D01*
X138402905Y-92957479D01*
X138402903Y-92957479D01*
X138257915Y-92986319D01*
X138257905Y-92986322D01*
X138121334Y-93042891D01*
X138121321Y-93042898D01*
X137998407Y-93125027D01*
X137998403Y-93125030D01*
X137893874Y-93229559D01*
X137893871Y-93229563D01*
X137811742Y-93352477D01*
X137811735Y-93352490D01*
X137755166Y-93489061D01*
X137755163Y-93489071D01*
X137726323Y-93634058D01*
X137726323Y-93634061D01*
X137726323Y-93781897D01*
X137726323Y-93781899D01*
X137726322Y-93781899D01*
X129752790Y-93781899D01*
X129824179Y-93752329D01*
X129955289Y-93664724D01*
X130066789Y-93553224D01*
X130154394Y-93422114D01*
X130156360Y-93417369D01*
X130184851Y-93348583D01*
X130214737Y-93276432D01*
X130245500Y-93121777D01*
X130245500Y-92964093D01*
X130245500Y-92964090D01*
X130245499Y-92964088D01*
X130233196Y-92902238D01*
X130214737Y-92809438D01*
X130193760Y-92758795D01*
X130154397Y-92663762D01*
X130154390Y-92663749D01*
X130066789Y-92532646D01*
X130066786Y-92532642D01*
X129955297Y-92421153D01*
X130594500Y-92421153D01*
X130594500Y-92578846D01*
X130625261Y-92733489D01*
X130625264Y-92733501D01*
X130685602Y-92879172D01*
X130685609Y-92879185D01*
X130773210Y-93010288D01*
X130773213Y-93010292D01*
X130884707Y-93121786D01*
X130884711Y-93121789D01*
X131015814Y-93209390D01*
X131015827Y-93209397D01*
X131161498Y-93269735D01*
X131161503Y-93269737D01*
X131284813Y-93294265D01*
X131316153Y-93300499D01*
X131316156Y-93300500D01*
X131316158Y-93300500D01*
X131473844Y-93300500D01*
X131473845Y-93300499D01*
X131628497Y-93269737D01*
X131756164Y-93216856D01*
X131774172Y-93209397D01*
X131774172Y-93209396D01*
X131774179Y-93209394D01*
X131905289Y-93121789D01*
X132016789Y-93010289D01*
X132104394Y-92879179D01*
X132122584Y-92835263D01*
X132166424Y-92780861D01*
X132232717Y-92758795D01*
X132300417Y-92776073D01*
X132348028Y-92827210D01*
X132358762Y-92858524D01*
X132375261Y-92941470D01*
X132375264Y-92941480D01*
X132435602Y-93087151D01*
X132435609Y-93087164D01*
X132523210Y-93218267D01*
X132523213Y-93218271D01*
X132634707Y-93329765D01*
X132634711Y-93329768D01*
X132765814Y-93417369D01*
X132765827Y-93417376D01*
X132911498Y-93477714D01*
X132911503Y-93477716D01*
X133066153Y-93508478D01*
X133066156Y-93508479D01*
X133066158Y-93508479D01*
X133223844Y-93508479D01*
X133223845Y-93508478D01*
X133378497Y-93477716D01*
X133524179Y-93417373D01*
X133655289Y-93329768D01*
X133766789Y-93218268D01*
X133854394Y-93087158D01*
X133869754Y-93050076D01*
X134494499Y-93050076D01*
X134523340Y-93195063D01*
X134523343Y-93195073D01*
X134579912Y-93331644D01*
X134579919Y-93331657D01*
X134662048Y-93454571D01*
X134662051Y-93454575D01*
X134766580Y-93559104D01*
X134766584Y-93559107D01*
X134889498Y-93641236D01*
X134889511Y-93641243D01*
X134998519Y-93686395D01*
X135026087Y-93697814D01*
X135026091Y-93697814D01*
X135026092Y-93697815D01*
X135171079Y-93726656D01*
X135171082Y-93726656D01*
X135318920Y-93726656D01*
X135416462Y-93707252D01*
X135463913Y-93697814D01*
X135600495Y-93641240D01*
X135723416Y-93559107D01*
X135729300Y-93553223D01*
X135742236Y-93540288D01*
X135827948Y-93454575D01*
X135827951Y-93454572D01*
X135910084Y-93331651D01*
X135966658Y-93195069D01*
X135988122Y-93087164D01*
X135995500Y-93050076D01*
X135995500Y-92902235D01*
X135966659Y-92757248D01*
X135966658Y-92757247D01*
X135966658Y-92757243D01*
X135927937Y-92663762D01*
X135910087Y-92620667D01*
X135910080Y-92620654D01*
X135827951Y-92497740D01*
X135827948Y-92497736D01*
X135723419Y-92393207D01*
X135723415Y-92393204D01*
X135600501Y-92311075D01*
X135600488Y-92311068D01*
X135463917Y-92254499D01*
X135463907Y-92254496D01*
X135318920Y-92225656D01*
X135318918Y-92225656D01*
X135171082Y-92225656D01*
X135171080Y-92225656D01*
X135026092Y-92254496D01*
X135026082Y-92254499D01*
X134889511Y-92311068D01*
X134889498Y-92311075D01*
X134766584Y-92393204D01*
X134766580Y-92393207D01*
X134662051Y-92497736D01*
X134662048Y-92497740D01*
X134579919Y-92620654D01*
X134579912Y-92620667D01*
X134523343Y-92757238D01*
X134523340Y-92757248D01*
X134494500Y-92902235D01*
X134494500Y-92902238D01*
X134494500Y-93050074D01*
X134494500Y-93050076D01*
X134494499Y-93050076D01*
X133869754Y-93050076D01*
X133914737Y-92941476D01*
X133945500Y-92786821D01*
X133945500Y-92629137D01*
X133945500Y-92629134D01*
X133945499Y-92629132D01*
X133928344Y-92542891D01*
X133914737Y-92474482D01*
X133909408Y-92461616D01*
X133854397Y-92328806D01*
X133854390Y-92328793D01*
X133766789Y-92197690D01*
X133766786Y-92197686D01*
X133655292Y-92086192D01*
X133655288Y-92086189D01*
X133573921Y-92031821D01*
X133529116Y-91978209D01*
X133520409Y-91908884D01*
X133550564Y-91845856D01*
X133555131Y-91841037D01*
X133555235Y-91840932D01*
X133555239Y-91840930D01*
X133659774Y-91736395D01*
X133741907Y-91613474D01*
X133798481Y-91476892D01*
X133819134Y-91373066D01*
X133827323Y-91331899D01*
X133827323Y-91184062D01*
X133819998Y-91147236D01*
X133819998Y-91147233D01*
X133816397Y-91129132D01*
X135888813Y-91129132D01*
X135888813Y-91286825D01*
X135919574Y-91441468D01*
X135919577Y-91441480D01*
X135979915Y-91587151D01*
X135979922Y-91587164D01*
X136067523Y-91718267D01*
X136067526Y-91718271D01*
X136179020Y-91829765D01*
X136179024Y-91829768D01*
X136310127Y-91917369D01*
X136310140Y-91917376D01*
X136455328Y-91977514D01*
X136455816Y-91977716D01*
X136560731Y-91998585D01*
X136610466Y-92008478D01*
X136610469Y-92008479D01*
X136610471Y-92008479D01*
X136768157Y-92008479D01*
X136768158Y-92008478D01*
X136922810Y-91977716D01*
X136981497Y-91953406D01*
X137012002Y-91950127D01*
X137042204Y-91944678D01*
X137048273Y-91946227D01*
X137050965Y-91945938D01*
X137076399Y-91953406D01*
X137155766Y-91986281D01*
X137155767Y-91986281D01*
X137160921Y-91988416D01*
X137215325Y-92032257D01*
X137217155Y-92035250D01*
X137217183Y-92035232D01*
X137308168Y-92171401D01*
X137308174Y-92171409D01*
X137419668Y-92282903D01*
X137419672Y-92282906D01*
X137550775Y-92370507D01*
X137550788Y-92370514D01*
X137687447Y-92427119D01*
X137696464Y-92430854D01*
X137851114Y-92461616D01*
X137851117Y-92461617D01*
X137851119Y-92461617D01*
X138008805Y-92461617D01*
X138008806Y-92461616D01*
X138163458Y-92430854D01*
X138276127Y-92384184D01*
X138309133Y-92370514D01*
X138309133Y-92370513D01*
X138309140Y-92370511D01*
X138440250Y-92282906D01*
X138551750Y-92171406D01*
X138639355Y-92040296D01*
X138642866Y-92031821D01*
X138665360Y-91977514D01*
X138699698Y-91894614D01*
X138730461Y-91739959D01*
X138730461Y-91582275D01*
X138730461Y-91582272D01*
X138730460Y-91582270D01*
X138719245Y-91525889D01*
X138699698Y-91427620D01*
X138677100Y-91373063D01*
X138639358Y-91281944D01*
X138639351Y-91281931D01*
X138551750Y-91150828D01*
X138551747Y-91150824D01*
X138440253Y-91039330D01*
X138440249Y-91039327D01*
X138309146Y-90951726D01*
X138309137Y-90951721D01*
X138158302Y-90889244D01*
X138143690Y-90877469D01*
X138126465Y-90870020D01*
X138111196Y-90851283D01*
X138103899Y-90845403D01*
X138102817Y-90843819D01*
X138098938Y-90838043D01*
X138098657Y-90837365D01*
X138061596Y-90781899D01*
X148226322Y-90781899D01*
X148255163Y-90926886D01*
X148255166Y-90926896D01*
X148311735Y-91063467D01*
X148311742Y-91063480D01*
X148393871Y-91186394D01*
X148393874Y-91186398D01*
X148498403Y-91290927D01*
X148498407Y-91290930D01*
X148621321Y-91373059D01*
X148621334Y-91373066D01*
X148753057Y-91427627D01*
X148757910Y-91429637D01*
X148757914Y-91429637D01*
X148757915Y-91429638D01*
X148902902Y-91458479D01*
X148902905Y-91458479D01*
X149050743Y-91458479D01*
X149148285Y-91439075D01*
X149195736Y-91429637D01*
X149332318Y-91373063D01*
X149455239Y-91290930D01*
X149559774Y-91186395D01*
X149641907Y-91063474D01*
X149678771Y-90974477D01*
X149685928Y-90957198D01*
X149685928Y-90957197D01*
X149698481Y-90926892D01*
X149715006Y-90843819D01*
X149727323Y-90781899D01*
X149727323Y-90634058D01*
X149727322Y-90634056D01*
X149719653Y-90595498D01*
X149708211Y-90537978D01*
X189777938Y-90537978D01*
X189777939Y-90537979D01*
X190529835Y-90537979D01*
X190512618Y-90547919D01*
X190456763Y-90603774D01*
X190417267Y-90672183D01*
X190396823Y-90748483D01*
X190396823Y-90827475D01*
X190417267Y-90903775D01*
X190456763Y-90972184D01*
X190512618Y-91028039D01*
X190529835Y-91037979D01*
X189777939Y-91037979D01*
X189783329Y-91065079D01*
X189783330Y-91065082D01*
X189854942Y-91237970D01*
X189854947Y-91237979D01*
X189958909Y-91393568D01*
X189958912Y-91393572D01*
X190091229Y-91525889D01*
X190091233Y-91525892D01*
X190246822Y-91629854D01*
X190246831Y-91629859D01*
X190419717Y-91701470D01*
X190419725Y-91701472D01*
X190603251Y-91737978D01*
X190603254Y-91737979D01*
X190996823Y-91737979D01*
X190996823Y-91087979D01*
X191496823Y-91087979D01*
X191496823Y-91737979D01*
X191497816Y-91738972D01*
X191561472Y-91757664D01*
X191607227Y-91810468D01*
X191617171Y-91879626D01*
X191588146Y-91943182D01*
X191556432Y-91969366D01*
X191542318Y-91977514D01*
X191542310Y-91977520D01*
X191486364Y-92033466D01*
X191486358Y-92033474D01*
X191446805Y-92101983D01*
X191446802Y-92101988D01*
X191433149Y-92152941D01*
X191426323Y-92178417D01*
X191426323Y-92257541D01*
X191430519Y-92273199D01*
X191446802Y-92333969D01*
X191446805Y-92333974D01*
X191486358Y-92402483D01*
X191486362Y-92402488D01*
X191486363Y-92402490D01*
X191542312Y-92458439D01*
X191542314Y-92458440D01*
X191542318Y-92458443D01*
X191590605Y-92486321D01*
X191610834Y-92498000D01*
X191687261Y-92518479D01*
X191687263Y-92518479D01*
X191766383Y-92518479D01*
X191766385Y-92518479D01*
X191842812Y-92498000D01*
X191911334Y-92458439D01*
X191967283Y-92402490D01*
X192006844Y-92333968D01*
X192027323Y-92257541D01*
X192027323Y-92178417D01*
X192006844Y-92101990D01*
X191981764Y-92058550D01*
X191967287Y-92033474D01*
X191967281Y-92033466D01*
X191911335Y-91977520D01*
X191911330Y-91977516D01*
X191882707Y-91960991D01*
X191834492Y-91910425D01*
X191821268Y-91841818D01*
X191847236Y-91776953D01*
X191904150Y-91736424D01*
X191920516Y-91731987D01*
X192073920Y-91701472D01*
X192073928Y-91701470D01*
X192246814Y-91629859D01*
X192246823Y-91629854D01*
X192402412Y-91525892D01*
X192402416Y-91525889D01*
X192534733Y-91393572D01*
X192534736Y-91393568D01*
X192638698Y-91237979D01*
X192638703Y-91237970D01*
X192710315Y-91065082D01*
X192710316Y-91065079D01*
X192715707Y-91037979D01*
X191963811Y-91037979D01*
X191981028Y-91028039D01*
X192036883Y-90972184D01*
X192076379Y-90903775D01*
X192096823Y-90827475D01*
X192096823Y-90748483D01*
X192076379Y-90672183D01*
X192036883Y-90603774D01*
X191981028Y-90547919D01*
X191963811Y-90537979D01*
X192715707Y-90537979D01*
X192715707Y-90537978D01*
X194097938Y-90537978D01*
X194097939Y-90537979D01*
X194849835Y-90537979D01*
X194832618Y-90547919D01*
X194776763Y-90603774D01*
X194737267Y-90672183D01*
X194716823Y-90748483D01*
X194716823Y-90827475D01*
X194737267Y-90903775D01*
X194776763Y-90972184D01*
X194832618Y-91028039D01*
X194849835Y-91037979D01*
X194097939Y-91037979D01*
X194103329Y-91065079D01*
X194103330Y-91065082D01*
X194174942Y-91237970D01*
X194174947Y-91237979D01*
X194278909Y-91393568D01*
X194278912Y-91393572D01*
X194411229Y-91525889D01*
X194411233Y-91525892D01*
X194566822Y-91629854D01*
X194566831Y-91629859D01*
X194739717Y-91701470D01*
X194739725Y-91701472D01*
X194923251Y-91737978D01*
X194923254Y-91737979D01*
X195166823Y-91737979D01*
X195166823Y-91087979D01*
X195666823Y-91087979D01*
X195666823Y-91737979D01*
X195910392Y-91737979D01*
X195910394Y-91737978D01*
X196093920Y-91701472D01*
X196093928Y-91701470D01*
X196266814Y-91629859D01*
X196266823Y-91629854D01*
X196422412Y-91525892D01*
X196422416Y-91525889D01*
X196554733Y-91393572D01*
X196554736Y-91393568D01*
X196658698Y-91237979D01*
X196658703Y-91237970D01*
X196730315Y-91065082D01*
X196730316Y-91065079D01*
X196735707Y-91037979D01*
X195983811Y-91037979D01*
X196001028Y-91028039D01*
X196056883Y-90972184D01*
X196096379Y-90903775D01*
X196116823Y-90827475D01*
X196116823Y-90748483D01*
X196096379Y-90672183D01*
X196056883Y-90603774D01*
X196001028Y-90547919D01*
X195983811Y-90537979D01*
X196735707Y-90537979D01*
X196735707Y-90537978D01*
X196730316Y-90510878D01*
X196730315Y-90510875D01*
X196658703Y-90337987D01*
X196658698Y-90337978D01*
X196554736Y-90182389D01*
X196554733Y-90182385D01*
X196422416Y-90050068D01*
X196422412Y-90050065D01*
X196266823Y-89946103D01*
X196266814Y-89946098D01*
X196093928Y-89874487D01*
X196093920Y-89874485D01*
X195910393Y-89837979D01*
X195666823Y-89837979D01*
X195666823Y-90487979D01*
X195166823Y-90487979D01*
X195166823Y-89837979D01*
X194923253Y-89837979D01*
X194739725Y-89874485D01*
X194739717Y-89874487D01*
X194566831Y-89946098D01*
X194566822Y-89946103D01*
X194411233Y-90050065D01*
X194411229Y-90050068D01*
X194278912Y-90182385D01*
X194278909Y-90182389D01*
X194174947Y-90337978D01*
X194174942Y-90337987D01*
X194103330Y-90510875D01*
X194103329Y-90510878D01*
X194097938Y-90537978D01*
X192715707Y-90537978D01*
X192710316Y-90510878D01*
X192710315Y-90510875D01*
X192638703Y-90337987D01*
X192638698Y-90337978D01*
X192534736Y-90182389D01*
X192534733Y-90182385D01*
X192402416Y-90050068D01*
X192402412Y-90050065D01*
X192246823Y-89946103D01*
X192246814Y-89946098D01*
X192073928Y-89874487D01*
X192073920Y-89874485D01*
X191890393Y-89837979D01*
X191496823Y-89837979D01*
X191496823Y-90487979D01*
X190996823Y-90487979D01*
X190996823Y-89837979D01*
X190603253Y-89837979D01*
X190419725Y-89874485D01*
X190419717Y-89874487D01*
X190246831Y-89946098D01*
X190246822Y-89946103D01*
X190091233Y-90050065D01*
X190091229Y-90050068D01*
X189958912Y-90182385D01*
X189958909Y-90182389D01*
X189854947Y-90337978D01*
X189854942Y-90337987D01*
X189783330Y-90510875D01*
X189783329Y-90510878D01*
X189777938Y-90537978D01*
X149708211Y-90537978D01*
X149698482Y-90489071D01*
X149698481Y-90489070D01*
X149698481Y-90489066D01*
X149694138Y-90478582D01*
X149641910Y-90352490D01*
X149641903Y-90352477D01*
X149559774Y-90229563D01*
X149559771Y-90229559D01*
X149455242Y-90125030D01*
X149455238Y-90125027D01*
X149332324Y-90042898D01*
X149332311Y-90042891D01*
X149195740Y-89986322D01*
X149195730Y-89986319D01*
X149050743Y-89957479D01*
X149050741Y-89957479D01*
X148902905Y-89957479D01*
X148902903Y-89957479D01*
X148757915Y-89986319D01*
X148757905Y-89986322D01*
X148621334Y-90042891D01*
X148621321Y-90042898D01*
X148498407Y-90125027D01*
X148498403Y-90125030D01*
X148393874Y-90229559D01*
X148393871Y-90229563D01*
X148311742Y-90352477D01*
X148311735Y-90352490D01*
X148255166Y-90489061D01*
X148255163Y-90489071D01*
X148226323Y-90634058D01*
X148226323Y-90634061D01*
X148226323Y-90781897D01*
X148226323Y-90781899D01*
X148226322Y-90781899D01*
X138061596Y-90781899D01*
X138011052Y-90706255D01*
X138009140Y-90704343D01*
X138009138Y-90704340D01*
X137899555Y-90594757D01*
X137899551Y-90594754D01*
X137768448Y-90507153D01*
X137768435Y-90507146D01*
X137622764Y-90446808D01*
X137622752Y-90446805D01*
X137468108Y-90416044D01*
X137468105Y-90416044D01*
X137310421Y-90416044D01*
X137310418Y-90416044D01*
X137155768Y-90446805D01*
X137155760Y-90446808D01*
X137097075Y-90471115D01*
X137027605Y-90478582D01*
X137002174Y-90471115D01*
X136971667Y-90458479D01*
X136922810Y-90438242D01*
X136922806Y-90438241D01*
X136922801Y-90438239D01*
X136768158Y-90407479D01*
X136768155Y-90407479D01*
X136610471Y-90407479D01*
X136610468Y-90407479D01*
X136455823Y-90438240D01*
X136455811Y-90438243D01*
X136310140Y-90498581D01*
X136310127Y-90498588D01*
X136179024Y-90586189D01*
X136179020Y-90586192D01*
X136067526Y-90697686D01*
X136067523Y-90697690D01*
X135979922Y-90828793D01*
X135979915Y-90828806D01*
X135919577Y-90974477D01*
X135919574Y-90974489D01*
X135888813Y-91129132D01*
X133816397Y-91129132D01*
X133798482Y-91039071D01*
X133798481Y-91039070D01*
X133798481Y-91039066D01*
X133798031Y-91037979D01*
X133741910Y-90902490D01*
X133741903Y-90902477D01*
X133659774Y-90779563D01*
X133659771Y-90779559D01*
X133555242Y-90675030D01*
X133555238Y-90675027D01*
X133432324Y-90592898D01*
X133432311Y-90592891D01*
X133295740Y-90536322D01*
X133295730Y-90536319D01*
X133150743Y-90507479D01*
X133150741Y-90507479D01*
X133002905Y-90507479D01*
X133002903Y-90507479D01*
X132857915Y-90536319D01*
X132857905Y-90536322D01*
X132721334Y-90592891D01*
X132721321Y-90592898D01*
X132598407Y-90675027D01*
X132598403Y-90675030D01*
X132493874Y-90779559D01*
X132493871Y-90779563D01*
X132411742Y-90902477D01*
X132411735Y-90902490D01*
X132355166Y-91039061D01*
X132355163Y-91039071D01*
X132326323Y-91184058D01*
X132326323Y-91184061D01*
X132326323Y-91331897D01*
X132326323Y-91331899D01*
X132326322Y-91331899D01*
X132355163Y-91476886D01*
X132355166Y-91476896D01*
X132411735Y-91613467D01*
X132411742Y-91613480D01*
X132493871Y-91736394D01*
X132493874Y-91736398D01*
X132598404Y-91840928D01*
X132598407Y-91840930D01*
X132645784Y-91872586D01*
X132690588Y-91926197D01*
X132699296Y-91995522D01*
X132669142Y-92058550D01*
X132645788Y-92078787D01*
X132634715Y-92086186D01*
X132634707Y-92086192D01*
X132523213Y-92197686D01*
X132523210Y-92197690D01*
X132435609Y-92328793D01*
X132435606Y-92328800D01*
X132417415Y-92372716D01*
X132373573Y-92427119D01*
X132307279Y-92449183D01*
X132239579Y-92431903D01*
X132191969Y-92380765D01*
X132181237Y-92349453D01*
X132173602Y-92311072D01*
X132164737Y-92266503D01*
X132159765Y-92254499D01*
X132104397Y-92120827D01*
X132104390Y-92120814D01*
X132016789Y-91989711D01*
X132016786Y-91989707D01*
X131905292Y-91878213D01*
X131905288Y-91878210D01*
X131774185Y-91790609D01*
X131774172Y-91790602D01*
X131628501Y-91730264D01*
X131628489Y-91730261D01*
X131473845Y-91699500D01*
X131473842Y-91699500D01*
X131316158Y-91699500D01*
X131316155Y-91699500D01*
X131161510Y-91730261D01*
X131161498Y-91730264D01*
X131015827Y-91790602D01*
X131015814Y-91790609D01*
X130884711Y-91878210D01*
X130884707Y-91878213D01*
X130773213Y-91989707D01*
X130773210Y-91989711D01*
X130685609Y-92120814D01*
X130685602Y-92120827D01*
X130625264Y-92266498D01*
X130625261Y-92266510D01*
X130594500Y-92421153D01*
X129955297Y-92421153D01*
X129955292Y-92421148D01*
X129955288Y-92421145D01*
X129824185Y-92333544D01*
X129824172Y-92333537D01*
X129678501Y-92273199D01*
X129678489Y-92273196D01*
X129523845Y-92242435D01*
X129523842Y-92242435D01*
X129366158Y-92242435D01*
X129366155Y-92242435D01*
X129211510Y-92273196D01*
X129211498Y-92273199D01*
X129065827Y-92333537D01*
X129065814Y-92333544D01*
X128934711Y-92421145D01*
X128934707Y-92421148D01*
X128823213Y-92532642D01*
X128823210Y-92532646D01*
X128735609Y-92663749D01*
X128735602Y-92663762D01*
X128675264Y-92809433D01*
X128675261Y-92809445D01*
X128644500Y-92964088D01*
X95477323Y-92964088D01*
X95477323Y-89781899D01*
X144726322Y-89781899D01*
X144755163Y-89926886D01*
X144755166Y-89926896D01*
X144811735Y-90063467D01*
X144811742Y-90063480D01*
X144893871Y-90186394D01*
X144893874Y-90186398D01*
X144998403Y-90290927D01*
X144998407Y-90290930D01*
X145121321Y-90373059D01*
X145121334Y-90373066D01*
X145257905Y-90429635D01*
X145257910Y-90429637D01*
X145257914Y-90429637D01*
X145257915Y-90429638D01*
X145402902Y-90458479D01*
X145402905Y-90458479D01*
X145550743Y-90458479D01*
X145652492Y-90438239D01*
X145695736Y-90429637D01*
X145832318Y-90373063D01*
X145955239Y-90290930D01*
X146059774Y-90186395D01*
X146141907Y-90063474D01*
X146198481Y-89926892D01*
X146227323Y-89781897D01*
X146227323Y-89634061D01*
X146227323Y-89634058D01*
X146198482Y-89489071D01*
X146198481Y-89489070D01*
X146198481Y-89489066D01*
X146198479Y-89489061D01*
X146141910Y-89352490D01*
X146141903Y-89352477D01*
X146059774Y-89229563D01*
X146059771Y-89229559D01*
X145955242Y-89125030D01*
X145955238Y-89125027D01*
X145832324Y-89042898D01*
X145832311Y-89042891D01*
X145695740Y-88986322D01*
X145695730Y-88986319D01*
X145550743Y-88957479D01*
X145550741Y-88957479D01*
X145402905Y-88957479D01*
X145402903Y-88957479D01*
X145257915Y-88986319D01*
X145257905Y-88986322D01*
X145121334Y-89042891D01*
X145121321Y-89042898D01*
X144998407Y-89125027D01*
X144998403Y-89125030D01*
X144893874Y-89229559D01*
X144893871Y-89229563D01*
X144811742Y-89352477D01*
X144811735Y-89352490D01*
X144755166Y-89489061D01*
X144755163Y-89489071D01*
X144726323Y-89634058D01*
X144726323Y-89634061D01*
X144726323Y-89781897D01*
X144726323Y-89781899D01*
X144726322Y-89781899D01*
X95477323Y-89781899D01*
X95477323Y-88229132D01*
X154776323Y-88229132D01*
X154776323Y-88386825D01*
X154807084Y-88541468D01*
X154807087Y-88541480D01*
X154867425Y-88687151D01*
X154867432Y-88687164D01*
X154955033Y-88818267D01*
X154955036Y-88818271D01*
X155066530Y-88929765D01*
X155066534Y-88929768D01*
X155197637Y-89017369D01*
X155197650Y-89017376D01*
X155343321Y-89077714D01*
X155343326Y-89077716D01*
X155497976Y-89108478D01*
X155497979Y-89108479D01*
X155497981Y-89108479D01*
X155655667Y-89108479D01*
X155655668Y-89108478D01*
X155810320Y-89077716D01*
X155956002Y-89017373D01*
X156087112Y-88929768D01*
X156198612Y-88818268D01*
X156286217Y-88687158D01*
X156346560Y-88541476D01*
X156377323Y-88386821D01*
X156377323Y-88229137D01*
X156377323Y-88229134D01*
X156377322Y-88229132D01*
X156346561Y-88074489D01*
X156346560Y-88074482D01*
X156346558Y-88074477D01*
X156286220Y-87928806D01*
X156286213Y-87928793D01*
X156198612Y-87797690D01*
X156198609Y-87797686D01*
X156087115Y-87686192D01*
X156087111Y-87686189D01*
X155956008Y-87598588D01*
X155955995Y-87598581D01*
X155810324Y-87538243D01*
X155810312Y-87538240D01*
X155655668Y-87507479D01*
X155655665Y-87507479D01*
X155497981Y-87507479D01*
X155497978Y-87507479D01*
X155343333Y-87538240D01*
X155343321Y-87538243D01*
X155197650Y-87598581D01*
X155197637Y-87598588D01*
X155066534Y-87686189D01*
X155066530Y-87686192D01*
X154955036Y-87797686D01*
X154955033Y-87797690D01*
X154867432Y-87928793D01*
X154867425Y-87928806D01*
X154807087Y-88074477D01*
X154807084Y-88074489D01*
X154776323Y-88229132D01*
X95477323Y-88229132D01*
X95477323Y-85829132D01*
X154776323Y-85829132D01*
X154776323Y-85986825D01*
X154807084Y-86141468D01*
X154807087Y-86141480D01*
X154867425Y-86287151D01*
X154867432Y-86287164D01*
X154955033Y-86418267D01*
X154955036Y-86418271D01*
X155066530Y-86529765D01*
X155066534Y-86529768D01*
X155197637Y-86617369D01*
X155197650Y-86617376D01*
X155343321Y-86677714D01*
X155343326Y-86677716D01*
X155497976Y-86708478D01*
X155497979Y-86708479D01*
X155497981Y-86708479D01*
X155655667Y-86708479D01*
X155655668Y-86708478D01*
X155810320Y-86677716D01*
X155956002Y-86617373D01*
X156087112Y-86529768D01*
X156198612Y-86418268D01*
X156286217Y-86287158D01*
X156346560Y-86141476D01*
X156377323Y-85986821D01*
X156377323Y-85829137D01*
X156377323Y-85829134D01*
X156377322Y-85829132D01*
X156346561Y-85674489D01*
X156346560Y-85674482D01*
X156346558Y-85674477D01*
X156286220Y-85528806D01*
X156286213Y-85528793D01*
X156198612Y-85397690D01*
X156198609Y-85397686D01*
X156087115Y-85286192D01*
X156087111Y-85286189D01*
X155956008Y-85198588D01*
X155955995Y-85198581D01*
X155810324Y-85138243D01*
X155810312Y-85138240D01*
X155655668Y-85107479D01*
X155655665Y-85107479D01*
X155497981Y-85107479D01*
X155497978Y-85107479D01*
X155343333Y-85138240D01*
X155343321Y-85138243D01*
X155197650Y-85198581D01*
X155197637Y-85198588D01*
X155066534Y-85286189D01*
X155066530Y-85286192D01*
X154955036Y-85397686D01*
X154955033Y-85397690D01*
X154867432Y-85528793D01*
X154867425Y-85528806D01*
X154807087Y-85674477D01*
X154807084Y-85674489D01*
X154776323Y-85829132D01*
X95477323Y-85829132D01*
X95477323Y-83832479D01*
X95497008Y-83765440D01*
X95549812Y-83719685D01*
X95601323Y-83708479D01*
X197352323Y-83708479D01*
X197419362Y-83728164D01*
G37*
%TD.AperFunction*%
%TD*%
M02*
