%TF.GenerationSoftware,KiCad,Pcbnew,9.0.6*%
%TF.CreationDate,2026-02-13T20:59:31+01:00*%
%TF.ProjectId,fotaopar_t,666f7461-6f70-4617-92e1-742e6b696361,rev?*%
%TF.SameCoordinates,Original*%
%TF.FileFunction,Copper,L1,Top*%
%TF.FilePolarity,Positive*%
%FSLAX46Y46*%
G04 Gerber Fmt 4.6, Leading zero omitted, Abs format (unit mm)*
G04 Created by KiCad (PCBNEW 9.0.6) date 2026-02-13 20:59:31*
%MOMM*%
%LPD*%
G01*
G04 APERTURE LIST*
G04 Aperture macros list*
%AMRoundRect*
0 Rectangle with rounded corners*
0 $1 Rounding radius*
0 $2 $3 $4 $5 $6 $7 $8 $9 X,Y pos of 4 corners*
0 Add a 4 corners polygon primitive as box body*
4,1,4,$2,$3,$4,$5,$6,$7,$8,$9,$2,$3,0*
0 Add four circle primitives for the rounded corners*
1,1,$1+$1,$2,$3*
1,1,$1+$1,$4,$5*
1,1,$1+$1,$6,$7*
1,1,$1+$1,$8,$9*
0 Add four rect primitives between the rounded corners*
20,1,$1+$1,$2,$3,$4,$5,0*
20,1,$1+$1,$4,$5,$6,$7,0*
20,1,$1+$1,$6,$7,$8,$9,0*
20,1,$1+$1,$8,$9,$2,$3,0*%
%AMRotRect*
0 Rectangle, with rotation*
0 The origin of the aperture is its center*
0 $1 length*
0 $2 width*
0 $3 Rotation angle, in degrees counterclockwise*
0 Add horizontal line*
21,1,$1,$2,0,0,$3*%
G04 Aperture macros list end*
%TA.AperFunction,SMDPad,CuDef*%
%ADD10RoundRect,0.100000X-0.130000X-0.100000X0.130000X-0.100000X0.130000X0.100000X-0.130000X0.100000X0*%
%TD*%
%TA.AperFunction,SMDPad,CuDef*%
%ADD11RoundRect,0.200000X-0.275000X0.200000X-0.275000X-0.200000X0.275000X-0.200000X0.275000X0.200000X0*%
%TD*%
%TA.AperFunction,SMDPad,CuDef*%
%ADD12RoundRect,0.100000X0.100000X-0.130000X0.100000X0.130000X-0.100000X0.130000X-0.100000X-0.130000X0*%
%TD*%
%TA.AperFunction,SMDPad,CuDef*%
%ADD13RoundRect,0.150000X-0.512500X-0.150000X0.512500X-0.150000X0.512500X0.150000X-0.512500X0.150000X0*%
%TD*%
%TA.AperFunction,SMDPad,CuDef*%
%ADD14R,1.400000X0.700000*%
%TD*%
%TA.AperFunction,SMDPad,CuDef*%
%ADD15R,1.200000X0.700000*%
%TD*%
%TA.AperFunction,SMDPad,CuDef*%
%ADD16R,0.800000X1.200000*%
%TD*%
%TA.AperFunction,SMDPad,CuDef*%
%ADD17R,1.900000X1.500000*%
%TD*%
%TA.AperFunction,SMDPad,CuDef*%
%ADD18RotRect,0.200000X0.200000X315.000000*%
%TD*%
%TA.AperFunction,SMDPad,CuDef*%
%ADD19R,0.500000X0.500000*%
%TD*%
%TA.AperFunction,SMDPad,CuDef*%
%ADD20R,1.400000X1.000000*%
%TD*%
%TA.AperFunction,SMDPad,CuDef*%
%ADD21R,1.200000X1.200000*%
%TD*%
%TA.AperFunction,SMDPad,CuDef*%
%ADD22R,3.200000X1.200000*%
%TD*%
%TA.AperFunction,SMDPad,CuDef*%
%ADD23RoundRect,0.375000X1.125000X-0.375000X1.125000X0.375000X-1.125000X0.375000X-1.125000X-0.375000X0*%
%TD*%
%TA.AperFunction,SMDPad,CuDef*%
%ADD24R,0.300000X1.300000*%
%TD*%
%TA.AperFunction,SMDPad,CuDef*%
%ADD25R,1.800000X2.200000*%
%TD*%
%TA.AperFunction,SMDPad,CuDef*%
%ADD26R,0.450000X0.950000*%
%TD*%
%TA.AperFunction,SMDPad,CuDef*%
%ADD27R,4.350000X3.450000*%
%TD*%
%TA.AperFunction,SMDPad,CuDef*%
%ADD28R,1.160000X0.600000*%
%TD*%
%TA.AperFunction,SMDPad,CuDef*%
%ADD29R,1.160000X0.300000*%
%TD*%
%TA.AperFunction,HeatsinkPad*%
%ADD30O,2.000000X0.900000*%
%TD*%
%TA.AperFunction,HeatsinkPad*%
%ADD31O,1.700000X0.900000*%
%TD*%
%TA.AperFunction,SMDPad,CuDef*%
%ADD32R,1.300000X0.300000*%
%TD*%
%TA.AperFunction,SMDPad,CuDef*%
%ADD33R,2.200000X1.800000*%
%TD*%
%TA.AperFunction,SMDPad,CuDef*%
%ADD34RoundRect,0.250000X-0.450000X-0.350000X0.450000X-0.350000X0.450000X0.350000X-0.450000X0.350000X0*%
%TD*%
%TA.AperFunction,SMDPad,CuDef*%
%ADD35O,0.650000X0.200000*%
%TD*%
%TA.AperFunction,SMDPad,CuDef*%
%ADD36O,0.200000X0.650000*%
%TD*%
%TA.AperFunction,SMDPad,CuDef*%
%ADD37R,2.100000X2.100000*%
%TD*%
%TA.AperFunction,ComponentPad*%
%ADD38R,2.000000X1.905000*%
%TD*%
%TA.AperFunction,ComponentPad*%
%ADD39O,2.000000X1.905000*%
%TD*%
%TA.AperFunction,SMDPad,CuDef*%
%ADD40O,1.890000X0.570000*%
%TD*%
%TA.AperFunction,SMDPad,CuDef*%
%ADD41RoundRect,0.200000X-0.200000X-0.275000X0.200000X-0.275000X0.200000X0.275000X-0.200000X0.275000X0*%
%TD*%
%TA.AperFunction,ViaPad*%
%ADD42C,0.600000*%
%TD*%
%TA.AperFunction,ViaPad*%
%ADD43C,0.500000*%
%TD*%
%TA.AperFunction,ViaPad*%
%ADD44C,0.450000*%
%TD*%
%TA.AperFunction,Conductor*%
%ADD45C,0.200000*%
%TD*%
%TA.AperFunction,Conductor*%
%ADD46C,0.150000*%
%TD*%
G04 APERTURE END LIST*
D10*
%TO.P,C37,1*%
%TO.N,GND*%
X127960413Y-89551075D03*
%TO.P,C37,2*%
%TO.N,Net-(ESP32_P4-XTAL_P)*%
X128600413Y-89551075D03*
%TD*%
D11*
%TO.P,R4,1*%
%TO.N,Net-(ESP32_P4-DSI_REXT)*%
X128276823Y-115582979D03*
%TO.P,R4,2*%
%TO.N,GND*%
X128276823Y-117232979D03*
%TD*%
D12*
%TO.P,C30,1*%
%TO.N,+3V3*%
X137701823Y-124397979D03*
%TO.P,C30,2*%
%TO.N,GND*%
X137701823Y-123757979D03*
%TD*%
D13*
%TO.P,U1,1,EN*%
%TO.N,Net-(ESP32_P4-EN_DCDC)*%
X146701823Y-87807979D03*
%TO.P,U1,2,GND*%
%TO.N,GND*%
X146701823Y-88757979D03*
%TO.P,U1,3,SW*%
%TO.N,/ESP_VDD_HP*%
X146701823Y-89707979D03*
%TO.P,U1,4,VIN*%
%TO.N,+3V3*%
X148976823Y-89707979D03*
%TO.P,U1,5,FB*%
%TO.N,Net-(ESP32_P4-FB_DCDC)*%
X148976823Y-87807979D03*
%TD*%
D10*
%TO.P,C23,1*%
%TO.N,+3V3*%
X139156823Y-95481951D03*
%TO.P,C23,2*%
%TO.N,GND*%
X139796823Y-95481951D03*
%TD*%
%TO.P,C25,1*%
%TO.N,/VDDO_FLASH*%
X139156823Y-97207979D03*
%TO.P,C25,2*%
%TO.N,GND*%
X139796823Y-97207979D03*
%TD*%
D11*
%TO.P,R5,1*%
%TO.N,Net-(ESP32_P4-CSI_REXT)*%
X135976823Y-109557979D03*
%TO.P,R5,2*%
%TO.N,GND*%
X135976823Y-111207979D03*
%TD*%
D10*
%TO.P,C26,1*%
%TO.N,/VDDO_PSRAM*%
X139356823Y-96307979D03*
%TO.P,C26,2*%
%TO.N,GND*%
X139996823Y-96307979D03*
%TD*%
D14*
%TO.P,J13,1,DAT2*%
%TO.N,/PERIPHERALS/DAT2*%
X112101823Y-94432979D03*
%TO.P,J13,2,DAT3/CD*%
%TO.N,/PERIPHERALS/DAT3{slash}CD*%
X112101823Y-95532979D03*
%TO.P,J13,3,CMD*%
%TO.N,/PERIPHERALS/CMD*%
X112101823Y-96632979D03*
%TO.P,J13,4,VDD*%
%TO.N,+3V3*%
X112101823Y-97732979D03*
%TO.P,J13,5,CLK*%
%TO.N,/PERIPHERALS/CLK*%
X112101823Y-98832979D03*
%TO.P,J13,6,VSS*%
%TO.N,GND*%
X112101823Y-99932979D03*
%TO.P,J13,7,DAT0*%
%TO.N,/PERIPHERALS/DAT0*%
X112101823Y-101032979D03*
%TO.P,J13,8,DAT1*%
%TO.N,/PERIPHERALS/DAT1*%
X112101823Y-102132979D03*
D15*
%TO.P,J13,9,DET_B*%
%TO.N,/PERIPHERALS/DET2*%
X112201823Y-103082979D03*
D16*
%TO.P,J13,10,DET_A*%
%TO.N,/PERIPHERALS/DET1*%
X101701823Y-103932979D03*
D17*
%TO.P,J13,11,SHIELD*%
%TO.N,GND*%
X97101823Y-90632979D03*
D18*
X96651823Y-91382979D03*
D19*
X96401823Y-91632979D03*
D20*
X112101823Y-92532979D03*
D21*
X107901823Y-103932979D03*
D22*
X98101823Y-103932979D03*
%TD*%
D23*
%TO.P,BAT_OUT1,1,Pin_1*%
%TO.N,GND*%
X168476823Y-128757979D03*
%TD*%
D24*
%TO.P,DISPLAY_IN1,1,Pin_1*%
%TO.N,GND*%
X130000000Y-127857979D03*
%TO.P,DISPLAY_IN1,2,Pin_2*%
%TO.N,DSI_DATAN1*%
X130500000Y-127857979D03*
%TO.P,DISPLAY_IN1,3,Pin_3*%
%TO.N,DSI_DATAP1*%
X131000000Y-127857979D03*
%TO.P,DISPLAY_IN1,4,Pin_4*%
%TO.N,GND*%
X131500000Y-127857979D03*
%TO.P,DISPLAY_IN1,5,Pin_5*%
%TO.N,DSI_CLKN*%
X132000000Y-127857979D03*
%TO.P,DISPLAY_IN1,6,Pin_6*%
%TO.N,DSI_CLKP*%
X132500000Y-127857979D03*
%TO.P,DISPLAY_IN1,7,Pin_7*%
%TO.N,GND*%
X133000000Y-127857979D03*
%TO.P,DISPLAY_IN1,8,Pin_8*%
%TO.N,DSI_DATAN0*%
X133500000Y-127857979D03*
%TO.P,DISPLAY_IN1,9,Pin_9*%
%TO.N,DSI_DATAP0*%
X134000000Y-127857979D03*
%TO.P,DISPLAY_IN1,10,Pin_10*%
%TO.N,GND*%
X134500000Y-127857979D03*
%TO.P,DISPLAY_IN1,11,Pin_11*%
%TO.N,I2C_SCL*%
X135000000Y-127857979D03*
%TO.P,DISPLAY_IN1,12,Pin_12*%
%TO.N,I2C_SDA*%
X135500000Y-127857979D03*
%TO.P,DISPLAY_IN1,13,Pin_13*%
%TO.N,GND*%
X136000000Y-127857979D03*
%TO.P,DISPLAY_IN1,14,Pin_14*%
%TO.N,+3V3*%
X136500000Y-127857979D03*
%TO.P,DISPLAY_IN1,15,Pin_15*%
X137000000Y-127857979D03*
D25*
%TO.P,DISPLAY_IN1,MP*%
%TO.N,N/C*%
X128100000Y-131107979D03*
X138900000Y-131107979D03*
%TD*%
D26*
%TO.P,ESP_FLASH1,1,/CS*%
%TO.N,/FLASH_{slash}CS*%
X113905000Y-110100000D03*
%TO.P,ESP_FLASH1,2,DO_(IO1)_1*%
%TO.N,/FLASH_DO_IO_(IO1)_1*%
X112635000Y-110100000D03*
%TO.P,ESP_FLASH1,3,DO_(IO1)_2*%
%TO.N,/FLASH_DO_IO_(IO1)_2*%
X111365000Y-110100000D03*
%TO.P,ESP_FLASH1,4,GND*%
%TO.N,GND*%
X110095000Y-110100000D03*
%TO.P,ESP_FLASH1,5,DI_(IO0)*%
%TO.N,/FLASH_DI_(IO0)*%
X110095000Y-117900000D03*
%TO.P,ESP_FLASH1,6,CLK*%
%TO.N,/FLASH_CLK*%
X111365000Y-117900000D03*
%TO.P,ESP_FLASH1,7,IO3*%
%TO.N,/FLASH_IO3*%
X112635000Y-117900000D03*
%TO.P,ESP_FLASH1,8,VCC*%
%TO.N,/VDDO_FLASH*%
X113905000Y-117900000D03*
D27*
%TO.P,ESP_FLASH1,9,EP*%
%TO.N,GND*%
X112000000Y-114000000D03*
%TD*%
D28*
%TO.P,USB-C_2.0,A1,GND*%
%TO.N,GND*%
X190666823Y-98307979D03*
%TO.P,USB-C_2.0,A4,VBUS*%
%TO.N,+5V*%
X190666823Y-97507979D03*
D29*
%TO.P,USB-C_2.0,A5,CC1*%
%TO.N,Net-(ESD_PROT1-I{slash}O1)*%
X190666823Y-96357979D03*
%TO.P,USB-C_2.0,A6,D+*%
%TO.N,USB_DATA_P*%
X190666823Y-95357979D03*
%TO.P,USB-C_2.0,A7,D-*%
%TO.N,USB_DATA_N*%
X190666823Y-94857979D03*
%TO.P,USB-C_2.0,A8,SBU1*%
%TO.N,unconnected-(USB-C_2.0-SBU1-PadA8)*%
X190666823Y-93857979D03*
D28*
%TO.P,USB-C_2.0,A9,VBUS*%
%TO.N,+5V*%
X190666823Y-92707979D03*
%TO.P,USB-C_2.0,A12,GND*%
%TO.N,GND*%
X190666823Y-91907979D03*
%TO.P,USB-C_2.0,B1,GND*%
X190666823Y-91907979D03*
%TO.P,USB-C_2.0,B4,VBUS*%
%TO.N,+5V*%
X190666823Y-92707979D03*
D29*
%TO.P,USB-C_2.0,B5,CC2*%
%TO.N,Net-(ESD_PROT1-I{slash}O2)*%
X190666823Y-93357979D03*
%TO.P,USB-C_2.0,B6,D+*%
%TO.N,USB_DATA_P*%
X190666823Y-94357979D03*
%TO.P,USB-C_2.0,B7,D-*%
%TO.N,USB_DATA_N*%
X190666823Y-95857979D03*
%TO.P,USB-C_2.0,B8,SBU2*%
%TO.N,unconnected-(USB-C_2.0-SBU2-PadB8)*%
X190666823Y-96857979D03*
D28*
%TO.P,USB-C_2.0,B9,VBUS*%
%TO.N,+5V*%
X190666823Y-97507979D03*
%TO.P,USB-C_2.0,B12,GND*%
%TO.N,GND*%
X190666823Y-98307979D03*
D30*
%TO.P,USB-C_2.0,S1,SHIELD*%
X191246823Y-99427979D03*
D31*
X195416823Y-99427979D03*
D30*
X191246823Y-90787979D03*
D31*
X195416823Y-90787979D03*
%TD*%
D32*
%TO.P,CAM_IN1,1,Pin_1*%
%TO.N,GND*%
X165626823Y-112500000D03*
%TO.P,CAM_IN1,2,Pin_2*%
%TO.N,CSI_DATA_N0*%
X165626823Y-112000000D03*
%TO.P,CAM_IN1,3,Pin_3*%
%TO.N,CSI_DATA_P0*%
X165626823Y-111500000D03*
%TO.P,CAM_IN1,4,Pin_4*%
%TO.N,GND*%
X165626823Y-111000000D03*
%TO.P,CAM_IN1,5,Pin_5*%
%TO.N,CSI_DATA_N1*%
X165626823Y-110500000D03*
%TO.P,CAM_IN1,6,Pin_6*%
%TO.N,CSI_DATA_P1*%
X165626823Y-110000000D03*
%TO.P,CAM_IN1,7,Pin_7*%
%TO.N,GND*%
X165626823Y-109500000D03*
%TO.P,CAM_IN1,8,Pin_8*%
%TO.N,CSI_CLK_N*%
X165626823Y-109000000D03*
%TO.P,CAM_IN1,9,Pin_9*%
%TO.N,CSI_CLK_P*%
X165626823Y-108500000D03*
%TO.P,CAM_IN1,10,Pin_10*%
%TO.N,GND*%
X165626823Y-108000000D03*
%TO.P,CAM_IN1,11,Pin_11*%
%TO.N,CAM_GPIO1*%
X165626823Y-107500000D03*
%TO.P,CAM_IN1,12,Pin_12*%
%TO.N,CAM_GPIO0*%
X165626823Y-107000000D03*
%TO.P,CAM_IN1,13,Pin_13*%
%TO.N,I2C_SCL*%
X165626823Y-106500000D03*
%TO.P,CAM_IN1,14,Pin_14*%
%TO.N,I2C_SDA*%
X165626823Y-106000000D03*
%TO.P,CAM_IN1,15,Pin_15*%
%TO.N,+3V3*%
X165626823Y-105500000D03*
D33*
%TO.P,CAM_IN1,MP*%
%TO.N,N/C*%
X168876823Y-114400000D03*
X168876823Y-103600000D03*
%TD*%
D10*
%TO.P,C40,1*%
%TO.N,Net-(ESP32_P4-XTAL_N)*%
X131660116Y-89538320D03*
%TO.P,C40,2*%
%TO.N,GND*%
X132300116Y-89538320D03*
%TD*%
D34*
%TO.P,Y2,1,1*%
%TO.N,Net-(ESP32_P4-XTAL_P)*%
X129276823Y-88057979D03*
%TO.P,Y2,2,2*%
%TO.N,Net-(ESP32_P4-XTAL_N)*%
X131476823Y-88057979D03*
%TO.P,Y2,3,3*%
X131476823Y-86357979D03*
%TO.P,Y2,4,4*%
%TO.N,Net-(ESP32_P4-XTAL_P)*%
X129276823Y-86357979D03*
%TD*%
D12*
%TO.P,C29,1*%
%TO.N,+3V3*%
X136876823Y-124407979D03*
%TO.P,C29,2*%
%TO.N,GND*%
X136876823Y-123767979D03*
%TD*%
D23*
%TO.P,BAT_IN1,1,Pin_1*%
%TO.N,+7V2*%
X168476823Y-124207979D03*
%TD*%
D35*
%TO.P,ESP32_P4,1,GPIO1/ADC*%
%TO.N,unconnected-(ESP32_P4-GPIO1{slash}ADC-Pad1)*%
X128095000Y-94320000D03*
%TO.P,ESP32_P4,2,GPIO2/ADC*%
%TO.N,unconnected-(ESP32_P4-GPIO2{slash}ADC-Pad2)*%
X128095000Y-94670000D03*
%TO.P,ESP32_P4,3,GPIO3/ADC*%
%TO.N,unconnected-(ESP32_P4-GPIO3{slash}ADC-Pad3)*%
X128095000Y-95020000D03*
%TO.P,ESP32_P4,4,GPIO4/ADC*%
%TO.N,unconnected-(ESP32_P4-GPIO4{slash}ADC-Pad4)*%
X128095000Y-95370000D03*
%TO.P,ESP32_P4,5,GPIO5/ADC*%
%TO.N,unconnected-(ESP32_P4-GPIO5{slash}ADC-Pad5)*%
X128095000Y-95720000D03*
%TO.P,ESP32_P4,6,GPIO6/ADC*%
%TO.N,unconnected-(ESP32_P4-GPIO6{slash}ADC-Pad6)*%
X128095000Y-96070000D03*
%TO.P,ESP32_P4,7,GPIO7/ADC*%
%TO.N,unconnected-(ESP32_P4-GPIO7{slash}ADC-Pad7)*%
X128095000Y-96420000D03*
%TO.P,ESP32_P4,8,GPIO8/ADC*%
%TO.N,unconnected-(ESP32_P4-GPIO8{slash}ADC-Pad8)*%
X128095000Y-96770000D03*
%TO.P,ESP32_P4,9,VDD_LP*%
%TO.N,+3V3*%
X128095000Y-97120000D03*
%TO.P,ESP32_P4,10,GPIO9/ADC*%
%TO.N,/DAT2*%
X128095000Y-97470000D03*
%TO.P,ESP32_P4,11,GPIO10/ADC*%
%TO.N,/DAT3{slash}CD*%
X128095000Y-97820000D03*
%TO.P,ESP32_P4,12,GPIO11/ADC*%
%TO.N,/CMD*%
X128095000Y-98170000D03*
%TO.P,ESP32_P4,13,GPIO12/ADC*%
%TO.N,/CLK*%
X128095000Y-98520000D03*
%TO.P,ESP32_P4,14,GPIO13/ADC*%
%TO.N,/DAT0*%
X128095000Y-98870000D03*
%TO.P,ESP32_P4,15,GPIO14/ADC*%
%TO.N,/DAT1*%
X128095000Y-99220000D03*
%TO.P,ESP32_P4,16,GPIO15/ADC*%
%TO.N,/DET2*%
X128095000Y-99570000D03*
%TO.P,ESP32_P4,17,GPIO16/ADC*%
%TO.N,/DET1*%
X128095000Y-99920000D03*
%TO.P,ESP32_P4,18,GPIO17/ADC*%
%TO.N,unconnected-(ESP32_P4-GPIO17{slash}ADC-Pad18)*%
X128095000Y-100270000D03*
%TO.P,ESP32_P4,19,GPIO18/ADC*%
%TO.N,unconnected-(ESP32_P4-GPIO18{slash}ADC-Pad19)*%
X128095000Y-100620000D03*
%TO.P,ESP32_P4,20,GPIO19/ADC*%
%TO.N,unconnected-(ESP32_P4-GPIO19{slash}ADC-Pad20)*%
X128095000Y-100970000D03*
%TO.P,ESP32_P4,21,VDD_IO_0*%
%TO.N,+3V3*%
X128095000Y-101320000D03*
%TO.P,ESP32_P4,22,GPIO20/ADC*%
%TO.N,unconnected-(ESP32_P4-GPIO20{slash}ADC-Pad22)*%
X128095000Y-101670000D03*
%TO.P,ESP32_P4,23,GPIO21/ADC*%
%TO.N,unconnected-(ESP32_P4-GPIO21{slash}ADC-Pad23)*%
X128095000Y-102020000D03*
%TO.P,ESP32_P4,24,GPIO22/ADC*%
%TO.N,unconnected-(ESP32_P4-GPIO22{slash}ADC-Pad24)*%
X128095000Y-102370000D03*
%TO.P,ESP32_P4,25,GPIO23/ADC*%
%TO.N,unconnected-(ESP32_P4-GPIO23{slash}ADC-Pad25)*%
X128095000Y-102720000D03*
%TO.P,ESP32_P4,26,VDD_HP_0*%
%TO.N,/ESP_VDD_HP*%
X128095000Y-103070000D03*
D36*
%TO.P,ESP32_P4,27,FLASH_CS*%
%TO.N,/FLASH_{slash}CS*%
X128595000Y-103570000D03*
%TO.P,ESP32_P4,28,FLASH_Q*%
%TO.N,/FLASH_DO_IO_(IO1)_1*%
X128945000Y-103570000D03*
%TO.P,ESP32_P4,29,FLASH_WP*%
%TO.N,/FLASH_DO_IO_(IO1)_2*%
X129295000Y-103570000D03*
%TO.P,ESP32_P4,30,VDD_FLASH_IO*%
%TO.N,/VDDO_FLASH*%
X129645000Y-103570000D03*
%TO.P,ESP32_P4,31,FLASH_HOLD*%
%TO.N,/FLASH_IO3*%
X129995000Y-103570000D03*
%TO.P,ESP32_P4,32,FLASH_CK*%
%TO.N,/FLASH_CLK*%
X130345000Y-103570000D03*
%TO.P,ESP32_P4,33,FLASH_D*%
%TO.N,/FLASH_DI_(IO0)*%
X130695000Y-103570000D03*
%TO.P,ESP32_P4,34,DSI_REXT*%
%TO.N,Net-(ESP32_P4-DSI_REXT)*%
X131045000Y-103570000D03*
%TO.P,ESP32_P4,35,DSI_DATAP1*%
%TO.N,/DSI_DATAP1*%
X131395000Y-103570000D03*
%TO.P,ESP32_P4,36,DSI_DATAN1*%
%TO.N,/DSI_DATAN1*%
X131745000Y-103570000D03*
%TO.P,ESP32_P4,37,DSI_CLKN*%
%TO.N,/DSI_CLKN*%
X132095000Y-103570000D03*
%TO.P,ESP32_P4,38,DSI_CLKP*%
%TO.N,/DSI_CLKP*%
X132445000Y-103570000D03*
%TO.P,ESP32_P4,39,DSI_DATAP0*%
%TO.N,/DSI_DATAP0*%
X132795000Y-103570000D03*
%TO.P,ESP32_P4,40,DSI_DATAN0*%
%TO.N,/DSI_DATAN0*%
X133145000Y-103570000D03*
%TO.P,ESP32_P4,41,VDD_MIPI_DPHY*%
%TO.N,/VDDO_3*%
X133495000Y-103570000D03*
%TO.P,ESP32_P4,42,CSI_DATAN0*%
%TO.N,/CSI_DATA_N0*%
X133845000Y-103570000D03*
%TO.P,ESP32_P4,43,CSI_DATAP0*%
%TO.N,/CSI_DATA_P0*%
X134195000Y-103570000D03*
%TO.P,ESP32_P4,44,CSI_CLKP*%
%TO.N,/CSI_CLK_P*%
X134545000Y-103570000D03*
%TO.P,ESP32_P4,45,CSI_CLKN*%
%TO.N,/CSI_CLK_N*%
X134895000Y-103570000D03*
%TO.P,ESP32_P4,46,CSI_DATAN1*%
%TO.N,/CSI_DATA_N1*%
X135245000Y-103570000D03*
%TO.P,ESP32_P4,47,CSI_DATAP1*%
%TO.N,/CSI_DATA_P1*%
X135595000Y-103570000D03*
%TO.P,ESP32_P4,48,CSI_REXT*%
%TO.N,Net-(ESP32_P4-CSI_REXT)*%
X135945000Y-103570000D03*
%TO.P,ESP32_P4,49,USB-DM*%
%TO.N,/USB_DATA_N*%
X136295000Y-103570000D03*
%TO.P,ESP32_P4,50,USB-DP*%
%TO.N,/USB_DATA_P*%
X136645000Y-103570000D03*
%TO.P,ESP32_P4,51,VDD_USBPHY*%
%TO.N,+3V3*%
X136995000Y-103570000D03*
%TO.P,ESP32_P4,52,GPIO24/ADC/USB*%
%TO.N,unconnected-(ESP32_P4-GPIO24{slash}ADC{slash}USB-Pad52)*%
X137345000Y-103570000D03*
D35*
%TO.P,ESP32_P4,53,GPIO25/ADC/USB*%
%TO.N,unconnected-(ESP32_P4-GPIO25{slash}ADC{slash}USB-Pad53)*%
X137845000Y-103070000D03*
%TO.P,ESP32_P4,54,NC*%
%TO.N,unconnected-(ESP32_P4-NC-Pad54)*%
X137845000Y-102720000D03*
%TO.P,ESP32_P4,55,GPIO26/ADC/USB*%
%TO.N,unconnected-(ESP32_P4-GPIO26{slash}ADC{slash}USB-Pad55)*%
X137845000Y-102370000D03*
%TO.P,ESP32_P4,56,GPIO27/ADC/USB*%
%TO.N,unconnected-(ESP32_P4-GPIO27{slash}ADC{slash}USB-Pad56)*%
X137845000Y-102020000D03*
%TO.P,ESP32_P4,57,GPIO28*%
%TO.N,CAM_GPIO1*%
X137845000Y-101670000D03*
%TO.P,ESP32_P4,58,GPIO29*%
%TO.N,CAM_GPIO0*%
X137845000Y-101320000D03*
%TO.P,ESP32_P4,59,VDD_PSRAM_0*%
%TO.N,/VDDO_PSRAM*%
X137845000Y-100970000D03*
%TO.P,ESP32_P4,60,GPIO30*%
%TO.N,I2C_SCL*%
X137845000Y-100620000D03*
%TO.P,ESP32_P4,61,GPIO31*%
%TO.N,I2C_SDA*%
X137845000Y-100270000D03*
%TO.P,ESP32_P4,62,VDD_IO_4*%
%TO.N,+3V3*%
X137845000Y-99920000D03*
%TO.P,ESP32_P4,63,GPIO32*%
%TO.N,unconnected-(ESP32_P4-GPIO32-Pad63)*%
X137845000Y-99570000D03*
%TO.P,ESP32_P4,64,GPIO33*%
%TO.N,unconnected-(ESP32_P4-GPIO33-Pad64)*%
X137845000Y-99220000D03*
%TO.P,ESP32_P4,65,GPIO34*%
%TO.N,unconnected-(ESP32_P4-GPIO34-Pad65)*%
X137845000Y-98870000D03*
%TO.P,ESP32_P4,66,GPIO35*%
%TO.N,Net-(ESP32_P4-GPIO35)*%
X137845000Y-98520000D03*
%TO.P,ESP32_P4,67,VDD_PSRAM_1*%
%TO.N,/VDDO_PSRAM*%
X137845000Y-98170000D03*
%TO.P,ESP32_P4,68,GPIO36*%
%TO.N,Net-(ESP32_P4-GPIO36)*%
X137845000Y-97820000D03*
%TO.P,ESP32_P4,69,GPIO37*%
%TO.N,unconnected-(ESP32_P4-GPIO37-Pad69)*%
X137845000Y-97470000D03*
%TO.P,ESP32_P4,70,GPIO38*%
%TO.N,unconnected-(ESP32_P4-GPIO38-Pad70)*%
X137845000Y-97120000D03*
%TO.P,ESP32_P4,71,VDDO_FLASH*%
%TO.N,/VDDO_FLASH*%
X137845000Y-96770000D03*
%TO.P,ESP32_P4,72,VDDO_PSRAM*%
%TO.N,/VDDO_PSRAM*%
X137845000Y-96420000D03*
%TO.P,ESP32_P4,73,VDDO_3*%
%TO.N,/VDDO_3*%
X137845000Y-96070000D03*
%TO.P,ESP32_P4,74,VDDO_4*%
%TO.N,unconnected-(ESP32_P4-VDDO_4-Pad74)*%
X137845000Y-95720000D03*
%TO.P,ESP32_P4,75,VDD_LDO*%
%TO.N,+3V3*%
X137845000Y-95370000D03*
%TO.P,ESP32_P4,76,VDD_HP_2*%
%TO.N,/ESP_VDD_HP*%
X137845000Y-95020000D03*
%TO.P,ESP32_P4,77,VDD_DCDCC*%
%TO.N,+3V3*%
X137845000Y-94670000D03*
%TO.P,ESP32_P4,78,FB_DCDC*%
%TO.N,Net-(ESP32_P4-FB_DCDC)*%
X137845000Y-94320000D03*
D36*
%TO.P,ESP32_P4,79,EN_DCDC*%
%TO.N,Net-(ESP32_P4-EN_DCDC)*%
X137345000Y-93820000D03*
%TO.P,ESP32_P4,80,GPIO39*%
%TO.N,Net-(ESP32_P4-GPIO39)*%
X136995000Y-93820000D03*
%TO.P,ESP32_P4,81,GPIO40*%
%TO.N,Net-(ESP32_P4-GPIO40)*%
X136645000Y-93820000D03*
%TO.P,ESP32_P4,82,GPIO41*%
%TO.N,Net-(ESP32_P4-GPIO41)*%
X136295000Y-93820000D03*
%TO.P,ESP32_P4,83,GPIO42*%
%TO.N,unconnected-(ESP32_P4-GPIO42-Pad83)*%
X135945000Y-93820000D03*
%TO.P,ESP32_P4,84,GPIO43*%
%TO.N,unconnected-(ESP32_P4-GPIO43-Pad84)*%
X135595000Y-93820000D03*
%TO.P,ESP32_P4,85,VDD_IO_5*%
%TO.N,+3V3*%
X135245000Y-93820000D03*
%TO.P,ESP32_P4,86,GPIO44*%
%TO.N,unconnected-(ESP32_P4-GPIO44-Pad86)*%
X134895000Y-93820000D03*
%TO.P,ESP32_P4,87,GPIO45*%
%TO.N,unconnected-(ESP32_P4-GPIO45-Pad87)*%
X134545000Y-93820000D03*
%TO.P,ESP32_P4,88,GPIO46*%
%TO.N,unconnected-(ESP32_P4-GPIO46-Pad88)*%
X134195000Y-93820000D03*
%TO.P,ESP32_P4,89,GPIO47*%
%TO.N,unconnected-(ESP32_P4-GPIO47-Pad89)*%
X133845000Y-93820000D03*
%TO.P,ESP32_P4,90,GPIO48*%
%TO.N,unconnected-(ESP32_P4-GPIO48-Pad90)*%
X133495000Y-93820000D03*
%TO.P,ESP32_P4,91,VDD_HP_3*%
%TO.N,/ESP_VDD_HP*%
X133145000Y-93820000D03*
%TO.P,ESP32_P4,92,GPIO49/ADC*%
%TO.N,unconnected-(ESP32_P4-GPIO49{slash}ADC-Pad92)*%
X132795000Y-93820000D03*
%TO.P,ESP32_P4,93,GPIO50/ADC*%
%TO.N,unconnected-(ESP32_P4-GPIO50{slash}ADC-Pad93)*%
X132445000Y-93820000D03*
%TO.P,ESP32_P4,94,GPIO51/ADC*%
%TO.N,unconnected-(ESP32_P4-GPIO51{slash}ADC-Pad94)*%
X132095000Y-93820000D03*
%TO.P,ESP32_P4,95,GPIO52/ADC*%
%TO.N,unconnected-(ESP32_P4-GPIO52{slash}ADC-Pad95)*%
X131745000Y-93820000D03*
%TO.P,ESP32_P4,96,VDD_IO_6*%
%TO.N,+3V3*%
X131395000Y-93820000D03*
%TO.P,ESP32_P4,97,GPIO53/ADC*%
%TO.N,unconnected-(ESP32_P4-GPIO53{slash}ADC-Pad97)*%
X131045000Y-93820000D03*
%TO.P,ESP32_P4,98,GPIO54/ADC*%
%TO.N,unconnected-(ESP32_P4-GPIO54{slash}ADC-Pad98)*%
X130695000Y-93820000D03*
%TO.P,ESP32_P4,99,XTAL_N*%
%TO.N,Net-(ESP32_P4-XTAL_N)*%
X130345000Y-93820000D03*
%TO.P,ESP32_P4,100,XTAL_P*%
%TO.N,Net-(ESP32_P4-XTAL_P)*%
X129995000Y-93820000D03*
%TO.P,ESP32_P4,101,VDD_ANA*%
%TO.N,+3V3*%
X129645000Y-93820000D03*
%TO.P,ESP32_P4,102,VDD_BAT*%
X129295000Y-93820000D03*
%TO.P,ESP32_P4,103,CHIP_PU*%
%TO.N,Net-(ESP32_P4-CHIP_PU)*%
X128945000Y-93820000D03*
%TO.P,ESP32_P4,104,GPIO0/ADC*%
%TO.N,unconnected-(ESP32_P4-GPIO0{slash}ADC-Pad104)*%
X128595000Y-93820000D03*
D37*
%TO.P,ESP32_P4,105,GND*%
%TO.N,GND*%
X130270000Y-95995000D03*
X130270000Y-98695000D03*
X130270000Y-101395000D03*
X132970000Y-95995000D03*
X132970000Y-98695000D03*
X132970000Y-101395000D03*
X135670000Y-95995000D03*
X135670000Y-98695000D03*
X135670000Y-101395000D03*
%TD*%
D38*
%TO.P,LENS_POW1,1,IN*%
%TO.N,+7V2*%
X119136823Y-124167979D03*
D39*
%TO.P,LENS_POW1,2,GND*%
%TO.N,GND*%
X119136823Y-126707979D03*
%TO.P,LENS_POW1,3,OUT*%
%TO.N,+6V*%
X119136823Y-129247979D03*
%TD*%
D40*
%TO.P,ESD_PROT1,1,I/O1*%
%TO.N,Net-(ESD_PROT1-I{slash}O1)*%
X153876823Y-85797979D03*
%TO.P,ESD_PROT1,2,I/O2*%
%TO.N,Net-(ESD_PROT1-I{slash}O2)*%
X153876823Y-87077979D03*
%TO.P,ESD_PROT1,3,I/O3*%
%TO.N,USB_DATA_N*%
X153876823Y-88337979D03*
%TO.P,ESD_PROT1,4,I/O4*%
%TO.N,USB_DATA_P*%
X153876823Y-89607979D03*
%TO.P,ESD_PROT1,5,I/O5*%
%TO.N,unconnected-(ESD_PROT1-I{slash}O5-Pad5)*%
X159276823Y-89607979D03*
%TO.P,ESD_PROT1,6,GND*%
%TO.N,GND*%
X159276823Y-88337979D03*
%TO.P,ESD_PROT1,7,GND*%
X159276823Y-87077979D03*
%TO.P,ESD_PROT1,8,I/O6*%
%TO.N,+5V*%
X159276823Y-85797979D03*
%TD*%
D41*
%TO.P,R9,1*%
%TO.N,GND*%
X156151823Y-93317979D03*
%TO.P,R9,2*%
%TO.N,Net-(ESD_PROT1-I{slash}O2)*%
X157801823Y-93317979D03*
%TD*%
%TO.P,R1,1*%
%TO.N,GND*%
X156126823Y-96507979D03*
%TO.P,R1,2*%
%TO.N,Net-(ESD_PROT1-I{slash}O1)*%
X157776823Y-96507979D03*
%TD*%
D42*
%TO.N,GND*%
X195376823Y-95107979D03*
X160776823Y-87707979D03*
X156176823Y-92107979D03*
X156176823Y-97707979D03*
%TO.N,Net-(ESD_PROT1-I{slash}O1)*%
X155576823Y-85907979D03*
X158976823Y-96457979D03*
%TO.N,USB_DATA_N*%
X155576823Y-88307979D03*
X154126823Y-95057979D03*
%TO.N,GND*%
X143476823Y-131707979D03*
D43*
X140476823Y-99707979D03*
D42*
X132970000Y-95995000D03*
X130270000Y-101395000D03*
X162451823Y-111000000D03*
X168976823Y-114207979D03*
X127976823Y-131207979D03*
D43*
X135976823Y-111207979D03*
D42*
X127960413Y-90450331D03*
D43*
X140476823Y-104707979D03*
X128276823Y-117232979D03*
D42*
X166976823Y-101707979D03*
X164976823Y-128207979D03*
X120976823Y-126707979D03*
X168476823Y-128707979D03*
X97101823Y-90632979D03*
X138976823Y-131207979D03*
X162451823Y-112500000D03*
X137301823Y-123007979D03*
X135670000Y-98695000D03*
X132970000Y-101395000D03*
X135670000Y-95995000D03*
X135670000Y-101395000D03*
X112000000Y-114000000D03*
D43*
X126976823Y-105207979D03*
X130976823Y-102897509D03*
D42*
X150976823Y-115207979D03*
X168116823Y-105207979D03*
X132976823Y-98707979D03*
X168976823Y-103707979D03*
X162476823Y-117447979D03*
X130270000Y-95995000D03*
X112101823Y-92532979D03*
X162451823Y-109500000D03*
X157976823Y-105207979D03*
X134988412Y-129219568D03*
D43*
X144976823Y-88707979D03*
D42*
X132826823Y-88357979D03*
X98101823Y-103932979D03*
X107901823Y-103932979D03*
X145839323Y-119570479D03*
X130270000Y-98695000D03*
X168476823Y-122207979D03*
X162476823Y-108000000D03*
D43*
X140526823Y-95507979D03*
D44*
%TO.N,/DSI_DATAP0*%
X133206823Y-115387979D03*
X133999999Y-117407979D03*
%TO.N,/DSI_DATAN1*%
X131716823Y-117617979D03*
X130500000Y-118227979D03*
D43*
%TO.N,/VDDO_3*%
X138476823Y-96070000D03*
X132976823Y-102864157D03*
D42*
%TO.N,Net-(ESP32_P4-GPIO36)*%
X141976823Y-95707979D03*
%TO.N,+3V3*%
X113976823Y-97707979D03*
X137000000Y-125107979D03*
D43*
X137660600Y-104524202D03*
D42*
X141976823Y-94057979D03*
X125853554Y-101146446D03*
X126867205Y-96817597D03*
D43*
X138476823Y-93707979D03*
D42*
X129445000Y-93042935D03*
X138543016Y-99732039D03*
X158476823Y-123707979D03*
D43*
X148976823Y-90707979D03*
D42*
X131395000Y-92500000D03*
X166976823Y-103232979D03*
D43*
X135245000Y-92976156D03*
D42*
X145976823Y-113845479D03*
X166846825Y-105207979D03*
%TO.N,+5V*%
X157976823Y-103207979D03*
%TO.N,/DET1*%
X101701823Y-103932979D03*
%TO.N,I2C_SDA*%
X135626102Y-126671030D03*
D43*
X153561008Y-105944760D03*
D42*
X143476823Y-100707979D03*
%TO.N,+7V2*%
X168476823Y-124207979D03*
%TO.N,+5V5*%
X141476823Y-121707979D03*
X144976823Y-121707979D03*
%TO.N,+6V*%
X122476823Y-132707979D03*
X145976823Y-132707979D03*
%TO.N,Net-(ESP32_P4-GPIO40)*%
X137389263Y-91216544D03*
%TO.N,Net-(ESP32_P4-GPIO39)*%
X137929961Y-91661117D03*
%TO.N,Net-(ESP32_P4-GPIO41)*%
X136689313Y-91207979D03*
D43*
%TO.N,/VDDO_PSRAM*%
X139156823Y-101207979D03*
D42*
X139000516Y-96499564D03*
D43*
X140358623Y-98070000D03*
%TO.N,I2C_SCL*%
X153470582Y-106537909D03*
D42*
X135000000Y-126357979D03*
X142976823Y-101207979D03*
%TO.N,/VDDO_FLASH*%
X129644950Y-102987879D03*
X114500000Y-117500000D03*
D43*
%TO.N,/ESP_VDD_HP*%
X145476823Y-89707979D03*
X133076823Y-91257979D03*
X139128285Y-94130839D03*
D42*
X127000000Y-103500000D03*
X133145000Y-92707979D03*
D43*
X141476823Y-93207979D03*
D44*
%TO.N,CSI_CLK_N*%
X134870000Y-105389468D03*
X139976823Y-109150000D03*
D43*
%TO.N,CAM_GPIO1*%
X139976823Y-102707979D03*
X152476823Y-107207979D03*
%TO.N,CAM_GPIO0*%
X140476823Y-102207979D03*
X153048948Y-107027212D03*
D44*
%TO.N,CSI_CLK_P*%
X134595000Y-104913155D03*
X139976823Y-108350000D03*
D43*
%TO.N,Net-(ESP32_P4-CSI_REXT)*%
X135976823Y-109557979D03*
X135557631Y-102896554D03*
%TD*%
D45*
%TO.N,GND*%
X195376823Y-94907979D02*
X195416823Y-94867979D01*
X195376823Y-95107979D02*
X195376823Y-94907979D01*
X195416823Y-94867979D02*
X195416823Y-90787979D01*
X195416823Y-95147979D02*
X195376823Y-95107979D01*
X195416823Y-99427979D02*
X195416823Y-95147979D01*
X191246823Y-99427979D02*
X195416823Y-99427979D01*
X191246823Y-90787979D02*
X195416823Y-90787979D01*
X190666823Y-91367979D02*
X191246823Y-90787979D01*
X190666823Y-91907979D02*
X190666823Y-91367979D01*
X190666823Y-98847979D02*
X191246823Y-99427979D01*
X190666823Y-98307979D02*
X190666823Y-98847979D01*
X195316823Y-90887979D02*
X195416823Y-90787979D01*
X195316823Y-99527979D02*
X195416823Y-99427979D01*
X191246823Y-99427979D02*
X191146823Y-99527979D01*
%TO.N,USB_DATA_P*%
X190566823Y-94457979D02*
X190666823Y-94357979D01*
X152526823Y-94457979D02*
X190566823Y-94457979D01*
%TO.N,Net-(ESD_PROT1-I{slash}O2)*%
X190566823Y-93457979D02*
X190666823Y-93357979D01*
X157941823Y-93457979D02*
X190566823Y-93457979D01*
%TO.N,GND*%
X190566823Y-92007979D02*
X190666823Y-91907979D01*
%TO.N,+5V*%
X161576823Y-91707979D02*
X161576823Y-86907979D01*
%TO.N,USB_DATA_N*%
X190566823Y-94957979D02*
X154226823Y-94957979D01*
%TO.N,+5V*%
X190566823Y-92807979D02*
X162676823Y-92807979D01*
%TO.N,USB_DATA_N*%
X190666823Y-94857979D02*
X190566823Y-94957979D01*
%TO.N,Net-(ESD_PROT1-I{slash}O1)*%
X190566823Y-96457979D02*
X190666823Y-96357979D01*
%TO.N,+5V*%
X161576823Y-86907979D02*
X160466823Y-85797979D01*
X160311823Y-97607979D02*
X190566823Y-97607979D01*
X190666823Y-92707979D02*
X190566823Y-92807979D01*
X190566823Y-97607979D02*
X190666823Y-97507979D01*
X160466823Y-85797979D02*
X159276823Y-85797979D01*
%TO.N,USB_DATA_N*%
X154226823Y-94957979D02*
X154126823Y-95057979D01*
%TO.N,+5V*%
X157976823Y-99942979D02*
X160311823Y-97607979D01*
X157976823Y-103207979D02*
X157976823Y-99942979D01*
%TO.N,GND*%
X159276823Y-87707979D02*
X159276823Y-88337979D01*
X159276823Y-87707979D02*
X160776823Y-87707979D01*
X156151823Y-92132979D02*
X156176823Y-92107979D01*
X156151823Y-93317979D02*
X156151823Y-92132979D01*
X156126823Y-97657979D02*
X156176823Y-97707979D01*
X156126823Y-96507979D02*
X156126823Y-97657979D01*
X159276823Y-87077979D02*
X159276823Y-87707979D01*
%TO.N,Net-(ESD_PROT1-I{slash}O2)*%
X155055344Y-87077979D02*
X153876823Y-87077979D01*
X157801823Y-89824458D02*
X155055344Y-87077979D01*
X157801823Y-93317979D02*
X157801823Y-89824458D01*
%TO.N,Net-(ESD_PROT1-I{slash}O1)*%
X155576823Y-85907979D02*
X153986823Y-85907979D01*
X153986823Y-85907979D02*
X153876823Y-85797979D01*
%TO.N,USB_DATA_N*%
X153906823Y-88307979D02*
X153876823Y-88337979D01*
X155576823Y-88307979D02*
X153906823Y-88307979D01*
%TO.N,USB_DATA_P*%
X152526823Y-90957979D02*
X153876823Y-89607979D01*
X152526823Y-94457979D02*
X152526823Y-90957979D01*
%TO.N,USB_DATA_N*%
X154126823Y-95057979D02*
X152026823Y-97157979D01*
X152026823Y-97157979D02*
X151226823Y-97957979D01*
%TO.N,Net-(ESD_PROT1-I{slash}O1)*%
X158976823Y-96457979D02*
X157826823Y-96457979D01*
X157826823Y-96457979D02*
X157776823Y-96507979D01*
%TO.N,+6V*%
X122476823Y-132707979D02*
X145976823Y-132707979D01*
%TO.N,Net-(ESP32_P4-GPIO36)*%
X140555618Y-97629184D02*
X141976823Y-96207979D01*
X140171812Y-97619000D02*
X140545434Y-97619000D01*
X140545434Y-97619000D02*
X140555618Y-97629184D01*
X139970812Y-97820000D02*
X140171812Y-97619000D01*
X137845000Y-97820000D02*
X139970812Y-97820000D01*
X141976823Y-96207979D02*
X141976823Y-95707979D01*
%TO.N,GND*%
X140526823Y-95507979D02*
X139822851Y-95507979D01*
%TO.N,+3V3*%
X138986352Y-95481951D02*
X138874401Y-95370000D01*
X138874401Y-95370000D02*
X137845000Y-95370000D01*
%TO.N,GND*%
X139822851Y-95507979D02*
X139796823Y-95481951D01*
%TO.N,+3V3*%
X139156823Y-95481951D02*
X138986352Y-95481951D01*
%TO.N,GND*%
X139796823Y-97052979D02*
X139996823Y-96852979D01*
X139996823Y-96852979D02*
X139996823Y-96307979D01*
%TO.N,/VDDO_FLASH*%
X139001823Y-97207979D02*
X139156823Y-97207979D01*
X138615844Y-96822000D02*
X139001823Y-97207979D01*
X138165334Y-96822000D02*
X138615844Y-96822000D01*
%TO.N,GND*%
X139796823Y-97207979D02*
X139796823Y-97052979D01*
%TO.N,/VDDO_FLASH*%
X138113334Y-96770000D02*
X138165334Y-96822000D01*
X137845000Y-96770000D02*
X138113334Y-96770000D01*
%TO.N,GND*%
X132826823Y-89011613D02*
X132300116Y-89538320D01*
X162476823Y-112525000D02*
X162451823Y-112500000D01*
X136876823Y-123767979D02*
X137301823Y-123767979D01*
X165626823Y-108000000D02*
X162976823Y-108000000D01*
X134526823Y-129757979D02*
X134976823Y-129757979D01*
X140526823Y-95507979D02*
X140526823Y-96021581D01*
X137301823Y-123767979D02*
X137301823Y-123007979D01*
X133000000Y-127857979D02*
X133000000Y-129734802D01*
X134500000Y-127857979D02*
X134500000Y-129731156D01*
X132970000Y-98695000D02*
X132970000Y-98701156D01*
X131526823Y-129757979D02*
X131076823Y-129757979D01*
X134988412Y-129219568D02*
X134976823Y-129231157D01*
X140526823Y-96021581D02*
X140174222Y-96374182D01*
X137691823Y-123767979D02*
X137701823Y-123757979D01*
X107901823Y-103782979D02*
X107901823Y-103932979D01*
X132976823Y-129757979D02*
X134526823Y-129757979D01*
X130000000Y-127857979D02*
X130000000Y-129757979D01*
X131926823Y-129757979D02*
X132976823Y-129757979D01*
X132826823Y-88357979D02*
X132826823Y-89011613D01*
X140174222Y-96374182D02*
X140063026Y-96374182D01*
X140063026Y-96374182D02*
X139996823Y-96307979D01*
X136000000Y-129757979D02*
X136000000Y-127857979D01*
X134976823Y-129757979D02*
X136000000Y-129757979D01*
X132970000Y-98701156D02*
X132976823Y-98707979D01*
X162684802Y-112500000D02*
X162476823Y-112707979D01*
X134976823Y-129231157D02*
X134976823Y-129757979D01*
X162476823Y-112707979D02*
X162476823Y-112525000D01*
X145026823Y-88757979D02*
X144976823Y-88707979D01*
X110095000Y-110100000D02*
X110095000Y-112095000D01*
X112101823Y-99932979D02*
X111751823Y-99932979D01*
X131926823Y-129757979D02*
X131526823Y-129757979D01*
X111751823Y-99932979D02*
X107901823Y-103782979D01*
X130000000Y-129757979D02*
X131076823Y-129757979D01*
X146701823Y-88757979D02*
X145026823Y-88757979D01*
X131500000Y-129731156D02*
X131526823Y-129757979D01*
X110095000Y-112095000D02*
X112000000Y-114000000D01*
X134500000Y-129731156D02*
X134526823Y-129757979D01*
X165626823Y-111000000D02*
X162451823Y-111000000D01*
X133000000Y-129734802D02*
X132976823Y-129757979D01*
X165626823Y-109500000D02*
X162451823Y-109500000D01*
X137301823Y-123767979D02*
X137691823Y-123767979D01*
X165626823Y-112500000D02*
X162684802Y-112500000D01*
X131500000Y-127857979D02*
X131500000Y-129731156D01*
X162976823Y-108000000D02*
X162476823Y-108000000D01*
X127960413Y-90450331D02*
X127960413Y-89551075D01*
%TO.N,Net-(ESP32_P4-XTAL_P)*%
X128600413Y-89551075D02*
X128613169Y-89563831D01*
X129276823Y-88057979D02*
X129326823Y-88107979D01*
X129320971Y-89563831D02*
X129326823Y-89557979D01*
X129995000Y-90226156D02*
X129995000Y-93820000D01*
X129276823Y-86357979D02*
X129276823Y-88057979D01*
X129326823Y-88107979D02*
X129326823Y-89557979D01*
X128613169Y-89563831D02*
X129320971Y-89563831D01*
X129326823Y-89557979D02*
X129995000Y-90226156D01*
D46*
%TO.N,/DSI_DATAP1*%
X131395000Y-104268766D02*
X131395000Y-103570000D01*
X131174452Y-114321439D02*
X130816074Y-114321439D01*
X130900000Y-122908453D02*
X130900000Y-122478123D01*
X130900000Y-122387964D02*
X130900000Y-117831175D01*
X130816074Y-113721439D02*
X131174452Y-113721439D01*
X130900000Y-117831175D02*
X131414452Y-117316723D01*
X131414452Y-113481439D02*
X131414452Y-113361439D01*
X130576074Y-114081439D02*
X130576074Y-113961439D01*
X130900000Y-122478123D02*
X130900000Y-122387964D01*
X130816099Y-114921439D02*
X131174452Y-114921439D01*
X130900000Y-126782978D02*
X130900000Y-126238123D01*
X130576099Y-115281439D02*
X130576099Y-115161439D01*
X130576074Y-116481439D02*
X130576074Y-116361439D01*
X131414452Y-113361439D02*
X131414452Y-113357979D01*
X131414452Y-104288218D02*
X131395000Y-104268766D01*
X131414452Y-117316723D02*
X131414452Y-116961439D01*
X131414452Y-113357979D02*
X131414452Y-104288218D01*
X131000000Y-127857979D02*
X131000000Y-126882978D01*
X131414452Y-115881439D02*
X131414452Y-115761439D01*
X129450330Y-124788453D02*
X129450330Y-124358123D01*
X131000000Y-126882978D02*
X130900000Y-126782978D01*
X131174452Y-116721439D02*
X130816074Y-116721439D01*
X131174452Y-115521439D02*
X130816099Y-115521439D01*
X131414452Y-114681439D02*
X131414452Y-114561439D01*
X130816074Y-116121439D02*
X131174452Y-116121439D01*
X130900000Y-126238123D02*
G75*
G03*
X130025165Y-125363300I-874800J23D01*
G01*
X130816074Y-116721439D02*
G75*
G02*
X130576061Y-116481439I26J240039D01*
G01*
X131174452Y-113721439D02*
G75*
G03*
X131414539Y-113481439I48J240039D01*
G01*
X130025165Y-125363288D02*
G75*
G02*
X129450412Y-124788453I35J574788D01*
G01*
X131414452Y-115761439D02*
G75*
G03*
X131174452Y-115521448I-239952J39D01*
G01*
X131174452Y-116121439D02*
G75*
G03*
X131414539Y-115881439I48J240039D01*
G01*
X130816074Y-114321439D02*
G75*
G02*
X130576061Y-114081439I26J240039D01*
G01*
X130576074Y-116361439D02*
G75*
G02*
X130816074Y-116121374I240026J39D01*
G01*
X130576074Y-113961439D02*
G75*
G02*
X130816074Y-113721374I240026J39D01*
G01*
X130816099Y-115521439D02*
G75*
G02*
X130576061Y-115281439I1J240039D01*
G01*
X130025165Y-123783288D02*
G75*
G03*
X130899988Y-122908453I35J874788D01*
G01*
X131414452Y-116961439D02*
G75*
G03*
X131174452Y-116721448I-239952J39D01*
G01*
X131174452Y-114921439D02*
G75*
G03*
X131414539Y-114681439I48J240039D01*
G01*
X129450330Y-124358123D02*
G75*
G02*
X130025165Y-123783230I574870J23D01*
G01*
X130576099Y-115161439D02*
G75*
G02*
X130816099Y-114921399I240001J39D01*
G01*
X131414452Y-114561439D02*
G75*
G03*
X131174452Y-114321448I-239952J39D01*
G01*
D45*
%TO.N,Net-(ESP32_P4-XTAL_N)*%
X131660116Y-89538320D02*
X130996482Y-89538320D01*
X131476823Y-88057979D02*
X131476823Y-86357979D01*
X130996482Y-89538320D02*
X130976823Y-89557979D01*
X131476823Y-88057979D02*
X130976823Y-88557979D01*
X130976823Y-88557979D02*
X130976823Y-89557979D01*
X130345000Y-90189802D02*
X130345000Y-93820000D01*
X130976823Y-89557979D02*
X130345000Y-90189802D01*
D46*
%TO.N,/DSI_DATAP0*%
X135403919Y-124839686D02*
X135403919Y-124567686D01*
X132795000Y-114976156D02*
X132795000Y-103570000D01*
X133900001Y-123141158D02*
X133900001Y-117507977D01*
X133900001Y-123479686D02*
X133900001Y-123207686D01*
X133900001Y-123207686D02*
X133900001Y-123141158D01*
X134000000Y-127857979D02*
X133900001Y-127757980D01*
X133900001Y-117507977D02*
X133999999Y-117407979D01*
X133900001Y-127757980D02*
X133900001Y-125927686D01*
X134709918Y-123873685D02*
X134294000Y-123873685D01*
X134294000Y-125533687D02*
X134709918Y-125533687D01*
X133206823Y-115387979D02*
X132795000Y-114976156D01*
X133900001Y-125927686D02*
G75*
G02*
X134294000Y-125533701I393999J-14D01*
G01*
X134709918Y-125533687D02*
G75*
G03*
X135403887Y-124839686I-18J693987D01*
G01*
X134294000Y-123873685D02*
G75*
G02*
X133900015Y-123479686I0J393985D01*
G01*
X135403919Y-124567686D02*
G75*
G03*
X134709918Y-123873681I-694019J-14D01*
G01*
%TO.N,/DSI_CLKP*%
X133075592Y-118494520D02*
X133075592Y-118414520D01*
X132420000Y-118014520D02*
X132420000Y-117839520D01*
X131611312Y-125666061D02*
X131611312Y-125482061D01*
D45*
X132495001Y-127852980D02*
X132500000Y-127857979D01*
D46*
X133228688Y-124746061D02*
X133228688Y-124562061D01*
X132420000Y-126887374D02*
X132420000Y-126402061D01*
X133075592Y-119294520D02*
X133075592Y-119214520D01*
X132420000Y-124044061D02*
X131902000Y-124044061D01*
X132445000Y-103895000D02*
X132445000Y-103570000D01*
X132915592Y-119054520D02*
X132580000Y-119054520D01*
X132420000Y-125264061D02*
X132710688Y-125264061D01*
X132500000Y-126967374D02*
X132420000Y-126887374D01*
X132500000Y-127857979D02*
X132500000Y-126967374D01*
X132580000Y-118654520D02*
X132915592Y-118654520D01*
X131902000Y-125884061D02*
X131829312Y-125884061D01*
X131611298Y-123826061D02*
X131611298Y-123642061D01*
X132420000Y-121402061D02*
X132420000Y-119614520D01*
X131902000Y-125264061D02*
X132420000Y-125264061D01*
X132420000Y-118894520D02*
X132420000Y-118814520D01*
X132420000Y-122722061D02*
X132420000Y-121402061D01*
X131829298Y-123424061D02*
X131902000Y-123424061D01*
X132580000Y-119454520D02*
X132915592Y-119454520D01*
X132915592Y-118254520D02*
X132580000Y-118254520D01*
X132420000Y-103920000D02*
X132445000Y-103895000D01*
X132710688Y-124044061D02*
X132420000Y-124044061D01*
X131829312Y-125264061D02*
X131902000Y-125264061D01*
X132420000Y-122906061D02*
X132420000Y-122722061D01*
X131902000Y-124044061D02*
X131829298Y-124044061D01*
X132420000Y-117839520D02*
X132420000Y-103920000D01*
X132420000Y-118094520D02*
X132420000Y-118014520D01*
X132915592Y-119454520D02*
G75*
G03*
X133075620Y-119294520I8J160020D01*
G01*
X132710688Y-125264061D02*
G75*
G03*
X133228661Y-124746061I12J517961D01*
G01*
X132420000Y-126402061D02*
G75*
G03*
X131902000Y-125884100I-518000J-39D01*
G01*
X133075592Y-118414520D02*
G75*
G03*
X132915592Y-118254508I-159992J20D01*
G01*
X132580000Y-118254520D02*
G75*
G02*
X132419980Y-118094520I0J160020D01*
G01*
X131829312Y-125884061D02*
G75*
G02*
X131611339Y-125666061I-12J217961D01*
G01*
X131829298Y-124044061D02*
G75*
G02*
X131611339Y-123826061I2J217961D01*
G01*
X132580000Y-119054520D02*
G75*
G02*
X132419980Y-118894520I0J160020D01*
G01*
X132915592Y-118654520D02*
G75*
G03*
X133075620Y-118494520I8J160020D01*
G01*
X133075592Y-119214520D02*
G75*
G03*
X132915592Y-119054508I-159992J20D01*
G01*
X132420000Y-118814520D02*
G75*
G02*
X132580000Y-118654500I160000J20D01*
G01*
X133228688Y-124562061D02*
G75*
G03*
X132710688Y-124044112I-517988J-39D01*
G01*
X131611312Y-125482061D02*
G75*
G02*
X131829312Y-125264112I217988J-39D01*
G01*
X131611298Y-123642061D02*
G75*
G02*
X131829298Y-123424098I218002J-39D01*
G01*
X132420000Y-119614520D02*
G75*
G02*
X132580000Y-119454500I160000J20D01*
G01*
X131902000Y-123424061D02*
G75*
G03*
X132419961Y-122906061I0J517961D01*
G01*
%TO.N,/DSI_DATAN1*%
X131745000Y-104381934D02*
X131745000Y-103570000D01*
X131714453Y-117623526D02*
X131716823Y-117621156D01*
X129150330Y-124788453D02*
X129150330Y-124358123D01*
X130600000Y-122478123D02*
X130600000Y-122387964D01*
X131714453Y-116743066D02*
X131714453Y-104412481D01*
X130500000Y-127857979D02*
X130500000Y-126882978D01*
X131714453Y-116743066D02*
X131714453Y-117623526D01*
X130600000Y-126782978D02*
X130600000Y-126238123D01*
X131716823Y-117621156D02*
X131716823Y-117617979D01*
X131714453Y-104412481D02*
X131745000Y-104381934D01*
X130600000Y-122908453D02*
X130600000Y-122478123D01*
X130600000Y-122387964D02*
X130600000Y-118327979D01*
X130600000Y-118327979D02*
X130500000Y-118227979D01*
X130500000Y-126882978D02*
X130600000Y-126782978D01*
X130025165Y-123483288D02*
G75*
G03*
X130599988Y-122908453I35J574788D01*
G01*
X130025165Y-125663288D02*
G75*
G02*
X129150412Y-124788453I35J874788D01*
G01*
X130600000Y-126238123D02*
G75*
G03*
X130025165Y-125663300I-574800J23D01*
G01*
X129150330Y-124358123D02*
G75*
G02*
X130025165Y-123483230I874870J23D01*
G01*
%TO.N,/DSI_CLKN*%
X131653944Y-119362061D02*
X131880000Y-119362061D01*
X131829312Y-124964061D02*
X131902000Y-124964061D01*
X132120000Y-122906061D02*
X132120000Y-122722061D01*
X131311312Y-125666061D02*
X131311312Y-125482061D01*
X131902000Y-124344061D02*
X131829298Y-124344061D01*
X131653921Y-120562061D02*
X131880000Y-120562061D01*
X131902000Y-124964061D02*
X132420000Y-124964061D01*
X131413944Y-119722061D02*
X131413944Y-119602061D01*
X132120000Y-119002061D02*
X132120000Y-118677524D01*
X131880000Y-119962061D02*
X131653944Y-119962061D01*
X131413921Y-120922061D02*
X131413921Y-120802061D01*
X132095000Y-103895000D02*
X132095000Y-103570000D01*
X131311298Y-123826061D02*
X131311298Y-123642061D01*
X131880000Y-121162061D02*
X131653921Y-121162061D01*
X132120000Y-122722061D02*
X132120000Y-121402061D01*
X132120000Y-119122061D02*
X132120000Y-119002061D01*
X132000000Y-127007374D02*
X132120000Y-126887374D01*
X132710688Y-124344061D02*
X132420000Y-124344061D01*
X132120000Y-118677524D02*
X132120000Y-103920000D01*
X132120000Y-103920000D02*
X132095000Y-103895000D01*
X131829298Y-123124061D02*
X131902000Y-123124061D01*
X132000000Y-127857979D02*
X132000000Y-127007374D01*
X131902000Y-126184061D02*
X131829312Y-126184061D01*
X132420000Y-124344061D02*
X131902000Y-124344061D01*
X132420000Y-124964061D02*
X132710688Y-124964061D01*
X132120000Y-120322061D02*
X132120000Y-120202061D01*
D45*
X132044999Y-127812980D02*
X132000000Y-127857979D01*
D46*
X132120000Y-126887374D02*
X132120000Y-126402061D01*
X132928688Y-124746061D02*
X132928688Y-124562061D01*
X131311312Y-125482061D02*
G75*
G02*
X131829312Y-124964112I517988J-39D01*
G01*
X131880000Y-119362061D02*
G75*
G03*
X132119961Y-119122061I0J239961D01*
G01*
X132928688Y-124562061D02*
G75*
G03*
X132710688Y-124344112I-217988J-39D01*
G01*
X131413921Y-120802061D02*
G75*
G02*
X131653921Y-120562121I239979J-39D01*
G01*
X131653944Y-119962061D02*
G75*
G02*
X131413939Y-119722061I-44J239961D01*
G01*
X132120000Y-121402061D02*
G75*
G03*
X131880000Y-121162100I-240000J-39D01*
G01*
X131311298Y-123642061D02*
G75*
G02*
X131829298Y-123124098I518002J-39D01*
G01*
X131880000Y-120562061D02*
G75*
G03*
X132119961Y-120322061I0J239961D01*
G01*
X132120000Y-120202061D02*
G75*
G03*
X131880000Y-119962100I-240000J-39D01*
G01*
X131902000Y-123124061D02*
G75*
G03*
X132119961Y-122906061I0J217961D01*
G01*
X132120000Y-126402061D02*
G75*
G03*
X131902000Y-126184100I-218000J-39D01*
G01*
X131413944Y-119602061D02*
G75*
G02*
X131653944Y-119362144I239956J-39D01*
G01*
X131829298Y-124344061D02*
G75*
G02*
X131311339Y-123826061I2J517961D01*
G01*
X131653921Y-121162061D02*
G75*
G02*
X131413939Y-120922061I-21J239961D01*
G01*
X132710688Y-124964061D02*
G75*
G03*
X132928661Y-124746061I12J217961D01*
G01*
X131829312Y-126184061D02*
G75*
G02*
X131311339Y-125666061I-12J517961D01*
G01*
%TO.N,/DSI_DATAN0*%
X135103917Y-124839686D02*
X135103917Y-124567686D01*
X134709918Y-124173687D02*
X134294000Y-124173687D01*
X133359999Y-122901158D02*
X133061176Y-122901158D01*
X133359999Y-121701158D02*
X133061176Y-121701158D01*
X132821176Y-122661158D02*
X132821176Y-122541158D01*
X133599999Y-120861158D02*
X133599999Y-120741158D01*
X133061154Y-119901158D02*
X133359999Y-119901158D01*
X133061176Y-122301158D02*
X133359999Y-122301158D01*
X133500000Y-127857979D02*
X133599999Y-127757980D01*
X133599999Y-117117978D02*
X133606823Y-117111154D01*
X133599999Y-127757980D02*
X133599999Y-125927686D01*
X133599999Y-118387116D02*
X133599999Y-117117978D01*
X132821154Y-120261158D02*
X132821154Y-120141158D01*
X133599999Y-123207686D02*
X133599999Y-123141158D01*
X133606823Y-115207979D02*
X133145000Y-114746156D01*
X133606823Y-117111154D02*
X133606823Y-115207979D01*
X133599999Y-123479686D02*
X133599999Y-123207686D01*
X133145000Y-114746156D02*
X133145000Y-103570000D01*
X133359999Y-120501158D02*
X133061154Y-120501158D01*
X133061176Y-121101158D02*
X133359999Y-121101158D01*
X132821176Y-121461158D02*
X132821176Y-121341158D01*
X134294000Y-125233685D02*
X134709918Y-125233685D01*
X133599999Y-119541158D02*
X133599999Y-118387116D01*
X133599999Y-119661158D02*
X133599999Y-119541158D01*
X133599999Y-122061158D02*
X133599999Y-121941158D01*
X133061154Y-120501158D02*
G75*
G02*
X132821242Y-120261158I46J239958D01*
G01*
X133599999Y-120741158D02*
G75*
G03*
X133359999Y-120501201I-239999J-42D01*
G01*
X133599999Y-125927686D02*
G75*
G02*
X134294000Y-125233699I694001J-14D01*
G01*
X133359999Y-121101158D02*
G75*
G03*
X133599958Y-120861158I1J239958D01*
G01*
X134709918Y-125233685D02*
G75*
G03*
X135103885Y-124839686I-18J393985D01*
G01*
X132821176Y-122541158D02*
G75*
G02*
X133061176Y-122301176I240024J-42D01*
G01*
X133359999Y-122301158D02*
G75*
G03*
X133599958Y-122061158I1J239958D01*
G01*
X133599999Y-121941158D02*
G75*
G03*
X133359999Y-121701201I-239999J-42D01*
G01*
X132821176Y-121341158D02*
G75*
G02*
X133061176Y-121101176I240024J-42D01*
G01*
X133599999Y-123141158D02*
G75*
G03*
X133359999Y-122901201I-239999J-42D01*
G01*
X133061176Y-121701158D02*
G75*
G02*
X132821242Y-121461158I24J239958D01*
G01*
X134294000Y-124173687D02*
G75*
G02*
X133600013Y-123479686I0J693987D01*
G01*
X133359999Y-119901158D02*
G75*
G03*
X133599958Y-119661158I1J239958D01*
G01*
X132821154Y-120141158D02*
G75*
G02*
X133061154Y-119901154I240046J-42D01*
G01*
X133061176Y-122901158D02*
G75*
G02*
X132821242Y-122661158I24J239958D01*
G01*
X135103917Y-124567686D02*
G75*
G03*
X134709918Y-124173683I-394017J-14D01*
G01*
D45*
%TO.N,/VDDO_3*%
X133495000Y-103570000D02*
X133495000Y-103045000D01*
X133314157Y-102864157D02*
X132976823Y-102864157D01*
X133495000Y-103045000D02*
X133314157Y-102864157D01*
X138476823Y-96070000D02*
X137845000Y-96070000D01*
%TO.N,/DAT0*%
X120130000Y-98870000D02*
X128095000Y-98870000D01*
X112101823Y-101032979D02*
X117967021Y-101032979D01*
X117967021Y-101032979D02*
X120130000Y-98870000D01*
%TO.N,/DAT2*%
X126215000Y-97470000D02*
X123177979Y-94432979D01*
X123177979Y-94432979D02*
X122822021Y-94432979D01*
X112101823Y-94432979D02*
X122822021Y-94432979D01*
X128095000Y-97470000D02*
X126215000Y-97470000D01*
%TO.N,/DAT1*%
X112101823Y-102132979D02*
X118117021Y-102132979D01*
X118117021Y-102132979D02*
X121030000Y-99220000D01*
X121030000Y-99220000D02*
X128095000Y-99220000D01*
%TO.N,/DAT3{slash}CD*%
X122314979Y-95532979D02*
X124602000Y-97820000D01*
X121959021Y-95532979D02*
X122314979Y-95532979D01*
X112101823Y-95532979D02*
X121959021Y-95532979D01*
X124602000Y-97820000D02*
X128095000Y-97820000D01*
%TO.N,/CMD*%
X121777021Y-96632979D02*
X122132979Y-96632979D01*
X122132979Y-96632979D02*
X123670000Y-98170000D01*
X112101823Y-96632979D02*
X121777021Y-96632979D01*
X123670000Y-98170000D02*
X128095000Y-98170000D01*
%TO.N,/CLK*%
X112101823Y-98832979D02*
X112414802Y-98520000D01*
X112414802Y-98520000D02*
X128095000Y-98520000D01*
%TO.N,+3V3*%
X148976823Y-89707979D02*
X148976823Y-90707979D01*
X137845000Y-99920000D02*
X137544322Y-99920000D01*
X135245000Y-92976156D02*
X135245000Y-93820000D01*
X137845000Y-94670000D02*
X138145678Y-94670000D01*
X137701823Y-124397979D02*
X136886823Y-124397979D01*
X137845000Y-95370000D02*
X137238844Y-95370000D01*
X165626823Y-105500000D02*
X166554804Y-105500000D01*
X138355055Y-99920000D02*
X137845000Y-99920000D01*
X126027108Y-101320000D02*
X125853554Y-101146446D01*
X136500000Y-127857979D02*
X137000000Y-127857979D01*
X138145678Y-94670000D02*
X138476823Y-94338855D01*
X131395000Y-92500000D02*
X131395000Y-93820000D01*
X136886823Y-124397979D02*
X136876823Y-124407979D01*
X137222000Y-95353156D02*
X137222000Y-94670000D01*
X136995000Y-103570000D02*
X136995000Y-103870678D01*
X113951823Y-97732979D02*
X113976823Y-97707979D01*
X138476823Y-94338855D02*
X138476823Y-93707979D01*
X112101823Y-97732979D02*
X113951823Y-97732979D01*
X136876823Y-124407979D02*
X136876823Y-124984802D01*
X137648524Y-104524202D02*
X137660600Y-104524202D01*
X126867205Y-96817597D02*
X127169608Y-97120000D01*
X129445000Y-93042935D02*
X129645000Y-93242935D01*
X137000000Y-127857979D02*
X137000000Y-125107979D01*
X137238844Y-95370000D02*
X137222000Y-95353156D01*
X136876823Y-124984802D02*
X137000000Y-125107979D01*
X128095000Y-101320000D02*
X126027108Y-101320000D01*
X138543016Y-99732039D02*
X138355055Y-99920000D01*
X129295000Y-93820000D02*
X129645000Y-93820000D01*
X166554804Y-105500000D02*
X166846825Y-105207979D01*
X127169608Y-97120000D02*
X128095000Y-97120000D01*
X136995000Y-103870678D02*
X137648524Y-104524202D01*
X137222000Y-94670000D02*
X137845000Y-94670000D01*
X129645000Y-93242935D02*
X129645000Y-93820000D01*
%TO.N,+5V*%
X190666823Y-92707979D02*
X192541823Y-92707979D01*
X192541823Y-92707979D02*
X193551823Y-93717979D01*
X193551823Y-96717979D02*
X192761823Y-97507979D01*
X192761823Y-97507979D02*
X190666823Y-97507979D01*
X193551823Y-93717979D02*
X193551823Y-96717979D01*
%TO.N,/FLASH_CLK*%
X115401026Y-120793727D02*
X115401026Y-120500000D01*
X130345000Y-109905000D02*
X130345000Y-103570000D01*
X118298176Y-120500000D02*
X118546026Y-120500000D01*
X116271026Y-120500000D02*
X116271026Y-120793727D01*
X119000000Y-120500000D02*
X119750000Y-120500000D01*
X113900450Y-119925576D02*
X114243814Y-119925576D01*
X112500000Y-120500000D02*
X113326026Y-120500000D01*
X111365000Y-118365000D02*
X111365000Y-119365000D01*
X117428176Y-119925700D02*
X117723876Y-119925700D01*
X114531026Y-120212788D02*
X114531026Y-120500000D01*
X117141026Y-120500000D02*
X117141026Y-120212850D01*
X115401026Y-120500000D02*
X115401026Y-120206273D01*
X114824752Y-121087453D02*
X115107300Y-121087453D01*
X119750000Y-120500000D02*
X130345000Y-109905000D01*
X115694752Y-119912547D02*
X115977300Y-119912547D01*
X117141026Y-120793727D02*
X117141026Y-120500000D01*
X111365000Y-119365000D02*
X112500000Y-120500000D01*
X116564752Y-121087453D02*
X116847300Y-121087453D01*
X114531026Y-120500000D02*
X114531026Y-120793727D01*
X118546026Y-120500000D02*
X119000000Y-120500000D01*
X116271026Y-120206273D02*
X116271026Y-120500000D01*
X117141026Y-120212850D02*
G75*
G02*
X117428176Y-119925626I287174J50D01*
G01*
X115107300Y-121087453D02*
G75*
G03*
X115401053Y-120793727I0J293753D01*
G01*
X118011026Y-120212850D02*
G75*
G03*
X118298176Y-120500074I287174J-50D01*
G01*
X115401026Y-120206273D02*
G75*
G02*
X115694752Y-119912526I293774J-27D01*
G01*
X116271026Y-120793727D02*
G75*
G03*
X116564752Y-121087474I293774J27D01*
G01*
X117723876Y-119925700D02*
G75*
G02*
X118011000Y-120212850I24J-287100D01*
G01*
X116847300Y-121087453D02*
G75*
G03*
X117141053Y-120793727I0J293753D01*
G01*
X114243814Y-119925576D02*
G75*
G02*
X114531024Y-120212788I-14J-287224D01*
G01*
X115977300Y-119912547D02*
G75*
G02*
X116271053Y-120206273I0J-293753D01*
G01*
X114531026Y-120793727D02*
G75*
G03*
X114824752Y-121087474I293774J27D01*
G01*
X113326026Y-120500000D02*
G75*
G03*
X113613200Y-120212788I-26J287200D01*
G01*
X113613238Y-120212788D02*
G75*
G02*
X113900450Y-119925638I287162J-12D01*
G01*
%TO.N,/FLASH_DO_IO_(IO1)_1*%
X123168000Y-109590293D02*
X123310000Y-109590293D01*
X118908000Y-109590293D02*
X119050000Y-109590293D01*
X121464000Y-110716000D02*
X121464000Y-109874274D01*
X116494000Y-109874293D02*
X116494000Y-110716000D01*
X116778000Y-111000000D02*
X116920000Y-111000000D01*
X117488000Y-109590293D02*
X117630000Y-109590293D01*
X116068000Y-109590293D02*
X116210000Y-109590293D01*
X124020000Y-111000000D02*
X124500000Y-111000000D01*
X112635000Y-110100000D02*
X113535000Y-111000000D01*
X117204000Y-110716000D02*
X117204000Y-109874293D01*
X122174000Y-109874274D02*
X122174000Y-110716000D01*
X120754000Y-109874293D02*
X120754000Y-110716000D01*
X121748000Y-109590274D02*
X121890000Y-109590274D01*
X119334000Y-109874293D02*
X119334000Y-110716000D01*
X118198000Y-111000000D02*
X118340000Y-111000000D01*
X121038000Y-111000000D02*
X121180000Y-111000000D01*
X118624000Y-110716000D02*
X118624000Y-109874293D01*
X120328000Y-109590293D02*
X120470000Y-109590293D01*
X123878000Y-111000000D02*
X124020000Y-111000000D01*
X122884000Y-110716000D02*
X122884000Y-109874293D01*
X124500000Y-111000000D02*
X128945000Y-106555000D01*
X128945000Y-106555000D02*
X128945000Y-103570000D01*
X123594000Y-109874293D02*
X123594000Y-110716000D01*
X120044000Y-110716000D02*
X120044000Y-109874293D01*
X117914000Y-109874293D02*
X117914000Y-110716000D01*
X119618000Y-111000000D02*
X119760000Y-111000000D01*
X115784000Y-110716000D02*
X115784000Y-109874293D01*
X122458000Y-111000000D02*
X122600000Y-111000000D01*
X113535000Y-111000000D02*
X115500000Y-111000000D01*
X118340000Y-111000000D02*
G75*
G03*
X118624000Y-110716000I0J284000D01*
G01*
X117630000Y-109590293D02*
G75*
G02*
X117914007Y-109874293I0J-284007D01*
G01*
X122174000Y-110716000D02*
G75*
G03*
X122458000Y-111000000I284000J0D01*
G01*
X119334000Y-110716000D02*
G75*
G03*
X119618000Y-111000000I284000J0D01*
G01*
X120754000Y-110716000D02*
G75*
G03*
X121038000Y-111000000I284000J0D01*
G01*
X121890000Y-109590274D02*
G75*
G02*
X122174026Y-109874274I0J-284026D01*
G01*
X119760000Y-111000000D02*
G75*
G03*
X120044000Y-110716000I0J284000D01*
G01*
X120470000Y-109590293D02*
G75*
G02*
X120754007Y-109874293I0J-284007D01*
G01*
X118624000Y-109874293D02*
G75*
G02*
X118908000Y-109590300I284000J-7D01*
G01*
X123310000Y-109590293D02*
G75*
G02*
X123594007Y-109874293I0J-284007D01*
G01*
X123594000Y-110716000D02*
G75*
G03*
X123878000Y-111000000I284000J0D01*
G01*
X115500000Y-111000000D02*
G75*
G03*
X115784000Y-110716000I0J284000D01*
G01*
X116210000Y-109590293D02*
G75*
G02*
X116494007Y-109874293I0J-284007D01*
G01*
X117914000Y-110716000D02*
G75*
G03*
X118198000Y-111000000I284000J0D01*
G01*
X121464000Y-109874274D02*
G75*
G02*
X121748000Y-109590300I284000J-26D01*
G01*
X116494000Y-110716000D02*
G75*
G03*
X116778000Y-111000000I284000J0D01*
G01*
X120044000Y-109874293D02*
G75*
G02*
X120328000Y-109590300I284000J-7D01*
G01*
X121180000Y-111000000D02*
G75*
G03*
X121464000Y-110716000I0J284000D01*
G01*
X115784000Y-109874293D02*
G75*
G02*
X116068000Y-109590300I284000J-7D01*
G01*
X116920000Y-111000000D02*
G75*
G03*
X117204000Y-110716000I0J284000D01*
G01*
X122884000Y-109874293D02*
G75*
G02*
X123168000Y-109590300I284000J-7D01*
G01*
X119050000Y-109590293D02*
G75*
G02*
X119334007Y-109874293I0J-284007D01*
G01*
X122600000Y-111000000D02*
G75*
G03*
X122884000Y-110716000I0J284000D01*
G01*
X117204000Y-109874293D02*
G75*
G02*
X117488000Y-109590300I284000J-7D01*
G01*
%TO.N,/FLASH_IO3*%
X122267618Y-116232386D02*
X122413282Y-116086719D01*
X113000000Y-119000000D02*
X119500000Y-119000000D01*
X120349723Y-115771128D02*
X120495386Y-115625466D01*
X120956642Y-116960703D02*
X120349723Y-116353784D01*
X120810977Y-117689027D02*
X120956641Y-117543360D01*
X124250000Y-114250000D02*
X129995000Y-108505000D01*
X121078042Y-115625466D02*
X121684962Y-116232386D01*
X112635000Y-117900000D02*
X112635000Y-118635000D01*
X119621451Y-117082157D02*
X120228321Y-117689027D01*
X122413282Y-116086719D02*
X122413282Y-116086718D01*
X119500001Y-118417344D02*
X118893132Y-117810475D01*
X123724259Y-114775745D02*
X123869923Y-114630078D01*
X112635000Y-118635000D02*
X113000000Y-119000000D01*
X123869923Y-114630078D02*
X124250000Y-114250000D01*
X122534719Y-114168861D02*
X123141603Y-114775745D01*
X120956641Y-117543360D02*
X120956641Y-117543359D01*
X121806400Y-114314523D02*
X121952063Y-114168861D01*
X122413283Y-115504062D02*
X121806400Y-114897179D01*
X129995000Y-108505000D02*
X129995000Y-103570000D01*
X118893132Y-117227819D02*
X119038795Y-117082157D01*
X120956641Y-117543359D02*
G75*
G03*
X120956673Y-116960673I-291341J291359D01*
G01*
X121684962Y-116232386D02*
G75*
G03*
X122267618Y-116232386I291328J291328D01*
G01*
X120349723Y-116353784D02*
G75*
G02*
X120349767Y-115771172I291377J291284D01*
G01*
X119038795Y-117082157D02*
G75*
G02*
X119621451Y-117082157I291328J-291328D01*
G01*
X120228321Y-117689027D02*
G75*
G03*
X120810977Y-117689027I291328J291328D01*
G01*
X121806400Y-114897179D02*
G75*
G02*
X121806449Y-114314572I291300J291279D01*
G01*
X122413282Y-116086718D02*
G75*
G03*
X122413273Y-115504073I-291282J291318D01*
G01*
X121952063Y-114168861D02*
G75*
G02*
X122534719Y-114168861I291328J-291328D01*
G01*
X118893132Y-117810475D02*
G75*
G02*
X118893085Y-117227772I291368J291375D01*
G01*
X119500000Y-119000000D02*
G75*
G03*
X119499973Y-118417373I-291300J291300D01*
G01*
X123141603Y-114775745D02*
G75*
G03*
X123724259Y-114775745I291328J291328D01*
G01*
X120495386Y-115625466D02*
G75*
G02*
X121078042Y-115625466I291328J-291328D01*
G01*
%TO.N,/FLASH_{slash}CS*%
X120306000Y-106380054D02*
X120480000Y-106380054D01*
X122916000Y-108619950D02*
X123090000Y-108619950D01*
X120828000Y-107500000D02*
X120828000Y-108271949D01*
X122046000Y-106380051D02*
X122220000Y-106380051D01*
X119958000Y-108271946D02*
X119958000Y-107500000D01*
X123786000Y-106380047D02*
X123960000Y-106380047D01*
X124308000Y-106728047D02*
X124308000Y-107500000D01*
X125700000Y-107500000D02*
X126156014Y-107500000D01*
X122568000Y-107500000D02*
X122568000Y-108271950D01*
X125178000Y-108271950D02*
X125178000Y-107848000D01*
X114005000Y-110000000D02*
X116505000Y-107500000D01*
X123438000Y-107500000D02*
X123438000Y-106728047D01*
X118566000Y-106380054D02*
X118740000Y-106380054D01*
X124656000Y-108619950D02*
X124830000Y-108619950D01*
X128595000Y-105405000D02*
X128595000Y-103570000D01*
X119088000Y-106728054D02*
X119088000Y-107500000D01*
X119436000Y-108619946D02*
X119610000Y-108619946D01*
X126500000Y-107500000D02*
X128595000Y-105405000D01*
X118218000Y-107500000D02*
X118218000Y-106728054D01*
X117348000Y-107848000D02*
X117348000Y-108271946D01*
X126156014Y-107500000D02*
X126500000Y-107500000D01*
X116505000Y-107500000D02*
X117000000Y-107500000D01*
X122568000Y-106728051D02*
X122568000Y-107500000D01*
X121698000Y-107500000D02*
X121698000Y-106728051D01*
X118218000Y-108271946D02*
X118218000Y-107848000D01*
X123438000Y-108271950D02*
X123438000Y-107500000D01*
X124308000Y-107500000D02*
X124308000Y-107848000D01*
X121698000Y-108271949D02*
X121698000Y-107500000D01*
X125526000Y-107500000D02*
X125700000Y-107500000D01*
X119958000Y-107500000D02*
X119958000Y-106728054D01*
X120828000Y-106728054D02*
X120828000Y-107500000D01*
X124308000Y-107848000D02*
X124308000Y-108271950D01*
X119088000Y-107500000D02*
X119088000Y-108271946D01*
X118218000Y-107848000D02*
X118218000Y-107500000D01*
X117696000Y-108619946D02*
X117870000Y-108619946D01*
X121176000Y-108619949D02*
X121350000Y-108619949D01*
X118740000Y-106380054D02*
G75*
G02*
X119088046Y-106728054I0J-348046D01*
G01*
X124830000Y-108619950D02*
G75*
G03*
X125178050Y-108271950I0J348050D01*
G01*
X122568000Y-108271950D02*
G75*
G03*
X122916000Y-108619900I348000J50D01*
G01*
X118218000Y-106728054D02*
G75*
G02*
X118566000Y-106380100I348000J-46D01*
G01*
X117870000Y-108619946D02*
G75*
G03*
X118218046Y-108271946I0J348046D01*
G01*
X123090000Y-108619950D02*
G75*
G03*
X123438050Y-108271950I0J348050D01*
G01*
X119088000Y-108271946D02*
G75*
G03*
X119436000Y-108619900I348000J46D01*
G01*
X123960000Y-106380047D02*
G75*
G02*
X124307953Y-106728047I0J-347953D01*
G01*
X119958000Y-106728054D02*
G75*
G02*
X120306000Y-106380100I348000J-46D01*
G01*
X121350000Y-108619949D02*
G75*
G03*
X121698049Y-108271949I0J348049D01*
G01*
X120480000Y-106380054D02*
G75*
G02*
X120828046Y-106728054I0J-348046D01*
G01*
X125178000Y-107848000D02*
G75*
G02*
X125526000Y-107500000I348000J0D01*
G01*
X120828000Y-108271949D02*
G75*
G03*
X121176000Y-108619900I348000J49D01*
G01*
X117348000Y-108271946D02*
G75*
G03*
X117696000Y-108619900I348000J46D01*
G01*
X117000000Y-107500000D02*
G75*
G02*
X117348000Y-107848000I0J-348000D01*
G01*
X124308000Y-108271950D02*
G75*
G03*
X124656000Y-108619900I348000J50D01*
G01*
X123438000Y-106728047D02*
G75*
G02*
X123786000Y-106380000I348000J47D01*
G01*
X122220000Y-106380051D02*
G75*
G02*
X122568049Y-106728051I0J-348049D01*
G01*
X119610000Y-108619946D02*
G75*
G03*
X119958046Y-108271946I0J348046D01*
G01*
X121698000Y-106728051D02*
G75*
G02*
X122046000Y-106380100I348000J-49D01*
G01*
%TO.N,/FLASH_DI_(IO0)*%
X110095000Y-118190000D02*
X110095000Y-120095000D01*
X130695000Y-111305000D02*
X130695000Y-103570000D01*
X120000000Y-122000000D02*
X130695000Y-111305000D01*
X112000000Y-122000000D02*
X120000000Y-122000000D01*
X110095000Y-120095000D02*
X112000000Y-122000000D01*
%TO.N,/FLASH_DO_IO_(IO1)_2*%
X113054661Y-112000000D02*
X111365000Y-110310339D01*
X118040000Y-113380000D02*
X117850000Y-113380000D01*
X123740000Y-113380000D02*
X123550000Y-113380000D01*
X123170000Y-113000000D02*
X123170000Y-112380000D01*
X122220000Y-112380000D02*
X122220000Y-113000000D01*
X120890000Y-112000000D02*
X120700000Y-112000000D01*
X118990000Y-112000000D02*
X118800000Y-112000000D01*
X129295000Y-103570000D02*
X129295000Y-107705000D01*
X120320000Y-112380000D02*
X120320000Y-113000000D01*
X121840000Y-113380000D02*
X121650000Y-113380000D01*
X119370000Y-113000000D02*
X119370000Y-112380000D01*
X125000000Y-112000000D02*
X124500000Y-112000000D01*
X122790000Y-112000000D02*
X122600000Y-112000000D01*
X117470000Y-113000000D02*
X117470000Y-112380000D01*
X129295000Y-107705000D02*
X125000000Y-112000000D01*
X121270000Y-113000000D02*
X121270000Y-112380000D01*
X116000000Y-112000000D02*
X113054661Y-112000000D01*
X119940000Y-113380000D02*
X119750000Y-113380000D01*
X118420000Y-112380000D02*
X118420000Y-113000000D01*
X124120000Y-112380000D02*
X124120000Y-113000000D01*
X117090000Y-112000000D02*
X116900000Y-112000000D01*
X116900000Y-112000000D02*
X116000000Y-112000000D01*
X119750000Y-113380000D02*
G75*
G02*
X119370000Y-113000000I0J380000D01*
G01*
X121270000Y-112380000D02*
G75*
G03*
X120890000Y-112000000I-380000J0D01*
G01*
X119370000Y-112380000D02*
G75*
G03*
X118990000Y-112000000I-380000J0D01*
G01*
X120700000Y-112000000D02*
G75*
G03*
X120320000Y-112380000I0J-380000D01*
G01*
X124120000Y-113000000D02*
G75*
G02*
X123740000Y-113380000I-380000J0D01*
G01*
X118800000Y-112000000D02*
G75*
G03*
X118420000Y-112380000I0J-380000D01*
G01*
X120320000Y-113000000D02*
G75*
G02*
X119940000Y-113380000I-380000J0D01*
G01*
X121650000Y-113380000D02*
G75*
G02*
X121270000Y-113000000I0J380000D01*
G01*
X117850000Y-113380000D02*
G75*
G02*
X117470000Y-113000000I0J380000D01*
G01*
X118420000Y-113000000D02*
G75*
G02*
X118040000Y-113380000I-380000J0D01*
G01*
X117470000Y-112380000D02*
G75*
G03*
X117090000Y-112000000I-380000J0D01*
G01*
X122600000Y-112000000D02*
G75*
G03*
X122220000Y-112380000I0J-380000D01*
G01*
X124500000Y-112000000D02*
G75*
G03*
X124120000Y-112380000I0J-380000D01*
G01*
X123170000Y-112380000D02*
G75*
G03*
X122790000Y-112000000I-380000J0D01*
G01*
X123550000Y-113380000D02*
G75*
G02*
X123170000Y-113000000I0J380000D01*
G01*
X122220000Y-113000000D02*
G75*
G02*
X121840000Y-113380000I-380000J0D01*
G01*
%TO.N,/DET2*%
X118938021Y-103082979D02*
X122451000Y-99570000D01*
X122451000Y-99570000D02*
X128095000Y-99570000D01*
X112201823Y-103082979D02*
X118938021Y-103082979D01*
%TO.N,/DET1*%
X117849857Y-105861622D02*
X123791479Y-99920000D01*
X101701823Y-103932979D02*
X103630466Y-105861622D01*
X123791479Y-99920000D02*
X128095000Y-99920000D01*
X103630466Y-105861622D02*
X117849857Y-105861622D01*
%TO.N,I2C_SDA*%
X137845000Y-100270000D02*
X142038844Y-100270000D01*
X142038844Y-100270000D02*
X142476823Y-100707979D01*
X153561008Y-105944760D02*
X153616248Y-106000000D01*
X153616248Y-106000000D02*
X165626823Y-106000000D01*
X142476823Y-100707979D02*
X143476823Y-100707979D01*
X135500000Y-126797132D02*
X135500000Y-127857979D01*
X135626102Y-126671030D02*
X135500000Y-126797132D01*
%TO.N,+7V2*%
X168476823Y-124157979D02*
X168476823Y-124207979D01*
%TO.N,+5V5*%
X141476823Y-121707979D02*
X144976823Y-121707979D01*
%TO.N,Net-(ESP32_P4-GPIO40)*%
X136645000Y-92240195D02*
X136645000Y-93820000D01*
X137387854Y-91216544D02*
X136676431Y-91927967D01*
X136676431Y-92208764D02*
X136645000Y-92240195D01*
X137389263Y-91216544D02*
X137387854Y-91216544D01*
X136676431Y-91927967D02*
X136676431Y-92208764D01*
%TO.N,Net-(ESP32_P4-GPIO39)*%
X137379105Y-92211973D02*
X137379105Y-92214603D01*
X137929961Y-91661117D02*
X137379105Y-92211973D01*
X136995000Y-92598708D02*
X136995000Y-93820000D01*
X137379105Y-92214603D02*
X136995000Y-92598708D01*
%TO.N,Net-(ESP32_P4-GPIO41)*%
X136689313Y-91207979D02*
X136295000Y-91602292D01*
X136295000Y-92526156D02*
X136295000Y-93820000D01*
X136295000Y-91602292D02*
X136295000Y-92526156D01*
%TO.N,/VDDO_PSRAM*%
X137845000Y-98170000D02*
X140258623Y-98170000D01*
X138876823Y-96521000D02*
X138979080Y-96521000D01*
X139156823Y-101207979D02*
X139142844Y-101207979D01*
X138904865Y-100970000D02*
X137845000Y-100970000D01*
X137845000Y-96420000D02*
X138189012Y-96420000D01*
X138189012Y-96420000D02*
X138290012Y-96521000D01*
X138979080Y-96521000D02*
X139192101Y-96307979D01*
X140258623Y-98170000D02*
X140358623Y-98070000D01*
X139192101Y-96307979D02*
X139356823Y-96307979D01*
X139142844Y-101207979D02*
X138904865Y-100970000D01*
X138290012Y-96521000D02*
X138876823Y-96521000D01*
X138979080Y-96521000D02*
X139000516Y-96499564D01*
%TO.N,I2C_SCL*%
X153579851Y-106500000D02*
X165626823Y-106500000D01*
X153470582Y-106537909D02*
X153541942Y-106537909D01*
X135000000Y-126357979D02*
X135000000Y-127857979D01*
X153541942Y-106537909D02*
X153579851Y-106500000D01*
X142551145Y-101207979D02*
X142976823Y-101207979D01*
X137845000Y-100620000D02*
X141963166Y-100620000D01*
X141963166Y-100620000D02*
X142551145Y-101207979D01*
%TO.N,USB_DATA_P*%
X150876823Y-96107979D02*
X152526823Y-94457979D01*
X191551823Y-94462979D02*
X191551823Y-95217979D01*
X136645000Y-104145000D02*
X137707979Y-105207979D01*
X191446823Y-94357979D02*
X191551823Y-94462979D01*
X191411823Y-95357979D02*
X190666823Y-95357979D01*
X141776823Y-105207979D02*
X150876823Y-96107979D01*
X136645000Y-103570000D02*
X136645000Y-104145000D01*
X190666823Y-94357979D02*
X191446823Y-94357979D01*
X191551823Y-95217979D02*
X191411823Y-95357979D01*
X137707979Y-105207979D02*
X141776823Y-105207979D01*
%TO.N,USB_DATA_N*%
X150463146Y-98721653D02*
X150378294Y-98806507D01*
X150431008Y-98350104D02*
X150463146Y-98382242D01*
X189885823Y-95708979D02*
X189885823Y-94858979D01*
X189885823Y-94858979D02*
X189886823Y-94857979D01*
X190034823Y-95857979D02*
X189885823Y-95708979D01*
X149814493Y-99370309D02*
X142883802Y-106301000D01*
X150515861Y-97925840D02*
X150431008Y-98010692D01*
X142883802Y-106301000D02*
X138375322Y-106301000D01*
X150887411Y-97957979D02*
X150855272Y-97925840D01*
X150378294Y-98806507D02*
X149814493Y-99370309D01*
X138375322Y-106301000D02*
X136295000Y-104220678D01*
X190666823Y-95857979D02*
X190034823Y-95857979D01*
X136295000Y-104220678D02*
X136295000Y-103570000D01*
X189886823Y-94857979D02*
X190666823Y-94857979D01*
X151226823Y-97957979D02*
G75*
G02*
X150887411Y-97957979I-169706J169704D01*
G01*
X150855272Y-97925840D02*
G75*
G03*
X150515862Y-97925840I-169705J-169703D01*
G01*
X150463146Y-98382242D02*
G75*
G02*
X150463099Y-98721606I-169746J-169658D01*
G01*
X150431008Y-98010692D02*
G75*
G03*
X150431006Y-98350106I169692J-169708D01*
G01*
%TO.N,/VDDO_FLASH*%
X136921000Y-96770000D02*
X136921000Y-94744000D01*
X129256723Y-102987879D02*
X129644950Y-102987879D01*
X128976823Y-97486177D02*
X128976823Y-102707979D01*
X137845000Y-96770000D02*
X136921000Y-96770000D01*
X114500000Y-117500000D02*
X114305000Y-117500000D01*
X136921000Y-94763802D02*
X136865177Y-94707979D01*
X128976823Y-102707979D02*
X129256723Y-102987879D01*
X129645000Y-103009743D02*
X129645000Y-103570000D01*
X129644950Y-103009693D02*
X129645000Y-103009743D01*
X129055021Y-94707979D02*
X128976823Y-94786177D01*
X129644950Y-102987879D02*
X129644950Y-103009693D01*
X114305000Y-117500000D02*
X113905000Y-117900000D01*
X128976823Y-94786177D02*
X128976823Y-97486177D01*
X136865177Y-94707979D02*
X129055021Y-94707979D01*
%TO.N,Net-(ESP32_P4-FB_DCDC)*%
X148976823Y-87807979D02*
X147726823Y-89057979D01*
X147476823Y-91707979D02*
X139466922Y-91707979D01*
X137845000Y-93329901D02*
X137845000Y-94320000D01*
X147726823Y-89057979D02*
X147726823Y-91457979D01*
X147726823Y-91457979D02*
X147476823Y-91707979D01*
X139466922Y-91707979D02*
X137845000Y-93329901D01*
%TO.N,Net-(ESP32_P4-EN_DCDC)*%
X146701823Y-87807979D02*
X142490206Y-87807979D01*
X142490206Y-87807979D02*
X137345000Y-92953185D01*
X137345000Y-92953185D02*
X137345000Y-93820000D01*
%TO.N,/ESP_VDD_HP*%
X139128285Y-94130839D02*
X139013984Y-94245140D01*
X133076823Y-92621625D02*
X133145000Y-92689802D01*
X137845000Y-95020000D02*
X138239124Y-95020000D01*
X133145000Y-92689802D02*
X133145000Y-92707979D01*
X127000000Y-103500000D02*
X127430000Y-103070000D01*
X138239124Y-95020000D02*
X139013984Y-94245140D01*
X128621000Y-94707979D02*
X128621000Y-102844678D01*
X133145000Y-94345000D02*
X128983979Y-94345000D01*
X145476823Y-89707979D02*
X146701823Y-89707979D01*
X139013984Y-94245140D02*
X140051145Y-93207979D01*
X128621000Y-102844678D02*
X128395678Y-103070000D01*
X140051145Y-93207979D02*
X141476823Y-93207979D01*
X127430000Y-103070000D02*
X128095000Y-103070000D01*
X133145000Y-92707979D02*
X133145000Y-93820000D01*
X128395678Y-103070000D02*
X128095000Y-103070000D01*
X133076823Y-91257979D02*
X133076823Y-92621625D01*
X133145000Y-93820000D02*
X133145000Y-94345000D01*
X128983979Y-94345000D02*
X128621000Y-94707979D01*
D46*
%TO.N,CSI_DATA_P1*%
X151391823Y-109998737D02*
X151391823Y-110025000D01*
X152691823Y-110100000D02*
X152691823Y-110500000D01*
X151966823Y-109523737D02*
X151866823Y-109523737D01*
X153916823Y-110676263D02*
X153816823Y-110676263D01*
X152441823Y-110500000D02*
X152441823Y-110025000D01*
X152691823Y-110500000D02*
X152691823Y-110601263D01*
X153991823Y-110575000D02*
X153991823Y-110601263D01*
X155927938Y-109860000D02*
X155927938Y-109816851D01*
X153266823Y-109523737D02*
X153166823Y-109523737D01*
X135595000Y-103570000D02*
X135620000Y-103595000D01*
X152691823Y-109998737D02*
X152691823Y-110100000D01*
X165526823Y-110100000D02*
X156167938Y-110100000D01*
X135595000Y-105543312D02*
X135595000Y-103570000D01*
X165626823Y-110000000D02*
X165526823Y-110100000D01*
X152441823Y-110025000D02*
X152441823Y-109998737D01*
X155087938Y-110100000D02*
X154967938Y-110100000D01*
X150476823Y-110100000D02*
X140151688Y-110100000D01*
X155327938Y-109816851D02*
X155327938Y-109860000D01*
X140151688Y-110100000D02*
X135595000Y-105543312D01*
X152441823Y-110601263D02*
X152441823Y-110500000D01*
X153741823Y-110575000D02*
X153741823Y-110100000D01*
X154967938Y-110100000D02*
X154466823Y-110100000D01*
X153741823Y-110601263D02*
X153741823Y-110575000D01*
X153741823Y-110100000D02*
X153741823Y-109998737D01*
X152616823Y-110676263D02*
X152516823Y-110676263D01*
X155687938Y-109576851D02*
X155567938Y-109576851D01*
X151216823Y-110100000D02*
X150476823Y-110100000D01*
X151316823Y-110100000D02*
X151216823Y-110100000D01*
X153741823Y-109998737D02*
G75*
G03*
X153266823Y-109523677I-475023J37D01*
G01*
X151866823Y-109523737D02*
G75*
G03*
X151391837Y-109998737I-23J-474963D01*
G01*
X152441823Y-109998737D02*
G75*
G03*
X151966823Y-109523677I-475023J37D01*
G01*
X155327938Y-109860000D02*
G75*
G02*
X155087938Y-110100038I-240038J0D01*
G01*
X152691823Y-110601263D02*
G75*
G02*
X152616823Y-110676323I-75023J-37D01*
G01*
X156167938Y-110100000D02*
G75*
G02*
X155927900Y-109860000I-38J240000D01*
G01*
X153991823Y-110601263D02*
G75*
G02*
X153916823Y-110676323I-75023J-37D01*
G01*
X151391823Y-110025000D02*
G75*
G02*
X151316823Y-110100023I-75023J0D01*
G01*
X155927938Y-109816851D02*
G75*
G03*
X155687938Y-109576762I-240038J51D01*
G01*
X154466823Y-110100000D02*
G75*
G03*
X153991800Y-110575000I-23J-475000D01*
G01*
X153166823Y-109523737D02*
G75*
G03*
X152691837Y-109998737I-23J-474963D01*
G01*
X155567938Y-109576851D02*
G75*
G03*
X155327951Y-109816851I-38J-239949D01*
G01*
X152516823Y-110676263D02*
G75*
G02*
X152441837Y-110601263I-23J74963D01*
G01*
X153816823Y-110676263D02*
G75*
G02*
X153741837Y-110601263I-23J74963D01*
G01*
%TO.N,CSI_DATA_N1*%
X165626823Y-110500000D02*
X154466823Y-110500000D01*
X150476823Y-110500000D02*
X139986000Y-110500000D01*
X152041823Y-110601263D02*
X152041823Y-110500000D01*
X151966823Y-109923737D02*
X151866823Y-109923737D01*
X152041823Y-110025000D02*
X152041823Y-109998737D01*
X154391823Y-110575000D02*
X154391823Y-110601263D01*
X151791823Y-109998737D02*
X151791823Y-110025000D01*
X153091823Y-110100000D02*
X153091823Y-110500000D01*
X153916823Y-111076263D02*
X153816823Y-111076263D01*
X152041823Y-110500000D02*
X152041823Y-110025000D01*
X153341823Y-110575000D02*
X153341823Y-110100000D01*
X135245000Y-105759000D02*
X135245000Y-103570000D01*
X135245000Y-103570000D02*
X135220000Y-103595000D01*
X152616823Y-111076263D02*
X152516823Y-111076263D01*
X153341823Y-110601263D02*
X153341823Y-110575000D01*
X151216823Y-110500000D02*
X150476823Y-110500000D01*
X153091823Y-109998737D02*
X153091823Y-110100000D01*
X139986000Y-110500000D02*
X135245000Y-105759000D01*
X153091823Y-110500000D02*
X153091823Y-110601263D01*
X151316823Y-110500000D02*
X151216823Y-110500000D01*
X153341823Y-110100000D02*
X153341823Y-109998737D01*
X153266823Y-109923737D02*
X153166823Y-109923737D01*
X153091823Y-110601263D02*
G75*
G02*
X152616823Y-111076323I-475023J-37D01*
G01*
X154466823Y-110500000D02*
G75*
G03*
X154391800Y-110575000I-23J-75000D01*
G01*
X151791823Y-110025000D02*
G75*
G02*
X151316823Y-110500023I-475023J0D01*
G01*
X151866823Y-109923737D02*
G75*
G03*
X151791837Y-109998737I-23J-74963D01*
G01*
X153166823Y-109923737D02*
G75*
G03*
X153091837Y-109998737I-23J-74963D01*
G01*
X154391823Y-110601263D02*
G75*
G02*
X153916823Y-111076323I-475023J-37D01*
G01*
X152516823Y-111076263D02*
G75*
G02*
X152041837Y-110601263I-23J474963D01*
G01*
X153816823Y-111076263D02*
G75*
G02*
X153341837Y-110601263I-23J474963D01*
G01*
X152041823Y-109998737D02*
G75*
G03*
X151966823Y-109923677I-75023J37D01*
G01*
X153341823Y-109998737D02*
G75*
G03*
X153266823Y-109923677I-75023J37D01*
G01*
%TO.N,CSI_CLK_N*%
X165626823Y-109000000D02*
X165601824Y-108975001D01*
X140151822Y-108975001D02*
X139976823Y-109150000D01*
X150925129Y-108975001D02*
X150506823Y-108975001D01*
X150506823Y-108975001D02*
X149653096Y-108975001D01*
X152135129Y-108183307D02*
X151716823Y-108183307D01*
X134870000Y-105389468D02*
X134870000Y-105314802D01*
X149653096Y-108975001D02*
X140151822Y-108975001D01*
X165601824Y-108975001D02*
X152926823Y-108975001D01*
X134971000Y-105213802D02*
X134971000Y-103646000D01*
X134971000Y-103646000D02*
X134895000Y-103570000D01*
X134870000Y-105314802D02*
X134971000Y-105213802D01*
X152926823Y-108975001D02*
G75*
G02*
X152305999Y-108354153I-23J620801D01*
G01*
X151716823Y-108183307D02*
G75*
G03*
X151545907Y-108354153I-23J-170893D01*
G01*
X152305975Y-108354153D02*
G75*
G03*
X152135129Y-108183325I-170875J-47D01*
G01*
X151545977Y-108354153D02*
G75*
G02*
X150925129Y-108975077I-620877J-47D01*
G01*
D45*
%TO.N,CAM_GPIO1*%
X152476823Y-107207979D02*
X152768844Y-107500000D01*
X137845000Y-101670000D02*
X138513166Y-101670000D01*
X139263984Y-102420818D02*
X139551145Y-102707979D01*
X139551145Y-102707979D02*
X139976823Y-102707979D01*
X138513166Y-101670000D02*
X139263984Y-102420818D01*
X152768844Y-107500000D02*
X165626823Y-107500000D01*
D46*
%TO.N,CSI_DATA_N0*%
X133845000Y-103570000D02*
X133820000Y-103595000D01*
X139986000Y-112000000D02*
X151177763Y-112000000D01*
X133820000Y-103595000D02*
X133820000Y-105834000D01*
X151913763Y-113002924D02*
X152097763Y-113002924D01*
X151345763Y-112168000D02*
X151345763Y-112434924D01*
X154343651Y-112000000D02*
X165626823Y-112000000D01*
X152833763Y-112000000D02*
X153017763Y-112000000D01*
X133820000Y-105834000D02*
X139986000Y-112000000D01*
X152665763Y-112434924D02*
X152665763Y-112168000D01*
X153017763Y-112000000D02*
X154343651Y-112000000D01*
X151177763Y-112000000D02*
G75*
G02*
X151345800Y-112168000I37J-168000D01*
G01*
X152097763Y-113002924D02*
G75*
G03*
X152665824Y-112434924I37J568024D01*
G01*
X151345763Y-112434924D02*
G75*
G03*
X151913763Y-113002937I568037J24D01*
G01*
X152665763Y-112168000D02*
G75*
G02*
X152833763Y-111999963I168037J0D01*
G01*
D45*
%TO.N,CAM_GPIO0*%
X138588844Y-101320000D02*
X139476823Y-102207979D01*
X153048948Y-107027212D02*
X153076160Y-107000000D01*
X153076160Y-107000000D02*
X165626823Y-107000000D01*
X139476823Y-102207979D02*
X140476823Y-102207979D01*
X137845000Y-101320000D02*
X138588844Y-101320000D01*
D46*
%TO.N,CSI_CLK_P*%
X134545000Y-104863155D02*
X134545000Y-103570000D01*
X152135129Y-107733305D02*
X151716823Y-107733305D01*
X154555641Y-108524999D02*
X153627369Y-108524999D01*
X153627369Y-108524999D02*
X152926823Y-108524999D01*
X140151822Y-108524999D02*
X139976823Y-108350000D01*
X134595000Y-104913155D02*
X134545000Y-104863155D01*
X165601824Y-108524999D02*
X155615641Y-108524999D01*
X150925129Y-108524999D02*
X150506823Y-108524999D01*
X150506823Y-108524999D02*
X149653096Y-108524999D01*
X149653096Y-108524999D02*
X140151822Y-108524999D01*
X155387511Y-108296869D02*
X155085641Y-108296869D01*
X154857511Y-108524999D02*
X154555641Y-108524999D01*
X165626823Y-108500000D02*
X165601824Y-108524999D01*
X155085641Y-108296869D02*
G75*
G03*
X154971569Y-108410934I-41J-114031D01*
G01*
X152755977Y-108354153D02*
G75*
G03*
X152135129Y-107733323I-620877J-47D01*
G01*
X152926823Y-108524999D02*
G75*
G02*
X152756001Y-108354153I-23J170799D01*
G01*
X154971576Y-108410934D02*
G75*
G02*
X154857511Y-108524976I-114076J34D01*
G01*
X155615641Y-108524999D02*
G75*
G02*
X155501501Y-108410934I-41J114099D01*
G01*
X155501576Y-108410934D02*
G75*
G03*
X155387511Y-108296824I-114076J34D01*
G01*
X151716823Y-107733305D02*
G75*
G03*
X151095905Y-108354153I-23J-620895D01*
G01*
X151095975Y-108354153D02*
G75*
G02*
X150925129Y-108525075I-170875J-47D01*
G01*
%TO.N,CSI_DATA_P0*%
X152833763Y-111600000D02*
X153017763Y-111600000D01*
X153017763Y-111600000D02*
X154343651Y-111600000D01*
X165526823Y-111600000D02*
X156499317Y-111600000D01*
X155659317Y-111306348D02*
X155659317Y-111360000D01*
X155299317Y-111600000D02*
X154343651Y-111600000D01*
X134195000Y-103570000D02*
X134220000Y-103595000D01*
X156259317Y-111360000D02*
X156259317Y-111306348D01*
X151913763Y-112602924D02*
X152097763Y-112602924D01*
X140151688Y-111600000D02*
X151177763Y-111600000D01*
X151745763Y-112168000D02*
X151745763Y-112434924D01*
X134220000Y-105668312D02*
X140151688Y-111600000D01*
X152265763Y-112434924D02*
X152265763Y-112168000D01*
X156019317Y-111066348D02*
X155899317Y-111066348D01*
X134220000Y-103595000D02*
X134220000Y-105668312D01*
X155419317Y-111600000D02*
X155299317Y-111600000D01*
X165626823Y-111500000D02*
X165526823Y-111600000D01*
X156259317Y-111306348D02*
G75*
G03*
X156019317Y-111066283I-240017J48D01*
G01*
X156499317Y-111600000D02*
G75*
G02*
X156259300Y-111360000I-17J240000D01*
G01*
X151177763Y-111600000D02*
G75*
G02*
X151745800Y-112168000I37J-568000D01*
G01*
X152265763Y-112168000D02*
G75*
G02*
X152833763Y-111599963I568037J0D01*
G01*
X152097763Y-112602924D02*
G75*
G03*
X152265824Y-112434924I37J168024D01*
G01*
X155659317Y-111360000D02*
G75*
G02*
X155419317Y-111600017I-240017J0D01*
G01*
X155899317Y-111066348D02*
G75*
G03*
X155659348Y-111306348I-17J-239952D01*
G01*
X151745763Y-112434924D02*
G75*
G03*
X151913763Y-112602937I168037J24D01*
G01*
D45*
%TO.N,Net-(ESP32_P4-DSI_REXT)*%
X131045000Y-103570000D02*
X131045000Y-112489802D01*
X131045000Y-112489802D02*
X128276823Y-115257979D01*
X128276823Y-115257979D02*
X128276823Y-115582979D01*
%TO.N,Net-(ESP32_P4-CSI_REXT)*%
X135945000Y-103045000D02*
X135796554Y-102896554D01*
X135945000Y-103570000D02*
X135945000Y-103045000D01*
X135796554Y-102896554D02*
X135557631Y-102896554D01*
%TO.N,Net-(ESD_PROT1-I{slash}O1)*%
X158976823Y-96457979D02*
X190566823Y-96457979D01*
%TO.N,+5V*%
X162676823Y-92807979D02*
X161576823Y-91707979D01*
%TD*%
%TA.AperFunction,Conductor*%
%TO.N,GND*%
G36*
X135536558Y-95877404D02*
G01*
X135580905Y-95905905D01*
X135759095Y-96084095D01*
X135792580Y-96145418D01*
X135787596Y-96215110D01*
X135759095Y-96259457D01*
X134673552Y-97345000D01*
X135759095Y-98430543D01*
X135792580Y-98491866D01*
X135787596Y-98561558D01*
X135759095Y-98605905D01*
X135670000Y-98695000D01*
X135759095Y-98784095D01*
X135792580Y-98845418D01*
X135787596Y-98915110D01*
X135759095Y-98959457D01*
X134673552Y-100045000D01*
X135759095Y-101130543D01*
X135792580Y-101191866D01*
X135787596Y-101261558D01*
X135759095Y-101305905D01*
X135580905Y-101484095D01*
X135519582Y-101517580D01*
X135449890Y-101512596D01*
X135405543Y-101484095D01*
X134320000Y-100398552D01*
X133234457Y-101484095D01*
X133173134Y-101517580D01*
X133103442Y-101512596D01*
X133059095Y-101484095D01*
X132970000Y-101395000D01*
X132880905Y-101484095D01*
X132819582Y-101517580D01*
X132749890Y-101512596D01*
X132705543Y-101484095D01*
X131620000Y-100398552D01*
X130534457Y-101484095D01*
X130473134Y-101517580D01*
X130403442Y-101512596D01*
X130359095Y-101484095D01*
X130180905Y-101305905D01*
X130147420Y-101244582D01*
X130152404Y-101174890D01*
X130180905Y-101130543D01*
X131266448Y-100045000D01*
X131973552Y-100045000D01*
X132970000Y-101041448D01*
X133966448Y-100045000D01*
X132970000Y-99048552D01*
X131973552Y-100045000D01*
X131266448Y-100045000D01*
X130180905Y-98959457D01*
X130147420Y-98898134D01*
X130152404Y-98828442D01*
X130180905Y-98784095D01*
X130270000Y-98695000D01*
X130623552Y-98695000D01*
X131620000Y-99691448D01*
X132616448Y-98695000D01*
X133323552Y-98695000D01*
X134320000Y-99691448D01*
X135316448Y-98695000D01*
X134320000Y-97698552D01*
X133323552Y-98695000D01*
X132616448Y-98695000D01*
X131620000Y-97698552D01*
X130623552Y-98695000D01*
X130270000Y-98695000D01*
X130180905Y-98605905D01*
X130147420Y-98544582D01*
X130152404Y-98474890D01*
X130180905Y-98430543D01*
X131266448Y-97345000D01*
X131973552Y-97345000D01*
X132970000Y-98341448D01*
X133966448Y-97345000D01*
X132970000Y-96348552D01*
X131973552Y-97345000D01*
X131266448Y-97345000D01*
X130180905Y-96259457D01*
X130147420Y-96198134D01*
X130152404Y-96128442D01*
X130180905Y-96084095D01*
X130359095Y-95905905D01*
X130420418Y-95872420D01*
X130490110Y-95877404D01*
X130534457Y-95905905D01*
X131620000Y-96991448D01*
X132705543Y-95905905D01*
X132766866Y-95872420D01*
X132836558Y-95877404D01*
X132880905Y-95905905D01*
X132970000Y-95995000D01*
X133059095Y-95905905D01*
X133120418Y-95872420D01*
X133190110Y-95877404D01*
X133234457Y-95905905D01*
X134320000Y-96991448D01*
X135405543Y-95905905D01*
X135466866Y-95872420D01*
X135536558Y-95877404D01*
G37*
%TD.AperFunction*%
%TD*%
M02*
